<?plantuml 1.2026.2beta3?><svg xmlns="http://www.w3.org/2000/svg" xmlns:xlink="http://www.w3.org/1999/xlink" contentStyleType="text/css" data-diagram-type="CLASS" height="1082px" preserveAspectRatio="none" style="width:1440px;height:1082px;background:#FFFFFF;" version="1.1" viewBox="0 0 1440 1082" width="1440px" zoomAndPan="magnify"><title>P300 Trial Behaviours</title><defs/><g><g class="title" data-source-line="2"><text fill="#000000" font-family="Verdana" font-size="22" font-weight="bold" lengthAdjust="spacing" textLength="271.9492" x="579.7954" y="35.4209">P300 Trial Behaviours</text></g><!--cluster Stimulus--><g class="cluster" data-qualified-name="Stimulus" data-source-line="4" id="ent0002"><path d="M1039.5,311.6094 L1109.7275,311.6094 A3.75,3.75 0 0 1 1112.2275,314.1094 L1119.2275,333.9063 L1412.5,333.9063 A2.5,2.5 0 0 1 1415,336.4063 L1415,685.1094 A2.5,2.5 0 0 1 1412.5,687.6094 L1039.5,687.6094 A2.5,2.5 0 0 1 1037,685.1094 L1037,314.1094 A2.5,2.5 0 0 1 1039.5,311.6094" fill="#FFFFFF" style="stroke:#000000;stroke-width:1;"/><line style="stroke:#000000;stroke-width:1;" x1="1037" x2="1119.2275" y1="333.9063" y2="333.9063"/><text fill="#000000" font-family="Verdana" font-size="14" font-weight="bold" lengthAdjust="spacing" textLength="69.2275" x="1041" y="326.6045">Stimulus</text></g><!--cluster Presentation--><g class="cluster" data-qualified-name="Stimulus.Presentation" data-source-line="25" id="ent0016"><path d="M1063.5,354.6094 L1166.1709,354.6094 A3.75,3.75 0 0 1 1168.6709,357.1094 L1175.6709,376.9063 L1388.5,376.9063 A2.5,2.5 0 0 1 1391,379.4063 L1391,528.1094 A2.5,2.5 0 0 1 1388.5,530.6094 L1063.5,530.6094 A2.5,2.5 0 0 1 1061,528.1094 L1061,357.1094 A2.5,2.5 0 0 1 1063.5,354.6094" fill="#FFFFFF" style="stroke:#000000;stroke-width:1;"/><line style="stroke:#000000;stroke-width:1;" x1="1061" x2="1175.6709" y1="376.9063" y2="376.9063"/><text fill="#000000" font-family="Verdana" font-size="14" font-weight="bold" lengthAdjust="spacing" textLength="101.6709" x="1065" y="369.6045">Presentation</text></g><!--cluster Standard--><g class="cluster" data-qualified-name="Stimulus.Presentation.Standard" data-source-line="5" id="ent0003"><path d="M1087.5,397.6094 L1161.084,397.6094 A3.75,3.75 0 0 1 1163.584,400.1094 L1170.584,419.9063 L1364.5,419.9063 A2.5,2.5 0 0 1 1367,422.4063 L1367,504.1094 A2.5,2.5 0 0 1 1364.5,506.6094 L1087.5,506.6094 A2.5,2.5 0 0 1 1085,504.1094 L1085,400.1094 A2.5,2.5 0 0 1 1087.5,397.6094" fill="#FFFFFF" style="stroke:#000000;stroke-width:1;"/><line style="stroke:#000000;stroke-width:1;" x1="1085" x2="1170.584" y1="419.9063" y2="419.9063"/><text fill="#000000" font-family="Verdana" font-size="14" font-weight="bold" lengthAdjust="spacing" textLength="72.584" x="1089" y="412.6045">Standard</text></g><!--cluster Collections--><g class="cluster" data-qualified-name="Stimulus.Collections" data-source-line="9" id="ent0005"><path d="M1120.5,554.6094 L1208.1934,554.6094 A3.75,3.75 0 0 1 1210.6934,557.1094 L1217.6934,576.9063 L1369.5,576.9063 A2.5,2.5 0 0 1 1372,579.4063 L1372,661.1094 A2.5,2.5 0 0 1 1369.5,663.6094 L1120.5,663.6094 A2.5,2.5 0 0 1 1118,661.1094 L1118,557.1094 A2.5,2.5 0 0 1 1120.5,554.6094" fill="#FFFFFF" style="stroke:#000000;stroke-width:1;"/><line style="stroke:#000000;stroke-width:1;" x1="1118" x2="1217.6934" y1="576.9063" y2="576.9063"/><text fill="#000000" font-family="Verdana" font-size="14" font-weight="bold" lengthAdjust="spacing" textLength="86.6934" x="1122" y="569.6045">Collections</text></g><!--cluster Utilities--><g class="cluster" data-qualified-name="Utilities" data-source-line="16" id="ent0009"><path d="M376.5,848.9094 L439.2764,848.9094 A3.75,3.75 0 0 1 441.7764,851.4094 L448.7764,871.2063 L818.5,871.2063 A2.5,2.5 0 0 1 821,873.7063 L821,1073.4094 A2.5,2.5 0 0 1 818.5,1075.9094 L376.5,1075.9094 A2.5,2.5 0 0 1 374,1073.4094 L374,851.4094 A2.5,2.5 0 0 1 376.5,848.9094" fill="#FFFFFF" style="stroke:#000000;stroke-width:1;"/><line style="stroke:#000000;stroke-width:1;" x1="374" x2="448.7764" y1="871.2063" y2="871.2063"/><text fill="#000000" font-family="Verdana" font-size="14" font-weight="bold" lengthAdjust="spacing" textLength="61.7764" x="378" y="863.9045">Utilities</text></g><!--cluster Behaviours--><g class="cluster" data-qualified-name="Behaviours" data-source-line="25" id="ent0017"><path d="M13.5,57.6094 L102.8271,57.6094 A3.75,3.75 0 0 1 105.3271,60.1094 L112.3271,79.9063 L1010.5,79.9063 A2.5,2.5 0 0 1 1013,82.4063 L1013,822.4094 A2.5,2.5 0 0 1 1010.5,824.9094 L13.5,824.9094 A2.5,2.5 0 0 1 11,822.4094 L11,60.1094 A2.5,2.5 0 0 1 13.5,57.6094" fill="#FFFFFF" style="stroke:#000000;stroke-width:1;"/><line style="stroke:#000000;stroke-width:1;" x1="11" x2="112.3271" y1="79.9063" y2="79.9063"/><text fill="#000000" font-family="Verdana" font-size="14" font-weight="bold" lengthAdjust="spacing" textLength="88.3271" x="15" y="72.6045">Behaviours</text></g><!--cluster Trialing--><g class="cluster" data-qualified-name="Behaviours.Trialing" data-source-line="25" id="ent0018"><path d="M37.5,100.6094 L98.7861,100.6094 A3.75,3.75 0 0 1 101.2861,103.1094 L108.2861,122.9063 L986.5,122.9063 A2.5,2.5 0 0 1 989,125.4063 L989,798.4094 A2.5,2.5 0 0 1 986.5,800.9094 L37.5,800.9094 A2.5,2.5 0 0 1 35,798.4094 L35,103.1094 A2.5,2.5 0 0 1 37.5,100.6094" fill="#FFFFFF" style="stroke:#000000;stroke-width:1;"/><line style="stroke:#000000;stroke-width:1;" x1="35" x2="108.2861" y1="122.9063" y2="122.9063"/><text fill="#000000" font-family="Verdana" font-size="14" font-weight="bold" lengthAdjust="spacing" textLength="60.2861" x="39" y="115.6045">Trialing</text></g><!--cluster P300--><g class="cluster" data-qualified-name="Behaviours.Trialing.P300" data-source-line="24" id="ent0014"><path d="M61.5,143.6094 L101.9844,143.6094 A3.75,3.75 0 0 1 104.4844,146.1094 L111.4844,165.9063 L962.5,165.9063 A2.5,2.5 0 0 1 965,168.4063 L965,774.4094 A2.5,2.5 0 0 1 962.5,776.9094 L61.5,776.9094 A2.5,2.5 0 0 1 59,774.4094 L59,146.1094 A2.5,2.5 0 0 1 61.5,143.6094" fill="#FFFFFF" style="stroke:#000000;stroke-width:1;"/><line style="stroke:#000000;stroke-width:1;" x1="59" x2="111.4844" y1="165.9063" y2="165.9063"/><text fill="#000000" font-family="Verdana" font-size="14" font-weight="bold" lengthAdjust="spacing" textLength="39.4844" x="63" y="158.6045">P300</text></g><!--entity presenter--><g class="entity" data-qualified-name="Stimulus.Presentation.Standard.presenter" data-source-line="6" id="ent0004"><ellipse cx="1226" cy="461.6094" fill="#FFFFFF" rx="8" ry="8" style="stroke:#000000;stroke-width:1;"/><text fill="#000000" font-family="Verdana" font-size="14" lengthAdjust="spacing" textLength="234.4521" x="1108.7739" y="491.6045">Colour Toggle Stimulus Presenter</text></g><!--entity collection--><g class="entity" data-qualified-name="Stimulus.Collections.collection" data-source-line="10" id="ent0006"><ellipse cx="1245" cy="618.6094" fill="#FFFFFF" rx="8" ry="8" style="stroke:#000000;stroke-width:1;"/><text fill="#000000" font-family="Verdana" font-size="14" lengthAdjust="spacing" textLength="206.4316" x="1141.7842" y="648.6045">Stimulus Presenter Collection</text></g><!--entity bw_matrix--><g class="entity" data-qualified-name="Utilities.bw_matrix" data-source-line="17" id="ent0010"><ellipse cx="492" cy="912.9094" fill="#FFFFFF" rx="8" ry="8" style="stroke:#000000;stroke-width:1;"/><text fill="#000000" font-family="Verdana" font-size="14" lengthAdjust="spacing" textLength="188.4395" x="397.7803" y="942.9045">Black White Matrix Factory</text></g><!--entity context--><g class="entity" data-qualified-name="Utilities.context" data-source-line="18" id="ent0011"><ellipse cx="717" cy="912.9094" fill="#FFFFFF" rx="8" ry="8" style="stroke:#000000;stroke-width:1;"/><text fill="#000000" font-family="Verdana" font-size="14" lengthAdjust="spacing" textLength="160.6582" x="636.6709" y="942.9045">Context Aware Utilities</text></g><!--entity arrays--><g class="entity" data-qualified-name="Utilities.arrays" data-source-line="19" id="ent0012"><ellipse cx="717" cy="1030.9094" fill="#FFFFFF" rx="8" ry="8" style="stroke:#000000;stroke-width:1;"/><text fill="#000000" font-family="Verdana" font-size="14" lengthAdjust="spacing" textLength="95.0947" x="669.4526" y="1060.9045">Array Utilities</text></g><!--class P300TrialBehaviour--><g class="entity" data-qualified-name="Behaviours.Trialing.P300.P300TrialBehaviour" data-source-line="25" id="ent0015"><rect fill="#FFFFFF" height="109.1875" rx="2.5" ry="2.5" style="stroke:#000000;stroke-width:1;" width="350.6797" x="591" y="182.6094"/><ellipse cx="694.1553" cy="196.6094" fill="#FFFFFF" rx="9" ry="9" style="stroke:#000000;stroke-width:1;"/><path d="M694.2646,191.9531 L693.1084,197.0313 L695.4365,197.0313 L694.2646,191.9531 Z M692.7803,189.7188 L695.7646,189.7188 L699.124,202.1094 L696.6709,202.1094 L695.9053,199.0469 L692.624,199.0469 L691.874,202.1094 L689.4365,202.1094 L692.7803,189.7188 Z " fill="#000000"/><text fill="#000000" font-family="Verdana" font-size="14" font-style="italic" lengthAdjust="spacing" textLength="136.8691" x="711.6553" y="201.4561">P300TrialBehaviour</text><line style="stroke:#000000;stroke-width:1;" x1="592" x2="940.6797" y1="210.6094" y2="210.6094"/><text fill="#000000" font-family="Verdana" font-size="14" lengthAdjust="spacing" textLength="338.6797" x="597" y="227.6045">StimulusPresenterCollection PresenterCollection</text><text fill="#000000" font-family="Verdana" font-size="14" lengthAdjust="spacing" textLength="144.833" x="597" y="243.9014">int FlashesPerOption</text><text fill="#000000" font-family="Verdana" font-size="14" lengthAdjust="spacing" textLength="90.4873" x="597" y="260.1982">float OnTime</text><text fill="#000000" font-family="Verdana" font-size="14" lengthAdjust="spacing" textLength="91.4717" x="597" y="276.4951">float OffTime</text><line style="stroke:#000000;stroke-width:1;" x1="592" x2="940.6797" y1="283.7969" y2="283.7969"/></g><!--class SingleFlashTrialBehaviour--><g class="entity" data-qualified-name="Behaviours.Trialing.P300.SingleFlashTrialBehaviour" data-source-line="34" id="ent0021"><rect fill="#FFFFFF" height="44" rx="2.5" ry="2.5" style="stroke:#000000;stroke-width:1;" width="209.4326" x="690.28" y="439.6094"/><ellipse cx="703.28" cy="453.6094" fill="#FFFFFF" rx="9" ry="9" style="stroke:#000000;stroke-width:1;"/><path d="M706.2488,459.25 Q705.6706,459.5469 705.03,459.6875 Q704.3894,459.8438 703.6863,459.8438 Q701.1863,459.8438 699.8581,458.2031 Q698.5456,456.5469 698.5456,453.4219 Q698.5456,450.2969 699.8581,448.6406 Q701.1863,446.9844 703.6863,446.9844 Q704.3894,446.9844 705.03,447.1406 Q705.6863,447.2969 706.2488,447.5938 L706.2488,450.3125 Q705.6238,449.7344 705.03,449.4688 Q704.4363,449.1875 703.8113,449.1875 Q702.4675,449.1875 701.78,450.2656 Q701.0925,451.3281 701.0925,453.4219 Q701.0925,455.5156 701.78,456.5938 Q702.4675,457.6563 703.8113,457.6563 Q704.4363,457.6563 705.03,457.3906 Q705.6238,457.1094 706.2488,456.5313 L706.2488,459.25 Z " fill="#000000"/><text fill="#000000" font-family="Verdana" font-size="14" lengthAdjust="spacing" textLength="181.4326" x="715.28" y="458.4561">SingleFlashTrialBehaviour</text><line style="stroke:#000000;stroke-width:1;" x1="691.28" x2="898.7126" y1="467.6094" y2="467.6094"/><line style="stroke:#000000;stroke-width:1;" x1="691.28" x2="898.7126" y1="475.6094" y2="475.6094"/></g><!--class ContextAwareSingleFlashTrialBehaviour--><g class="entity" data-qualified-name="Behaviours.Trialing.P300.ContextAwareSingleFlashTrialBehaviour" data-source-line="36" id="ent0024"><rect fill="#FFFFFF" height="44" rx="2.5" ry="2.5" style="stroke:#000000;stroke-width:1;" width="308.499" x="640.75" y="596.6094"/><ellipse cx="653.75" cy="610.6094" fill="#FFFFFF" rx="9" ry="9" style="stroke:#000000;stroke-width:1;"/><path d="M656.7188,616.25 Q656.1406,616.5469 655.5,616.6875 Q654.8594,616.8438 654.1563,616.8438 Q651.6563,616.8438 650.3281,615.2031 Q649.0156,613.5469 649.0156,610.4219 Q649.0156,607.2969 650.3281,605.6406 Q651.6563,603.9844 654.1563,603.9844 Q654.8594,603.9844 655.5,604.1406 Q656.1563,604.2969 656.7188,604.5938 L656.7188,607.3125 Q656.0938,606.7344 655.5,606.4688 Q654.9063,606.1875 654.2813,606.1875 Q652.9375,606.1875 652.25,607.2656 Q651.5625,608.3281 651.5625,610.4219 Q651.5625,612.5156 652.25,613.5938 Q652.9375,614.6563 654.2813,614.6563 Q654.9063,614.6563 655.5,614.3906 Q656.0938,614.1094 656.7188,613.5313 L656.7188,616.25 Z " fill="#000000"/><text fill="#000000" font-family="Verdana" font-size="14" lengthAdjust="spacing" textLength="280.499" x="665.75" y="615.4561">ContextAwareSingleFlashTrialBehaviour</text><line style="stroke:#000000;stroke-width:1;" x1="641.75" x2="948.249" y1="624.6094" y2="624.6094"/><line style="stroke:#000000;stroke-width:1;" x1="641.75" x2="948.249" y1="632.6094" y2="632.6094"/></g><!--class MultiFlashTrialBehaviour--><g class="entity" data-qualified-name="Behaviours.Trialing.P300.MultiFlashTrialBehaviour" data-source-line="39" id="ent0027"><rect fill="#FFFFFF" height="44" rx="2.5" ry="2.5" style="stroke:#000000;stroke-width:1;" width="200.6143" x="355.69" y="439.6094"/><ellipse cx="368.69" cy="453.6094" fill="#FFFFFF" rx="9" ry="9" style="stroke:#000000;stroke-width:1;"/><path d="M368.7994,448.9531 L367.6431,454.0313 L369.9713,454.0313 L368.7994,448.9531 Z M367.315,446.7188 L370.2994,446.7188 L373.6588,459.1094 L371.2056,459.1094 L370.44,456.0469 L367.1588,456.0469 L366.4088,459.1094 L363.9713,459.1094 L367.315,446.7188 Z " fill="#000000"/><text fill="#000000" font-family="Verdana" font-size="14" font-style="italic" lengthAdjust="spacing" textLength="172.6143" x="380.69" y="458.4561">MultiFlashTrialBehaviour</text><line style="stroke:#000000;stroke-width:1;" x1="356.69" x2="555.3043" y1="467.6094" y2="467.6094"/><line style="stroke:#000000;stroke-width:1;" x1="356.69" x2="555.3043" y1="475.6094" y2="475.6094"/></g><!--class ContextAwareMultiFlashTrialBehaviour--><g class="entity" data-qualified-name="Behaviours.Trialing.P300.ContextAwareMultiFlashTrialBehaviour" data-source-line="40" id="ent0029"><rect fill="#FFFFFF" height="44" rx="2.5" ry="2.5" style="stroke:#000000;stroke-width:1;" width="299.6807" x="306.16" y="596.6094"/><ellipse cx="319.16" cy="610.6094" fill="#FFFFFF" rx="9" ry="9" style="stroke:#000000;stroke-width:1;"/><path d="M322.1288,616.25 Q321.5506,616.5469 320.91,616.6875 Q320.2694,616.8438 319.5663,616.8438 Q317.0663,616.8438 315.7381,615.2031 Q314.4256,613.5469 314.4256,610.4219 Q314.4256,607.2969 315.7381,605.6406 Q317.0663,603.9844 319.5663,603.9844 Q320.2694,603.9844 320.91,604.1406 Q321.5663,604.2969 322.1288,604.5938 L322.1288,607.3125 Q321.5038,606.7344 320.91,606.4688 Q320.3163,606.1875 319.6913,606.1875 Q318.3475,606.1875 317.66,607.2656 Q316.9725,608.3281 316.9725,610.4219 Q316.9725,612.5156 317.66,613.5938 Q318.3475,614.6563 319.6913,614.6563 Q320.3163,614.6563 320.91,614.3906 Q321.5038,614.1094 322.1288,613.5313 L322.1288,616.25 Z " fill="#000000"/><text fill="#000000" font-family="Verdana" font-size="14" lengthAdjust="spacing" textLength="271.6807" x="331.16" y="615.4561">ContextAwareMultiFlashTrialBehaviour</text><line style="stroke:#000000;stroke-width:1;" x1="307.16" x2="604.8407" y1="624.6094" y2="624.6094"/><line style="stroke:#000000;stroke-width:1;" x1="307.16" x2="604.8407" y1="632.6094" y2="632.6094"/></g><!--class GridFlashTrialBehaviour--><g class="entity" data-qualified-name="Behaviours.Trialing.P300.GridFlashTrialBehaviour" data-source-line="43" id="ent0032"><rect fill="#FFFFFF" height="76.5938" rx="2.5" ry="2.5" style="stroke:#000000;stroke-width:1;" width="195.7744" x="75.11" y="580.3194"/><ellipse cx="88.11" cy="594.3194" fill="#FFFFFF" rx="9" ry="9" style="stroke:#000000;stroke-width:1;"/><path d="M88.2194,589.6631 L87.0631,594.7413 L89.3913,594.7413 L88.2194,589.6631 Z M86.735,587.4288 L89.7194,587.4288 L93.0788,599.8194 L90.6256,599.8194 L89.86,596.7569 L86.5788,596.7569 L85.8288,599.8194 L83.3913,599.8194 L86.735,587.4288 Z " fill="#000000"/><text fill="#000000" font-family="Verdana" font-size="14" font-style="italic" lengthAdjust="spacing" textLength="167.7744" x="100.11" y="599.1661">GridFlashTrialBehaviour</text><line style="stroke:#000000;stroke-width:1;" x1="76.11" x2="269.8844" y1="608.3194" y2="608.3194"/><text fill="#000000" font-family="Verdana" font-size="14" lengthAdjust="spacing" textLength="59.7393" x="81.11" y="625.3145">int Rows</text><text fill="#000000" font-family="Verdana" font-size="14" lengthAdjust="spacing" textLength="83.6104" x="81.11" y="641.6114">int Columns</text><line style="stroke:#000000;stroke-width:1;" x1="76.11" x2="269.8844" y1="648.9131" y2="648.9131"/></g><!--class RowColumnFlashTrialBehaviour--><g class="entity" data-qualified-name="Behaviours.Trialing.P300.RowColumnFlashTrialBehaviour" data-source-line="47" id="ent0034"><rect fill="#FFFFFF" height="44" rx="2.5" ry="2.5" style="stroke:#000000;stroke-width:1;" width="249.751" x="75.12" y="716.9094"/><ellipse cx="88.12" cy="730.9094" fill="#FFFFFF" rx="9" ry="9" style="stroke:#000000;stroke-width:1;"/><path d="M91.0888,736.55 Q90.5106,736.8469 89.87,736.9875 Q89.2294,737.1438 88.5263,737.1438 Q86.0263,737.1438 84.6981,735.5031 Q83.3856,733.8469 83.3856,730.7219 Q83.3856,727.5969 84.6981,725.9406 Q86.0263,724.2844 88.5263,724.2844 Q89.2294,724.2844 89.87,724.4406 Q90.5263,724.5969 91.0888,724.8938 L91.0888,727.6125 Q90.4638,727.0344 89.87,726.7688 Q89.2763,726.4875 88.6513,726.4875 Q87.3075,726.4875 86.62,727.5656 Q85.9325,728.6281 85.9325,730.7219 Q85.9325,732.8156 86.62,733.8938 Q87.3075,734.9563 88.6513,734.9563 Q89.2763,734.9563 89.87,734.6906 Q90.4638,734.4094 91.0888,733.8313 L91.0888,736.55 Z " fill="#000000"/><text fill="#000000" font-family="Verdana" font-size="14" lengthAdjust="spacing" textLength="221.751" x="100.12" y="735.7561">RowColumnFlashTrialBehaviour</text><line style="stroke:#000000;stroke-width:1;" x1="76.12" x2="323.871" y1="744.9094" y2="744.9094"/><line style="stroke:#000000;stroke-width:1;" x1="76.12" x2="323.871" y1="752.9094" y2="752.9094"/></g><!--class CheckerboardFlashTrialBehaviour--><g class="entity" data-qualified-name="Behaviours.Trialing.P300.CheckerboardFlashTrialBehaviour" data-source-line="49" id="ent0037"><rect fill="#FFFFFF" height="44" rx="2.5" ry="2.5" style="stroke:#000000;stroke-width:1;" width="264.5029" x="359.75" y="716.9094"/><ellipse cx="372.75" cy="730.9094" fill="#FFFFFF" rx="9" ry="9" style="stroke:#000000;stroke-width:1;"/><path d="M375.7188,736.55 Q375.1406,736.8469 374.5,736.9875 Q373.8594,737.1438 373.1563,737.1438 Q370.6563,737.1438 369.3281,735.5031 Q368.0156,733.8469 368.0156,730.7219 Q368.0156,727.5969 369.3281,725.9406 Q370.6563,724.2844 373.1563,724.2844 Q373.8594,724.2844 374.5,724.4406 Q375.1563,724.5969 375.7188,724.8938 L375.7188,727.6125 Q375.0938,727.0344 374.5,726.7688 Q373.9063,726.4875 373.2813,726.4875 Q371.9375,726.4875 371.25,727.5656 Q370.5625,728.6281 370.5625,730.7219 Q370.5625,732.8156 371.25,733.8938 Q371.9375,734.9563 373.2813,734.9563 Q373.9063,734.9563 374.5,734.6906 Q375.0938,734.4094 375.7188,733.8313 L375.7188,736.55 Z " fill="#000000"/><text fill="#000000" font-family="Verdana" font-size="14" lengthAdjust="spacing" textLength="236.5029" x="384.75" y="735.7561">CheckerboardFlashTrialBehaviour</text><line style="stroke:#000000;stroke-width:1;" x1="360.75" x2="623.2529" y1="744.9094" y2="744.9094"/><line style="stroke:#000000;stroke-width:1;" x1="360.75" x2="623.2529" y1="752.9094" y2="752.9094"/></g><!--link presenter to collection--><g class="link" data-entity-1="ent0004" data-entity-2="ent0006" data-link-type="aggregation" data-source-line="13" id="lnk8"><path codeLine="13" d="M1226.97,470.5094 C1230.24,497.1594 1239.37,571.6485 1242.6,597.9985" fill="none" id="presenter-to-collection" style="stroke:#000000;stroke-width:1;stroke-dasharray:7,7;"/><polygon fill="none" points="1244.06,609.9094,1247.3003,603.4673,1242.6,597.9985,1239.3597,604.4406,1244.06,609.9094" style="stroke:#000000;stroke-width:1;"/></g><!--link context to arrays--><g class="link" data-entity-1="ent0011" data-entity-2="ent0012" data-link-type="dependency" data-source-line="21" id="lnk13"><path codeLine="21" d="M717,921.8794 C717,943.1794 717,995.1794 717,1016.1894" fill="none" id="context-to-arrays" style="stroke:#000000;stroke-width:1;"/><polygon fill="#000000" points="717,1022.1894,721,1013.1894,717,1017.1894,713,1013.1894,717,1022.1894" style="stroke:#000000;stroke-width:1;"/></g><!--link P300TrialBehaviour to collection--><g class="link" data-entity-1="ent0015" data-entity-2="ent0006" data-link-type="association" data-source-line="31" id="lnk19"><path codeLine="31" d="M942,222.1094 C1038.17,222.1094 1305.74,229.4894 1367,303.6094 C1433.54,384.1194 1416.9,446.8594 1367,538.6094 C1342.05,584.4994 1277.68,607.8294 1253.96,615.0794" fill="none" id="P300TrialBehaviour-collection" style="stroke:#000000;stroke-width:1;"/></g><!--link P300TrialBehaviour to presenter--><g class="link" data-entity-1="ent0015" data-entity-2="ent0004" data-link-type="dependency" data-source-line="32" id="lnk20"><path codeLine="32" d="M946.5,295.5094 C952.78,298.1394 958.97,300.8494 965,303.6094 C1069.79,351.6394 1180.4877,428.2458 1212.4877,450.9658" fill="none" id="P300TrialBehaviour-to-presenter" style="stroke:#000000;stroke-width:1;stroke-dasharray:7,7;"/><polygon fill="#000000" points="1217.38,454.4394,1212.3572,445.9675,1213.3031,451.5448,1207.7259,452.4906,1217.38,454.4394" style="stroke:#000000;stroke-width:1;"/></g><!--reverse link P300TrialBehaviour to SingleFlashTrialBehaviour--><g class="link" data-entity-1="ent0015" data-entity-2="ent0021" data-link-type="extension" data-source-line="34" id="lnk22"><path d="M775.7942,313.2587 C781.9142,360.2587 787.93,406.3594 792.21,439.1994" fill="none" id="P300TrialBehaviour-backto-SingleFlashTrialBehaviour" style="stroke:#000000;stroke-width:1;"/><polygon fill="none" points="773.47,295.4094,769.8444,314.0334,781.744,312.484,773.47,295.4094" style="stroke:#000000;stroke-width:1;"/></g><!--link SingleFlashTrialBehaviour to arrays--><g class="link" data-entity-1="ent0021" data-entity-2="ent0012" data-link-type="dependency" data-source-line="35" id="lnk23"><path codeLine="35" d="M882.38,484.0294 C914.72,496.6494 948.08,516.3094 967,546.6094 C1002.08,602.7794 984.31,631.6894 967,695.6094 C933.85,817.9994 905.03,845.2094 823,941.9094 C792.21,978.2094 750.2343,1007.9241 730.8443,1020.8341" fill="none" id="SingleFlashTrialBehaviour-to-arrays" style="stroke:#000000;stroke-width:1;"/><polygon fill="#000000" points="725.85,1024.1594,735.5582,1022.5011,730.0119,1021.3884,731.1246,1015.842,725.85,1024.1594" style="stroke:#000000;stroke-width:1;"/></g><!--reverse link SingleFlashTrialBehaviour to ContextAwareSingleFlashTrialBehaviour--><g class="link" data-entity-1="ent0021" data-entity-2="ent0024" data-link-type="extension" data-source-line="36" id="lnk25"><path d="M795,501.8394 C795,531.3594 795,566.4994 795,596.1494" fill="none" id="SingleFlashTrialBehaviour-backto-ContextAwareSingleFlashTrialBehaviour" style="stroke:#000000;stroke-width:1;"/><polygon fill="none" points="795,483.8394,789,501.8394,801,501.8394,795,483.8394" style="stroke:#000000;stroke-width:1;"/></g><!--link ContextAwareSingleFlashTrialBehaviour to context--><g class="link" data-entity-1="ent0024" data-entity-2="ent0011" data-link-type="dependency" data-source-line="37" id="lnk26"><path codeLine="37" d="M789.26,641.1094 C773.36,700.6994 730.7674,860.3323 720.6374,898.2823" fill="none" id="ContextAwareSingleFlashTrialBehaviour-to-context" style="stroke:#000000;stroke-width:1;"/><polygon fill="#000000" points="719.09,904.0794,725.2758,896.4154,720.3795,899.2485,717.5464,894.3522,719.09,904.0794" style="stroke:#000000;stroke-width:1;"/></g><!--reverse link P300TrialBehaviour to MultiFlashTrialBehaviour--><g class="link" data-entity-1="ent0015" data-entity-2="ent0027" data-link-type="extension" data-source-line="39" id="lnk28"><path d="M669.6373,305.9999 C602.2673,354.0899 527.04,408.8194 485.4,439.1594" fill="none" id="P300TrialBehaviour-backto-MultiFlashTrialBehaviour" style="stroke:#000000;stroke-width:1;"/><polygon fill="none" points="684.3,295.5594,666.1571,301.1123,673.1174,310.8874,684.3,295.5594" style="stroke:#000000;stroke-width:1;"/></g><!--reverse link MultiFlashTrialBehaviour to ContextAwareMultiFlashTrialBehaviour--><g class="link" data-entity-1="ent0027" data-entity-2="ent0029" data-link-type="extension" data-source-line="40" id="lnk30"><path d="M456,501.8394 C456,531.3594 456,566.4994 456,596.1494" fill="none" id="MultiFlashTrialBehaviour-backto-ContextAwareMultiFlashTrialBehaviour" style="stroke:#000000;stroke-width:1;"/><polygon fill="none" points="456,483.8394,450,501.8394,462,501.8394,456,483.8394" style="stroke:#000000;stroke-width:1;"/></g><!--link ContextAwareMultiFlashTrialBehaviour to context--><g class="link" data-entity-1="ent0029" data-entity-2="ent0011" data-link-type="dependency" data-source-line="41" id="lnk31"><path codeLine="41" d="M523.01,641.0594 C562.27,656.6294 610.23,681.2694 642,716.9094 C694.61,775.9394 711.172,869.8982 715.172,898.2582" fill="none" id="ContextAwareMultiFlashTrialBehaviour-to-context" style="stroke:#000000;stroke-width:1;"/><polygon fill="#000000" points="716.01,904.1994,718.7138,894.7289,715.3117,899.2484,710.7923,895.8462,716.01,904.1994" style="stroke:#000000;stroke-width:1;"/></g><!--reverse link MultiFlashTrialBehaviour to GridFlashTrialBehaviour--><g class="link" data-entity-1="ent0027" data-entity-2="ent0032" data-link-type="extension" data-source-line="44" id="lnk33"><path d="M394.6175,491.9202 C360.7075,508.3302 329.56,524.0494 289,546.6094 C270.33,556.9994 250.36,568.9194 232.35,579.9794" fill="none" id="MultiFlashTrialBehaviour-backto-GridFlashTrialBehaviour" style="stroke:#000000;stroke-width:1;"/><polygon fill="none" points="410.82,484.0794,392.0039,486.5194,397.2311,497.3211,410.82,484.0794" style="stroke:#000000;stroke-width:1;"/></g><!--reverse link GridFlashTrialBehaviour to RowColumnFlashTrialBehaviour--><g class="link" data-entity-1="ent0032" data-entity-2="ent0034" data-link-type="extension" data-source-line="47" id="lnk35"><path d="M185.6204,674.9192 C190.0904,694.5292 191.4,700.2094 195.15,716.6694" fill="none" id="GridFlashTrialBehaviour-backto-RowColumnFlashTrialBehaviour" style="stroke:#000000;stroke-width:1;"/><polygon fill="none" points="181.62,657.3694,179.7705,676.2527,191.4703,673.5857,181.62,657.3694" style="stroke:#000000;stroke-width:1;"/></g><!--link RowColumnFlashTrialBehaviour to arrays--><g class="link" data-entity-1="ent0034" data-entity-2="ent0012" data-link-type="dependency" data-source-line="48" id="lnk36"><path codeLine="48" d="M212.14,761.3894 C236.81,802.9894 296.94,894.5894 373,941.9094 C490.77,1015.1794 661.2567,1027.3459 702.2767,1029.2859" fill="none" id="RowColumnFlashTrialBehaviour-to-arrays" style="stroke:#000000;stroke-width:1;"/><polygon fill="#000000" points="708.27,1029.5694,699.469,1025.1487,703.2756,1029.3332,699.0911,1033.1397,708.27,1029.5694" style="stroke:#000000;stroke-width:1;"/></g><!--reverse link GridFlashTrialBehaviour to CheckerboardFlashTrialBehaviour--><g class="link" data-entity-1="ent0032" data-entity-2="ent0037" data-link-type="extension" data-source-line="49" id="lnk38"><path d="M236.2946,667.5309 C256.2546,681.4209 265.42,685.8494 289,695.6094 C311.12,704.7694 335.44,712.0294 359.34,717.7494" fill="none" id="GridFlashTrialBehaviour-backto-CheckerboardFlashTrialBehaviour" style="stroke:#000000;stroke-width:1;"/><polygon fill="none" points="221.52,657.2494,232.8675,672.4558,239.7218,662.606,221.52,657.2494" style="stroke:#000000;stroke-width:1;"/></g><!--link CheckerboardFlashTrialBehaviour to bw_matrix--><g class="link" data-entity-1="ent0037" data-entity-2="ent0010" data-link-type="dependency" data-source-line="50" id="lnk39"><path codeLine="50" d="M492,761.3494 C492,799.8894 492,873.2094 492,898.1894" fill="none" id="CheckerboardFlashTrialBehaviour-to-bw_matrix" style="stroke:#000000;stroke-width:1;"/><polygon fill="#000000" points="492,904.1894,496,895.1894,492,899.1894,488,895.1894,492,904.1894" style="stroke:#000000;stroke-width:1;"/></g><?plantuml-src dLHDQ-Cm4BtxLypc7b7eBOT2kz0zbOPDIezbuapYeR8K97dJKlBVLvQ_PCTkIdGmU3JptfkPP_zo6UK41uci4iTE4YnlRsvWRHWbF526_rWNnYQ9mfpi0LE2bUEya8M5hmJywIwMXYmfXuwr4Yk7QejcMsUL9sMJUeBPRoqz9gprVYyZkBgSp0pGmg5v2-MdPC3bCIIb9PCTOJZ7Z0e2VDg-nlXT5BGeH2JY54_WnR5anzHGDxGF4jDtUCtO4JoXC_m1ZvWwRJu3v-RubeTeqf-69_XmS7z44q7NAiDTB__U6FmSv64PiqqF5TvyVjV4U-AxfOgmPLPx4NPUzO8RwumN7NmG4jg2QD3DWDlvTkE5aLXRnyh1eqIRaLsIUJxqBdTIeuDdjUQSXi7ThesUmlDStc8nfcO-1z6e5P5hnC018-qASHVLZhfRT0wfXkzxix3oCvKK-Xn0-iMGsjeHjb0-NLXkKxHB5_LYEyhQHS54b-adCmBYpx06YXghzatqL4Z7LmpYlAcBI5C9PorD8lseep-6jzV8Y3wUyYFugu-s5_3MB79b8uTNC_29rTLtf1EY0iot01TjbL7wJcQZlTUl5N09Ow2X-qkU_WC0?></g></svg>