<?plantuml 1.2026.2beta3?><svg xmlns="http://www.w3.org/2000/svg" xmlns:xlink="http://www.w3.org/1999/xlink" contentStyleType="text/css" data-diagram-type="CLASS" height="964px" preserveAspectRatio="none" style="width:1426px;height:964px;background:#FFFFFF;" version="1.1" viewBox="0 0 1426 964" width="1426px" zoomAndPan="magnify"><title>P300 Trial Behaviours</title><defs/><g><g class="title" data-source-line="2"><text fill="#000000" font-family="Verdana" font-size="22" font-weight="bold" lengthAdjust="spacing" textLength="271.9492" x="572.6654" y="35.4209">P300 Trial Behaviours</text></g><!--cluster Stimulus--><g class="cluster" data-qualified-name="Stimulus" data-source-line="4" id="ent0002"><path d="M1039.5,311.6094 L1109.7275,311.6094 A3.75,3.75 0 0 1 1112.2275,314.1094 L1119.2275,333.9063 L1398.5,333.9063 A2.5,2.5 0 0 1 1401,336.4063 L1401,685.1094 A2.5,2.5 0 0 1 1398.5,687.6094 L1039.5,687.6094 A2.5,2.5 0 0 1 1037,685.1094 L1037,314.1094 A2.5,2.5 0 0 1 1039.5,311.6094" fill="#FFFFFF" style="stroke:#000000;stroke-width:1;"/><line style="stroke:#000000;stroke-width:1;" x1="1037" x2="1119.2275" y1="333.9063" y2="333.9063"/><text fill="#000000" font-family="Verdana" font-size="14" font-weight="bold" lengthAdjust="spacing" textLength="69.2275" x="1041" y="326.6045">Stimulus</text></g><!--cluster Presentation--><g class="cluster" data-qualified-name="Stimulus.Presentation" data-source-line="23" id="ent0015"><path d="M1063.5,354.6094 L1166.1709,354.6094 A3.75,3.75 0 0 1 1168.6709,357.1094 L1175.6709,376.9063 L1374.5,376.9063 A2.5,2.5 0 0 1 1377,379.4063 L1377,528.1094 A2.5,2.5 0 0 1 1374.5,530.6094 L1063.5,530.6094 A2.5,2.5 0 0 1 1061,528.1094 L1061,357.1094 A2.5,2.5 0 0 1 1063.5,354.6094" fill="#FFFFFF" style="stroke:#000000;stroke-width:1;"/><line style="stroke:#000000;stroke-width:1;" x1="1061" x2="1175.6709" y1="376.9063" y2="376.9063"/><text fill="#000000" font-family="Verdana" font-size="14" font-weight="bold" lengthAdjust="spacing" textLength="101.6709" x="1065" y="369.6045">Presentation</text></g><!--cluster Standard--><g class="cluster" data-qualified-name="Stimulus.Presentation.Standard" data-source-line="5" id="ent0003"><path d="M1087.5,397.6094 L1161.084,397.6094 A3.75,3.75 0 0 1 1163.584,400.1094 L1170.584,419.9063 L1350.5,419.9063 A2.5,2.5 0 0 1 1353,422.4063 L1353,504.1094 A2.5,2.5 0 0 1 1350.5,506.6094 L1087.5,506.6094 A2.5,2.5 0 0 1 1085,504.1094 L1085,400.1094 A2.5,2.5 0 0 1 1087.5,397.6094" fill="#FFFFFF" style="stroke:#000000;stroke-width:1;"/><line style="stroke:#000000;stroke-width:1;" x1="1085" x2="1170.584" y1="419.9063" y2="419.9063"/><text fill="#000000" font-family="Verdana" font-size="14" font-weight="bold" lengthAdjust="spacing" textLength="72.584" x="1089" y="412.6045">Standard</text></g><!--cluster Collections--><g class="cluster" data-qualified-name="Stimulus.Collections" data-source-line="9" id="ent0005"><path d="M1117.5,554.6094 L1205.1934,554.6094 A3.75,3.75 0 0 1 1207.6934,557.1094 L1214.6934,576.9063 L1356.5,576.9063 A2.5,2.5 0 0 1 1359,579.4063 L1359,661.1094 A2.5,2.5 0 0 1 1356.5,663.6094 L1117.5,663.6094 A2.5,2.5 0 0 1 1115,661.1094 L1115,557.1094 A2.5,2.5 0 0 1 1117.5,554.6094" fill="#FFFFFF" style="stroke:#000000;stroke-width:1;"/><line style="stroke:#000000;stroke-width:1;" x1="1115" x2="1214.6934" y1="576.9063" y2="576.9063"/><text fill="#000000" font-family="Verdana" font-size="14" font-weight="bold" lengthAdjust="spacing" textLength="86.6934" x="1119" y="569.6045">Collections</text></g><!--cluster Utilities--><g class="cluster" data-qualified-name="Utilities" data-source-line="16" id="ent0009"><path d="M212.5,848.9094 L275.2764,848.9094 A3.75,3.75 0 0 1 277.7764,851.4094 L284.7764,871.2063 L773.5,871.2063 A2.5,2.5 0 0 1 776,873.7063 L776,955.4094 A2.5,2.5 0 0 1 773.5,957.9094 L212.5,957.9094 A2.5,2.5 0 0 1 210,955.4094 L210,851.4094 A2.5,2.5 0 0 1 212.5,848.9094" fill="#FFFFFF" style="stroke:#000000;stroke-width:1;"/><line style="stroke:#000000;stroke-width:1;" x1="210" x2="284.7764" y1="871.2063" y2="871.2063"/><text fill="#000000" font-family="Verdana" font-size="14" font-weight="bold" lengthAdjust="spacing" textLength="61.7764" x="214" y="863.9045">Utilities</text></g><!--cluster Behaviours--><g class="cluster" data-qualified-name="Behaviours" data-source-line="23" id="ent0016"><path d="M13.5,57.6094 L102.8271,57.6094 A3.75,3.75 0 0 1 105.3271,60.1094 L112.3271,79.9063 L1010.5,79.9063 A2.5,2.5 0 0 1 1013,82.4063 L1013,822.4094 A2.5,2.5 0 0 1 1010.5,824.9094 L13.5,824.9094 A2.5,2.5 0 0 1 11,822.4094 L11,60.1094 A2.5,2.5 0 0 1 13.5,57.6094" fill="#FFFFFF" style="stroke:#000000;stroke-width:1;"/><line style="stroke:#000000;stroke-width:1;" x1="11" x2="112.3271" y1="79.9063" y2="79.9063"/><text fill="#000000" font-family="Verdana" font-size="14" font-weight="bold" lengthAdjust="spacing" textLength="88.3271" x="15" y="72.6045">Behaviours</text></g><!--cluster Trialing--><g class="cluster" data-qualified-name="Behaviours.Trialing" data-source-line="23" id="ent0017"><path d="M37.5,100.6094 L98.7861,100.6094 A3.75,3.75 0 0 1 101.2861,103.1094 L108.2861,122.9063 L986.5,122.9063 A2.5,2.5 0 0 1 989,125.4063 L989,798.4094 A2.5,2.5 0 0 1 986.5,800.9094 L37.5,800.9094 A2.5,2.5 0 0 1 35,798.4094 L35,103.1094 A2.5,2.5 0 0 1 37.5,100.6094" fill="#FFFFFF" style="stroke:#000000;stroke-width:1;"/><line style="stroke:#000000;stroke-width:1;" x1="35" x2="108.2861" y1="122.9063" y2="122.9063"/><text fill="#000000" font-family="Verdana" font-size="14" font-weight="bold" lengthAdjust="spacing" textLength="60.2861" x="39" y="115.6045">Trialing</text></g><!--cluster P300--><g class="cluster" data-qualified-name="Behaviours.Trialing.P300" data-source-line="22" id="ent0013"><path d="M61.5,143.6094 L101.9844,143.6094 A3.75,3.75 0 0 1 104.4844,146.1094 L111.4844,165.9063 L962.5,165.9063 A2.5,2.5 0 0 1 965,168.4063 L965,774.4094 A2.5,2.5 0 0 1 962.5,776.9094 L61.5,776.9094 A2.5,2.5 0 0 1 59,774.4094 L59,146.1094 A2.5,2.5 0 0 1 61.5,143.6094" fill="#FFFFFF" style="stroke:#000000;stroke-width:1;"/><line style="stroke:#000000;stroke-width:1;" x1="59" x2="111.4844" y1="165.9063" y2="165.9063"/><text fill="#000000" font-family="Verdana" font-size="14" font-weight="bold" lengthAdjust="spacing" textLength="39.4844" x="63" y="158.6045">P300</text></g><!--entity ColourToggleStimulusPresenter--><g class="entity" data-qualified-name="Stimulus.Presentation.Standard.ColourToggleStimulusPresenter" data-source-line="6" id="ent0004"><ellipse cx="1219" cy="461.6094" fill="#FFFFFF" rx="8" ry="8" style="stroke:#000000;stroke-width:1;"/><text fill="#000000" font-family="Verdana" font-size="14" lengthAdjust="spacing" textLength="221.1016" x="1108.4492" y="491.6045">ColourToggleStimulusPresenter</text></g><!--entity StimulusPresenterCollection--><g class="entity" data-qualified-name="Stimulus.Collections.StimulusPresenterCollection" data-source-line="10" id="ent0006"><ellipse cx="1237" cy="618.6094" fill="#FFFFFF" rx="8" ry="8" style="stroke:#000000;stroke-width:1;"/><text fill="#000000" font-family="Verdana" font-size="14" lengthAdjust="spacing" textLength="197.5313" x="1138.2344" y="648.6045">StimulusPresenterCollection</text></g><!--entity BlackWhiteMatrixFactory--><g class="entity" data-qualified-name="Utilities.BlackWhiteMatrixFactory" data-source-line="17" id="ent0010"><ellipse cx="321" cy="912.9094" fill="#FFFFFF" rx="8" ry="8" style="stroke:#000000;stroke-width:1;"/><text fill="#000000" font-family="Verdana" font-size="14" lengthAdjust="spacing" textLength="175.0889" x="233.4556" y="942.9045">BlackWhiteMatrixFactory</text></g><!--entity ContextAwareUtilities--><g class="entity" data-qualified-name="Utilities.ContextAwareUtilities" data-source-line="18" id="ent0011"><ellipse cx="677" cy="912.9094" fill="#FFFFFF" rx="8" ry="8" style="stroke:#000000;stroke-width:1;"/><text fill="#000000" font-family="Verdana" font-size="14" lengthAdjust="spacing" textLength="151.7578" x="601.1211" y="942.9045">ContextAwareUtilities</text></g><!--entity RNRAUtilities--><g class="entity" data-qualified-name="Utilities.RNRAUtilities" data-source-line="19" id="ent0012"><ellipse cx="505" cy="912.9094" fill="#FFFFFF" rx="8" ry="8" style="stroke:#000000;stroke-width:1;"/><text fill="#000000" font-family="Verdana" font-size="14" lengthAdjust="spacing" textLength="92.1963" x="458.9019" y="942.9045">RNRAUtilities</text></g><!--class P300TrialBehaviour--><g class="entity" data-qualified-name="Behaviours.Trialing.P300.P300TrialBehaviour" data-source-line="23" id="ent0014"><rect fill="#FFFFFF" height="109.1875" rx="2.5" ry="2.5" style="stroke:#000000;stroke-width:1;" width="350.6797" x="591" y="182.6094"/><ellipse cx="694.1553" cy="196.6094" fill="#FFFFFF" rx="9" ry="9" style="stroke:#000000;stroke-width:1;"/><path d="M694.2646,191.9531 L693.1084,197.0313 L695.4365,197.0313 L694.2646,191.9531 Z M692.7803,189.7188 L695.7646,189.7188 L699.124,202.1094 L696.6709,202.1094 L695.9053,199.0469 L692.624,199.0469 L691.874,202.1094 L689.4365,202.1094 L692.7803,189.7188 Z " fill="#000000"/><text fill="#000000" font-family="Verdana" font-size="14" font-style="italic" lengthAdjust="spacing" textLength="136.8691" x="711.6553" y="201.4561">P300TrialBehaviour</text><line style="stroke:#000000;stroke-width:1;" x1="592" x2="940.6797" y1="210.6094" y2="210.6094"/><text fill="#000000" font-family="Verdana" font-size="14" lengthAdjust="spacing" textLength="338.6797" x="597" y="227.6045">StimulusPresenterCollection PresenterCollection</text><text fill="#000000" font-family="Verdana" font-size="14" lengthAdjust="spacing" textLength="144.833" x="597" y="243.9014">int FlashesPerOption</text><text fill="#000000" font-family="Verdana" font-size="14" lengthAdjust="spacing" textLength="90.4873" x="597" y="260.1982">float OnTime</text><text fill="#000000" font-family="Verdana" font-size="14" lengthAdjust="spacing" textLength="91.4717" x="597" y="276.4951">float OffTime</text><line style="stroke:#000000;stroke-width:1;" x1="592" x2="940.6797" y1="283.7969" y2="283.7969"/></g><!--class SingleFlashTrialBehaviour--><g class="entity" data-qualified-name="Behaviours.Trialing.P300.SingleFlashTrialBehaviour" data-source-line="32" id="ent0020"><rect fill="#FFFFFF" height="44" rx="2.5" ry="2.5" style="stroke:#000000;stroke-width:1;" width="209.4326" x="690.28" y="439.6094"/><ellipse cx="703.28" cy="453.6094" fill="#FFFFFF" rx="9" ry="9" style="stroke:#000000;stroke-width:1;"/><path d="M706.2488,459.25 Q705.6706,459.5469 705.03,459.6875 Q704.3894,459.8438 703.6863,459.8438 Q701.1863,459.8438 699.8581,458.2031 Q698.5456,456.5469 698.5456,453.4219 Q698.5456,450.2969 699.8581,448.6406 Q701.1863,446.9844 703.6863,446.9844 Q704.3894,446.9844 705.03,447.1406 Q705.6863,447.2969 706.2488,447.5938 L706.2488,450.3125 Q705.6238,449.7344 705.03,449.4688 Q704.4363,449.1875 703.8113,449.1875 Q702.4675,449.1875 701.78,450.2656 Q701.0925,451.3281 701.0925,453.4219 Q701.0925,455.5156 701.78,456.5938 Q702.4675,457.6563 703.8113,457.6563 Q704.4363,457.6563 705.03,457.3906 Q705.6238,457.1094 706.2488,456.5313 L706.2488,459.25 Z " fill="#000000"/><text fill="#000000" font-family="Verdana" font-size="14" lengthAdjust="spacing" textLength="181.4326" x="715.28" y="458.4561">SingleFlashTrialBehaviour</text><line style="stroke:#000000;stroke-width:1;" x1="691.28" x2="898.7126" y1="467.6094" y2="467.6094"/><line style="stroke:#000000;stroke-width:1;" x1="691.28" x2="898.7126" y1="475.6094" y2="475.6094"/></g><!--class ContextAwareSingleFlashTrialBehaviour--><g class="entity" data-qualified-name="Behaviours.Trialing.P300.ContextAwareSingleFlashTrialBehaviour" data-source-line="34" id="ent0023"><rect fill="#FFFFFF" height="44" rx="2.5" ry="2.5" style="stroke:#000000;stroke-width:1;" width="308.499" x="640.75" y="596.6094"/><ellipse cx="653.75" cy="610.6094" fill="#FFFFFF" rx="9" ry="9" style="stroke:#000000;stroke-width:1;"/><path d="M656.7188,616.25 Q656.1406,616.5469 655.5,616.6875 Q654.8594,616.8438 654.1563,616.8438 Q651.6563,616.8438 650.3281,615.2031 Q649.0156,613.5469 649.0156,610.4219 Q649.0156,607.2969 650.3281,605.6406 Q651.6563,603.9844 654.1563,603.9844 Q654.8594,603.9844 655.5,604.1406 Q656.1563,604.2969 656.7188,604.5938 L656.7188,607.3125 Q656.0938,606.7344 655.5,606.4688 Q654.9063,606.1875 654.2813,606.1875 Q652.9375,606.1875 652.25,607.2656 Q651.5625,608.3281 651.5625,610.4219 Q651.5625,612.5156 652.25,613.5938 Q652.9375,614.6563 654.2813,614.6563 Q654.9063,614.6563 655.5,614.3906 Q656.0938,614.1094 656.7188,613.5313 L656.7188,616.25 Z " fill="#000000"/><text fill="#000000" font-family="Verdana" font-size="14" lengthAdjust="spacing" textLength="280.499" x="665.75" y="615.4561">ContextAwareSingleFlashTrialBehaviour</text><line style="stroke:#000000;stroke-width:1;" x1="641.75" x2="948.249" y1="624.6094" y2="624.6094"/><line style="stroke:#000000;stroke-width:1;" x1="641.75" x2="948.249" y1="632.6094" y2="632.6094"/></g><!--class MultiFlashTrialBehaviour--><g class="entity" data-qualified-name="Behaviours.Trialing.P300.MultiFlashTrialBehaviour" data-source-line="37" id="ent0026"><rect fill="#FFFFFF" height="44" rx="2.5" ry="2.5" style="stroke:#000000;stroke-width:1;" width="200.6143" x="355.69" y="439.6094"/><ellipse cx="368.69" cy="453.6094" fill="#FFFFFF" rx="9" ry="9" style="stroke:#000000;stroke-width:1;"/><path d="M368.7994,448.9531 L367.6431,454.0313 L369.9713,454.0313 L368.7994,448.9531 Z M367.315,446.7188 L370.2994,446.7188 L373.6588,459.1094 L371.2056,459.1094 L370.44,456.0469 L367.1588,456.0469 L366.4088,459.1094 L363.9713,459.1094 L367.315,446.7188 Z " fill="#000000"/><text fill="#000000" font-family="Verdana" font-size="14" font-style="italic" lengthAdjust="spacing" textLength="172.6143" x="380.69" y="458.4561">MultiFlashTrialBehaviour</text><line style="stroke:#000000;stroke-width:1;" x1="356.69" x2="555.3043" y1="467.6094" y2="467.6094"/><line style="stroke:#000000;stroke-width:1;" x1="356.69" x2="555.3043" y1="475.6094" y2="475.6094"/></g><!--class ContextAwareMultiFlashTrialBehaviour--><g class="entity" data-qualified-name="Behaviours.Trialing.P300.ContextAwareMultiFlashTrialBehaviour" data-source-line="38" id="ent0028"><rect fill="#FFFFFF" height="44" rx="2.5" ry="2.5" style="stroke:#000000;stroke-width:1;" width="299.6807" x="306.16" y="596.6094"/><ellipse cx="319.16" cy="610.6094" fill="#FFFFFF" rx="9" ry="9" style="stroke:#000000;stroke-width:1;"/><path d="M322.1288,616.25 Q321.5506,616.5469 320.91,616.6875 Q320.2694,616.8438 319.5663,616.8438 Q317.0663,616.8438 315.7381,615.2031 Q314.4256,613.5469 314.4256,610.4219 Q314.4256,607.2969 315.7381,605.6406 Q317.0663,603.9844 319.5663,603.9844 Q320.2694,603.9844 320.91,604.1406 Q321.5663,604.2969 322.1288,604.5938 L322.1288,607.3125 Q321.5038,606.7344 320.91,606.4688 Q320.3163,606.1875 319.6913,606.1875 Q318.3475,606.1875 317.66,607.2656 Q316.9725,608.3281 316.9725,610.4219 Q316.9725,612.5156 317.66,613.5938 Q318.3475,614.6563 319.6913,614.6563 Q320.3163,614.6563 320.91,614.3906 Q321.5038,614.1094 322.1288,613.5313 L322.1288,616.25 Z " fill="#000000"/><text fill="#000000" font-family="Verdana" font-size="14" lengthAdjust="spacing" textLength="271.6807" x="331.16" y="615.4561">ContextAwareMultiFlashTrialBehaviour</text><line style="stroke:#000000;stroke-width:1;" x1="307.16" x2="604.8407" y1="624.6094" y2="624.6094"/><line style="stroke:#000000;stroke-width:1;" x1="307.16" x2="604.8407" y1="632.6094" y2="632.6094"/></g><!--class GridFlashTrialBehaviour--><g class="entity" data-qualified-name="Behaviours.Trialing.P300.GridFlashTrialBehaviour" data-source-line="41" id="ent0031"><rect fill="#FFFFFF" height="76.5938" rx="2.5" ry="2.5" style="stroke:#000000;stroke-width:1;" width="195.7744" x="75.11" y="580.3194"/><ellipse cx="88.11" cy="594.3194" fill="#FFFFFF" rx="9" ry="9" style="stroke:#000000;stroke-width:1;"/><path d="M88.2194,589.6631 L87.0631,594.7413 L89.3913,594.7413 L88.2194,589.6631 Z M86.735,587.4288 L89.7194,587.4288 L93.0788,599.8194 L90.6256,599.8194 L89.86,596.7569 L86.5788,596.7569 L85.8288,599.8194 L83.3913,599.8194 L86.735,587.4288 Z " fill="#000000"/><text fill="#000000" font-family="Verdana" font-size="14" font-style="italic" lengthAdjust="spacing" textLength="167.7744" x="100.11" y="599.1661">GridFlashTrialBehaviour</text><line style="stroke:#000000;stroke-width:1;" x1="76.11" x2="269.8844" y1="608.3194" y2="608.3194"/><text fill="#000000" font-family="Verdana" font-size="14" lengthAdjust="spacing" textLength="59.7393" x="81.11" y="625.3145">int Rows</text><text fill="#000000" font-family="Verdana" font-size="14" lengthAdjust="spacing" textLength="83.6104" x="81.11" y="641.6114">int Columns</text><line style="stroke:#000000;stroke-width:1;" x1="76.11" x2="269.8844" y1="648.9131" y2="648.9131"/></g><!--class RowColumnFlashTrialBehaviour--><g class="entity" data-qualified-name="Behaviours.Trialing.P300.RowColumnFlashTrialBehaviour" data-source-line="45" id="ent0033"><rect fill="#FFFFFF" height="44" rx="2.5" ry="2.5" style="stroke:#000000;stroke-width:1;" width="249.751" x="374.12" y="716.9094"/><ellipse cx="387.12" cy="730.9094" fill="#FFFFFF" rx="9" ry="9" style="stroke:#000000;stroke-width:1;"/><path d="M390.0888,736.55 Q389.5106,736.8469 388.87,736.9875 Q388.2294,737.1438 387.5263,737.1438 Q385.0263,737.1438 383.6981,735.5031 Q382.3856,733.8469 382.3856,730.7219 Q382.3856,727.5969 383.6981,725.9406 Q385.0263,724.2844 387.5263,724.2844 Q388.2294,724.2844 388.87,724.4406 Q389.5263,724.5969 390.0888,724.8938 L390.0888,727.6125 Q389.4638,727.0344 388.87,726.7688 Q388.2763,726.4875 387.6513,726.4875 Q386.3075,726.4875 385.62,727.5656 Q384.9325,728.6281 384.9325,730.7219 Q384.9325,732.8156 385.62,733.8938 Q386.3075,734.9563 387.6513,734.9563 Q388.2763,734.9563 388.87,734.6906 Q389.4638,734.4094 390.0888,733.8313 L390.0888,736.55 Z " fill="#000000"/><text fill="#000000" font-family="Verdana" font-size="14" lengthAdjust="spacing" textLength="221.751" x="399.12" y="735.7561">RowColumnFlashTrialBehaviour</text><line style="stroke:#000000;stroke-width:1;" x1="375.12" x2="622.871" y1="744.9094" y2="744.9094"/><line style="stroke:#000000;stroke-width:1;" x1="375.12" x2="622.871" y1="752.9094" y2="752.9094"/></g><!--class CheckerboardFlashTrialBehaviour--><g class="entity" data-qualified-name="Behaviours.Trialing.P300.CheckerboardFlashTrialBehaviour" data-source-line="47" id="ent0036"><rect fill="#FFFFFF" height="44" rx="2.5" ry="2.5" style="stroke:#000000;stroke-width:1;" width="264.5029" x="74.75" y="716.9094"/><ellipse cx="87.75" cy="730.9094" fill="#FFFFFF" rx="9" ry="9" style="stroke:#000000;stroke-width:1;"/><path d="M90.7188,736.55 Q90.1406,736.8469 89.5,736.9875 Q88.8594,737.1438 88.1563,737.1438 Q85.6563,737.1438 84.3281,735.5031 Q83.0156,733.8469 83.0156,730.7219 Q83.0156,727.5969 84.3281,725.9406 Q85.6563,724.2844 88.1563,724.2844 Q88.8594,724.2844 89.5,724.4406 Q90.1563,724.5969 90.7188,724.8938 L90.7188,727.6125 Q90.0938,727.0344 89.5,726.7688 Q88.9063,726.4875 88.2813,726.4875 Q86.9375,726.4875 86.25,727.5656 Q85.5625,728.6281 85.5625,730.7219 Q85.5625,732.8156 86.25,733.8938 Q86.9375,734.9563 88.2813,734.9563 Q88.9063,734.9563 89.5,734.6906 Q90.0938,734.4094 90.7188,733.8313 L90.7188,736.55 Z " fill="#000000"/><text fill="#000000" font-family="Verdana" font-size="14" lengthAdjust="spacing" textLength="236.5029" x="99.75" y="735.7561">CheckerboardFlashTrialBehaviour</text><line style="stroke:#000000;stroke-width:1;" x1="75.75" x2="338.2529" y1="744.9094" y2="744.9094"/><line style="stroke:#000000;stroke-width:1;" x1="75.75" x2="338.2529" y1="752.9094" y2="752.9094"/></g><!--link ColourToggleStimulusPresenter to StimulusPresenterCollection--><g class="link" data-entity-1="ent0004" data-entity-2="ent0006" data-link-type="aggregation" data-source-line="13" id="lnk8"><path codeLine="13" d="M1219.92,470.5094 C1223.01,497.1594 1231.6658,571.6395 1234.7258,597.9895" fill="none" id="ColourToggleStimulusPresenter-to-StimulusPresenterCollection" style="stroke:#000000;stroke-width:1;stroke-dasharray:7,7;"/><polygon fill="none" points="1236.11,609.9094,1239.3912,603.488,1234.7258,597.9895,1231.4446,604.4108,1236.11,609.9094" style="stroke:#000000;stroke-width:1;"/></g><!--link P300TrialBehaviour to StimulusPresenterCollection--><g class="link" data-entity-1="ent0014" data-entity-2="ent0006" data-link-type="association" data-source-line="29" id="lnk18"><path codeLine="29" d="M942,222.1094 C1035.11,222.1094 1293.91,231.6494 1353,303.6094 C1419.28,384.3294 1401.83,446.2794 1353,538.6094 C1329.53,582.9794 1268.72,607.0994 1245.86,614.8294" fill="none" id="P300TrialBehaviour-StimulusPresenterCollection" style="stroke:#000000;stroke-width:1;"/></g><!--link P300TrialBehaviour to ColourToggleStimulusPresenter--><g class="link" data-entity-1="ent0014" data-entity-2="ent0004" data-link-type="dependency" data-source-line="30" id="lnk19"><path codeLine="30" d="M946.8,295.5194 C952.98,298.1494 959.06,300.8494 965,303.6094 C1066.98,351.0994 1173.7426,427.3397 1205.3726,450.5497" fill="none" id="P300TrialBehaviour-to-ColourToggleStimulusPresenter" style="stroke:#000000;stroke-width:1;stroke-dasharray:7,7;"/><polygon fill="#000000" points="1210.21,454.0994,1205.3204,445.55,1206.1789,451.1413,1200.5875,451.9998,1210.21,454.0994" style="stroke:#000000;stroke-width:1;"/></g><!--reverse link P300TrialBehaviour to SingleFlashTrialBehaviour--><g class="link" data-entity-1="ent0014" data-entity-2="ent0020" data-link-type="extension" data-source-line="32" id="lnk21"><path d="M775.7942,313.2587 C781.9142,360.2587 787.93,406.3594 792.21,439.1994" fill="none" id="P300TrialBehaviour-backto-SingleFlashTrialBehaviour" style="stroke:#000000;stroke-width:1;"/><polygon fill="none" points="773.47,295.4094,769.8444,314.0334,781.744,312.484,773.47,295.4094" style="stroke:#000000;stroke-width:1;"/></g><!--link SingleFlashTrialBehaviour to RNRAUtilities--><g class="link" data-entity-1="ent0020" data-entity-2="ent0012" data-link-type="dependency" data-source-line="33" id="lnk22"><path codeLine="33" d="M882.38,484.0294 C914.72,496.6494 948.08,516.3094 967,546.6094 C1002.08,602.7794 1003.63,640.4394 967,695.6094 C880.04,826.5894 792.87,792.2694 641,832.9094 C613.31,840.3194 602.79,828.4094 577,840.9094 C546.35,855.7694 524.2423,883.958 513.6623,899.128" fill="none" id="SingleFlashTrialBehaviour-to-RNRAUtilities" style="stroke:#000000;stroke-width:1;"/><polygon fill="#000000" points="510.23,904.0494,518.6593,898.9556,513.0902,899.9483,512.0975,894.3792,510.23,904.0494" style="stroke:#000000;stroke-width:1;"/></g><!--reverse link SingleFlashTrialBehaviour to ContextAwareSingleFlashTrialBehaviour--><g class="link" data-entity-1="ent0020" data-entity-2="ent0023" data-link-type="extension" data-source-line="34" id="lnk24"><path d="M795,501.8394 C795,531.3594 795,566.4994 795,596.1494" fill="none" id="SingleFlashTrialBehaviour-backto-ContextAwareSingleFlashTrialBehaviour" style="stroke:#000000;stroke-width:1;"/><polygon fill="none" points="795,483.8394,789,501.8394,801,501.8394,795,483.8394" style="stroke:#000000;stroke-width:1;"/></g><!--link ContextAwareSingleFlashTrialBehaviour to ContextAwareUtilities--><g class="link" data-entity-1="ent0023" data-entity-2="ent0011" data-link-type="dependency" data-source-line="35" id="lnk25"><path codeLine="35" d="M786.32,641.1094 C762.27,700.6994 697.726,860.5656 682.406,898.5156" fill="none" id="ContextAwareSingleFlashTrialBehaviour-to-ContextAwareUtilities" style="stroke:#000000;stroke-width:1;"/><polygon fill="#000000" points="680.16,904.0794,687.2382,897.2311,682.0317,899.4429,679.8199,894.2364,680.16,904.0794" style="stroke:#000000;stroke-width:1;"/></g><!--reverse link P300TrialBehaviour to MultiFlashTrialBehaviour--><g class="link" data-entity-1="ent0014" data-entity-2="ent0026" data-link-type="extension" data-source-line="37" id="lnk27"><path d="M669.6373,305.9999 C602.2673,354.0899 527.04,408.8194 485.4,439.1594" fill="none" id="P300TrialBehaviour-backto-MultiFlashTrialBehaviour" style="stroke:#000000;stroke-width:1;"/><polygon fill="none" points="684.3,295.5594,666.1571,301.1123,673.1174,310.8874,684.3,295.5594" style="stroke:#000000;stroke-width:1;"/></g><!--reverse link MultiFlashTrialBehaviour to ContextAwareMultiFlashTrialBehaviour--><g class="link" data-entity-1="ent0026" data-entity-2="ent0028" data-link-type="extension" data-source-line="38" id="lnk29"><path d="M456,501.8394 C456,531.3594 456,566.4994 456,596.1494" fill="none" id="MultiFlashTrialBehaviour-backto-ContextAwareMultiFlashTrialBehaviour" style="stroke:#000000;stroke-width:1;"/><polygon fill="none" points="456,483.8394,450,501.8394,462,501.8394,456,483.8394" style="stroke:#000000;stroke-width:1;"/></g><!--link ContextAwareMultiFlashTrialBehaviour to ContextAwareUtilities--><g class="link" data-entity-1="ent0028" data-entity-2="ent0011" data-link-type="dependency" data-source-line="39" id="lnk30"><path codeLine="39" d="M530.16,641.0894 C569.01,656.1294 614,680.2294 641,716.9094 C685.49,777.3494 680.8451,870.2833 678.3351,898.3133" fill="none" id="ContextAwareMultiFlashTrialBehaviour-to-ContextAwareUtilities" style="stroke:#000000;stroke-width:1;"/><polygon fill="#000000" points="677.8,904.2894,682.5868,895.682,678.246,899.3093,674.6187,894.9685,677.8,904.2894" style="stroke:#000000;stroke-width:1;"/></g><!--reverse link MultiFlashTrialBehaviour to GridFlashTrialBehaviour--><g class="link" data-entity-1="ent0026" data-entity-2="ent0031" data-link-type="extension" data-source-line="42" id="lnk32"><path d="M394.6175,491.9202 C360.7075,508.3302 329.56,524.0494 289,546.6094 C270.33,556.9994 250.36,568.9194 232.35,579.9794" fill="none" id="MultiFlashTrialBehaviour-backto-GridFlashTrialBehaviour" style="stroke:#000000;stroke-width:1;"/><polygon fill="none" points="410.82,484.0794,392.0039,486.5194,397.2311,497.3211,410.82,484.0794" style="stroke:#000000;stroke-width:1;"/></g><!--reverse link GridFlashTrialBehaviour to RowColumnFlashTrialBehaviour--><g class="link" data-entity-1="ent0031" data-entity-2="ent0033" data-link-type="extension" data-source-line="45" id="lnk34"><path d="M236.2622,667.6244 C256.2122,681.5144 265.39,685.9294 289,695.6094 C305.34,702.3194 338.48,709.8694 373.69,716.7194" fill="none" id="GridFlashTrialBehaviour-backto-RowColumnFlashTrialBehaviour" style="stroke:#000000;stroke-width:1;"/><polygon fill="none" points="221.49,657.3394,232.8339,672.5485,239.6906,662.7003,221.49,657.3394" style="stroke:#000000;stroke-width:1;"/></g><!--link RowColumnFlashTrialBehaviour to RNRAUtilities--><g class="link" data-entity-1="ent0033" data-entity-2="ent0012" data-link-type="dependency" data-source-line="46" id="lnk35"><path codeLine="46" d="M499.75,761.3494 C501.09,799.8894 503.6512,873.213 504.5212,898.193" fill="none" id="RowColumnFlashTrialBehaviour-to-RNRAUtilities" style="stroke:#000000;stroke-width:1;"/><polygon fill="#000000" points="504.73,904.1894,508.4143,895.0556,504.556,899.1924,500.4192,895.3341,504.73,904.1894" style="stroke:#000000;stroke-width:1;"/></g><!--reverse link GridFlashTrialBehaviour to CheckerboardFlashTrialBehaviour--><g class="link" data-entity-1="ent0031" data-entity-2="ent0036" data-link-type="extension" data-source-line="47" id="lnk37"><path d="M188.8253,674.6681 C194.4653,694.2781 196.17,700.2094 200.9,716.6694" fill="none" id="GridFlashTrialBehaviour-backto-CheckerboardFlashTrialBehaviour" style="stroke:#000000;stroke-width:1;"/><polygon fill="none" points="183.85,657.3694,183.059,676.3265,194.5915,673.0097,183.85,657.3694" style="stroke:#000000;stroke-width:1;"/></g><!--link CheckerboardFlashTrialBehaviour to BlackWhiteMatrixFactory--><g class="link" data-entity-1="ent0036" data-entity-2="ent0010" data-link-type="dependency" data-source-line="48" id="lnk38"><path codeLine="48" d="M221.21,761.3494 C246.75,799.8894 296.0034,874.2094 312.5734,899.1894" fill="none" id="CheckerboardFlashTrialBehaviour-to-BlackWhiteMatrixFactory" style="stroke:#000000;stroke-width:1;"/><polygon fill="#000000" points="315.89,904.1894,314.2484,894.4783,313.1261,900.0227,307.5817,898.9005,315.89,904.1894" style="stroke:#000000;stroke-width:1;"/></g><?plantuml-src dLJBJiCm4BpdAym7n4BYnW49aCe9gDeYpcwwRLOuTcLlQ17Al-CuRUEyKNt8mHxFpiwESqCfPC3sKg2A24a2cz_TthALGI7P4wJY6tLkR1GfaO7TYmJOaZ3BPMxPRyJSgW_c1Yme4eHQyIK9jH5cSqALAq6Jk0BFMZhAbTxj99ovJbV1U70HjPZT5Gb9oMkxV1sE6XsoZS2OvZcVq5M45dmGIYI4ivgJaYSfag_F50bU1HaypaH2sln4ZUOTsv4U3y90pU9M25gyBHulXytAzKYudn6g7VSJguI8jINZglefUi3bGc3Sc1L3BfOB5R6P53O5EmVplcySRgKMnDxL2ZDeRswtbzt2Vxloxk_xrCGnusUrF4W1dnfwJ_-SFmHalM7buncePkGCi6pfZ9VWpMYLSTC5jR4z2geO3bwCOwVlCdRU345TEKpGj8f1X6Vy7rTBM6-4esRyNdD9U8KxtHOdcOO0dGO7cQxexyNWvXfHmICi7zD27snZm-KlpvGDNahbY0DMHsD51qHvcb62_oOlXUGBp5gxbtAjZYcEbfIXFshn1m00?></g></svg>