<?plantuml 1.2026.2beta3?><svg xmlns="http://www.w3.org/2000/svg" xmlns:xlink="http://www.w3.org/1999/xlink" contentStyleType="text/css" data-diagram-type="CLASS" height="749px" preserveAspectRatio="none" style="width:1330px;height:749px;background:#FFFFFF;" version="1.1" viewBox="0 0 1330 749" width="1330px" zoomAndPan="magnify"><title>Trial Behaviours</title><defs/><g><g class="title" data-source-line="2"><text fill="#000000" font-family="Verdana" font-size="22" font-weight="bold" lengthAdjust="spacing" textLength="202.2432" x="559.3784" y="35.4209">Trial Behaviours</text></g><!--cluster Stimulus--><g class="cluster" data-qualified-name="Stimulus" data-source-line="11" id="ent0007"><path d="M13.5,338.0894 L83.7275,338.0894 A3.75,3.75 0 0 1 86.2275,340.5894 L93.2275,360.3862 L352.5,360.3862 A2.5,2.5 0 0 1 355,362.8862 L355,578.5894 A2.5,2.5 0 0 1 352.5,581.0894 L13.5,581.0894 A2.5,2.5 0 0 1 11,578.5894 L11,340.5894 A2.5,2.5 0 0 1 13.5,338.0894" fill="#FFFFFF" style="stroke:#000000;stroke-width:1;"/><line style="stroke:#000000;stroke-width:1;" x1="11" x2="93.2275" y1="360.3862" y2="360.3862"/><text fill="#000000" font-family="Verdana" font-size="14" font-weight="bold" lengthAdjust="spacing" textLength="69.2275" x="15" y="353.0845">Stimulus</text></g><!--cluster Presentation--><g class="cluster" data-qualified-name="Stimulus.Presentation" data-source-line="11" id="ent0008"><path d="M37.5,381.0894 L140.1709,381.0894 A3.75,3.75 0 0 1 142.6709,383.5894 L149.6709,403.3862 L328.5,403.3862 A2.5,2.5 0 0 1 331,405.8862 L331,554.5894 A2.5,2.5 0 0 1 328.5,557.0894 L37.5,557.0894 A2.5,2.5 0 0 1 35,554.5894 L35,383.5894 A2.5,2.5 0 0 1 37.5,381.0894" fill="#FFFFFF" style="stroke:#000000;stroke-width:1;"/><line style="stroke:#000000;stroke-width:1;" x1="35" x2="149.6709" y1="403.3862" y2="403.3862"/><text fill="#000000" font-family="Verdana" font-size="14" font-weight="bold" lengthAdjust="spacing" textLength="101.6709" x="39" y="396.0845">Presentation</text></g><!--cluster Standard--><g class="cluster" data-qualified-name="Stimulus.Presentation.Standard" data-source-line="4" id="ent0002"><path d="M61.5,424.0894 L135.084,424.0894 A3.75,3.75 0 0 1 137.584,426.5894 L144.584,446.3862 L304.5,446.3862 A2.5,2.5 0 0 1 307,448.8862 L307,530.5894 A2.5,2.5 0 0 1 304.5,533.0894 L61.5,533.0894 A2.5,2.5 0 0 1 59,530.5894 L59,426.5894 A2.5,2.5 0 0 1 61.5,424.0894" fill="#FFFFFF" style="stroke:#000000;stroke-width:1;"/><line style="stroke:#000000;stroke-width:1;" x1="59" x2="144.584" y1="446.3862" y2="446.3862"/><text fill="#000000" font-family="Verdana" font-size="14" font-weight="bold" lengthAdjust="spacing" textLength="72.584" x="63" y="439.0845">Standard</text></g><!--cluster Behaviours--><g class="cluster" data-qualified-name="Behaviours" data-source-line="8" id="ent0004"><path d="M381.5,57.6094 L470.8271,57.6094 A3.75,3.75 0 0 1 473.3271,60.1094 L480.3271,79.9063 L1320.5,79.9063 A2.5,2.5 0 0 1 1323,82.4063 L1323,739.6294 A2.5,2.5 0 0 1 1320.5,742.1294 L381.5,742.1294 A2.5,2.5 0 0 1 379,739.6294 L379,60.1094 A2.5,2.5 0 0 1 381.5,57.6094" fill="#FFFFFF" style="stroke:#000000;stroke-width:1;"/><line style="stroke:#000000;stroke-width:1;" x1="379" x2="480.3271" y1="79.9063" y2="79.9063"/><text fill="#000000" font-family="Verdana" font-size="14" font-weight="bold" lengthAdjust="spacing" textLength="88.3271" x="383" y="72.6045">Behaviours</text></g><!--cluster Trialing--><g class="cluster" data-qualified-name="Behaviours.Trialing" data-source-line="15" id="ent0009"><path d="M405.5,177.8994 L466.7861,177.8994 A3.75,3.75 0 0 1 469.2861,180.3994 L476.2861,200.1962 L1296.5,200.1962 A2.5,2.5 0 0 1 1299,202.6962 L1299,715.6294 A2.5,2.5 0 0 1 1296.5,718.1294 L405.5,718.1294 A2.5,2.5 0 0 1 403,715.6294 L403,180.3994 A2.5,2.5 0 0 1 405.5,177.8994" fill="#FFFFFF" style="stroke:#000000;stroke-width:1;"/><line style="stroke:#000000;stroke-width:1;" x1="403" x2="476.2861" y1="200.1962" y2="200.1962"/><text fill="#000000" font-family="Verdana" font-size="14" font-weight="bold" lengthAdjust="spacing" textLength="60.2861" x="407" y="192.8945">Trialing</text></g><!--cluster P300--><g class="cluster" data-qualified-name="Behaviours.Trialing.P300" data-source-line="41" id="ent0021"><path d="M895.5,398.4994 L935.9844,398.4994 A3.75,3.75 0 0 1 938.4844,400.9994 L945.4844,420.7963 L1272.5,420.7963 A2.5,2.5 0 0 1 1275,423.2963 L1275,691.6294 A2.5,2.5 0 0 1 1272.5,694.1294 L895.5,694.1294 A2.5,2.5 0 0 1 893,691.6294 L893,400.9994 A2.5,2.5 0 0 1 895.5,398.4994" fill="#FFFFFF" style="stroke:#000000;stroke-width:1;"/><line style="stroke:#000000;stroke-width:1;" x1="893" x2="945.4844" y1="420.7963" y2="420.7963"/><text fill="#000000" font-family="Verdana" font-size="14" font-weight="bold" lengthAdjust="spacing" textLength="39.4844" x="897" y="413.4945">P300</text></g><!--entity FrequencyStimulusPresenter--><g class="entity" data-qualified-name="Stimulus.Presentation.Standard.FrequencyStimulusPresenter" data-source-line="5" id="ent0003"><ellipse cx="183" cy="488.0894" fill="#FFFFFF" rx="8" ry="8" style="stroke:#000000;stroke-width:1;"/><text fill="#000000" font-family="Verdana" font-size="14" lengthAdjust="spacing" textLength="201.9336" x="82.0332" y="518.0845">FrequencyStimulusPresenter</text></g><!--entity CoroutineBehaviour--><g class="entity" data-qualified-name="Behaviours.CoroutineBehaviour" data-source-line="9" id="ent0005"><ellipse cx="668" cy="122.7494" fill="#FFFFFF" rx="8" ry="8" style="stroke:#000000;stroke-width:1;"/><text fill="#000000" font-family="Verdana" font-size="14" lengthAdjust="spacing" textLength="139.4395" x="598.2803" y="152.7445">CoroutineBehaviour</text></g><!--class IBCIMarkerSource--><g class="entity" data-qualified-name="Behaviours.IBCIMarkerSource" data-source-line="11" id="ent0006"><rect fill="#FFFFFF" height="60.2969" rx="2.5" ry="2.5" style="stroke:#000000;stroke-width:1;" width="225.4111" x="780.29" y="92.6094"/><ellipse cx="826.7856" cy="106.6094" fill="#FFFFFF" rx="9" ry="9" style="stroke:#000000;stroke-width:1;"/><path d="M822.7075,102.375 L822.7075,100.2188 L830.0981,100.2188 L830.0981,102.375 L827.6294,102.375 L827.6294,110.4531 L830.0981,110.4531 L830.0981,112.6094 L822.7075,112.6094 L822.7075,110.4531 L825.1762,110.4531 L825.1762,102.375 L822.7075,102.375 Z " fill="#000000"/><text fill="#000000" font-family="Verdana" font-size="14" font-style="italic" lengthAdjust="spacing" textLength="124.9199" x="844.2856" y="111.4561">IBCIMarkerSource</text><line style="stroke:#000000;stroke-width:1;" x1="781.29" x2="1004.7011" y1="120.6094" y2="120.6094"/><text fill="#000000" font-family="Verdana" font-size="14" lengthAdjust="spacing" textLength="213.4111" x="786.29" y="137.6045">LSLMarkerWriter MarkerWriter</text><line style="stroke:#000000;stroke-width:1;" x1="781.29" x2="1004.7011" y1="144.9063" y2="144.9063"/></g><!--class TrialBehaviour--><g class="entity" data-qualified-name="Behaviours.Trialing.TrialBehaviour" data-source-line="16" id="ent0010"><rect fill="#FFFFFF" height="109.1875" rx="2.5" ry="2.5" style="stroke:#000000;stroke-width:1;" width="197.418" x="682.29" y="212.8994"/><ellipse cx="726.3964" cy="226.8994" fill="#FFFFFF" rx="9" ry="9" style="stroke:#000000;stroke-width:1;"/><path d="M726.5058,222.2431 L725.3496,227.3212 L727.6777,227.3212 L726.5058,222.2431 Z M725.0214,220.0087 L728.0058,220.0087 L731.3652,232.3994 L728.9121,232.3994 L728.1464,229.3369 L724.8652,229.3369 L724.1152,232.3994 L721.6777,232.3994 L725.0214,220.0087 Z " fill="#000000"/><text fill="#000000" font-family="Verdana" font-size="14" font-style="italic" lengthAdjust="spacing" textLength="101.7051" x="743.8964" y="231.7461">TrialBehaviour</text><line style="stroke:#000000;stroke-width:1;" x1="683.29" x2="878.708" y1="240.8994" y2="240.8994"/><text fill="#000000" font-family="Verdana" font-size="14" lengthAdjust="spacing" textLength="163.9326" x="688.29" y="257.8945">bool HasTrainingTarget</text><line style="stroke:#000000;stroke-width:1;" x1="683.29" x2="878.708" y1="265.1962" y2="265.1962"/><text fill="#000000" font-family="Verdana" font-size="14" lengthAdjust="spacing" textLength="161.4648" x="688.29" y="282.1914">void StartTestingTrial()</text><text fill="#000000" font-family="Verdana" font-size="14" lengthAdjust="spacing" textLength="185.418" x="688.29" y="298.4882">void StartTrainingTrial(int)</text><text fill="#000000" font-family="Verdana" font-size="14" lengthAdjust="spacing" textLength="184.7891" x="688.29" y="314.7851">void ClearTrainingTarget()</text></g><!--class PersistentTrialBehaviour--><g class="entity" data-qualified-name="Behaviours.Trialing.PersistentTrialBehaviour" data-source-line="23" id="ent0013"><rect fill="#FFFFFF" height="125.4844" rx="2.5" ry="2.5" style="stroke:#000000;stroke-width:1;" width="233.7852" x="419.11" y="425.3494"/><ellipse cx="447.5568" cy="439.3494" fill="#FFFFFF" rx="9" ry="9" style="stroke:#000000;stroke-width:1;"/><path d="M447.6662,434.6931 L446.5099,439.7713 L448.838,439.7713 L447.6662,434.6931 Z M446.1818,432.4588 L449.1662,432.4588 L452.5255,444.8494 L450.0724,444.8494 L449.3068,441.7869 L446.0255,441.7869 L445.2755,444.8494 L442.838,444.8494 L446.1818,432.4588 Z " fill="#000000"/><text fill="#000000" font-family="Verdana" font-size="14" font-style="italic" lengthAdjust="spacing" textLength="171.459" x="462.9894" y="444.1961">PersistentTrialBehaviour</text><line style="stroke:#000000;stroke-width:1;" x1="420.11" x2="651.8952" y1="453.3494" y2="453.3494"/><text fill="#000000" font-family="Verdana" font-size="14" lengthAdjust="spacing" textLength="164.4453" x="425.11" y="470.3445">int TrainingEpochCount</text><text fill="#000000" font-family="Verdana" font-size="14" lengthAdjust="spacing" textLength="127.3057" x="425.11" y="486.6414">float EpochLength</text><text fill="#000000" font-family="Verdana" font-size="14" lengthAdjust="spacing" textLength="165.2451" x="425.11" y="502.9382">float InterEpochInterval</text><line style="stroke:#000000;stroke-width:1;" x1="420.11" x2="651.8952" y1="510.24" y2="510.24"/><text fill="#000000" font-family="Verdana" font-size="14" font-style="italic" lengthAdjust="spacing" textLength="204.7021" x="425.11" y="527.2351">void SendTrainingMarker(int)</text><text fill="#000000" font-family="Verdana" font-size="14" font-style="italic" lengthAdjust="spacing" textLength="221.7852" x="425.11" y="543.532">void SendClassificationMarker()</text></g><!--class SSVEPTrialBehaviour--><g class="entity" data-qualified-name="Behaviours.Trialing.SSVEPTrialBehaviour" data-source-line="31" id="ent0015"><rect fill="#FFFFFF" height="76.5938" rx="2.5" ry="2.5" style="stroke:#000000;stroke-width:1;" width="341.0615" x="419.47" y="610.8294"/><ellipse cx="513.0789" cy="624.8294" fill="#FFFFFF" rx="9" ry="9" style="stroke:#000000;stroke-width:1;"/><path d="M516.0476,630.47 Q515.4695,630.7669 514.8289,630.9075 Q514.1883,631.0638 513.4851,631.0638 Q510.9851,631.0638 509.657,629.4231 Q508.3445,627.7669 508.3445,624.6419 Q508.3445,621.5169 509.657,619.8606 Q510.9851,618.2044 513.4851,618.2044 Q514.1883,618.2044 514.8289,618.3606 Q515.4851,618.5169 516.0476,618.8138 L516.0476,621.5325 Q515.4226,620.9544 514.8289,620.6888 Q514.2351,620.4075 513.6101,620.4075 Q512.2664,620.4075 511.5789,621.4856 Q510.8914,622.5481 510.8914,624.6419 Q510.8914,626.7356 511.5789,627.8138 Q512.2664,628.8763 513.6101,628.8763 Q514.2351,628.8763 514.8289,628.6106 Q515.4226,628.3294 516.0476,627.7513 L516.0476,630.47 Z " fill="#000000"/><text fill="#000000" font-family="Verdana" font-size="14" lengthAdjust="spacing" textLength="146.3438" x="530.5789" y="629.6761">SSVEPTrialBehaviour</text><line style="stroke:#000000;stroke-width:1;" x1="420.47" x2="759.5315" y1="638.8294" y2="638.8294"/><text fill="#000000" font-family="Verdana" font-size="14" lengthAdjust="spacing" textLength="145.626" x="425.47" y="655.8245">int TargetFrameRate</text><text fill="#000000" font-family="Verdana" font-size="14" lengthAdjust="spacing" textLength="329.0615" x="425.47" y="672.1214">List&lt;FrequencyStimulusPresenter&gt; Presenters</text><line style="stroke:#000000;stroke-width:1;" x1="420.47" x2="759.5315" y1="679.4231" y2="679.4231"/></g><!--entity custom--><g class="entity" data-qualified-name="Behaviours.Trialing.custom" data-source-line="38" id="ent0019"><ellipse cx="781" cy="488.0894" fill="#FFFFFF" rx="8" ry="8" style="stroke:#000000;stroke-width:1;"/><text fill="#000000" font-family="Verdana" font-size="14" lengthAdjust="spacing" textLength="171.5342" x="695.2329" y="518.0845">Custom Trial Behaviours</text></g><!--class P300TrialBehaviour--><g class="entity" data-qualified-name="Behaviours.Trialing.P300.P300TrialBehaviour" data-source-line="42" id="ent0022"><rect fill="#FFFFFF" height="109.1875" rx="2.5" ry="2.5" style="stroke:#000000;stroke-width:1;" width="350.6797" x="908.66" y="433.4994"/><ellipse cx="1011.8153" cy="447.4994" fill="#FFFFFF" rx="9" ry="9" style="stroke:#000000;stroke-width:1;"/><path d="M1011.9246,442.8431 L1010.7684,447.9213 L1013.0965,447.9213 L1011.9246,442.8431 Z M1010.4403,440.6088 L1013.4246,440.6088 L1016.784,452.9994 L1014.3309,452.9994 L1013.5653,449.9369 L1010.284,449.9369 L1009.534,452.9994 L1007.0965,452.9994 L1010.4403,440.6088 Z " fill="#000000"/><text fill="#000000" font-family="Verdana" font-size="14" font-style="italic" lengthAdjust="spacing" textLength="136.8691" x="1029.3153" y="452.3461">P300TrialBehaviour</text><line style="stroke:#000000;stroke-width:1;" x1="909.66" x2="1258.3397" y1="461.4994" y2="461.4994"/><text fill="#000000" font-family="Verdana" font-size="14" lengthAdjust="spacing" textLength="338.6797" x="914.66" y="478.4945">StimulusPresenterCollection PresenterCollection</text><text fill="#000000" font-family="Verdana" font-size="14" lengthAdjust="spacing" textLength="144.833" x="914.66" y="494.7914">int FlashesPerOption</text><text fill="#000000" font-family="Verdana" font-size="14" lengthAdjust="spacing" textLength="90.4873" x="914.66" y="511.0882">float OnTime</text><text fill="#000000" font-family="Verdana" font-size="14" lengthAdjust="spacing" textLength="91.4717" x="914.66" y="527.3851">float OffTime</text><line style="stroke:#000000;stroke-width:1;" x1="909.66" x2="1258.3397" y1="534.6869" y2="534.6869"/></g><!--entity specialized--><g class="entity" data-qualified-name="Behaviours.Trialing.P300.specialized" data-source-line="49" id="ent0024"><ellipse cx="1084" cy="649.1294" fill="#FFFFFF" rx="8" ry="8" style="stroke:#000000;stroke-width:1;"/><text fill="#000000" font-family="Verdana" font-size="14" lengthAdjust="spacing" textLength="250.0449" x="958.9775" y="679.1245">...Specialized P300 Trial Behaviours</text></g><!--reverse link CoroutineBehaviour to TrialBehaviour--><g class="link" data-entity-1="ent0005" data-entity-2="ent0010" data-link-type="extension" data-source-line="17" id="lnk11"><path d="M685.2486,145.5454 C697.2986,160.7754 714.02,181.8794 738.28,212.5394" fill="none" id="CoroutineBehaviour-backto-TrialBehaviour" style="stroke:#000000;stroke-width:1;"/><polygon fill="none" points="674.08,131.4294,680.5433,149.2683,689.954,141.8225,674.08,131.4294" style="stroke:#000000;stroke-width:1;"/></g><!--reverse link IBCIMarkerSource to TrialBehaviour--><g class="link" data-entity-1="ent0006" data-entity-2="ent0010" data-link-type="extension" data-source-line="17" id="lnk12"><path d="M858.6806,167.492 C845.2906,184.562 839.15,192.3894 823.42,212.4394" fill="none" id="IBCIMarkerSource-backto-TrialBehaviour" style="stroke:#000000;stroke-width:1;stroke-dasharray:7,7;"/><polygon fill="none" points="869.79,153.3294,853.9597,163.7889,863.4015,171.1952,869.79,153.3294" style="stroke:#000000;stroke-width:1;"/></g><!--reverse link TrialBehaviour to PersistentTrialBehaviour--><g class="link" data-entity-1="ent0010" data-entity-2="ent0013" data-link-type="extension" data-source-line="24" id="lnk14"><path d="M667.2712,332.3581 C633.6012,359.8981 605.33,394.2094 580.94,425.1294" fill="none" id="TrialBehaviour-backto-PersistentTrialBehaviour" style="stroke:#000000;stroke-width:1;"/><polygon fill="none" points="681.82,321.7594,663.7383,327.5085,670.8041,337.2077,681.82,321.7594" style="stroke:#000000;stroke-width:1;"/></g><!--reverse link PersistentTrialBehaviour to SSVEPTrialBehaviour--><g class="link" data-entity-1="ent0013" data-entity-2="ent0015" data-link-type="extension" data-source-line="32" id="lnk16"><path d="M562.8137,568.0749 C569.6237,588.1449 571.19,592.7294 577.21,610.4694" fill="none" id="PersistentTrialBehaviour-backto-SSVEPTrialBehaviour" style="stroke:#000000;stroke-width:1;"/><polygon fill="none" points="557.03,551.0294,557.1319,570.0028,568.4956,566.1469,557.03,551.0294" style="stroke:#000000;stroke-width:1;"/></g><!--link FrequencyStimulusPresenter to SSVEPTrialBehaviour--><g class="link" data-entity-1="ent0003" data-entity-2="ent0015" data-link-type="aggregation" data-source-line="35" id="lnk18"><path codeLine="35" d="M191.64,493.4794 C220.85,508.2094 318.78,556.7894 403,589.0894 C422.31,596.4994 431.5946,599.9483 451.8946,606.6483" fill="none" id="FrequencyStimulusPresenter-to-SSVEPTrialBehaviour" style="stroke:#000000;stroke-width:1;"/><polygon fill="none" points="463.29,610.4094,458.846,604.7304,451.8946,606.6483,456.3386,612.3273,463.29,610.4094" style="stroke:#000000;stroke-width:1;"/></g><!--reverse link TrialBehaviour to custom--><g class="link" data-entity-1="ent0010" data-entity-2="ent0019" data-link-type="extension" data-source-line="39" id="lnk20"><path codeLine="39" d="M781,340.5294 C781,394.3894 781,454.5494 781,479.2794" fill="none" id="TrialBehaviour-backto-custom" style="stroke:#000000;stroke-width:1;"/><polygon fill="none" points="781,322.5294,775,340.5294,787,340.5294,781,322.5294" style="stroke:#000000;stroke-width:1;"/></g><!--reverse link TrialBehaviour to P300TrialBehaviour--><g class="link" data-entity-1="ent0010" data-entity-2="ent0022" data-link-type="extension" data-source-line="43" id="lnk23"><path d="M895.7763,323.6984 C904.3563,328.5784 897.11,324.7994 905,330.0894 C950.15,360.3594 996.15,400.9494 1030.21,433.2794" fill="none" id="TrialBehaviour-backto-P300TrialBehaviour" style="stroke:#000000;stroke-width:1;"/><polygon fill="none" points="880.13,314.7994,892.8099,328.9139,898.7427,318.483,880.13,314.7994" style="stroke:#000000;stroke-width:1;"/></g><!--reverse link P300TrialBehaviour to specialized--><g class="link" data-entity-1="ent0022" data-entity-2="ent0024" data-link-type="extension" data-source-line="50" id="lnk25"><path codeLine="50" d="M1084,560.9294 C1084,596.7994 1084,622.4694 1084,640.1394" fill="none" id="P300TrialBehaviour-backto-specialized" style="stroke:#000000;stroke-width:1;"/><polygon fill="none" points="1084,542.9294,1078,560.9294,1090,560.9294,1084,542.9294" style="stroke:#000000;stroke-width:1;"/></g><?plantuml-src ZLHDRzmW4BtxLz2SsiEYIBb6FSJAgYjjbLLjjMU2nsjK30xWLTlK_xs0FrdZLJbXtflXyMR67qm5DQ264oOImmm7b2j6E7g2YboOR9LE4a5gq0sXW3B3wfQt6fyKQ12662O5pWmH1L45Ua-GNPGfQlFi5Ror8EZlCMY80PLqovppJM5yAfLi3HCm4H8FCvUYT967f_JmbQYVe3ABseC-tgrZTkoH7ufPEbf-U5BN9vjb-6SpSLua8Q_QA49DZqqo4Fmo80gDy2mThzKYLZVScYjCoBoXsgrNAJdwGdIkR4cidfoeCvY0Sf6iiAKWokIWZUCuVHy_RP76J9vbxOiGKmv4XLSkyWrc1PwSG6cchH5cmvshu_2LLWKQhtjk9ArIsOhmbIMNn20F7a6SJHL13wuNFCNlBeG7fFTHRJVOOOMDj_ObMDiHYqavqPgLZFf-7oAZzb37H5ds_VcqOSkcRn63V1tsolReDs8Wm8ysn-FsY7r6qrOlT8wxc42vQtS8tvvmV6Ee5oRq0toNjjh8UlL3kKD48-gnAUHAo-FVtMwaJ9nvLayFz_TNVirzQR7_cDTntF7DAdYlhb-QIiw1EbzGv6mLxogvjsrHWRQrVscYfBwTNqJEQjW2otA5BZflQJp6E6k0kXV-WQAtAre5FRE2H14JVKbY_6xudtR_0000?></g></svg>