<?plantuml 1.2026.2beta3?><svg xmlns="http://www.w3.org/2000/svg" xmlns:xlink="http://www.w3.org/1999/xlink" contentStyleType="text/css" data-diagram-type="DESCRIPTION" height="328px" preserveAspectRatio="none" style="width:482px;height:328px;background:#FFFFFF;" version="1.1" viewBox="0 0 482 328" width="482px" zoomAndPan="magnify"><title>System Interaction</title><defs/><g><g class="title" data-source-line="2"><text fill="#000000" font-family="Verdana" font-size="22" font-weight="bold" lengthAdjust="spacing" textLength="236.1563" x="118.5625" y="35.4209">System Interaction</text></g><!--cluster lsl--><g class="cluster" data-qualified-name="lsl" data-source-line="6" id="ent0002"><path d="M142.0147,137.9109 C148.7602,127.8471 158.328,127.5153 165.117,137.8616 C172.1948,126.2678 181.45,127.1729 189.0365,137.3016 C194.5416,125.14 202.1829,122.8289 211.2331,133.9171 C217.274,124.1108 225.3716,125.8865 230.0685,135.2384 C235.8223,123.6522 245.5875,122.2832 253.4745,132.9997 C258.8122,120.1347 270.858,120.815 277.9774,131.1151 C284.1294,118.7689 290.8309,117.0929 300.3309,127.8799 C306.5025,119.5298 316.0674,120.324 320.9297,129.4254 C330.38,119.4615 338.2296,121.6855 344.2862,133.1282 C352.5511,122.5941 359.1467,124.9502 365.054,135.4554 C371.0647,123.4916 378.6419,121.9315 387.2234,132.9786 C395.5867,121.8787 405.9696,121.9023 411.6588,135.6123 C419.3223,125.0263 426.2879,126.0589 433.1759,136.4093 C442.047,126.994 449.7769,128.1542 455.3198,139.8931 C470.5893,144.6498 473.3717,155.9009 463.0122,167.7379 C475.2813,179.8602 471.8259,190.6422 456.5329,196.5706 C450.1246,207.5487 443.3244,207.2876 435.049,198.6117 C428.5696,208.4225 417.0515,210.6376 411.5501,197.6056 C406.5605,209.4629 397.1256,213.0174 388.1045,201.6808 C381.0281,214.2376 372.7768,211.7799 365.3178,202.0724 C359.4107,210.3459 350.182,211.8971 344.8865,201.4064 C339.551,214.5279 327.175,212.9661 319.9511,203.4901 C313.1482,214.3669 306.6406,212.2577 299.8287,203.4994 C294.1846,216.8338 284.4121,216.3606 276.4987,205.7064 C268.4053,215.8013 259.6722,215.4567 254.5318,202.8491 C246.5875,212.3459 237.8277,210.5079 233.376,199.2832 C226.8633,209.8147 216.4219,210.0471 210.0293,199.1523 C204.7715,210.7436 194.0241,210.2279 188.0102,199.9122 C179.6512,212.0348 170.9569,212.1342 163.7186,198.8409 C154.0756,210.2322 147.2997,206.7095 140.2163,196.1059 C126.0127,191.1274 123.4794,177.122 135.3251,167.6638 C122.9065,157.01 128.0103,142.6237 142.0147,137.9109" fill="#FFFFFF" style="stroke:#000000;stroke-width:1;"/><text fill="#000000" font-family="Verdana" font-size="14" font-weight="bold" lengthAdjust="spacing" textLength="164.0283" x="215.0958" y="154.9045">Lab Streaming Layer</text></g><!--entity markers--><g class="entity" data-qualified-name="lsl.markers" data-source-line="7" id="ent0003"><rect fill="#FFFFFF" height="22.2969" rx="2.5" ry="2.5" style="stroke:#000000;stroke-width:1;" width="76.1846" x="237.02" y="163.9094"/><text fill="#000000" font-family="Verdana" font-size="14" lengthAdjust="spacing" textLength="56.1846" x="247.02" y="179.9045">Markers</text></g><!--entity predictions--><g class="entity" data-qualified-name="lsl.predictions" data-source-line="8" id="ent0004"><rect fill="#FFFFFF" height="22.2969" rx="2.5" ry="2.5" style="stroke:#000000;stroke-width:1;" width="97.3965" x="348.41" y="163.9094"/><text fill="#000000" font-family="Verdana" font-size="14" lengthAdjust="spacing" textLength="77.3965" x="358.41" y="179.9045">Predictions</text></g><!--entity data--><g class="entity" data-qualified-name="lsl.data" data-source-line="9" id="ent0005"><rect fill="#FFFFFF" height="22.2969" rx="2.5" ry="2.5" style="stroke:#000000;stroke-width:1;" width="53.4277" x="148.4" y="163.9094"/><text fill="#000000" font-family="Verdana" font-size="14" lengthAdjust="spacing" textLength="33.4277" x="158.4" y="179.9045">Data</text></g><!--entity back_end--><g class="entity" data-qualified-name="back_end" data-source-line="12" id="ent0006"><polygon fill="#FFFFFF" points="275.64,271.6994,285.64,261.6994,444.5863,261.6994,444.5863,297.9963,434.5863,307.9963,275.64,307.9963,275.64,271.6994" style="stroke:#000000;stroke-width:1;"/><line style="stroke:#000000;stroke-width:1;" x1="434.5863" x2="444.5863" y1="271.6994" y2="261.6994"/><line style="stroke:#000000;stroke-width:1;" x1="275.64" x2="434.5863" y1="271.6994" y2="271.6994"/><line style="stroke:#000000;stroke-width:1;" x1="434.5863" x2="434.5863" y1="271.6994" y2="307.9963"/><text fill="#000000" font-family="Verdana" font-size="14" lengthAdjust="spacing" textLength="33.9883" x="290.64" y="294.6945">Back</text><text fill="#000000" font-family="Verdana" font-size="14" lengthAdjust="spacing" textLength="4.4502" x="324.6283" y="294.6945">&#160;</text><text fill="#000000" font-family="Verdana" font-size="14" lengthAdjust="spacing" textLength="26.6055" x="329.0785" y="294.6945">End</text><text fill="#000000" font-family="Verdana" font-size="14" lengthAdjust="spacing" textLength="4.4502" x="355.6839" y="294.6945">&#160;</text><text fill="#000000" font-family="Verdana" font-size="14" lengthAdjust="spacing" textLength="59.4521" x="360.1341" y="294.6945">(Python)</text></g><!--entity front_end--><g class="entity" data-qualified-name="front_end" data-source-line="16" id="ent0009"><polygon fill="#FFFFFF" points="195.14,67.6094,205.14,57.6094,355.0902,57.6094,355.0902,93.9063,345.0902,103.9063,195.14,103.9063,195.14,67.6094" style="stroke:#000000;stroke-width:1;"/><line style="stroke:#000000;stroke-width:1;" x1="345.0902" x2="355.0902" y1="67.6094" y2="57.6094"/><line style="stroke:#000000;stroke-width:1;" x1="195.14" x2="345.0902" y1="67.6094" y2="67.6094"/><line style="stroke:#000000;stroke-width:1;" x1="345.0902" x2="345.0902" y1="67.6094" y2="103.9063"/><text fill="#000000" font-family="Verdana" font-size="14" lengthAdjust="spacing" textLength="36.7363" x="210.14" y="90.6045">Front</text><text fill="#000000" font-family="Verdana" font-size="14" lengthAdjust="spacing" textLength="4.4502" x="246.8763" y="90.6045">&#160;</text><text fill="#000000" font-family="Verdana" font-size="14" lengthAdjust="spacing" textLength="26.6055" x="251.3265" y="90.6045">End</text><text fill="#000000" font-family="Verdana" font-size="14" lengthAdjust="spacing" textLength="4.4502" x="277.932" y="90.6045">&#160;</text><text fill="#000000" font-family="Verdana" font-size="14" lengthAdjust="spacing" textLength="47.708" x="282.3822" y="90.6045">(Unity)</text></g><!--entity headset--><g class="entity" data-qualified-name="headset" data-source-line="20" id="ent0012"><polygon fill="#FFFFFF" points="109.62,271.6994,119.62,261.6994,240.6132,261.6994,240.6132,297.9963,230.6132,307.9963,109.62,307.9963,109.62,271.6994" style="stroke:#000000;stroke-width:1;"/><line style="stroke:#000000;stroke-width:1;" x1="230.6132" x2="240.6132" y1="271.6994" y2="261.6994"/><line style="stroke:#000000;stroke-width:1;" x1="109.62" x2="230.6132" y1="271.6994" y2="271.6994"/><line style="stroke:#000000;stroke-width:1;" x1="230.6132" x2="230.6132" y1="271.6994" y2="307.9963"/><text fill="#000000" font-family="Verdana" font-size="14" lengthAdjust="spacing" textLength="28.54" x="124.62" y="294.6945">EEG</text><text fill="#000000" font-family="Verdana" font-size="14" lengthAdjust="spacing" textLength="4.4502" x="153.16" y="294.6945">&#160;</text><text fill="#000000" font-family="Verdana" font-size="14" lengthAdjust="spacing" textLength="58.0029" x="157.6102" y="294.6945">Headset</text></g><!--entity app--><g class="entity" data-qualified-name="app" data-source-line="25" id="ent0015"><polygon fill="#FFFFFF" points="21,67.6094,31,57.6094,139.2236,57.6094,139.2236,93.9063,129.2236,103.9063,21,103.9063,21,67.6094" style="stroke:#000000;stroke-width:1;"/><line style="stroke:#000000;stroke-width:1;" x1="129.2236" x2="139.2236" y1="67.6094" y2="57.6094"/><line style="stroke:#000000;stroke-width:1;" x1="21" x2="129.2236" y1="67.6094" y2="67.6094"/><line style="stroke:#000000;stroke-width:1;" x1="129.2236" x2="129.2236" y1="67.6094" y2="103.9063"/><text fill="#000000" font-family="Verdana" font-size="14" lengthAdjust="spacing" textLength="78.2236" x="36" y="90.6045">Application</text></g><!--entity User--><g class="entity" data-qualified-name="User" data-source-line="30" id="ent0018"><ellipse cx="59.1151" cy="255.1994" fill="#FFFFFF" rx="8" ry="8" style="stroke:#000000;stroke-width:1;"/><path d="M59.1151,263.1994 L59.1151,290.1994 M46.1151,271.1994 L72.1151,271.1994 M59.1151,290.1994 L46.1151,305.1994 M59.1151,290.1994 L72.1151,305.1994" fill="none" style="stroke:#000000;stroke-width:1;"/><text fill="#000000" font-family="Verdana" font-size="14" lengthAdjust="spacing" textLength="31.9102" x="43.16" y="320.1945">User</text></g><!--link markers to back_end--><g class="link" data-entity-1="ent0003" data-entity-2="ent0006" data-link-type="dependency" data-source-line="13" id="lnk7"><path d="M283.26,186.3894 C296.81,203.5694 320.5449,233.6679 338.7049,256.6979" fill="none" id="markers-to-back_end" style="stroke:#000000;stroke-width:1;"/><polygon fill="#000000" points="342.42,261.4094,339.9882,251.8654,339.324,257.4832,333.7063,256.819,342.42,261.4094" style="stroke:#000000;stroke-width:1;"/></g><!--reverse link predictions to back_end--><g class="link" data-entity-1="ent0004" data-entity-2="ent0006" data-link-type="dependency" data-source-line="14" id="lnk8"><path d="M391.6141,192.0651 C385.7241,209.2451 375.72,238.3794 367.81,261.4094" fill="none" id="predictions-backto-back_end" style="stroke:#000000;stroke-width:1;"/><polygon fill="#000000" points="393.56,186.3894,386.8574,193.6057,391.9384,191.1191,394.425,196.2002,393.56,186.3894" style="stroke:#000000;stroke-width:1;"/></g><!--link front_end to markers--><g class="link" data-entity-1="ent0009" data-entity-2="ent0003" data-link-type="dependency" data-source-line="17" id="lnk10"><path d="M275.11,104.0994 C275.11,123.0894 275.11,143.4894 275.11,157.8194" fill="none" id="front_end-to-markers" style="stroke:#000000;stroke-width:1;"/><polygon fill="#000000" points="275.11,163.8194,279.11,154.8194,275.11,158.8194,271.11,154.8194,275.11,163.8194" style="stroke:#000000;stroke-width:1;"/></g><!--reverse link front_end to predictions--><g class="link" data-entity-1="ent0009" data-entity-2="ent0004" data-link-type="dependency" data-source-line="18" id="lnk11"><path d="M313.1581,107.8206 C320.7381,113.1506 323.81,115.4194 331.11,120.9094 C350.17,135.2194 371.54,152.6994 384.66,163.6094" fill="none" id="front_end-backto-predictions" style="stroke:#000000;stroke-width:1;"/><polygon fill="#000000" points="308.25,104.3694,313.3113,112.8182,312.3401,107.2454,317.9129,106.2741,308.25,104.3694" style="stroke:#000000;stroke-width:1;"/></g><!--reverse link data to headset--><g class="link" data-entity-1="ent0005" data-entity-2="ent0012" data-link-type="dependency" data-source-line="21" id="lnk13"><path d="M175.11,192.3894 C175.11,209.5694 175.11,238.3794 175.11,261.4094" fill="none" id="data-backto-headset" style="stroke:#000000;stroke-width:1;"/><polygon fill="#000000" points="175.11,186.3894,171.11,195.3894,175.11,191.3894,179.11,195.3894,175.11,186.3894" style="stroke:#000000;stroke-width:1;"/></g><!--link data to back_end--><g class="link" data-entity-1="ent0005" data-entity-2="ent0006" data-link-type="dependency" data-source-line="22" id="lnk14"><path d="M187.38,186.5394 C195.97,193.6294 207.88,202.9894 219.11,210.1994 C248.86,229.2994 278.7231,245.0672 306.5331,258.7072" fill="none" id="data-to-back_end" style="stroke:#000000;stroke-width:1;"/><polygon fill="#000000" points="311.92,261.3494,305.601,253.7949,307.4309,259.1476,302.0782,260.9775,311.92,261.3494" style="stroke:#000000;stroke-width:1;"/></g><!--link app to front_end--><g class="link" data-entity-1="ent0015" data-entity-2="ent0009" data-link-type="dependency" data-source-line="27" id="lnk16"><path d="M139.53,95.4694 C157.97,98.0394 170.432,99.1191 188.882,97.9491" fill="none" id="app-to-front_end" style="stroke:#000000;stroke-width:1;stroke-dasharray:7,7;"/><polygon fill="#000000" points="194.87,97.5694,185.6349,94.147,189.88,97.8858,186.1412,102.1309,194.87,97.5694" style="stroke:#000000;stroke-width:1;"/></g><!--reverse link app to front_end--><g class="link" data-entity-1="ent0015" data-entity-2="ent0009" data-link-type="dependency" data-source-line="28" id="lnk17"><path d="M145.4726,65.2212 C163.9126,62.6512 176.42,62.7794 194.87,63.9394" fill="none" id="app-backto-front_end" style="stroke:#000000;stroke-width:1;stroke-dasharray:7,7;"/><polygon fill="#000000" points="139.53,66.0494,148.996,68.7688,144.4821,65.3592,147.8917,60.8453,139.53,66.0494" style="stroke:#000000;stroke-width:1;"/></g><!--link app to User--><g class="link" data-entity-1="ent0015" data-entity-2="ent0018" data-link-type="dependency" data-source-line="31" id="lnk19"><path d="M77.78,104.1594 C74.23,138.3794 68.0201,198.1315 63.6801,239.9015" fill="none" id="app-to-User" style="stroke:#000000;stroke-width:1;"/><polygon fill="#000000" points="63.06,245.8694,67.9687,237.3309,63.5767,240.8961,60.0115,236.5042,63.06,245.8694" style="stroke:#000000;stroke-width:1;"/></g><!--link User to headset--><g class="link" data-entity-1="ent0018" data-entity-2="ent0012" data-link-type="dependency" data-source-line="32" id="lnk20"><path d="M75.42,284.8494 C86.72,284.8494 92.01,284.8494 103.3,284.8494" fill="none" id="User-to-headset" style="stroke:#000000;stroke-width:1;"/><polygon fill="#000000" points="109.3,284.8494,100.3,280.8494,104.3,284.8494,100.3,288.8494,109.3,284.8494" style="stroke:#000000;stroke-width:1;"/></g><?plantuml-src LL7BQiCm4BplLsnzQW_s5uH0Izq7f108EPLIDlQc5fOb8Qa7K_hlrSEf5Ht4xineTXRT-84dHYD9AF32IuR3x3nF-AeyM-gyq0fOzPX9wAJ-xh7QqGaFtZ9DGdtXZcQs5P93wIJ-08RJaGswDx8ZMvUuATS5kxVSYpGYAypQ5wf7yfJeFXJm2w1qprWzK3TY6vBTxcS_Q7MNDAU0VeQyi4p3kjwkO340DtMz4eldazNAPzEZ4dxEdkU89jb_bMml2wrez2oNM6pRzXbVc7h7FXaEkOQuK7fp1LmblbZS6oD5Hz4sMP0n0E72PblaYy2cULVQaXe_ceA1y9NQuj6nJQeu93Nnmj0i4Vu0?></g></svg>