<?plantuml 1.2026.2beta3?><svg xmlns="http://www.w3.org/2000/svg" xmlns:xlink="http://www.w3.org/1999/xlink" contentStyleType="text/css" data-diagram-type="DESCRIPTION" height="328px" preserveAspectRatio="none" style="width:519px;height:328px;background:#FFFFFF;" version="1.1" viewBox="0 0 519 328" width="519px" zoomAndPan="magnify"><title>System Interaction</title><defs/><g><g class="title" data-source-line="2"><text fill="#000000" font-family="Verdana" font-size="22" font-weight="bold" lengthAdjust="spacing" textLength="236.1563" x="137.0364" y="35.4209">System Interaction</text></g><!--cluster lsl--><g class="cluster" data-qualified-name="lsl" data-source-line="6" id="ent0002"><path d="M177.6347,137.9109 C184.3802,127.8471 193.948,127.5153 200.737,137.8616 C207.8148,126.2678 217.07,127.1729 224.6565,137.3016 C230.1616,125.14 237.8029,122.8289 246.8531,133.9171 C252.894,124.1108 260.9916,125.8865 265.6885,135.2384 C271.4423,123.6522 281.2075,122.2832 289.0945,132.9997 C294.4322,120.1347 306.478,120.815 313.5974,131.1151 C319.7494,118.7689 326.4509,117.0929 335.9509,127.8799 C342.1225,119.5298 351.6874,120.324 356.5497,129.4254 C366,119.4615 373.8496,121.6855 379.9062,133.1282 C388.1711,122.5941 394.7667,124.9502 400.674,135.4554 C406.6847,123.4916 414.2619,121.9315 422.8434,132.9786 C431.2067,121.8787 441.5896,121.9023 447.2788,135.6123 C454.9423,125.0263 461.9079,126.0589 468.7959,136.4093 C477.667,126.994 485.3969,128.1542 490.9398,139.8931 C506.2093,144.6498 508.9917,155.9009 498.6322,167.7379 C510.9013,179.8602 507.4459,190.6422 492.1529,196.5706 C485.7446,207.5487 478.9444,207.2876 470.669,198.6117 C464.1896,208.4225 452.6715,210.6376 447.1701,197.6056 C442.1805,209.4629 432.7456,213.0174 423.7245,201.6808 C416.6481,214.2376 408.3968,211.7799 400.9378,202.0724 C395.0307,210.3459 385.802,211.8971 380.5065,201.4064 C375.171,214.5279 362.795,212.9661 355.5711,203.4901 C348.7682,214.3669 342.2606,212.2577 335.4487,203.4994 C329.8046,216.8338 320.0321,216.3606 312.1187,205.7064 C304.0253,215.8013 295.2922,215.4567 290.1518,202.8491 C282.2075,212.3459 273.4477,210.5079 268.996,199.2832 C262.4833,209.8147 252.0419,210.0471 245.6493,199.1523 C240.3915,210.7436 229.6441,210.2279 223.6302,199.9122 C215.2712,212.0348 206.5769,212.1342 199.3386,198.8409 C189.6956,210.2322 182.9197,206.7095 175.8363,196.1059 C161.6327,191.1274 159.0994,177.122 170.9451,167.6638 C158.5265,157.01 163.6303,142.6237 177.6347,137.9109" fill="#FFFFFF" style="stroke:#000000;stroke-width:1;"/><text fill="#000000" font-family="Verdana" font-size="14" font-weight="bold" lengthAdjust="spacing" textLength="164.0283" x="250.7158" y="154.9045">Lab Streaming Layer</text></g><!--entity markers--><g class="entity" data-qualified-name="lsl.markers" data-source-line="7" id="ent0003"><rect fill="#FFFFFF" height="22.2969" rx="2.5" ry="2.5" style="stroke:#000000;stroke-width:1;" width="76.1846" x="272.64" y="163.9094"/><text fill="#000000" font-family="Verdana" font-size="14" lengthAdjust="spacing" textLength="56.1846" x="282.64" y="179.9045">Markers</text></g><!--entity predictions--><g class="entity" data-qualified-name="lsl.predictions" data-source-line="8" id="ent0004"><rect fill="#FFFFFF" height="22.2969" rx="2.5" ry="2.5" style="stroke:#000000;stroke-width:1;" width="97.3965" x="384.03" y="163.9094"/><text fill="#000000" font-family="Verdana" font-size="14" lengthAdjust="spacing" textLength="77.3965" x="394.03" y="179.9045">Predictions</text></g><!--entity data--><g class="entity" data-qualified-name="lsl.data" data-source-line="9" id="ent0005"><rect fill="#FFFFFF" height="22.2969" rx="2.5" ry="2.5" style="stroke:#000000;stroke-width:1;" width="53.4277" x="184.02" y="163.9094"/><text fill="#000000" font-family="Verdana" font-size="14" lengthAdjust="spacing" textLength="33.4277" x="194.02" y="179.9045">Data</text></g><!--entity bessy_py--><g class="entity" data-qualified-name="bessy_py" data-source-line="12" id="ent0006"><polygon fill="#FFFFFF" points="311.23,271.6994,321.23,261.6994,502.229,261.6994,502.229,297.9963,492.229,307.9963,311.23,307.9963,311.23,271.6994" style="stroke:#000000;stroke-width:1;"/><line style="stroke:#000000;stroke-width:1;" x1="492.229" x2="502.229" y1="271.6994" y2="261.6994"/><line style="stroke:#000000;stroke-width:1;" x1="311.23" x2="492.229" y1="271.6994" y2="271.6994"/><line style="stroke:#000000;stroke-width:1;" x1="492.229" x2="492.229" y1="271.6994" y2="307.9963"/><text fill="#000000" font-family="Verdana" font-size="14" lengthAdjust="spacing" textLength="23.5088" x="326.23" y="294.6945">BCI</text><text fill="#000000" font-family="Verdana" font-size="14" lengthAdjust="spacing" textLength="4.4502" x="349.7388" y="294.6945">&#160;</text><text fill="#000000" font-family="Verdana" font-size="14" lengthAdjust="spacing" textLength="70.0615" x="354.189" y="294.6945">Essentials</text><text fill="#000000" font-family="Verdana" font-size="14" lengthAdjust="spacing" textLength="4.4502" x="424.2505" y="294.6945">&#160;</text><text fill="#000000" font-family="Verdana" font-size="14" lengthAdjust="spacing" textLength="48.5283" x="428.7007" y="294.6945">Python</text></g><!--entity bessy_u--><g class="entity" data-qualified-name="bessy_u" data-source-line="16" id="ent0009"><polygon fill="#FFFFFF" points="221.1,67.6094,231.1,57.6094,400.3549,57.6094,400.3549,93.9063,390.3549,103.9063,221.1,103.9063,221.1,67.6094" style="stroke:#000000;stroke-width:1;"/><line style="stroke:#000000;stroke-width:1;" x1="390.3549" x2="400.3549" y1="67.6094" y2="57.6094"/><line style="stroke:#000000;stroke-width:1;" x1="221.1" x2="390.3549" y1="67.6094" y2="67.6094"/><line style="stroke:#000000;stroke-width:1;" x1="390.3549" x2="390.3549" y1="67.6094" y2="103.9063"/><text fill="#000000" font-family="Verdana" font-size="14" lengthAdjust="spacing" textLength="23.5088" x="236.1" y="90.6045">BCI</text><text fill="#000000" font-family="Verdana" font-size="14" lengthAdjust="spacing" textLength="4.4502" x="259.6088" y="90.6045">&#160;</text><text fill="#000000" font-family="Verdana" font-size="14" lengthAdjust="spacing" textLength="70.0615" x="264.059" y="90.6045">Essentials</text><text fill="#000000" font-family="Verdana" font-size="14" lengthAdjust="spacing" textLength="4.4502" x="334.1205" y="90.6045">&#160;</text><text fill="#000000" font-family="Verdana" font-size="14" lengthAdjust="spacing" textLength="36.7842" x="338.5707" y="90.6045">Unity</text></g><!--entity headset--><g class="entity" data-qualified-name="headset" data-source-line="20" id="ent0012"><polygon fill="#FFFFFF" points="145.23,271.6994,155.23,261.6994,276.2232,261.6994,276.2232,297.9963,266.2232,307.9963,145.23,307.9963,145.23,271.6994" style="stroke:#000000;stroke-width:1;"/><line style="stroke:#000000;stroke-width:1;" x1="266.2232" x2="276.2232" y1="271.6994" y2="261.6994"/><line style="stroke:#000000;stroke-width:1;" x1="145.23" x2="266.2232" y1="271.6994" y2="271.6994"/><line style="stroke:#000000;stroke-width:1;" x1="266.2232" x2="266.2232" y1="271.6994" y2="307.9963"/><text fill="#000000" font-family="Verdana" font-size="14" lengthAdjust="spacing" textLength="28.54" x="160.23" y="294.6945">EEG</text><text fill="#000000" font-family="Verdana" font-size="14" lengthAdjust="spacing" textLength="4.4502" x="188.77" y="294.6945">&#160;</text><text fill="#000000" font-family="Verdana" font-size="14" lengthAdjust="spacing" textLength="58.0029" x="193.2202" y="294.6945">Headset</text></g><!--entity app--><g class="entity" data-qualified-name="app" data-source-line="25" id="ent0015"><polygon fill="#FFFFFF" points="21,67.6094,31,57.6094,180.458,57.6094,180.458,93.9063,170.458,103.9063,21,103.9063,21,67.6094" style="stroke:#000000;stroke-width:1;"/><line style="stroke:#000000;stroke-width:1;" x1="170.458" x2="180.458" y1="67.6094" y2="57.6094"/><line style="stroke:#000000;stroke-width:1;" x1="21" x2="170.458" y1="67.6094" y2="67.6094"/><line style="stroke:#000000;stroke-width:1;" x1="170.458" x2="170.458" y1="67.6094" y2="103.9063"/><text fill="#000000" font-family="Verdana" font-size="14" lengthAdjust="spacing" textLength="36.7842" x="36" y="90.6045">Unity</text><text fill="#000000" font-family="Verdana" font-size="14" lengthAdjust="spacing" textLength="4.4502" x="72.7842" y="90.6045">&#160;</text><text fill="#000000" font-family="Verdana" font-size="14" lengthAdjust="spacing" textLength="78.2236" x="77.2344" y="90.6045">Application</text></g><!--entity User--><g class="entity" data-qualified-name="User" data-source-line="30" id="ent0018"><ellipse cx="94.7251" cy="255.1994" fill="#FFFFFF" rx="8" ry="8" style="stroke:#000000;stroke-width:1;"/><path d="M94.7251,263.1994 L94.7251,290.1994 M81.7251,271.1994 L107.7251,271.1994 M94.7251,290.1994 L81.7251,305.1994 M94.7251,290.1994 L107.7251,305.1994" fill="none" style="stroke:#000000;stroke-width:1;"/><text fill="#000000" font-family="Verdana" font-size="14" lengthAdjust="spacing" textLength="31.9102" x="78.77" y="320.1945">User</text></g><!--link markers to bessy_py--><g class="link" data-entity-1="ent0003" data-entity-2="ent0006" data-link-type="dependency" data-source-line="13" id="lnk7"><path d="M319.93,186.3894 C335.23,203.5694 362.2507,233.8977 382.7507,256.9277" fill="none" id="markers-to-bessy_py" style="stroke:#000000;stroke-width:1;"/><polygon fill="#000000" points="386.74,261.4094,383.7438,252.0273,383.4156,257.6747,377.7682,257.3464,386.74,261.4094" style="stroke:#000000;stroke-width:1;"/></g><!--reverse link predictions to bessy_py--><g class="link" data-entity-1="ent0004" data-entity-2="ent0006" data-link-type="dependency" data-source-line="14" id="lnk8"><path d="M428.8312,192.2216 C424.6812,209.4016 417.7,238.3794 412.14,261.4094" fill="none" id="predictions-backto-bessy_py" style="stroke:#000000;stroke-width:1;"/><polygon fill="#000000" points="430.24,186.3894,424.2386,194.1985,429.066,191.2496,432.0149,196.077,430.24,186.3894" style="stroke:#000000;stroke-width:1;"/></g><!--link bessy_u to markers--><g class="link" data-entity-1="ent0009" data-entity-2="ent0003" data-link-type="dependency" data-source-line="17" id="lnk10"><path d="M310.73,104.0994 C310.73,123.0894 310.73,143.4894 310.73,157.8194" fill="none" id="bessy_u-to-markers" style="stroke:#000000;stroke-width:1;"/><polygon fill="#000000" points="310.73,163.8194,314.73,154.8194,310.73,158.8194,306.73,154.8194,310.73,163.8194" style="stroke:#000000;stroke-width:1;"/></g><!--reverse link bessy_u to predictions--><g class="link" data-entity-1="ent0009" data-entity-2="ent0004" data-link-type="dependency" data-source-line="18" id="lnk11"><path d="M348.7702,107.8175 C356.3602,113.1475 359.42,115.4194 366.73,120.9094 C385.79,135.2194 407.16,152.6994 420.28,163.6094" fill="none" id="bessy_u-backto-predictions" style="stroke:#000000;stroke-width:1;"/><polygon fill="#000000" points="343.86,104.3694,348.9266,112.8151,347.9518,107.2428,353.5241,106.2681,343.86,104.3694" style="stroke:#000000;stroke-width:1;"/></g><!--reverse link data to headset--><g class="link" data-entity-1="ent0005" data-entity-2="ent0012" data-link-type="dependency" data-source-line="21" id="lnk13"><path d="M210.73,192.3894 C210.73,209.5694 210.73,238.3794 210.73,261.4094" fill="none" id="data-backto-headset" style="stroke:#000000;stroke-width:1;"/><polygon fill="#000000" points="210.73,186.3894,206.73,195.3894,210.73,191.3894,214.73,195.3894,210.73,186.3894" style="stroke:#000000;stroke-width:1;"/></g><!--link data to bessy_py--><g class="link" data-entity-1="ent0005" data-entity-2="ent0006" data-link-type="dependency" data-source-line="22" id="lnk14"><path d="M222.93,186.6494 C231.49,193.7894 243.39,203.1594 254.73,210.1994 C286.12,229.6894 317.9578,245.3787 347.7578,258.7787" fill="none" id="data-to-bessy_py" style="stroke:#000000;stroke-width:1;"/><polygon fill="#000000" points="353.23,261.2394,346.6621,253.9002,348.6698,259.1888,343.3812,261.1965,353.23,261.2394" style="stroke:#000000;stroke-width:1;"/></g><!--link app to bessy_u--><g class="link" data-entity-1="ent0015" data-entity-2="ent0009" data-link-type="dependency" data-source-line="27" id="lnk16"><path d="M180.71,97.1294 C194.08,98.1894 201.4669,98.6863 214.8369,98.0463" fill="none" id="app-to-bessy_u" style="stroke:#000000;stroke-width:1;stroke-dasharray:7,7;"/><polygon fill="#000000" points="220.83,97.7594,211.649,94.1943,215.8357,97.9984,212.0315,102.1851,220.83,97.7594" style="stroke:#000000;stroke-width:1;"/></g><!--reverse link app to bessy_u--><g class="link" data-entity-1="ent0015" data-entity-2="ent0009" data-link-type="dependency" data-source-line="28" id="lnk17"><path d="M186.6916,63.9096 C200.0616,62.8596 207.46,63.1194 220.83,63.7594" fill="none" id="app-backto-bessy_u" style="stroke:#000000;stroke-width:1;stroke-dasharray:7,7;"/><polygon fill="#000000" points="180.71,64.3794,189.9955,67.6625,185.6947,63.9879,189.3692,59.687,180.71,64.3794" style="stroke:#000000;stroke-width:1;"/></g><!--link app to User--><g class="link" data-entity-1="ent0015" data-entity-2="ent0018" data-link-type="dependency" data-source-line="31" id="lnk19"><path d="M100.06,104.1594 C99.05,138.3794 97.278,198.102 96.038,239.872" fill="none" id="app-to-User" style="stroke:#000000;stroke-width:1;"/><polygon fill="#000000" points="95.86,245.8694,100.1253,236.992,96.0084,240.8716,92.1288,236.7546,95.86,245.8694" style="stroke:#000000;stroke-width:1;"/></g><!--link User to headset--><g class="link" data-entity-1="ent0018" data-entity-2="ent0012" data-link-type="dependency" data-source-line="32" id="lnk20"><path d="M111.04,284.8494 C122.33,284.8494 127.63,284.8494 138.92,284.8494" fill="none" id="User-to-headset" style="stroke:#000000;stroke-width:1;"/><polygon fill="#000000" points="144.92,284.8494,135.92,280.8494,139.92,284.8494,135.92,288.8494,144.92,284.8494" style="stroke:#000000;stroke-width:1;"/></g><?plantuml-src RP7FQiCm3CRlUWejz-G9Ic5_mbRee51w6cEeiLXC7TlOxi6ClVji9sbIM0wEfE_pJn9-23qFZ5QHr11aK0p7w0CFkDE17NL16Wsi1OuYTCfS1LPxEkCnEAP1wc_SKsHN8NbKNk4FOFewSidtJkx2pXTj6EELUd0iP6anEkoIhrml5AZ88WNm2w2DOAoUddVOUiywI58U3p7qHXVVcRsFNpR2r17hUhiKLqrmKzUBy3_tf6M8A-mLfd-XpZlDjGnSRp4ns_OLtvY4vr1G_HX3tgZSkIlSZJiZoXpuQAsI7MLu0P6r0Ed0PdkRBwURvaCRH_hosTpga5xJE3nvTiMJsvGa7vYIQOW_?></g></svg>