<?plantuml 1.2026.2beta3?><svg xmlns="http://www.w3.org/2000/svg" xmlns:xlink="http://www.w3.org/1999/xlink" contentStyleType="text/css" data-diagram-type="CLASS" height="651px" preserveAspectRatio="none" style="width:1274px;height:651px;background:#FFFFFF;" version="1.1" viewBox="0 0 1274 651" width="1274px" zoomAndPan="magnify"><title>Core Behaviour Classes</title><defs/><g><g class="title" data-source-line="2"><text fill="#000000" font-family="Verdana" font-size="22" font-weight="bold" lengthAdjust="spacing" textLength="290.791" x="487.1045" y="35.4209">Core Behaviour Classes</text></g><!--cluster Selection--><g class="cluster" data-qualified-name="Selection" data-source-line="5" id="ent0003"><path d="M1027.5,454.4194 L1101.7471,454.4194 A3.75,3.75 0 0 1 1104.2471,456.9194 L1111.2471,476.7162 L1264.5,476.7162 A2.5,2.5 0 0 1 1267,479.2162 L1267,586.9194 A2.5,2.5 0 0 1 1264.5,589.4194 L1027.5,589.4194 A2.5,2.5 0 0 1 1025,586.9194 L1025,456.9194 A2.5,2.5 0 0 1 1027.5,454.4194" fill="#FFFFFF" style="stroke:#000000;stroke-width:1;"/><line style="stroke:#000000;stroke-width:1;" x1="1025" x2="1111.2471" y1="476.7162" y2="476.7162"/><text fill="#000000" font-family="Verdana" font-size="14" font-weight="bold" lengthAdjust="spacing" textLength="73.2471" x="1029" y="469.4145">Selection</text></g><!--cluster Behaviours--><g class="cluster" data-qualified-name="Behaviours" data-source-line="9" id="ent0005"><path d="M13.5,57.6094 L102.8271,57.6094 A3.75,3.75 0 0 1 105.3271,60.1094 L112.3271,79.9063 L998.5,79.9063 A2.5,2.5 0 0 1 1001,82.4063 L1001,642.2594 A2.5,2.5 0 0 1 998.5,644.7594 L13.5,644.7594 A2.5,2.5 0 0 1 11,642.2594 L11,60.1094 A2.5,2.5 0 0 1 13.5,57.6094" fill="#FFFFFF" style="stroke:#000000;stroke-width:1;"/><line style="stroke:#000000;stroke-width:1;" x1="11" x2="112.3271" y1="79.9063" y2="79.9063"/><text fill="#000000" font-family="Verdana" font-size="14" font-weight="bold" lengthAdjust="spacing" textLength="88.3271" x="15" y="72.6045">Behaviours</text></g><!--class IPredictionSink--><g class="entity" data-qualified-name="Selection.IPredictionSink" data-source-line="5" id="ent0002"><rect fill="#FFFFFF" height="60.2969" rx="2.5" ry="2.5" style="stroke:#000000;stroke-width:1;" width="177.1494" x="1057.5" y="501.4194"/><ellipse cx="1090.8225" cy="515.4194" fill="#FFFFFF" rx="9" ry="9" style="stroke:#000000;stroke-width:1;"/><path d="M1086.7444,511.185 L1086.7444,509.0287 L1094.135,509.0287 L1094.135,511.185 L1091.6663,511.185 L1091.6663,519.2631 L1094.135,519.2631 L1094.135,521.4194 L1086.7444,521.4194 L1086.7444,519.2631 L1089.2131,519.2631 L1089.2131,511.185 L1086.7444,511.185 Z " fill="#000000"/><text fill="#000000" font-family="Verdana" font-size="14" font-style="italic" lengthAdjust="spacing" textLength="103.9883" x="1107.3386" y="520.2661">IPredictionSink</text><line style="stroke:#000000;stroke-width:1;" x1="1058.5" x2="1233.6494" y1="529.4194" y2="529.4194"/><line style="stroke:#000000;stroke-width:1;" x1="1058.5" x2="1233.6494" y1="537.4194" y2="537.4194"/><text fill="#000000" font-family="Verdana" font-size="14" lengthAdjust="spacing" textLength="165.1494" x="1063.5" y="554.4145">void MakeSelection(int)</text></g><!--class IBCIMarkerSource--><g class="entity" data-qualified-name="Behaviours.IBCIMarkerSource" data-source-line="9" id="ent0004"><rect fill="#FFFFFF" height="60.2969" rx="2.5" ry="2.5" style="stroke:#000000;stroke-width:1;" width="225.4111" x="674.5" y="501.4194"/><ellipse cx="720.9956" cy="515.4194" fill="#FFFFFF" rx="9" ry="9" style="stroke:#000000;stroke-width:1;"/><path d="M716.9175,511.185 L716.9175,509.0287 L724.3081,509.0287 L724.3081,511.185 L721.8394,511.185 L721.8394,519.2631 L724.3081,519.2631 L724.3081,521.4194 L716.9175,521.4194 L716.9175,519.2631 L719.3862,519.2631 L719.3862,511.185 L716.9175,511.185 Z " fill="#000000"/><text fill="#000000" font-family="Verdana" font-size="14" font-style="italic" lengthAdjust="spacing" textLength="124.9199" x="738.4956" y="520.2661">IBCIMarkerSource</text><line style="stroke:#000000;stroke-width:1;" x1="675.5" x2="898.9111" y1="529.4194" y2="529.4194"/><text fill="#000000" font-family="Verdana" font-size="14" lengthAdjust="spacing" textLength="213.4111" x="680.5" y="546.4145">LSLMarkerWriter MarkerWriter</text><line style="stroke:#000000;stroke-width:1;" x1="675.5" x2="898.9111" y1="553.7163" y2="553.7163"/></g><!--class CoroutineBehaviour--><g class="entity" data-qualified-name="Behaviours.CoroutineBehaviour" data-source-line="15" id="ent0006"><rect fill="#FFFFFF" height="166.0781" rx="2.5" ry="2.5" style="stroke:#000000;stroke-width:1;" width="233.6621" x="27.17" y="208.0094"/><ellipse cx="70.5313" cy="222.0094" fill="#FFFFFF" rx="9" ry="9" style="stroke:#000000;stroke-width:1;"/><path d="M70.6407,217.3531 L69.4845,222.4312 L71.8126,222.4312 L70.6407,217.3531 Z M69.1563,215.1187 L72.1407,215.1187 L75.5001,227.5094 L73.047,227.5094 L72.2813,224.4469 L69.0001,224.4469 L68.2501,227.5094 L65.8126,227.5094 L69.1563,215.1187 Z " fill="#000000"/><text fill="#000000" font-family="Verdana" font-size="14" font-style="italic" lengthAdjust="spacing" textLength="139.4395" x="88.0313" y="226.8561">CoroutineBehaviour</text><line style="stroke:#000000;stroke-width:1;" x1="28.17" x2="259.8321" y1="236.0094" y2="236.0094"/><text fill="#000000" font-family="Verdana" font-size="14" lengthAdjust="spacing" textLength="103.7764" x="33.17" y="253.0045">bool IsRunning</text><line style="stroke:#000000;stroke-width:1;" x1="28.17" x2="259.8321" y1="260.3063" y2="260.3063"/><text fill="#000000" font-family="Verdana" font-size="14" lengthAdjust="spacing" textLength="84.8682" x="33.17" y="277.3014">void Begin()</text><text fill="#000000" font-family="Verdana" font-size="14" lengthAdjust="spacing" textLength="106.8662" x="33.17" y="293.5982">void Interrupt()</text><text fill="#000000" font-family="Verdana" font-size="14" lengthAdjust="spacing" textLength="221.6621" x="33.17" y="309.8951">IEnumerator AwaitCompletion()</text><line style="stroke:#000000;stroke-width:1;stroke-dasharray:1,2;" x1="28.17" x2="259.8321" y1="317.1969" y2="317.1969"/><g data-visibility-modifier="PROTECTED_METHOD"><polygon fill="#FFFFFF" points="38.17,325.8453,42.17,329.8453,38.17,333.8453,34.17,329.8453" style="stroke:#000000;stroke-width:1;"/></g><text fill="#000000" font-family="Verdana" font-size="14" font-style="italic" lengthAdjust="spacing" textLength="129.9648" x="45.17" y="334.192">IEnumerator Run()</text><g data-visibility-modifier="PROTECTED_METHOD"><polygon fill="#FFFFFF" points="38.17,342.1422,42.17,346.1422,38.17,350.1422,34.17,346.1422" style="stroke:#000000;stroke-width:1;"/></g><text fill="#000000" font-family="Verdana" font-size="14" font-style="italic" lengthAdjust="spacing" textLength="87.124" x="45.17" y="350.4889">void SetUp()</text><g data-visibility-modifier="PROTECTED_METHOD"><polygon fill="#FFFFFF" points="38.17,358.4391,42.17,362.4391,38.17,366.4391,34.17,362.4391" style="stroke:#000000;stroke-width:1;"/></g><text fill="#000000" font-family="Verdana" font-size="14" font-style="italic" lengthAdjust="spacing" textLength="103.8652" x="45.17" y="366.7857">void CleanUp()</text></g><g class="entity" data-qualified-name="Behaviours.GMN7" data-source-line="27" id="ent0008"><path d="M26.59,100.1794 L26.59,140.445 A0,0 0 0 0 26.59,140.445 L174.53,140.445 L163.01,207.7994 L182.53,140.445 L339.4045,140.445 A0,0 0 0 0 339.4045,140.445 L339.4045,110.1794 L329.4045,100.1794 L26.59,100.1794 A0,0 0 0 0 26.59,100.1794" fill="#FFFFFF" style="stroke:#000000;stroke-width:1;"/><path d="M329.4045,100.1794 L329.4045,110.1794 L339.4045,110.1794 L329.4045,100.1794" fill="#FFFFFF" style="stroke:#000000;stroke-width:1;"/><text fill="#000000" font-family="Verdana" font-size="13" lengthAdjust="spacing" textLength="283.2515" x="32.59" y="117.2463">Base class for training and trial behaviours,</text><text fill="#000000" font-family="Verdana" font-size="13" lengthAdjust="spacing" textLength="291.8145" x="32.59" y="132.3791">providing clear routine structure and utilities</text></g><!--class CommunicationComponentProvider--><g class="entity" data-qualified-name="Behaviours.CommunicationComponentProvider" data-source-line="31" id="ent0010"><rect fill="#FFFFFF" height="109.1875" rx="2.5" ry="2.5" style="stroke:#000000;stroke-width:1;" width="396.0322" x="588.98" y="236.4594"/><ellipse cx="658.3364" cy="250.4594" fill="#FFFFFF" rx="9" ry="9" style="stroke:#000000;stroke-width:1;"/><path d="M661.3052,256.1 Q660.7271,256.3969 660.0864,256.5375 Q659.4458,256.6937 658.7427,256.6937 Q656.2427,256.6937 654.9146,255.0531 Q653.6021,253.3969 653.6021,250.2719 Q653.6021,247.1469 654.9146,245.4906 Q656.2427,243.8344 658.7427,243.8344 Q659.4458,243.8344 660.0864,243.9906 Q660.7427,244.1469 661.3052,244.4437 L661.3052,247.1625 Q660.6802,246.5844 660.0864,246.3187 Q659.4927,246.0375 658.8677,246.0375 Q657.5239,246.0375 656.8364,247.1156 Q656.1489,248.1781 656.1489,250.2719 Q656.1489,252.3656 656.8364,253.4437 Q657.5239,254.5062 658.8677,254.5062 Q659.4927,254.5062 660.0864,254.2406 Q660.6802,253.9594 661.3052,253.3812 L661.3052,256.1 Z " fill="#000000"/><text fill="#000000" font-family="Verdana" font-size="14" lengthAdjust="spacing" textLength="249.8193" x="675.8364" y="255.3061">CommunicationComponentProvider</text><line style="stroke:#000000;stroke-width:1;" x1="589.98" x2="984.0122" y1="264.4594" y2="264.4594"/><g data-visibility-modifier="PROTECTED_FIELD"><polygon fill="none" points="599.98,273.1078,603.98,277.1078,599.98,281.1078,595.98,277.1078" style="stroke:#000000;stroke-width:1;"/></g><text fill="#000000" font-family="Verdana" font-size="14" lengthAdjust="spacing" textLength="213.4111" x="606.98" y="281.4545">LSLMarkerWriter MarkerWriter</text><g data-visibility-modifier="PROTECTED_FIELD"><polygon fill="none" points="599.98,289.4047,603.98,293.4047,599.98,297.4047,595.98,293.4047" style="stroke:#000000;stroke-width:1;"/></g><text fill="#000000" font-family="Verdana" font-size="14" lengthAdjust="spacing" textLength="281.0596" x="606.98" y="297.7514">LSLResponseProvider ResponseProvider</text><line style="stroke:#000000;stroke-width:1;" x1="589.98" x2="984.0122" y1="305.0531" y2="305.0531"/><g data-visibility-modifier="PROTECTED_METHOD"><polygon fill="#FFFFFF" points="599.98,313.7016,603.98,317.7016,599.98,321.7016,595.98,317.7016" style="stroke:#000000;stroke-width:1;"/></g><text fill="#000000" font-family="Verdana" font-size="14" lengthAdjust="spacing" textLength="372.0322" x="606.98" y="322.0482">void ProvideCommunicationComponentsToChildren()</text><text fill="#000000" font-family="Verdana" font-size="14" lengthAdjust="spacing" textLength="159.6123" x="606.98" y="338.3451">void UpdateClassifier()</text></g><g class="entity" data-qualified-name="Behaviours.GMN11" data-source-line="38" id="ent0012"><path d="M612.26,92.6094 L612.26,148.0078 A0,0 0 0 0 612.26,148.0078 L783,148.0078 L787,236.0794 L791,148.0078 L961.7322,148.0078 A0,0 0 0 0 961.7322,148.0078 L961.7322,102.6094 L951.7322,92.6094 L612.26,92.6094 A0,0 0 0 0 612.26,92.6094" fill="#FFFFFF" style="stroke:#000000;stroke-width:1;"/><path d="M951.7322,92.6094 L951.7322,102.6094 L961.7322,102.6094 L951.7322,92.6094" fill="#FFFFFF" style="stroke:#000000;stroke-width:1;"/><text fill="#000000" font-family="Verdana" font-size="13" lengthAdjust="spacing" textLength="310.21" x="618.26" y="109.6763">Fetches or creates LSL framework components,</text><text fill="#000000" font-family="Verdana" font-size="13" lengthAdjust="spacing" textLength="295.5024" x="618.26" y="124.8091">providing them to any children implementing</text><text fill="#000000" font-family="Verdana" font-size="13" lengthAdjust="spacing" textLength="328.4722" x="618.26" y="139.9419">the IBCIMarkerSource or IPredictionSink interfaces</text></g><!--class BCIController--><g class="entity" data-qualified-name="Behaviours.BCIController" data-source-line="45" id="ent0016"><rect fill="#FFFFFF" height="194.6719" rx="2.5" ry="2.5" style="stroke:#000000;stroke-width:1;" width="289.0635" x="311.47" y="434.0894"/><ellipse cx="405.9109" cy="448.0894" fill="#FFFFFF" rx="9" ry="9" style="stroke:#000000;stroke-width:1;"/><path d="M408.8797,453.73 Q408.3015,454.0269 407.6609,454.1675 Q407.0203,454.3238 406.3172,454.3238 Q403.8172,454.3238 402.489,452.6831 Q401.1765,451.0269 401.1765,447.9019 Q401.1765,444.7769 402.489,443.1206 Q403.8172,441.4644 406.3172,441.4644 Q407.0203,441.4644 407.6609,441.6206 Q408.3172,441.7769 408.8797,442.0738 L408.8797,444.7925 Q408.2547,444.2144 407.6609,443.9488 Q407.0672,443.6675 406.4422,443.6675 Q405.0984,443.6675 404.4109,444.7456 Q403.7234,445.8081 403.7234,447.9019 Q403.7234,449.9956 404.4109,451.0738 Q405.0984,452.1363 406.4422,452.1363 Q407.0672,452.1363 407.6609,451.8706 Q408.2547,451.5894 408.8797,451.0113 L408.8797,453.73 Z " fill="#000000"/><text fill="#000000" font-family="Verdana" font-size="14" lengthAdjust="spacing" textLength="92.6816" x="423.4109" y="452.9361">BCIController</text><line style="stroke:#000000;stroke-width:1;" x1="312.47" x2="599.5335" y1="462.0894" y2="462.0894"/><text fill="#000000" font-family="Verdana" font-size="14" lengthAdjust="spacing" textLength="134.4424" x="317.47" y="479.0845">bool IsRunningTrial</text><text fill="#000000" font-family="Verdana" font-size="14" lengthAdjust="spacing" textLength="161.0752" x="317.47" y="495.3814">bool IsRunningTraining</text><g data-visibility-modifier="PRIVATE_FIELD"><rect fill="none" height="6" style="stroke:#000000;stroke-width:1;" width="6" x="319.47" y="525.6284"/></g><text fill="#000000" font-family="Verdana" font-size="14" lengthAdjust="spacing" textLength="211.7979" x="329.47" y="531.9751">TrialBehaviour _trialBehaviour</text><g data-visibility-modifier="PRIVATE_FIELD"><rect fill="none" height="6" style="stroke:#000000;stroke-width:1;" width="6" x="319.47" y="541.9253"/></g><text fill="#000000" font-family="Verdana" font-size="14" lengthAdjust="spacing" textLength="265.0635" x="329.47" y="548.272">TrainingBehaviour _trainingBehaviour</text><line style="stroke:#000000;stroke-width:1;stroke-dasharray:1,2;" x1="312.47" x2="401.6458" y1="510.8316" y2="510.8316"/><text fill="#000000" font-family="Verdana" font-size="14" lengthAdjust="spacing" textLength="108.7119" x="401.6458" y="515.1782">serialized fields</text><line style="stroke:#000000;stroke-width:1;stroke-dasharray:1,2;" x1="510.3577" x2="599.5335" y1="510.8316" y2="510.8316"/><line style="stroke:#000000;stroke-width:1;" x1="312.47" x2="599.5335" y1="555.5738" y2="555.5738"/><text fill="#000000" font-family="Verdana" font-size="14" lengthAdjust="spacing" textLength="109.8672" x="317.47" y="572.5689">void StartTrial()</text><text fill="#000000" font-family="Verdana" font-size="14" lengthAdjust="spacing" textLength="137.5322" x="317.47" y="588.8657">void InterruptTrial()</text><text fill="#000000" font-family="Verdana" font-size="14" lengthAdjust="spacing" textLength="136.5" x="317.47" y="605.1626">void StartTraining()</text><text fill="#000000" font-family="Verdana" font-size="14" lengthAdjust="spacing" textLength="164.165" x="317.47" y="621.4595">void InterruptTraining()</text></g><!--class BCIControllerShortcuts--><g class="entity" data-qualified-name="Behaviours.BCIControllerShortcuts" data-source-line="58" id="ent0018"><rect fill="#FFFFFF" height="121.4844" rx="2.5" ry="2.5" style="stroke:#000000;stroke-width:1;" width="258.8525" x="295.57" y="230.3094"/><ellipse cx="341.4435" cy="244.3094" fill="#FFFFFF" rx="9" ry="9" style="stroke:#000000;stroke-width:1;"/><path d="M344.4123,249.95 Q343.8342,250.2469 343.1935,250.3875 Q342.5529,250.5438 341.8498,250.5438 Q339.3498,250.5438 338.0217,248.9031 Q336.7092,247.2469 336.7092,244.1219 Q336.7092,240.9969 338.0217,239.3406 Q339.3498,237.6844 341.8498,237.6844 Q342.5529,237.6844 343.1935,237.8406 Q343.8498,237.9969 344.4123,238.2938 L344.4123,241.0125 Q343.7873,240.4344 343.1935,240.1688 Q342.5998,239.8875 341.9748,239.8875 Q340.631,239.8875 339.9435,240.9656 Q339.256,242.0281 339.256,244.1219 Q339.256,246.2156 339.9435,247.2938 Q340.631,248.3563 341.9748,248.3563 Q342.5998,248.3563 343.1935,248.0906 Q343.7873,247.8094 344.4123,247.2313 L344.4123,249.95 Z " fill="#000000"/><text fill="#000000" font-family="Verdana" font-size="14" lengthAdjust="spacing" textLength="159.6055" x="358.9435" y="249.1561">BCIControllerShortcuts</text><line style="stroke:#000000;stroke-width:1;" x1="296.57" x2="553.4225" y1="258.3094" y2="258.3094"/><text fill="#000000" font-family="Verdana" font-size="14" lengthAdjust="spacing" textLength="220.2197" x="301.57" y="275.3045">KeyBind ToggleTrialRunBinding</text><text fill="#000000" font-family="Verdana" font-size="14" lengthAdjust="spacing" textLength="246.8525" x="301.57" y="291.6014">KeyBind ToggleTrainingRunBinding</text><text fill="#000000" font-family="Verdana" font-size="14" lengthAdjust="spacing" textLength="229.2979" x="301.57" y="307.8982">KeyBind UpdateClassifierBinding</text><g data-visibility-modifier="PRIVATE_FIELD"><rect fill="none" height="6" style="stroke:#000000;stroke-width:1;" width="6" x="303.57" y="338.1453"/></g><text fill="#000000" font-family="Verdana" font-size="14" lengthAdjust="spacing" textLength="146.9453" x="313.57" y="344.492">BCIController _target</text><line style="stroke:#000000;stroke-width:1;stroke-dasharray:1,2;" x1="296.57" x2="370.6403" y1="323.3484" y2="323.3484"/><text fill="#000000" font-family="Verdana" font-size="14" lengthAdjust="spacing" textLength="108.7119" x="370.6403" y="327.6951">serialized fields</text><line style="stroke:#000000;stroke-width:1;stroke-dasharray:1,2;" x1="479.3522" x2="553.4225" y1="323.3484" y2="323.3484"/></g><!--link CommunicationComponentProvider to IBCIMarkerSource--><g class="link" data-entity-1="ent0010" data-entity-2="ent0004" data-link-type="dependency" data-source-line="42" id="lnk14"><path codeLine="42" d="M834.6,345.8494 C896.27,419.1594 992.33,541.4194 907,541.4194" fill="none" id="CommunicationComponentProvider-to-IBCIMarkerSource" style="stroke:#000000;stroke-width:1;stroke-dasharray:7,7;"/><polygon fill="#000000" points="901,541.4194,910,545.4194,906,541.4194,910,537.4194,901,541.4194" style="stroke:#000000;stroke-width:1;"/></g><!--link CommunicationComponentProvider to IPredictionSink--><g class="link" data-entity-1="ent0010" data-entity-2="ent0002" data-link-type="dependency" data-source-line="43" id="lnk15"><path codeLine="43" d="M839.59,345.9994 C913.67,421.4694 1035.42,549.4194 1050,549.4194" fill="none" id="CommunicationComponentProvider-to-IPredictionSink" style="stroke:#000000;stroke-width:1;stroke-dasharray:7,7;"/><polygon fill="#000000" points="1056,549.4194,1047,545.4194,1051,549.4194,1047,553.4194,1056,549.4194" style="stroke:#000000;stroke-width:1;"/></g><!--reverse link CommunicationComponentProvider to BCIController--><g class="link" data-entity-1="ent0010" data-entity-2="ent0016" data-link-type="extension" data-source-line="46" id="lnk17"><path d="M697.2835,356.6585 C661.3335,382.5485 631.77,403.8394 590.32,433.6894" fill="none" id="CommunicationComponentProvider-backto-BCIController" style="stroke:#000000;stroke-width:1;"/><polygon fill="none" points="711.89,346.1394,693.7772,351.7896,700.7899,361.5273,711.89,346.1394" style="stroke:#000000;stroke-width:1;"/></g><!--link BCIControllerShortcuts to BCIController--><g class="link" data-entity-1="ent0018" data-entity-2="ent0016" data-link-type="dependency" data-source-line="65" id="lnk19"><path codeLine="65" d="M432.82,352.1994 C436.03,376.8894 439.0568,400.1494 442.6368,427.6994" fill="none" id="BCIControllerShortcuts-to-BCIController" style="stroke:#000000;stroke-width:1;"/><polygon fill="#000000" points="443.41,433.6494,446.2169,424.209,442.7657,428.6911,438.2836,425.2399,443.41,433.6494" style="stroke:#000000;stroke-width:1;"/></g><?plantuml-src bLLDRzim3BtdLt3efGMM_80U2Yp62WHhWQ9EiMEXsan2H94CYKxN5VdlespFaPolpOV0eXuVgQT7vmklS8DGQKLcnCGQ8RCEOOehjILREyYqyXxzQCHsYO9sy3a2USWmkeKg47BKM31PCvazEIofUS_9h3jaUBQMIdXKQ-p1rq9mq-plHWF2lhYVpARPx56vDRfSrhAtftp87zgTduua4-95nolCHctGLobhHwBUF3jLS3YnhPaCxa-zB_DchOQPVwwD8RFim-DnUhOfBibStwJ1MJYIgokEDcRVJRr1fzWw-FQkY3ExgJGsaknHaqd_-lctpnrS9TdIKfIHm9hgEV9BTHQHQLIcn-oQNsCPWMtLfqsLHoY22s0XLOM1WXAWJ2aBKXhUUcM_zbcLirig0wwG8WuwXK4wg0kknM8XNsAQcCHU8GSb4igtVcXBYZgRsb2XWa11AclGy5F3Zl4zNLqsH0zx5ajOux6d6GOYU2DK5p_UZ9_RR4MwT7XWW9UgL8pD2D62q9rN-XwvMA47KRbmA8a-D0iB9nv-jsuDHL_ocD1Xb8LFXFs0eci8A9Xh8ocnUGK91vCbLOVpsu_au7x2uiB5J2Pt1oLkRm-kv5zOqgO2IVGPYRqYvJ9hs5cj9HT_iJJy7mvA9tqUh7rohvs1Q5mz1ZpznXBaedNfemaUGqEs_xgySh9EW2rpWXs4Jdw3SbQEcr8dFqH7TxkyjioPr0ImEwbylhAEYvfzfEqF_9YIs6TkbqkDJHUYPGZ5CWvHRS4pmE5y3N6NxYLrpAle8FznqOYUEDTuV9TkZNP_0000?></g></svg>