<?plantuml 1.2026.2beta3?><svg xmlns="http://www.w3.org/2000/svg" xmlns:xlink="http://www.w3.org/1999/xlink" contentStyleType="text/css" data-diagram-type="CLASS" height="825px" preserveAspectRatio="none" style="width:785px;height:825px;background:#FFFFFF;" version="1.1" viewBox="0 0 785 825" width="785px" zoomAndPan="magnify"><title>Training Behaviours</title><defs/><g><g class="title" data-source-line="2"><text fill="#000000" font-family="Verdana" font-size="22" font-weight="bold" lengthAdjust="spacing" textLength="249.3154" x="263.3423" y="35.4209">Training Behaviours</text></g><!--cluster Behaviours--><g class="cluster" data-qualified-name="Behaviours" data-source-line="4" id="ent0002"><path d="M13.5,57.6094 L102.8271,57.6094 A3.75,3.75 0 0 1 105.3271,60.1094 L112.3271,79.9063 L775.5,79.9063 A2.5,2.5 0 0 1 778,82.4063 L778,816.4894 A2.5,2.5 0 0 1 775.5,818.9894 L13.5,818.9894 A2.5,2.5 0 0 1 11,816.4894 L11,60.1094 A2.5,2.5 0 0 1 13.5,57.6094" fill="#FFFFFF" style="stroke:#000000;stroke-width:1;"/><line style="stroke:#000000;stroke-width:1;" x1="11" x2="112.3271" y1="79.9063" y2="79.9063"/><text fill="#000000" font-family="Verdana" font-size="14" font-weight="bold" lengthAdjust="spacing" textLength="88.3271" x="15" y="72.6045">Behaviours</text></g><!--cluster Trialing--><g class="cluster" data-qualified-name="Behaviours.Trialing" data-source-line="11" id="ent0005"><path d="M608.5,520.9894 L669.7861,520.9894 A3.75,3.75 0 0 1 672.2861,523.4894 L679.2861,543.2863 L751.5,543.2863 A2.5,2.5 0 0 1 754,545.7863 L754,627.4894 A2.5,2.5 0 0 1 751.5,629.9894 L608.5,629.9894 A2.5,2.5 0 0 1 606,627.4894 L606,523.4894 A2.5,2.5 0 0 1 608.5,520.9894" fill="#FFFFFF" style="stroke:#000000;stroke-width:1;"/><line style="stroke:#000000;stroke-width:1;" x1="606" x2="679.2861" y1="543.2863" y2="543.2863"/><text fill="#000000" font-family="Verdana" font-size="14" font-weight="bold" lengthAdjust="spacing" textLength="60.2861" x="610" y="535.9845">Trialing</text></g><!--cluster Training--><g class="cluster" data-qualified-name="Behaviours.Training" data-source-line="16" id="ent0007"><path d="M37.5,177.9094 L103.9541,177.9094 A3.75,3.75 0 0 1 106.4541,180.4094 L113.4541,200.2062 L579.5,200.2062 A2.5,2.5 0 0 1 582,202.7062 L582,792.4894 A2.5,2.5 0 0 1 579.5,794.9894 L37.5,794.9894 A2.5,2.5 0 0 1 35,792.4894 L35,180.4094 A2.5,2.5 0 0 1 37.5,177.9094" fill="#FFFFFF" style="stroke:#000000;stroke-width:1;"/><line style="stroke:#000000;stroke-width:1;" x1="35" x2="113.4541" y1="200.2062" y2="200.2062"/><text fill="#000000" font-family="Verdana" font-size="14" font-weight="bold" lengthAdjust="spacing" textLength="65.4541" x="39" y="192.9045">Training</text></g><!--entity CoroutineBehaviour--><g class="entity" data-qualified-name="Behaviours.CoroutineBehaviour" data-source-line="5" id="ent0003"><ellipse cx="142" cy="122.7594" fill="#FFFFFF" rx="8" ry="8" style="stroke:#000000;stroke-width:1;"/><text fill="#000000" font-family="Verdana" font-size="14" lengthAdjust="spacing" textLength="139.4395" x="72.2803" y="152.7545">CoroutineBehaviour</text></g><!--class IBCIMarkerSource--><g class="entity" data-qualified-name="Behaviours.IBCIMarkerSource" data-source-line="7" id="ent0004"><rect fill="#FFFFFF" height="60.2969" rx="2.5" ry="2.5" style="stroke:#000000;stroke-width:1;" width="225.4111" x="254.29" y="92.6094"/><ellipse cx="300.7856" cy="106.6094" fill="#FFFFFF" rx="9" ry="9" style="stroke:#000000;stroke-width:1;"/><path d="M296.7075,102.375 L296.7075,100.2188 L304.0981,100.2188 L304.0981,102.375 L301.6294,102.375 L301.6294,110.4531 L304.0981,110.4531 L304.0981,112.6094 L296.7075,112.6094 L296.7075,110.4531 L299.1762,110.4531 L299.1762,102.375 L296.7075,102.375 Z " fill="#000000"/><text fill="#000000" font-family="Verdana" font-size="14" font-style="italic" lengthAdjust="spacing" textLength="124.9199" x="318.2856" y="111.4561">IBCIMarkerSource</text><line style="stroke:#000000;stroke-width:1;" x1="255.29" x2="478.7011" y1="120.6094" y2="120.6094"/><text fill="#000000" font-family="Verdana" font-size="14" lengthAdjust="spacing" textLength="213.4111" x="260.29" y="137.6045">LSLMarkerWriter MarkerWriter</text><line style="stroke:#000000;stroke-width:1;" x1="255.29" x2="478.7011" y1="144.9063" y2="144.9063"/></g><!--entity TrialBehaviour--><g class="entity" data-qualified-name="Behaviours.Trialing.TrialBehaviour" data-source-line="12" id="ent0006"><ellipse cx="680" cy="584.9894" fill="#FFFFFF" rx="8" ry="8" style="stroke:#000000;stroke-width:1;"/><text fill="#000000" font-family="Verdana" font-size="14" lengthAdjust="spacing" textLength="101.7051" x="629.1475" y="614.9845">TrialBehaviour</text></g><!--class TrainingBehaviour--><g class="entity" data-qualified-name="Behaviours.Training.TrainingBehaviour" data-source-line="17" id="ent0008"><rect fill="#FFFFFF" height="44" rx="2.5" ry="2.5" style="stroke:#000000;stroke-width:1;" width="156.3379" x="194.83" y="212.9094"/><ellipse cx="207.83" cy="226.9094" fill="#FFFFFF" rx="9" ry="9" style="stroke:#000000;stroke-width:1;"/><path d="M207.9394,222.2531 L206.7831,227.3312 L209.1113,227.3312 L207.9394,222.2531 Z M206.455,220.0187 L209.4394,220.0187 L212.7988,232.4094 L210.3456,232.4094 L209.58,229.3469 L206.2988,229.3469 L205.5488,232.4094 L203.1113,232.4094 L206.455,220.0187 Z " fill="#000000"/><text fill="#000000" font-family="Verdana" font-size="14" font-style="italic" lengthAdjust="spacing" textLength="128.3379" x="219.83" y="231.7561">TrainingBehaviour</text><line style="stroke:#000000;stroke-width:1;" x1="195.83" x2="350.1679" y1="240.9094" y2="240.9094"/><line style="stroke:#000000;stroke-width:1;" x1="195.83" x2="350.1679" y1="248.9094" y2="248.9094"/></g><!--class TargetIndicationBehaviour--><g class="entity" data-qualified-name="Behaviours.Training.TargetIndicationBehaviour" data-source-line="18" id="ent0011"><rect fill="#FFFFFF" height="92.8906" rx="2.5" ry="2.5" style="stroke:#000000;stroke-width:1;" width="229.8682" x="59.5" y="538.9894"/><ellipse cx="79.7365" cy="552.9894" fill="#FFFFFF" rx="9" ry="9" style="stroke:#000000;stroke-width:1;"/><path d="M79.8458,548.3331 L78.6896,553.4113 L81.0177,553.4113 L79.8458,548.3331 Z M78.3615,546.0988 L81.3458,546.0988 L84.7052,558.4894 L82.2521,558.4894 L81.4865,555.4269 L78.2052,555.4269 L77.4552,558.4894 L75.0177,558.4894 L78.3615,546.0988 Z " fill="#000000"/><text fill="#000000" font-family="Verdana" font-size="14" font-style="italic" lengthAdjust="spacing" textLength="185.7871" x="93.3446" y="557.8361">TargetIndicationBehaviour</text><line style="stroke:#000000;stroke-width:1;" x1="60.5" x2="288.3682" y1="566.9894" y2="566.9894"/><text fill="#000000" font-family="Verdana" font-size="14" font-style="italic" lengthAdjust="spacing" textLength="111.002" x="65.5" y="583.9845">int OptionCount</text><line style="stroke:#000000;stroke-width:1;" x1="60.5" x2="288.3682" y1="591.2863" y2="591.2863"/><text fill="#000000" font-family="Verdana" font-size="14" font-style="italic" lengthAdjust="spacing" textLength="217.8682" x="65.5" y="608.2814">void BeginTargetIndication(int)</text><text fill="#000000" font-family="Verdana" font-size="14" font-style="italic" lengthAdjust="spacing" textLength="186.3545" x="65.5" y="624.5782">void EndTargetIndication()</text></g><!--class ITargetable--><g class="entity" data-qualified-name="Behaviours.Training.ITargetable" data-source-line="23" id="ent0012"><rect fill="#FFFFFF" height="76.5938" rx="2.5" ry="2.5" style="stroke:#000000;stroke-width:1;" width="205.9492" x="71.5" y="698.9894"/><ellipse cx="130.7378" cy="712.9894" fill="#FFFFFF" rx="9" ry="9" style="stroke:#000000;stroke-width:1;"/><path d="M126.6597,708.755 L126.6597,706.5988 L134.0503,706.5988 L134.0503,708.755 L131.5815,708.755 L131.5815,716.8331 L134.0503,716.8331 L134.0503,718.9894 L126.6597,718.9894 L126.6597,716.8331 L129.1284,716.8331 L129.1284,708.755 L126.6597,708.755 Z " fill="#000000"/><text fill="#000000" font-family="Verdana" font-size="14" font-style="italic" lengthAdjust="spacing" textLength="79.9736" x="148.2378" y="717.8361">ITargetable</text><line style="stroke:#000000;stroke-width:1;" x1="72.5" x2="276.4492" y1="726.9894" y2="726.9894"/><line style="stroke:#000000;stroke-width:1;" x1="72.5" x2="276.4492" y1="734.9894" y2="734.9894"/><text fill="#000000" font-family="Verdana" font-size="14" lengthAdjust="spacing" textLength="193.9492" x="77.5" y="751.9845">void StartTargetIndication()</text><text fill="#000000" font-family="Verdana" font-size="14" lengthAdjust="spacing" textLength="186.3545" x="77.5" y="768.2814">void EndTargetIndication()</text></g><!--entity custom--><g class="entity" data-qualified-name="Behaviours.Training.custom" data-source-line="29" id="ent0014"><ellipse cx="180" cy="395.9494" fill="#FFFFFF" rx="8" ry="8" style="stroke:#000000;stroke-width:1;"/><text fill="#000000" font-family="Verdana" font-size="14" lengthAdjust="spacing" textLength="198.167" x="80.9165" y="425.9445">Custom Training Behaviours</text></g><!--class SingleRoundTrainingBehaviour--><g class="entity" data-qualified-name="Behaviours.Training.SingleRoundTrainingBehaviour" data-source-line="32" id="ent0016"><rect fill="#FFFFFF" height="158.0781" rx="2.5" ry="2.5" style="stroke:#000000;stroke-width:1;" width="244.3027" x="321.85" y="316.9094"/><ellipse cx="334.85" cy="330.9094" fill="#FFFFFF" rx="9" ry="9" style="stroke:#000000;stroke-width:1;"/><path d="M337.8188,336.55 Q337.2406,336.8469 336.6,336.9875 Q335.9594,337.1437 335.2563,337.1437 Q332.7563,337.1437 331.4281,335.5031 Q330.1156,333.8469 330.1156,330.7219 Q330.1156,327.5969 331.4281,325.9406 Q332.7563,324.2844 335.2563,324.2844 Q335.9594,324.2844 336.6,324.4406 Q337.2563,324.5969 337.8188,324.8937 L337.8188,327.6125 Q337.1938,327.0344 336.6,326.7687 Q336.0063,326.4875 335.3813,326.4875 Q334.0375,326.4875 333.35,327.5656 Q332.6625,328.6281 332.6625,330.7219 Q332.6625,332.8156 333.35,333.8937 Q334.0375,334.9562 335.3813,334.9562 Q336.0063,334.9562 336.6,334.6906 Q337.1938,334.4094 337.8188,333.8312 L337.8188,336.55 Z " fill="#000000"/><text fill="#000000" font-family="Verdana" font-size="14" lengthAdjust="spacing" textLength="216.3027" x="346.85" y="335.7561">SingleRoundTrainingBehaviour</text><line style="stroke:#000000;stroke-width:1;" x1="322.85" x2="565.1527" y1="344.9094" y2="344.9094"/><text fill="#000000" font-family="Verdana" font-size="14" lengthAdjust="spacing" textLength="107.3652" x="327.85" y="361.9045">int TargetIndex</text><text fill="#000000" font-family="Verdana" font-size="14" lengthAdjust="spacing" textLength="194.8037" x="327.85" y="378.2014">float TargetIndicationPeriod</text><text fill="#000000" font-family="Verdana" font-size="14" lengthAdjust="spacing" textLength="195.8838" x="327.85" y="394.4982">bool PersistTargetIndication</text><text fill="#000000" font-family="Verdana" font-size="14" lengthAdjust="spacing" textLength="124.0723" x="327.85" y="410.7951">float PreTrialTime</text><text fill="#000000" font-family="Verdana" font-size="14" lengthAdjust="spacing" textLength="131.0518" x="327.85" y="427.092">float PostTrialTime</text><text fill="#000000" font-family="Verdana" font-size="14" lengthAdjust="spacing" textLength="180.7217" x="327.85" y="443.3889">bool SelectTrainingTarget</text><line style="stroke:#000000;stroke-width:1;" x1="322.85" x2="565.1527" y1="450.6906" y2="450.6906"/><text fill="#000000" font-family="Verdana" font-size="14" lengthAdjust="spacing" textLength="193.1426" x="327.85" y="467.6857">IEnumerator RunRound(int)</text></g><!--class AutomatedTrainingBehaviour--><g class="entity" data-qualified-name="Behaviours.Training.AutomatedTrainingBehaviour" data-source-line="44" id="ent0020"><rect fill="#FFFFFF" height="76.5938" rx="2.5" ry="2.5" style="stroke:#000000;stroke-width:1;" width="234.0488" x="331.98" y="546.6894"/><ellipse cx="344.98" cy="560.6894" fill="#FFFFFF" rx="9" ry="9" style="stroke:#000000;stroke-width:1;"/><path d="M347.9488,566.33 Q347.3706,566.6269 346.73,566.7675 Q346.0894,566.9238 345.3863,566.9238 Q342.8863,566.9238 341.5581,565.2831 Q340.2456,563.6269 340.2456,560.5019 Q340.2456,557.3769 341.5581,555.7206 Q342.8863,554.0644 345.3863,554.0644 Q346.0894,554.0644 346.73,554.2206 Q347.3863,554.3769 347.9488,554.6738 L347.9488,557.3925 Q347.3238,556.8144 346.73,556.5488 Q346.1363,556.2675 345.5113,556.2675 Q344.1675,556.2675 343.48,557.3456 Q342.7925,558.4081 342.7925,560.5019 Q342.7925,562.5956 343.48,563.6738 Q344.1675,564.7363 345.5113,564.7363 Q346.1363,564.7363 346.73,564.4706 Q347.3238,564.1894 347.9488,563.6113 L347.9488,566.33 Z " fill="#000000"/><text fill="#000000" font-family="Verdana" font-size="14" lengthAdjust="spacing" textLength="206.0488" x="356.98" y="565.5361">AutomatedTrainingBehaviour</text><line style="stroke:#000000;stroke-width:1;" x1="332.98" x2="565.0288" y1="574.6894" y2="574.6894"/><text fill="#000000" font-family="Verdana" font-size="14" lengthAdjust="spacing" textLength="128.7959" x="337.98" y="591.6845">int SelectionCount</text><text fill="#000000" font-family="Verdana" font-size="14" lengthAdjust="spacing" textLength="101.7188" x="337.98" y="607.9814">float RestTime</text><line style="stroke:#000000;stroke-width:1;" x1="332.98" x2="565.0288" y1="615.2831" y2="615.2831"/></g><!--class IterativeTrainingBehaviour--><g class="entity" data-qualified-name="Behaviours.Training.IterativeTrainingBehaviour" data-source-line="49" id="ent0022"><rect fill="#FFFFFF" height="76.5938" rx="2.5" ry="2.5" style="stroke:#000000;stroke-width:1;" width="225.0693" x="336.47" y="698.6894"/><ellipse cx="353.9195" cy="712.6894" fill="#FFFFFF" rx="9" ry="9" style="stroke:#000000;stroke-width:1;"/><path d="M356.8882,718.33 Q356.3101,718.6269 355.6695,718.7675 Q355.0288,718.9238 354.3257,718.9238 Q351.8257,718.9238 350.4976,717.2831 Q349.1851,715.6269 349.1851,712.5019 Q349.1851,709.3769 350.4976,707.7206 Q351.8257,706.0644 354.3257,706.0644 Q355.0288,706.0644 355.6695,706.2206 Q356.3257,706.3769 356.8882,706.6738 L356.8882,709.3925 Q356.2632,708.8144 355.6695,708.5488 Q355.0757,708.2675 354.4507,708.2675 Q353.107,708.2675 352.4195,709.3456 Q351.732,710.4081 351.732,712.5019 Q351.732,714.5956 352.4195,715.6738 Q353.107,716.7363 354.4507,716.7363 Q355.0757,716.7363 355.6695,716.4706 Q356.2632,716.1894 356.8882,715.6113 L356.8882,718.33 Z " fill="#000000"/><text fill="#000000" font-family="Verdana" font-size="14" lengthAdjust="spacing" textLength="187.1816" x="366.9082" y="717.5361">IterativeTrainingBehaviour</text><line style="stroke:#000000;stroke-width:1;" x1="337.47" x2="560.5393" y1="726.6894" y2="726.6894"/><text fill="#000000" font-family="Verdana" font-size="14" lengthAdjust="spacing" textLength="197.8936" x="342.47" y="743.6845">int SelectionsBeforeTraining</text><text fill="#000000" font-family="Verdana" font-size="14" lengthAdjust="spacing" textLength="213.0693" x="342.47" y="759.9814">int SelectionsBetweenTraining</text><line style="stroke:#000000;stroke-width:1;" x1="337.47" x2="560.5393" y1="767.2831" y2="767.2831"/></g><!--reverse link CoroutineBehaviour to TrainingBehaviour--><g class="link" data-entity-1="ent0003" data-entity-2="ent0008" data-link-type="extension" data-source-line="17" id="lnk9"><path d="M164.3772,142.5733 C183.7872,158.8933 217.86,187.5494 247.65,212.5994" fill="none" id="CoroutineBehaviour-backto-TrainingBehaviour" style="stroke:#000000;stroke-width:1;"/><polygon fill="none" points="150.6,130.9894,160.5159,147.1657,168.2385,137.9809,150.6,130.9894" style="stroke:#000000;stroke-width:1;"/></g><!--reverse link IBCIMarkerSource to TrainingBehaviour--><g class="link" data-entity-1="ent0004" data-entity-2="ent0008" data-link-type="extension" data-source-line="17" id="lnk10"><path d="M330.1265,166.9723 C314.1365,185.7123 305.51,195.8194 291.11,212.6994" fill="none" id="IBCIMarkerSource-backto-TrainingBehaviour" style="stroke:#000000;stroke-width:1;stroke-dasharray:7,7;"/><polygon fill="none" points="341.81,153.2794,325.5622,163.0778,334.6908,170.8668,341.81,153.2794" style="stroke:#000000;stroke-width:1;"/></g><!--link TargetIndicationBehaviour to ITargetable--><g class="link" data-entity-1="ent0011" data-entity-2="ent0012" data-link-type="dependency" data-source-line="27" id="lnk13"><path codeLine="27" d="M290,602.9894 C322.11,602.9894 316.11,746.9894 284,746.9894" fill="none" id="TargetIndicationBehaviour-to-ITargetable" style="stroke:#000000;stroke-width:1;stroke-dasharray:7,7;"/><polygon fill="#000000" points="278,746.9894,287,750.9894,283,746.9894,287,742.9894,278,746.9894" style="stroke:#000000;stroke-width:1;"/></g><!--reverse link TrainingBehaviour to custom--><g class="link" data-entity-1="ent0008" data-entity-2="ent0014" data-link-type="extension" data-source-line="30" id="lnk15"><path codeLine="30" d="M251.3714,272.8964 C230.4414,308.6764 198.44,363.4094 184.64,387.0094" fill="none" id="TrainingBehaviour-backto-custom" style="stroke:#000000;stroke-width:1;"/><polygon fill="none" points="260.46,257.3594,246.1924,269.8668,256.5504,275.9259,260.46,257.3594" style="stroke:#000000;stroke-width:1;"/></g><!--reverse link TrainingBehaviour to SingleRoundTrainingBehaviour--><g class="link" data-entity-1="ent0008" data-entity-2="ent0016" data-link-type="extension" data-source-line="33" id="lnk17"><path d="M309.2379,269.6208 C325.9179,285.1408 336.4,294.8794 359.91,316.7494" fill="none" id="TrainingBehaviour-backto-SingleRoundTrainingBehaviour" style="stroke:#000000;stroke-width:1;"/><polygon fill="none" points="296.06,257.3594,305.1507,274.0135,313.325,265.2282,296.06,257.3594" style="stroke:#000000;stroke-width:1;"/></g><!--link SingleRoundTrainingBehaviour to TargetIndicationBehaviour--><g class="link" data-entity-1="ent0016" data-entity-2="ent0011" data-link-type="dependency" data-source-line="41" id="lnk18"><path codeLine="41" d="M330.67,475.4594 C301.52,495.6494 275.9123,513.3929 249.6223,531.6029" fill="none" id="SingleRoundTrainingBehaviour-to-TargetIndicationBehaviour" style="stroke:#000000;stroke-width:1;"/><polygon fill="#000000" points="244.69,535.0194,254.3661,533.183,248.8003,532.1723,249.8109,526.6065,244.69,535.0194" style="stroke:#000000;stroke-width:1;"/></g><!--link SingleRoundTrainingBehaviour to TrialBehaviour--><g class="link" data-entity-1="ent0016" data-entity-2="ent0006" data-link-type="dependency" data-source-line="42" id="lnk19"><path codeLine="42" d="M543.06,475.4594 C594.02,515.8494 645.118,556.3423 666.388,573.2023" fill="none" id="SingleRoundTrainingBehaviour-to-TrialBehaviour" style="stroke:#000000;stroke-width:1;"/><polygon fill="#000000" points="671.09,576.9294,666.5218,568.2041,667.1717,573.8235,661.5523,574.4734,671.09,576.9294" style="stroke:#000000;stroke-width:1;"/></g><!--reverse link SingleRoundTrainingBehaviour to AutomatedTrainingBehaviour--><g class="link" data-entity-1="ent0016" data-entity-2="ent0020" data-link-type="extension" data-source-line="45" id="lnk21"><path d="M446.5829,493.4529 C447.2429,518.0429 447.45,526.0694 448,546.4594" fill="none" id="SingleRoundTrainingBehaviour-backto-AutomatedTrainingBehaviour" style="stroke:#000000;stroke-width:1;"/><polygon fill="none" points="446.1,475.4594,440.5851,493.6139,452.5808,493.2919,446.1,475.4594" style="stroke:#000000;stroke-width:1;"/></g><!--reverse link AutomatedTrainingBehaviour to IterativeTrainingBehaviour--><g class="link" data-entity-1="ent0020" data-entity-2="ent0022" data-link-type="extension" data-source-line="50" id="lnk23"><path d="M449,641.4494 C449,664.2794 449,675.3494 449,698.2194" fill="none" id="AutomatedTrainingBehaviour-backto-IterativeTrainingBehaviour" style="stroke:#000000;stroke-width:1;"/><polygon fill="none" points="449,623.4494,443,641.4494,455,641.4494,449,623.4494" style="stroke:#000000;stroke-width:1;"/></g><?plantuml-src ZLHDJyCm3BttLmHES5X_m8IGsCIX4WYqJkASjTvcaIQJumuas7ydRLZQhX-GKni_lpm_ExdYFHGW3agYZXXPWLYJ-qQz4mlOooEQacmKQLc0FSWCMhlYAn9kPKYPIriQCYMZXW28wZ1g1jfsC-DaiKoU9Rq3fUxVnJnLjPxI9nzv8tIPelrJWqwUjr6q9fIg4joG_6gg8uqUdtqQhYOETNiQkR5CCkFWHu0A-6JGkMqdzwiNM1oKyrQpdQhyuYn9E-14vvX9HgCRjgQshpFwL7ahNWuLS6bApKEGey7SdRz3VSbzux9lHrCUTTvBkFrriDlMnEFaHhNRM9EaB8b7Q0BehvD6FPdF1-iISNpV5ZMV3yg8siDxlImjcs9ezg-5j2AhmrvERnpklcUpCyAJAccjI1r8mSer9XyVeNwaiR3gRb0Dds5_gupiZyeh49eyW3R6AE7sBDf-wLscLuBwegonWCkGSTczMCsTWeACp_hz4G6HFEgo099iIAnANPlGp9llwwG_izdzUEF_bnvtxhP_8kAB5w7LheVIzKyoJ3HhyiXktxmxlOlfNLs1S_LiwAaj8k7AD3p2k8W9dICIx0AsXWBbA8W_07G7vHxB7m00?></g></svg>