<?plantuml 1.2026.2beta3?><svg xmlns="http://www.w3.org/2000/svg" xmlns:xlink="http://www.w3.org/1999/xlink" contentStyleType="text/css" data-diagram-type="CLASS" height="891px" preserveAspectRatio="none" style="width:1019px;height:891px;background:#FFFFFF;" version="1.1" viewBox="0 0 1019 891" width="1019px" zoomAndPan="magnify"><title>Training Behaviours</title><defs/><g><g class="title" data-source-line="2"><text fill="#000000" font-family="Verdana" font-size="22" font-weight="bold" lengthAdjust="spacing" textLength="249.3154" x="380.3423" y="35.4209">Training Behaviours</text></g><!--cluster Selection--><g class="cluster" data-qualified-name="Selection" data-source-line="6" id="ent0002"><path d="M13.5,177.9094 L87.7471,177.9094 A3.75,3.75 0 0 1 90.2471,180.4094 L97.2471,200.2062 L218.5,200.2062 A2.5,2.5 0 0 1 221,202.7062 L221,464.0394 A2.5,2.5 0 0 1 218.5,466.5394 L13.5,466.5394 A2.5,2.5 0 0 1 11,464.0394 L11,180.4094 A2.5,2.5 0 0 1 13.5,177.9094" fill="#FFFFFF" style="stroke:#000000;stroke-width:1;"/><line style="stroke:#000000;stroke-width:1;" x1="11" x2="97.2471" y1="200.2062" y2="200.2062"/><text fill="#000000" font-family="Verdana" font-size="14" font-weight="bold" lengthAdjust="spacing" textLength="73.2471" x="15" y="192.9045">Selection</text></g><!--cluster Behaviours--><g class="cluster" data-qualified-name="Behaviours" data-source-line="13" id="ent0006"><path d="M247.5,57.6094 L336.8271,57.6094 A3.75,3.75 0 0 1 339.3271,60.1094 L346.3271,79.9063 L1009.5,79.9063 A2.5,2.5 0 0 1 1012,82.4063 L1012,882.3794 A2.5,2.5 0 0 1 1009.5,884.8794 L247.5,884.8794 A2.5,2.5 0 0 1 245,882.3794 L245,60.1094 A2.5,2.5 0 0 1 247.5,57.6094" fill="#FFFFFF" style="stroke:#000000;stroke-width:1;"/><line style="stroke:#000000;stroke-width:1;" x1="245" x2="346.3271" y1="79.9063" y2="79.9063"/><text fill="#000000" font-family="Verdana" font-size="14" font-weight="bold" lengthAdjust="spacing" textLength="88.3271" x="249" y="72.6045">Behaviours</text></g><!--cluster Trialing--><g class="cluster" data-qualified-name="Behaviours.Trialing" data-source-line="20" id="ent0009"><path d="M842.5,578.3794 L903.7861,578.3794 A3.75,3.75 0 0 1 906.2861,580.8794 L913.2861,600.6763 L985.5,600.6763 A2.5,2.5 0 0 1 988,603.1763 L988,684.8794 A2.5,2.5 0 0 1 985.5,687.3794 L842.5,687.3794 A2.5,2.5 0 0 1 840,684.8794 L840,580.8794 A2.5,2.5 0 0 1 842.5,578.3794" fill="#FFFFFF" style="stroke:#000000;stroke-width:1;"/><line style="stroke:#000000;stroke-width:1;" x1="840" x2="913.2861" y1="600.6763" y2="600.6763"/><text fill="#000000" font-family="Verdana" font-size="14" font-weight="bold" lengthAdjust="spacing" textLength="60.2861" x="844" y="593.3745">Trialing</text></g><!--cluster Training--><g class="cluster" data-qualified-name="Behaviours.Training" data-source-line="25" id="ent0011"><path d="M271.5,186.0594 L337.9541,186.0594 A3.75,3.75 0 0 1 340.4541,188.5594 L347.4541,208.3562 L813.5,208.3562 A2.5,2.5 0 0 1 816,210.8562 L816,858.3794 A2.5,2.5 0 0 1 813.5,860.8794 L271.5,860.8794 A2.5,2.5 0 0 1 269,858.3794 L269,188.5594 A2.5,2.5 0 0 1 271.5,186.0594" fill="#FFFFFF" style="stroke:#000000;stroke-width:1;"/><line style="stroke:#000000;stroke-width:1;" x1="269" x2="347.4541" y1="208.3562" y2="208.3562"/><text fill="#000000" font-family="Verdana" font-size="14" font-weight="bold" lengthAdjust="spacing" textLength="65.4541" x="273" y="201.0545">Training</text></g><!--class ISelector--><g class="entity" data-qualified-name="Selection.ISelector" data-source-line="7" id="ent0003"><rect fill="#FFFFFF" height="60.2969" rx="2.5" ry="2.5" style="stroke:#000000;stroke-width:1;" width="177.1494" x="27.43" y="212.9094"/><ellipse cx="81.4349" cy="226.9094" fill="#FFFFFF" rx="9" ry="9" style="stroke:#000000;stroke-width:1;"/><path d="M77.3568,222.675 L77.3568,220.5187 L84.7474,220.5187 L84.7474,222.675 L82.2786,222.675 L82.2786,230.7531 L84.7474,230.7531 L84.7474,232.9094 L77.3568,232.9094 L77.3568,230.7531 L79.8255,230.7531 L79.8255,222.675 L77.3568,222.675 Z " fill="#000000"/><text fill="#000000" font-family="Verdana" font-size="14" font-style="italic" lengthAdjust="spacing" textLength="61.6396" x="98.9349" y="231.7561">ISelector</text><line style="stroke:#000000;stroke-width:1;" x1="28.43" x2="203.5794" y1="240.9094" y2="240.9094"/><line style="stroke:#000000;stroke-width:1;" x1="28.43" x2="203.5794" y1="248.9094" y2="248.9094"/><text fill="#000000" font-family="Verdana" font-size="14" lengthAdjust="spacing" textLength="165.1494" x="33.43" y="265.9045">void MakeSelection(int)</text></g><!--class SelectionBehaviour--><g class="entity" data-qualified-name="Selection.SelectionBehaviour" data-source-line="10" id="ent0004"><rect fill="#FFFFFF" height="44" rx="2.5" ry="2.5" style="stroke:#000000;stroke-width:1;" width="163.5566" x="37.22" y="406.5394"/><ellipse cx="50.22" cy="420.5394" fill="#FFFFFF" rx="9" ry="9" style="stroke:#000000;stroke-width:1;"/><path d="M50.3294,415.8831 L49.1731,420.9613 L51.5013,420.9613 L50.3294,415.8831 Z M48.845,413.6488 L51.8294,413.6488 L55.1888,426.0394 L52.7356,426.0394 L51.97,422.9769 L48.6888,422.9769 L47.9388,426.0394 L45.5013,426.0394 L48.845,413.6488 Z " fill="#000000"/><text fill="#000000" font-family="Verdana" font-size="14" font-style="italic" lengthAdjust="spacing" textLength="135.5566" x="62.22" y="425.3861">SelectionBehaviour</text><line style="stroke:#000000;stroke-width:1;" x1="38.22" x2="199.7766" y1="434.5394" y2="434.5394"/><line style="stroke:#000000;stroke-width:1;" x1="38.22" x2="199.7766" y1="442.5394" y2="442.5394"/></g><!--entity CoroutineBehaviour--><g class="entity" data-qualified-name="Behaviours.CoroutineBehaviour" data-source-line="14" id="ent0007"><ellipse cx="553" cy="122.7594" fill="#FFFFFF" rx="8" ry="8" style="stroke:#000000;stroke-width:1;"/><text fill="#000000" font-family="Verdana" font-size="14" lengthAdjust="spacing" textLength="139.4395" x="483.2803" y="152.7545">CoroutineBehaviour</text></g><!--class IBCIMarkerSource--><g class="entity" data-qualified-name="Behaviours.IBCIMarkerSource" data-source-line="16" id="ent0008"><rect fill="#FFFFFF" height="60.2969" rx="2.5" ry="2.5" style="stroke:#000000;stroke-width:1;" width="225.4111" x="665.29" y="92.6094"/><ellipse cx="711.7856" cy="106.6094" fill="#FFFFFF" rx="9" ry="9" style="stroke:#000000;stroke-width:1;"/><path d="M707.7075,102.375 L707.7075,100.2188 L715.0981,100.2188 L715.0981,102.375 L712.6294,102.375 L712.6294,110.4531 L715.0981,110.4531 L715.0981,112.6094 L707.7075,112.6094 L707.7075,110.4531 L710.1762,110.4531 L710.1762,102.375 L707.7075,102.375 Z " fill="#000000"/><text fill="#000000" font-family="Verdana" font-size="14" font-style="italic" lengthAdjust="spacing" textLength="124.9199" x="729.2856" y="111.4561">IBCIMarkerSource</text><line style="stroke:#000000;stroke-width:1;" x1="666.29" x2="889.7011" y1="120.6094" y2="120.6094"/><text fill="#000000" font-family="Verdana" font-size="14" lengthAdjust="spacing" textLength="213.4111" x="671.29" y="137.6045">LSLMarkerWriter MarkerWriter</text><line style="stroke:#000000;stroke-width:1;" x1="666.29" x2="889.7011" y1="144.9063" y2="144.9063"/></g><!--entity TrialBehaviour--><g class="entity" data-qualified-name="Behaviours.Trialing.TrialBehaviour" data-source-line="21" id="ent0010"><ellipse cx="914" cy="642.3794" fill="#FFFFFF" rx="8" ry="8" style="stroke:#000000;stroke-width:1;"/><text fill="#000000" font-family="Verdana" font-size="14" lengthAdjust="spacing" textLength="101.7051" x="863.1475" y="672.3745">TrialBehaviour</text></g><!--class TrainingBehaviour--><g class="entity" data-qualified-name="Behaviours.Training.TrainingBehaviour" data-source-line="26" id="ent0012"><rect fill="#FFFFFF" height="44" rx="2.5" ry="2.5" style="stroke:#000000;stroke-width:1;" width="156.3379" x="594.83" y="221.0594"/><ellipse cx="607.83" cy="235.0594" fill="#FFFFFF" rx="9" ry="9" style="stroke:#000000;stroke-width:1;"/><path d="M607.9394,230.4031 L606.7831,235.4812 L609.1113,235.4812 L607.9394,230.4031 Z M606.455,228.1687 L609.4394,228.1687 L612.7988,240.5594 L610.3456,240.5594 L609.58,237.4969 L606.2988,237.4969 L605.5488,240.5594 L603.1113,240.5594 L606.455,228.1687 Z " fill="#000000"/><text fill="#000000" font-family="Verdana" font-size="14" font-style="italic" lengthAdjust="spacing" textLength="128.3379" x="619.83" y="239.9061">TrainingBehaviour</text><line style="stroke:#000000;stroke-width:1;" x1="595.83" x2="750.1679" y1="249.0594" y2="249.0594"/><line style="stroke:#000000;stroke-width:1;" x1="595.83" x2="750.1679" y1="257.0594" y2="257.0594"/></g><!--class TargetIndicationBehaviour--><g class="entity" data-qualified-name="Behaviours.Training.TargetIndicationBehaviour" data-source-line="27" id="ent0015"><rect fill="#FFFFFF" height="109.1875" rx="2.5" ry="2.5" style="stroke:#000000;stroke-width:1;" width="229.8682" x="293.5" y="587.8794"/><ellipse cx="313.7365" cy="601.8794" fill="#FFFFFF" rx="9" ry="9" style="stroke:#000000;stroke-width:1;"/><path d="M313.8458,597.2231 L312.6896,602.3013 L315.0177,602.3013 L313.8458,597.2231 Z M312.3615,594.9888 L315.3458,594.9888 L318.7052,607.3794 L316.2521,607.3794 L315.4865,604.3169 L312.2052,604.3169 L311.4552,607.3794 L309.0177,607.3794 L312.3615,594.9888 Z " fill="#000000"/><text fill="#000000" font-family="Verdana" font-size="14" font-style="italic" lengthAdjust="spacing" textLength="185.7871" x="327.3446" y="606.7261">TargetIndicationBehaviour</text><line style="stroke:#000000;stroke-width:1;" x1="294.5" x2="522.3682" y1="615.8794" y2="615.8794"/><text fill="#000000" font-family="Verdana" font-size="14" font-style="italic" lengthAdjust="spacing" textLength="111.002" x="299.5" y="632.8745">int OptionCount</text><line style="stroke:#000000;stroke-width:1;" x1="294.5" x2="522.3682" y1="640.1763" y2="640.1763"/><text fill="#000000" font-family="Verdana" font-size="14" font-style="italic" lengthAdjust="spacing" textLength="165.1494" x="299.5" y="657.1714">void MakeSelection(int)</text><text fill="#000000" font-family="Verdana" font-size="14" font-style="italic" lengthAdjust="spacing" textLength="217.8682" x="299.5" y="673.4682">void BeginTargetIndication(int)</text><text fill="#000000" font-family="Verdana" font-size="14" font-style="italic" lengthAdjust="spacing" textLength="186.3545" x="299.5" y="689.7651">void EndTargetIndication()</text></g><!--class ITargetable--><g class="entity" data-qualified-name="Behaviours.Training.ITargetable" data-source-line="33" id="ent0017"><rect fill="#FFFFFF" height="76.5938" rx="2.5" ry="2.5" style="stroke:#000000;stroke-width:1;" width="205.9492" x="305.5" y="764.8794"/><ellipse cx="364.7378" cy="778.8794" fill="#FFFFFF" rx="9" ry="9" style="stroke:#000000;stroke-width:1;"/><path d="M360.6597,774.645 L360.6597,772.4888 L368.0503,772.4888 L368.0503,774.645 L365.5815,774.645 L365.5815,782.7231 L368.0503,782.7231 L368.0503,784.8794 L360.6597,784.8794 L360.6597,782.7231 L363.1284,782.7231 L363.1284,774.645 L360.6597,774.645 Z " fill="#000000"/><text fill="#000000" font-family="Verdana" font-size="14" font-style="italic" lengthAdjust="spacing" textLength="79.9736" x="382.2378" y="783.7261">ITargetable</text><line style="stroke:#000000;stroke-width:1;" x1="306.5" x2="510.4492" y1="792.8794" y2="792.8794"/><line style="stroke:#000000;stroke-width:1;" x1="306.5" x2="510.4492" y1="800.8794" y2="800.8794"/><text fill="#000000" font-family="Verdana" font-size="14" lengthAdjust="spacing" textLength="193.9492" x="311.5" y="817.8745">void StartTargetIndication()</text><text fill="#000000" font-family="Verdana" font-size="14" lengthAdjust="spacing" textLength="186.3545" x="311.5" y="834.1714">void EndTargetIndication()</text></g><!--class SingleRoundTrainingBehaviour--><g class="entity" data-qualified-name="Behaviours.Training.SingleRoundTrainingBehaviour" data-source-line="39" id="ent0019"><rect fill="#FFFFFF" height="190.6719" rx="2.5" ry="2.5" style="stroke:#000000;stroke-width:1;" width="254.0537" x="545.97" y="333.2094"/><ellipse cx="563.3579" cy="347.2094" fill="#FFFFFF" rx="9" ry="9" style="stroke:#000000;stroke-width:1;"/><path d="M566.3267,352.85 Q565.7486,353.1469 565.1079,353.2875 Q564.4673,353.4438 563.7642,353.4438 Q561.2642,353.4438 559.9361,351.8031 Q558.6236,350.1469 558.6236,347.0219 Q558.6236,343.8969 559.9361,342.2406 Q561.2642,340.5844 563.7642,340.5844 Q564.4673,340.5844 565.1079,340.7406 Q565.7642,340.8969 566.3267,341.1938 L566.3267,343.9125 Q565.7017,343.3344 565.1079,343.0688 Q564.5142,342.7875 563.8892,342.7875 Q562.5454,342.7875 561.8579,343.8656 Q561.1704,344.9281 561.1704,347.0219 Q561.1704,349.1156 561.8579,350.1938 Q562.5454,351.2563 563.8892,351.2563 Q564.5142,351.2563 565.1079,350.9906 Q565.7017,350.7094 566.3267,350.1313 L566.3267,352.85 Z " fill="#000000"/><text fill="#000000" font-family="Verdana" font-size="14" lengthAdjust="spacing" textLength="216.3027" x="576.333" y="352.0561">SingleRoundTrainingBehaviour</text><line style="stroke:#000000;stroke-width:1;" x1="546.97" x2="799.0237" y1="361.2094" y2="361.2094"/><text fill="#000000" font-family="Verdana" font-size="14" lengthAdjust="spacing" textLength="107.3652" x="551.97" y="378.2045">int TargetIndex</text><text fill="#000000" font-family="Verdana" font-size="14" lengthAdjust="spacing" textLength="194.8037" x="551.97" y="394.5014">float TargetIndicationPeriod</text><text fill="#000000" font-family="Verdana" font-size="14" lengthAdjust="spacing" textLength="195.8838" x="551.97" y="410.7982">bool PersistTargetIndication</text><text fill="#000000" font-family="Verdana" font-size="14" lengthAdjust="spacing" textLength="124.0723" x="551.97" y="427.0951">float PreTrialTime</text><text fill="#000000" font-family="Verdana" font-size="14" lengthAdjust="spacing" textLength="131.0518" x="551.97" y="443.392">float PostTrialTime</text><text fill="#000000" font-family="Verdana" font-size="14" lengthAdjust="spacing" textLength="180.7217" x="551.97" y="459.6889">bool SelectTrainingTarget</text><text fill="#000000" font-family="Verdana" font-size="14" lengthAdjust="spacing" textLength="242.0537" x="551.97" y="475.9857">float TargetSelectionDisplayPeriod</text><text fill="#000000" font-family="Verdana" font-size="14" lengthAdjust="spacing" textLength="101.7188" x="551.97" y="492.2826">float RestTime</text><line style="stroke:#000000;stroke-width:1;" x1="546.97" x2="799.0237" y1="499.5844" y2="499.5844"/><text fill="#000000" font-family="Verdana" font-size="14" lengthAdjust="spacing" textLength="193.1426" x="551.97" y="516.5795">IEnumerator RunRound(int)</text></g><!--class AutomatedTrainingBehaviour--><g class="entity" data-qualified-name="Behaviours.Training.AutomatedTrainingBehaviour" data-source-line="53" id="ent0023"><rect fill="#FFFFFF" height="60.2969" rx="2.5" ry="2.5" style="stroke:#000000;stroke-width:1;" width="234.0488" x="565.98" y="612.2294"/><ellipse cx="578.98" cy="626.2294" fill="#FFFFFF" rx="9" ry="9" style="stroke:#000000;stroke-width:1;"/><path d="M581.9488,631.87 Q581.3706,632.1669 580.73,632.3075 Q580.0894,632.4638 579.3863,632.4638 Q576.8863,632.4638 575.5581,630.8231 Q574.2456,629.1669 574.2456,626.0419 Q574.2456,622.9169 575.5581,621.2606 Q576.8863,619.6044 579.3863,619.6044 Q580.0894,619.6044 580.73,619.7606 Q581.3863,619.9169 581.9488,620.2138 L581.9488,622.9325 Q581.3238,622.3544 580.73,622.0888 Q580.1363,621.8075 579.5113,621.8075 Q578.1675,621.8075 577.48,622.8856 Q576.7925,623.9481 576.7925,626.0419 Q576.7925,628.1356 577.48,629.2138 Q578.1675,630.2763 579.5113,630.2763 Q580.1363,630.2763 580.73,630.0106 Q581.3238,629.7294 581.9488,629.1513 L581.9488,631.87 Z " fill="#000000"/><text fill="#000000" font-family="Verdana" font-size="14" lengthAdjust="spacing" textLength="206.0488" x="590.98" y="631.0761">AutomatedTrainingBehaviour</text><line style="stroke:#000000;stroke-width:1;" x1="566.98" x2="799.0288" y1="640.2294" y2="640.2294"/><text fill="#000000" font-family="Verdana" font-size="14" lengthAdjust="spacing" textLength="128.7959" x="571.98" y="657.2245">int SelectionCount</text><line style="stroke:#000000;stroke-width:1;" x1="566.98" x2="799.0288" y1="664.5263" y2="664.5263"/></g><!--class IterativeTrainingBehaviour--><g class="entity" data-qualified-name="Behaviours.Training.IterativeTrainingBehaviour" data-source-line="57" id="ent0025"><rect fill="#FFFFFF" height="76.5938" rx="2.5" ry="2.5" style="stroke:#000000;stroke-width:1;" width="225.0693" x="570.47" y="764.5794"/><ellipse cx="587.9195" cy="778.5794" fill="#FFFFFF" rx="9" ry="9" style="stroke:#000000;stroke-width:1;"/><path d="M590.8882,784.22 Q590.3101,784.5169 589.6695,784.6575 Q589.0288,784.8138 588.3257,784.8138 Q585.8257,784.8138 584.4976,783.1731 Q583.1851,781.5169 583.1851,778.3919 Q583.1851,775.2669 584.4976,773.6106 Q585.8257,771.9544 588.3257,771.9544 Q589.0288,771.9544 589.6695,772.1106 Q590.3257,772.2669 590.8882,772.5638 L590.8882,775.2825 Q590.2632,774.7044 589.6695,774.4388 Q589.0757,774.1575 588.4507,774.1575 Q587.107,774.1575 586.4195,775.2356 Q585.732,776.2981 585.732,778.3919 Q585.732,780.4856 586.4195,781.5638 Q587.107,782.6263 588.4507,782.6263 Q589.0757,782.6263 589.6695,782.3606 Q590.2632,782.0794 590.8882,781.5013 L590.8882,784.22 Z " fill="#000000"/><text fill="#000000" font-family="Verdana" font-size="14" lengthAdjust="spacing" textLength="187.1816" x="600.9082" y="783.4261">IterativeTrainingBehaviour</text><line style="stroke:#000000;stroke-width:1;" x1="571.47" x2="794.5393" y1="792.5794" y2="792.5794"/><text fill="#000000" font-family="Verdana" font-size="14" lengthAdjust="spacing" textLength="197.8936" x="576.47" y="809.5745">int SelectionsBeforeTraining</text><text fill="#000000" font-family="Verdana" font-size="14" lengthAdjust="spacing" textLength="213.0693" x="576.47" y="825.8714">int SelectionsBetweenTraining</text><line style="stroke:#000000;stroke-width:1;" x1="571.47" x2="794.5393" y1="833.1731" y2="833.1731"/></g><!--reverse link ISelector to SelectionBehaviour--><g class="link" data-entity-1="ent0003" data-entity-2="ent0004" data-link-type="extension" data-source-line="10" id="lnk5"><path d="M116.7761,291.5369 C117.3861,328.6169 118.11,373.3794 118.65,406.1594" fill="none" id="ISelector-backto-SelectionBehaviour" style="stroke:#000000;stroke-width:1;stroke-dasharray:7,7;"/><polygon fill="none" points="116.48,273.5394,110.7769,291.6356,122.7753,291.4382,116.48,273.5394" style="stroke:#000000;stroke-width:1;"/></g><!--reverse link CoroutineBehaviour to TrainingBehaviour--><g class="link" data-entity-1="ent0007" data-entity-2="ent0012" data-link-type="extension" data-source-line="26" id="lnk13"><path d="M573.6894,144.1551 C591.8394,162.0451 624.3,194.0494 651.44,220.8094" fill="none" id="CoroutineBehaviour-backto-TrainingBehaviour" style="stroke:#000000;stroke-width:1;"/><polygon fill="none" points="560.87,131.5194,569.4775,148.4283,577.9013,139.882,560.87,131.5194" style="stroke:#000000;stroke-width:1;"/></g><!--reverse link IBCIMarkerSource to TrainingBehaviour--><g class="link" data-entity-1="ent0008" data-entity-2="ent0012" data-link-type="extension" data-source-line="26" id="lnk14"><path d="M739.8234,166.7734 C721.2434,187.7134 708.68,201.8594 691.97,220.6894" fill="none" id="IBCIMarkerSource-backto-TrainingBehaviour" style="stroke:#000000;stroke-width:1;stroke-dasharray:7,7;"/><polygon fill="none" points="751.77,153.3094,735.3354,162.7912,744.3114,170.7556,751.77,153.3094" style="stroke:#000000;stroke-width:1;"/></g><!--reverse link SelectionBehaviour to TargetIndicationBehaviour--><g class="link" data-entity-1="ent0004" data-entity-2="ent0015" data-link-type="extension" data-source-line="28" id="lnk16"><path d="M162.8168,461.6618 C205.0068,492.5918 269.86,540.1194 329.8,584.0594" fill="none" id="SelectionBehaviour-backto-TargetIndicationBehaviour" style="stroke:#000000;stroke-width:1;"/><polygon fill="none" points="148.3,451.0194,159.2693,466.5008,166.3643,456.8229,148.3,451.0194" style="stroke:#000000;stroke-width:1;"/></g><!--link TargetIndicationBehaviour to ITargetable--><g class="link" data-entity-1="ent0015" data-entity-2="ent0017" data-link-type="dependency" data-source-line="37" id="lnk18"><path codeLine="37" d="M524,668.3794 C556.22,668.3794 550.22,812.8794 518,812.8794" fill="none" id="TargetIndicationBehaviour-to-ITargetable" style="stroke:#000000;stroke-width:1;stroke-dasharray:7,7;"/><polygon fill="#000000" points="512,812.8794,521,816.8794,517,812.8794,521,808.8794,512,812.8794" style="stroke:#000000;stroke-width:1;"/></g><!--reverse link TrainingBehaviour to SingleRoundTrainingBehaviour--><g class="link" data-entity-1="ent0012" data-entity-2="ent0019" data-link-type="extension" data-source-line="40" id="lnk20"><path d="M673,283.4694 C673,300.4794 673,307.5694 673,332.9394" fill="none" id="TrainingBehaviour-backto-SingleRoundTrainingBehaviour" style="stroke:#000000;stroke-width:1;"/><polygon fill="none" points="673,265.4694,667,283.4694,679,283.4694,673,265.4694" style="stroke:#000000;stroke-width:1;"/></g><!--link SingleRoundTrainingBehaviour to TargetIndicationBehaviour--><g class="link" data-entity-1="ent0019" data-entity-2="ent0015" data-link-type="dependency" data-source-line="50" id="lnk21"><path codeLine="50" d="M554.45,524.3094 C528.96,544.6894 507.457,561.8834 484.397,580.3134" fill="none" id="SingleRoundTrainingBehaviour-to-TargetIndicationBehaviour" style="stroke:#000000;stroke-width:1;"/><polygon fill="#000000" points="479.71,584.0594,489.2378,581.5651,483.6158,580.9378,484.2432,575.3158,479.71,584.0594" style="stroke:#000000;stroke-width:1;"/></g><!--link SingleRoundTrainingBehaviour to TrialBehaviour--><g class="link" data-entity-1="ent0019" data-entity-2="ent0010" data-link-type="dependency" data-source-line="51" id="lnk22"><path codeLine="51" d="M780.81,524.3094 C831.19,568.5894 880.0628,611.5489 900.6728,629.6589" fill="none" id="SingleRoundTrainingBehaviour-to-TrialBehaviour" style="stroke:#000000;stroke-width:1;"/><polygon fill="#000000" points="905.18,633.6194,901.0595,624.6739,901.424,630.319,895.7789,630.6835,905.18,633.6194" style="stroke:#000000;stroke-width:1;"/></g><!--reverse link SingleRoundTrainingBehaviour to AutomatedTrainingBehaviour--><g class="link" data-entity-1="ent0019" data-entity-2="ent0023" data-link-type="extension" data-source-line="54" id="lnk24"><path d="M678.32,542.2893 C679.82,574.0193 680.53,589.1094 681.61,611.9794" fill="none" id="SingleRoundTrainingBehaviour-backto-AutomatedTrainingBehaviour" style="stroke:#000000;stroke-width:1;"/><polygon fill="none" points="677.47,524.3094,672.3267,542.5726,684.3133,542.006,677.47,524.3094" style="stroke:#000000;stroke-width:1;"/></g><!--reverse link AutomatedTrainingBehaviour to IterativeTrainingBehaviour--><g class="link" data-entity-1="ent0023" data-entity-2="ent0025" data-link-type="extension" data-source-line="58" id="lnk26"><path d="M683,690.8194 C683,716.5994 683,736.2194 683,764.1894" fill="none" id="AutomatedTrainingBehaviour-backto-IterativeTrainingBehaviour" style="stroke:#000000;stroke-width:1;"/><polygon fill="none" points="683,672.8194,677,690.8194,689,690.8194,683,672.8194" style="stroke:#000000;stroke-width:1;"/></g><?plantuml-src ZLJ9Rjim4BthAzXRUuW-m8S0iPk300SrB0CzqzBO6OGY3NBak33yxwL4cwJMH0SjdEMzUJEQ7_GE5R2Ju2WJGXAGxBHzHtbaItZdPrIrDWd8aZbh8da5viGBO3a8A0YLPDU4sGibWJuqbioPbBvRckkii6Hl_0Dys4yRyAkrtzextnlIlA2Gs3DWM9s49Ih9XEJ9BMOJsDv12zI50BPIMjM44hn3qcCR8jDikShUkFu0dTjlQmlyr_dQMVvgj94i_hWNqJu2evr6BXeXGv8xfzOI-BZeYMfItuzhLwN7UH09BcGRPUBWOVMnb3ELzx2uFW9biiI2Tnlpm4nzqzAHzWK5he-SjwO3xC-fSLofMjAOozpGZBakuOYoJtO-v5MMWu1uAgEfTdvyBw0_rpbnJHDflDDNI9CYBnQZTR4qVOv9BHQZDDnO5e8Rmt8xBmAsLkvoUdo6bb1jqpCF01T_VX2A3yTa0nfLwPtsIWbcpmoQ8Sjkfes6zYVPOGLzaxBH0rkRsqt9Wx-36ANen-at6hlx_lM8EjSjMA0O8tkLTGMQDujjMyjMnluIcrNuwUbvkilV2qyxcy4jcBItJwA6lzIaAaumq-vPo6xdlMpXXxt5Q1arwk0Pfj5c24rWcIKSbFOf9vte4q1slEnE_Gy0?></g></svg>