<?plantuml 1.2026.2beta3?><svg xmlns="http://www.w3.org/2000/svg" xmlns:xlink="http://www.w3.org/1999/xlink" contentStyleType="text/css" data-diagram-type="CLASS" height="646px" preserveAspectRatio="none" style="width:962px;height:646px;background:#FFFFFF;" version="1.1" viewBox="0 0 962 646" width="962px" zoomAndPan="magnify"><title>Selection</title><defs/><g><g class="title" data-source-line="2"><text fill="#000000" font-family="Verdana" font-size="22" font-weight="bold" lengthAdjust="spacing" textLength="115.1025" x="418.9487" y="35.4209">Selection</text></g><!--cluster Selection--><g class="cluster" data-qualified-name="Selection" data-source-line="4" id="ent0002"><path d="M13.5,57.6094 L87.7471,57.6094 A3.75,3.75 0 0 1 90.2471,60.1094 L97.2471,79.9063 L622.5,79.9063 A2.5,2.5 0 0 1 625,82.4063 L625,633.1094 A2.5,2.5 0 0 1 622.5,635.6094 L13.5,635.6094 A2.5,2.5 0 0 1 11,633.1094 L11,60.1094 A2.5,2.5 0 0 1 13.5,57.6094" fill="#FFFFFF" style="stroke:#000000;stroke-width:1;"/><line style="stroke:#000000;stroke-width:1;" x1="11" x2="97.2471" y1="79.9063" y2="79.9063"/><text fill="#000000" font-family="Verdana" font-size="14" font-weight="bold" lengthAdjust="spacing" textLength="73.2471" x="15" y="72.6045">Selection</text></g><!--cluster LSLFramework--><g class="cluster" data-qualified-name="LSLFramework" data-source-line="8" id="ent0005"><path d="M651.5,220.1094 L769.1895,220.1094 A3.75,3.75 0 0 1 771.6895,222.6094 L778.6895,242.4063 L778.5,242.4063 A2.5,2.5 0 0 1 781,244.9063 L781,312.6094 A2.5,2.5 0 0 1 778.5,315.1094 L651.5,315.1094 A2.5,2.5 0 0 1 649,312.6094 L649,222.6094 A2.5,2.5 0 0 1 651.5,220.1094" fill="#FFFFFF" style="stroke:#000000;stroke-width:1;"/><line style="stroke:#000000;stroke-width:1;" x1="649" x2="778.6895" y1="242.4063" y2="242.4063"/><text fill="#000000" font-family="Verdana" font-size="14" font-weight="bold" lengthAdjust="spacing" textLength="116.6895" x="653" y="235.1045">LSLFramework</text></g><!--cluster Stimulus--><g class="cluster" data-qualified-name="Stimulus" data-source-line="28" id="ent0015"><path d="M651.5,477.6094 L721.7275,477.6094 A3.75,3.75 0 0 1 724.2275,480.1094 L731.2275,499.9063 L952.5,499.9063 A2.5,2.5 0 0 1 955,502.4063 L955,637.1094 A2.5,2.5 0 0 1 952.5,639.6094 L651.5,639.6094 A2.5,2.5 0 0 1 649,637.1094 L649,480.1094 A2.5,2.5 0 0 1 651.5,477.6094" fill="#FFFFFF" style="stroke:#000000;stroke-width:1;"/><line style="stroke:#000000;stroke-width:1;" x1="649" x2="731.2275" y1="499.9063" y2="499.9063"/><text fill="#000000" font-family="Verdana" font-size="14" font-weight="bold" lengthAdjust="spacing" textLength="69.2275" x="653" y="492.6045">Stimulus</text></g><!--cluster Collections--><g class="cluster" data-qualified-name="Stimulus.Collections" data-source-line="28" id="ent0016"><path d="M675.5,520.6094 L763.1934,520.6094 A3.75,3.75 0 0 1 765.6934,523.1094 L772.6934,542.9063 L928.5,542.9063 A2.5,2.5 0 0 1 931,545.4063 L931,613.1094 A2.5,2.5 0 0 1 928.5,615.6094 L675.5,615.6094 A2.5,2.5 0 0 1 673,613.1094 L673,523.1094 A2.5,2.5 0 0 1 675.5,520.6094" fill="#FFFFFF" style="stroke:#000000;stroke-width:1;"/><line style="stroke:#000000;stroke-width:1;" x1="673" x2="772.6934" y1="542.9063" y2="542.9063"/><text fill="#000000" font-family="Verdana" font-size="14" font-weight="bold" lengthAdjust="spacing" textLength="86.6934" x="677" y="535.6045">Collections</text></g><!--class IPredictionSink--><g class="entity" data-qualified-name="Selection.IPredictionSink" data-source-line="5" id="ent0003"><rect fill="#FFFFFF" height="60.2969" rx="2.5" ry="2.5" style="stroke:#000000;stroke-width:1;" width="217.0986" x="35.5" y="96.6094"/><ellipse cx="88.3052" cy="110.6094" fill="#FFFFFF" rx="9" ry="9" style="stroke:#000000;stroke-width:1;"/><path d="M84.2271,106.375 L84.2271,104.2188 L91.6177,104.2188 L91.6177,106.375 L89.1489,106.375 L89.1489,114.4531 L91.6177,114.4531 L91.6177,116.6094 L84.2271,116.6094 L84.2271,114.4531 L86.6958,114.4531 L86.6958,106.375 L84.2271,106.375 Z " fill="#000000"/><text fill="#000000" font-family="Verdana" font-size="14" font-style="italic" lengthAdjust="spacing" textLength="103.9883" x="105.8052" y="115.4561">IPredictionSink</text><line style="stroke:#000000;stroke-width:1;" x1="36.5" x2="251.5986" y1="124.6094" y2="124.6094"/><line style="stroke:#000000;stroke-width:1;" x1="36.5" x2="251.5986" y1="132.6094" y2="132.6094"/><text fill="#000000" font-family="Verdana" font-size="14" lengthAdjust="spacing" textLength="205.0986" x="41.5" y="149.6045">void OnPrediction(Prediction)</text></g><!--class SelectionBehaviour--><g class="entity" data-qualified-name="Selection.SelectionBehaviour" data-source-line="10" id="ent0007"><rect fill="#FFFFFF" height="44" rx="2.5" ry="2.5" style="stroke:#000000;stroke-width:1;" width="163.5566" x="110.22" y="255.1094"/><ellipse cx="123.22" cy="269.1094" fill="#FFFFFF" rx="9" ry="9" style="stroke:#000000;stroke-width:1;"/><path d="M123.3294,264.4531 L122.1731,269.5313 L124.5013,269.5313 L123.3294,264.4531 Z M121.845,262.2188 L124.8294,262.2188 L128.1888,274.6094 L125.7356,274.6094 L124.97,271.5469 L121.6888,271.5469 L120.9388,274.6094 L118.5013,274.6094 L121.845,262.2188 Z " fill="#000000"/><text fill="#000000" font-family="Verdana" font-size="14" font-style="italic" lengthAdjust="spacing" textLength="135.5566" x="135.22" y="273.9561">SelectionBehaviour</text><line style="stroke:#000000;stroke-width:1;" x1="111.22" x2="272.7766" y1="283.1094" y2="283.1094"/><line style="stroke:#000000;stroke-width:1;" x1="111.22" x2="272.7766" y1="291.1094" y2="291.1094"/></g><!--class ISelectable--><g class="entity" data-qualified-name="Selection.ISelectable" data-source-line="12" id="ent0009"><rect fill="#FFFFFF" height="76.5938" rx="2.5" ry="2.5" style="stroke:#000000;stroke-width:1;" width="130.9385" x="432" y="539.6094"/><ellipse cx="456.5431" cy="553.6094" fill="#FFFFFF" rx="9" ry="9" style="stroke:#000000;stroke-width:1;"/><path d="M452.465,549.375 L452.465,547.2188 L459.8556,547.2188 L459.8556,549.375 L457.3869,549.375 L457.3869,557.4531 L459.8556,557.4531 L459.8556,559.6094 L452.465,559.6094 L452.465,557.4531 L454.9337,557.4531 L454.9337,549.375 L452.465,549.375 Z " fill="#000000"/><text fill="#000000" font-family="Verdana" font-size="14" font-style="italic" lengthAdjust="spacing" textLength="77.2871" x="471.1083" y="558.4561">ISelectable</text><line style="stroke:#000000;stroke-width:1;" x1="433" x2="561.9385" y1="567.6094" y2="567.6094"/><text fill="#000000" font-family="Verdana" font-size="14" lengthAdjust="spacing" textLength="118.9385" x="438" y="584.6045">bool IsSelectable</text><line style="stroke:#000000;stroke-width:1;" x1="433" x2="561.9385" y1="591.9063" y2="591.9063"/><text fill="#000000" font-family="Verdana" font-size="14" lengthAdjust="spacing" textLength="88.1904" x="438" y="608.9014">void Select()</text></g><!--class SelectorShortcuts--><g class="entity" data-qualified-name="Selection.SelectorShortcuts" data-source-line="17" id="ent0010"><rect fill="#FFFFFF" height="105.1875" rx="2.5" ry="2.5" style="stroke:#000000;stroke-width:1;" width="235.7979" x="316.5" y="224.6094"/><ellipse cx="368.4316" cy="238.6094" fill="#FFFFFF" rx="9" ry="9" style="stroke:#000000;stroke-width:1;"/><path d="M371.4004,244.25 Q370.8223,244.5469 370.1816,244.6875 Q369.541,244.8438 368.8379,244.8438 Q366.3379,244.8438 365.0098,243.2031 Q363.6973,241.5469 363.6973,238.4219 Q363.6973,235.2969 365.0098,233.6406 Q366.3379,231.9844 368.8379,231.9844 Q369.541,231.9844 370.1816,232.1406 Q370.8379,232.2969 371.4004,232.5938 L371.4004,235.3125 Q370.7754,234.7344 370.1816,234.4688 Q369.5879,234.1875 368.9629,234.1875 Q367.6191,234.1875 366.9316,235.2656 Q366.2441,236.3281 366.2441,238.4219 Q366.2441,240.5156 366.9316,241.5938 Q367.6191,242.6563 368.9629,242.6563 Q369.5879,242.6563 370.1816,242.3906 Q370.7754,242.1094 371.4004,241.5313 L371.4004,244.25 Z " fill="#000000"/><text fill="#000000" font-family="Verdana" font-size="14" lengthAdjust="spacing" textLength="124.4346" x="385.9316" y="243.4561">SelectorShortcuts</text><line style="stroke:#000000;stroke-width:1;" x1="317.5" x2="551.2979" y1="252.6094" y2="252.6094"/><text fill="#000000" font-family="Verdana" font-size="14" lengthAdjust="spacing" textLength="201.2568" x="322.5" y="269.6045">IndexedKeyBindSet Bindings</text><g data-visibility-modifier="PRIVATE_FIELD"><rect fill="none" height="6" style="stroke:#000000;stroke-width:1;" width="6" x="324.5" y="299.8516"/></g><text fill="#000000" font-family="Verdana" font-size="14" lengthAdjust="spacing" textLength="189.8203" x="334.5" y="306.1982">SelectionBehaviour _target</text><g data-visibility-modifier="PRIVATE_FIELD"><rect fill="none" height="6" style="stroke:#000000;stroke-width:1;" width="6" x="324.5" y="316.1484"/></g><text fill="#000000" font-family="Verdana" font-size="14" lengthAdjust="spacing" textLength="211.7979" x="334.5" y="322.4951">TrialBehaviour _trialBehaviour</text><line style="stroke:#000000;stroke-width:1;stroke-dasharray:1,2;" x1="317.5" x2="380.043" y1="285.0547" y2="285.0547"/><text fill="#000000" font-family="Verdana" font-size="14" lengthAdjust="spacing" textLength="108.7119" x="380.043" y="289.4014">serialized fields</text><line style="stroke:#000000;stroke-width:1;stroke-dasharray:1,2;" x1="488.7549" x2="551.2979" y1="285.0547" y2="285.0547"/></g><!--class StimulusPresenterCollectionSelector--><g class="entity" data-qualified-name="Selection.StimulusPresenterCollectionSelector" data-source-line="25" id="ent0012"><rect fill="#FFFFFF" height="60.2969" rx="2.5" ry="2.5" style="stroke:#000000;stroke-width:1;" width="283.042" x="317.5" y="397.6094"/><ellipse cx="330.5" cy="411.6094" fill="#FFFFFF" rx="9" ry="9" style="stroke:#000000;stroke-width:1;"/><path d="M333.4688,417.25 Q332.8906,417.5469 332.25,417.6875 Q331.6094,417.8438 330.9063,417.8438 Q328.4063,417.8438 327.0781,416.2031 Q325.7656,414.5469 325.7656,411.4219 Q325.7656,408.2969 327.0781,406.6406 Q328.4063,404.9844 330.9063,404.9844 Q331.6094,404.9844 332.25,405.1406 Q332.9063,405.2969 333.4688,405.5938 L333.4688,408.3125 Q332.8438,407.7344 332.25,407.4688 Q331.6563,407.1875 331.0313,407.1875 Q329.6875,407.1875 329,408.2656 Q328.3125,409.3281 328.3125,411.4219 Q328.3125,413.5156 329,414.5938 Q329.6875,415.6563 331.0313,415.6563 Q331.6563,415.6563 332.25,415.3906 Q332.8438,415.1094 333.4688,414.5313 L333.4688,417.25 Z " fill="#000000"/><text fill="#000000" font-family="Verdana" font-size="14" lengthAdjust="spacing" textLength="255.042" x="342.5" y="416.4561">StimulusPresenterCollectionSelector</text><line style="stroke:#000000;stroke-width:1;" x1="318.5" x2="599.542" y1="425.6094" y2="425.6094"/><g data-visibility-modifier="PRIVATE_FIELD"><rect fill="none" height="6" style="stroke:#000000;stroke-width:1;" width="6" x="325.5" y="436.2578"/></g><text fill="#000000" font-family="Verdana" font-size="14" lengthAdjust="spacing" textLength="251.7949" x="335.5" y="442.6045">StimulusPresenterCollection _target</text><line style="stroke:#000000;stroke-width:1;" x1="318.5" x2="599.542" y1="449.9063" y2="449.9063"/></g><g class="entity" data-qualified-name="Selection.Note" data-source-line="33" id="ent0020"><path d="M295.45,98.9094 L295.45,154.3078 L608.5564,154.3078 L608.5564,108.9094 L598.5564,98.9094 L295.45,98.9094" fill="#FFFFFF" style="stroke:#000000;stroke-width:1;"/><path d="M598.5564,98.9094 L598.5564,108.9094 L608.5564,108.9094 L598.5564,98.9094" fill="#FFFFFF" style="stroke:#000000;stroke-width:1;"/><text fill="#000000" font-family="Verdana" font-size="13" lengthAdjust="spacing" textLength="259.0732" x="301.45" y="115.9763">A brief collection of structural skeletons</text><text fill="#000000" font-family="Verdana" font-size="13" lengthAdjust="spacing" textLength="292.1064" x="301.45" y="131.1091">enabling operability with training behaviours</text><text fill="#000000" font-family="Verdana" font-size="13" lengthAdjust="spacing" textLength="290.9385" x="301.45" y="146.2419">without imposing opinionated selection logic</text></g><!--class Prediction--><g class="entity" data-qualified-name="LSLFramework.Prediction" data-source-line="8" id="ent0004"><rect fill="#FFFFFF" height="44" rx="2.5" ry="2.5" style="stroke:#000000;stroke-width:1;" width="98.1025" x="664.95" y="255.1094"/><ellipse cx="677.95" cy="269.1094" fill="#FFFFFF" rx="9" ry="9" style="stroke:#000000;stroke-width:1;"/><path d="M680.9188,274.75 Q680.3406,275.0469 679.7,275.1875 Q679.0594,275.3438 678.3563,275.3438 Q675.8563,275.3438 674.5281,273.7031 Q673.2156,272.0469 673.2156,268.9219 Q673.2156,265.7969 674.5281,264.1406 Q675.8563,262.4844 678.3563,262.4844 Q679.0594,262.4844 679.7,262.6406 Q680.3563,262.7969 680.9188,263.0938 L680.9188,265.8125 Q680.2938,265.2344 679.7,264.9688 Q679.1063,264.6875 678.4813,264.6875 Q677.1375,264.6875 676.45,265.7656 Q675.7625,266.8281 675.7625,268.9219 Q675.7625,271.0156 676.45,272.0938 Q677.1375,273.1563 678.4813,273.1563 Q679.1063,273.1563 679.7,272.8906 Q680.2938,272.6094 680.9188,272.0313 L680.9188,274.75 Z " fill="#000000"/><text fill="#000000" font-family="Verdana" font-size="14" lengthAdjust="spacing" textLength="70.1025" x="689.95" y="273.9561">Prediction</text><line style="stroke:#000000;stroke-width:1;" x1="665.95" x2="762.0525" y1="283.1094" y2="283.1094"/><line style="stroke:#000000;stroke-width:1;" x1="665.95" x2="762.0525" y1="291.1094" y2="291.1094"/></g><!--class StimulusPresenterCollection--><g class="entity" data-qualified-name="Stimulus.Collections.StimulusPresenterCollection" data-source-line="28" id="ent0014"><rect fill="#FFFFFF" height="44" rx="2.5" ry="2.5" style="stroke:#000000;stroke-width:1;" width="225.5313" x="689.23" y="555.6094"/><ellipse cx="702.23" cy="569.6094" fill="#FFFFFF" rx="9" ry="9" style="stroke:#000000;stroke-width:1;"/><path d="M705.1988,575.25 Q704.6206,575.5469 703.98,575.6875 Q703.3394,575.8438 702.6363,575.8438 Q700.1363,575.8438 698.8081,574.2031 Q697.4956,572.5469 697.4956,569.4219 Q697.4956,566.2969 698.8081,564.6406 Q700.1363,562.9844 702.6363,562.9844 Q703.3394,562.9844 703.98,563.1406 Q704.6363,563.2969 705.1988,563.5938 L705.1988,566.3125 Q704.5738,565.7344 703.98,565.4688 Q703.3863,565.1875 702.7613,565.1875 Q701.4175,565.1875 700.73,566.2656 Q700.0425,567.3281 700.0425,569.4219 Q700.0425,571.5156 700.73,572.5938 Q701.4175,573.6563 702.7613,573.6563 Q703.3863,573.6563 703.98,573.3906 Q704.5738,573.1094 705.1988,572.5313 L705.1988,575.25 Z " fill="#000000"/><text fill="#000000" font-family="Verdana" font-size="14" lengthAdjust="spacing" textLength="197.5313" x="714.23" y="574.4561">StimulusPresenterCollection</text><line style="stroke:#000000;stroke-width:1;" x1="690.23" x2="913.7613" y1="583.6094" y2="583.6094"/><line style="stroke:#000000;stroke-width:1;" x1="690.23" x2="913.7613" y1="591.6094" y2="591.6094"/></g><!--link IPredictionSink to Prediction--><g class="link" data-entity-1="ent0003" data-entity-2="ent0004" data-link-type="dependency" data-source-line="8" id="lnk6"><path codeLine="8" d="M254,144.6094 C266.82,144.6094 266.04,155.9994 278,160.6094 C423.49,216.6494 480.52,153.4994 625,212.1094 C649.69,222.1294 669.4216,236.4397 686.3816,250.8797" fill="none" id="IPredictionSink-to-Prediction" style="stroke:#000000;stroke-width:1;"/><polygon fill="#000000" points="690.95,254.7694,686.6904,245.8893,687.143,251.528,681.5042,251.9805,690.95,254.7694" style="stroke:#000000;stroke-width:1;"/></g><!--reverse link IPredictionSink to SelectionBehaviour--><g class="link" data-entity-1="ent0003" data-entity-2="ent0007" data-link-type="extension" data-source-line="10" id="lnk8"><path d="M160.1862,177.6969 C169.4662,206.4069 177.12,230.0694 185.08,254.7194" fill="none" id="IPredictionSink-backto-SelectionBehaviour" style="stroke:#000000;stroke-width:1;stroke-dasharray:7,7;"/><polygon fill="none" points="154.65,160.5694,154.477,179.5423,165.8953,175.8515,154.65,160.5694" style="stroke:#000000;stroke-width:1;"/></g><!--link SelectionBehaviour to SelectorShortcuts--><g class="link" data-entity-1="ent0007" data-entity-2="ent0010" data-link-type="aggregation" data-source-line="23" id="lnk11"><path codeLine="23" d="M274.27,297.6194 C287.79,299.7194 289.72,301.1094 303,301.1094" fill="none" id="SelectionBehaviour-to-SelectorShortcuts" style="stroke:#000000;stroke-width:1;"/><polygon fill="none" points="315,301.1094,309,297.1094,303,301.1094,309,305.1094,315,301.1094" style="stroke:#000000;stroke-width:1;"/></g><!--reverse link SelectionBehaviour to StimulusPresenterCollectionSelector--><g class="link" data-entity-1="ent0007" data-entity-2="ent0012" data-link-type="extension" data-source-line="26" id="lnk13"><path d="M245.7493,308.3146 C264.1493,318.6346 270.86,322.3894 291,333.6094 C326.97,353.6494 367.33,375.9994 399.48,393.7594" fill="none" id="SelectionBehaviour-backto-StimulusPresenterCollectionSelector" style="stroke:#000000;stroke-width:1;"/><polygon fill="none" points="230.05,299.5094,242.8142,313.5477,248.6844,303.0815,230.05,299.5094" style="stroke:#000000;stroke-width:1;"/></g><!--link StimulusPresenterCollectionSelector to StimulusPresenterCollection--><g class="link" data-entity-1="ent0012" data-entity-2="ent0014" data-link-type="dependency" data-source-line="28" id="lnk17"><path codeLine="28" d="M602,437.6094 C683.4,437.6094 751.7552,511.4976 782.4952,550.4876" fill="none" id="StimulusPresenterCollectionSelector-to-StimulusPresenterCollection" style="stroke:#000000;stroke-width:1;"/><polygon fill="#000000" points="786.21,555.1994,783.779,545.6553,783.1144,551.2729,777.4967,550.6083,786.21,555.1994" style="stroke:#000000;stroke-width:1;"/></g><!--link StimulusPresenterCollectionSelector to ISelectable--><g class="link" data-entity-1="ent0012" data-entity-2="ent0009" data-link-type="dependency" data-source-line="29" id="lnk18"><path codeLine="29" d="M440.6,461.5294 C414.05,512.2194 368.08,603.6094 425,603.6094" fill="none" id="StimulusPresenterCollectionSelector-to-ISelectable" style="stroke:#000000;stroke-width:1;stroke-dasharray:7,7;"/><polygon fill="#000000" points="431,603.6094,422,599.6094,426,603.6094,422,607.6094,431,603.6094" style="stroke:#000000;stroke-width:1;"/></g><!--reverse link StimulusPresenterCollection to ISelectable--><g class="link" data-entity-1="ent0014" data-entity-2="ent0009" data-link-type="aggregation" data-source-line="30" id="lnk19"><path codeLine="30" d="M677.16,577.6094 C637.43,577.6094 609.7,577.6094 569.97,577.6094" fill="none" id="StimulusPresenterCollection-backto-ISelectable" style="stroke:#000000;stroke-width:1;stroke-dasharray:7,7;"/><polygon fill="none" points="689.16,577.6094,683.16,573.6094,677.16,577.6094,683.16,581.6094,689.16,577.6094" style="stroke:#000000;stroke-width:1;"/></g><?plantuml-src ZLJBRkCm3BpxAzXRzn1zW0y5sW85WXRR0kvz8LjCGaGH0udkOul--qfsR2dPRBi-MBQ7C-HGb2zaWpk4lTNaAY6n20rQx8JOLPNJEmnxtHKVuQE2U94JzAk4B9yy6XgmXjpsWAVhXSd0eyluPNxyCKHz3lSJXRekER1ON85wQ1xkV2pcbVrMPR0Q-BeDudKdkSWRtEWNuju3xVOs6dGIJjDKfpv6jcvZ2xA7bjd2CcJisDtu_N9oCooTrI4S4FRDXhrqVSoVHPVEu1kQUto_8MSQ54WhkNMOGvGAw4bR-eq6LeJM1ALcT77EwY_HVerI13qdXJBWwBtOWJDg2_xRGbrFEKgZGhlUzY5sDs3gvYtRWzea0FWcw4mub-UZDFLlgIDtXwA_JpmN36c89eBAWK5zeVA_MU9cNPNZKzVZytTyO5NIngOw5WGTu6TSvzPSG-i9Lz0Lt1N4gUyxwRss4BPHHgAVcO8kQiQH0jwZrorPadTu9Tb0F2la4j9Ecv1PAO1xISU6myYEiUoqn34Cyp_0yfgwQanZXfAhppy0?></g></svg>