<?plantuml 1.2026.2beta3?><svg xmlns="http://www.w3.org/2000/svg" xmlns:xlink="http://www.w3.org/1999/xlink" contentStyleType="text/css" data-diagram-type="CLASS" height="336px" preserveAspectRatio="none" style="width:663px;height:336px;background:#FFFFFF;" version="1.1" viewBox="0 0 663 336" width="663px" zoomAndPan="magnify"><title>Selection</title><defs/><g><g class="title" data-source-line="2"><text fill="#000000" font-family="Verdana" font-size="22" font-weight="bold" lengthAdjust="spacing" textLength="115.1025" x="269.4487" y="35.4209">Selection</text></g><!--cluster Selection--><g class="cluster" data-qualified-name="Selection" data-source-line="4" id="ent0002"><path d="M13.5,57.6094 L87.7471,57.6094 A3.75,3.75 0 0 1 90.2471,60.1094 L97.2471,79.9063 L653.5,79.9063 A2.5,2.5 0 0 1 656,82.4063 L656,326.6994 A2.5,2.5 0 0 1 653.5,329.1994 L13.5,329.1994 A2.5,2.5 0 0 1 11,326.6994 L11,60.1094 A2.5,2.5 0 0 1 13.5,57.6094" fill="#FFFFFF" style="stroke:#000000;stroke-width:1;"/><line style="stroke:#000000;stroke-width:1;" x1="11" x2="97.2471" y1="79.9063" y2="79.9063"/><text fill="#000000" font-family="Verdana" font-size="14" font-weight="bold" lengthAdjust="spacing" textLength="73.2471" x="15" y="72.6045">Selection</text></g><!--class ISelector--><g class="entity" data-qualified-name="Selection.ISelector" data-source-line="5" id="ent0003"><rect fill="#FFFFFF" height="60.2969" rx="2.5" ry="2.5" style="stroke:#000000;stroke-width:1;" width="177.1494" x="462.43" y="115.0594"/><ellipse cx="516.4349" cy="129.0594" fill="#FFFFFF" rx="9" ry="9" style="stroke:#000000;stroke-width:1;"/><path d="M512.3568,124.825 L512.3568,122.6687 L519.7474,122.6687 L519.7474,124.825 L517.2786,124.825 L517.2786,132.9031 L519.7474,132.9031 L519.7474,135.0594 L512.3568,135.0594 L512.3568,132.9031 L514.8255,132.9031 L514.8255,124.825 L512.3568,124.825 Z " fill="#000000"/><text fill="#000000" font-family="Verdana" font-size="14" font-style="italic" lengthAdjust="spacing" textLength="61.6396" x="533.9349" y="133.9061">ISelector</text><line style="stroke:#000000;stroke-width:1;" x1="463.43" x2="638.5794" y1="143.0594" y2="143.0594"/><line style="stroke:#000000;stroke-width:1;" x1="463.43" x2="638.5794" y1="151.0594" y2="151.0594"/><text fill="#000000" font-family="Verdana" font-size="14" lengthAdjust="spacing" textLength="165.1494" x="468.43" y="168.0545">void MakeSelection(int)</text></g><!--class SelectionBehaviour--><g class="entity" data-qualified-name="Selection.SelectionBehaviour" data-source-line="9" id="ent0004"><rect fill="#FFFFFF" height="44" rx="2.5" ry="2.5" style="stroke:#000000;stroke-width:1;" width="163.5566" x="469.22" y="263.4994"/><ellipse cx="482.22" cy="277.4994" fill="#FFFFFF" rx="9" ry="9" style="stroke:#000000;stroke-width:1;"/><path d="M482.3294,272.8431 L481.1731,277.9213 L483.5013,277.9213 L482.3294,272.8431 Z M480.845,270.6088 L483.8294,270.6088 L487.1888,282.9994 L484.7356,282.9994 L483.97,279.9369 L480.6888,279.9369 L479.9388,282.9994 L477.5013,282.9994 L480.845,270.6088 Z " fill="#000000"/><text fill="#000000" font-family="Verdana" font-size="14" font-style="italic" lengthAdjust="spacing" textLength="135.5566" x="494.22" y="282.3461">SelectionBehaviour</text><line style="stroke:#000000;stroke-width:1;" x1="470.22" x2="631.7766" y1="291.4994" y2="291.4994"/><line style="stroke:#000000;stroke-width:1;" x1="470.22" x2="631.7766" y1="299.4994" y2="299.4994"/></g><!--class ISelectable--><g class="entity" data-qualified-name="Selection.ISelectable" data-source-line="11" id="ent0006"><rect fill="#FFFFFF" height="76.5938" rx="2.5" ry="2.5" style="stroke:#000000;stroke-width:1;" width="130.9385" x="26.53" y="106.9094"/><ellipse cx="51.0731" cy="120.9094" fill="#FFFFFF" rx="9" ry="9" style="stroke:#000000;stroke-width:1;"/><path d="M46.995,116.675 L46.995,114.5187 L54.3856,114.5187 L54.3856,116.675 L51.9169,116.675 L51.9169,124.7531 L54.3856,124.7531 L54.3856,126.9094 L46.995,126.9094 L46.995,124.7531 L49.4637,124.7531 L49.4637,116.675 L46.995,116.675 Z " fill="#000000"/><text fill="#000000" font-family="Verdana" font-size="14" font-style="italic" lengthAdjust="spacing" textLength="77.2871" x="65.6383" y="125.7561">ISelectable</text><line style="stroke:#000000;stroke-width:1;" x1="27.53" x2="156.4685" y1="134.9094" y2="134.9094"/><text fill="#000000" font-family="Verdana" font-size="14" lengthAdjust="spacing" textLength="118.9385" x="32.53" y="151.9045">bool IsSelectable</text><line style="stroke:#000000;stroke-width:1;" x1="27.53" x2="156.4685" y1="159.2062" y2="159.2062"/><text fill="#000000" font-family="Verdana" font-size="14" lengthAdjust="spacing" textLength="88.1904" x="32.53" y="176.2014">void Select()</text></g><!--class SelectorShortcuts--><g class="entity" data-qualified-name="Selection.SelectorShortcuts" data-source-line="16" id="ent0007"><rect fill="#FFFFFF" height="105.1875" rx="2.5" ry="2.5" style="stroke:#000000;stroke-width:1;" width="235.7979" x="192.1" y="92.6094"/><ellipse cx="244.0316" cy="106.6094" fill="#FFFFFF" rx="9" ry="9" style="stroke:#000000;stroke-width:1;"/><path d="M247.0004,112.25 Q246.4223,112.5469 245.7816,112.6875 Q245.141,112.8437 244.4379,112.8437 Q241.9379,112.8437 240.6098,111.2031 Q239.2973,109.5469 239.2973,106.4219 Q239.2973,103.2969 240.6098,101.6406 Q241.9379,99.9844 244.4379,99.9844 Q245.141,99.9844 245.7816,100.1406 Q246.4379,100.2969 247.0004,100.5937 L247.0004,103.3125 Q246.3754,102.7344 245.7816,102.4687 Q245.1879,102.1875 244.5629,102.1875 Q243.2191,102.1875 242.5316,103.2656 Q241.8441,104.3281 241.8441,106.4219 Q241.8441,108.5156 242.5316,109.5937 Q243.2191,110.6562 244.5629,110.6562 Q245.1879,110.6562 245.7816,110.3906 Q246.3754,110.1094 247.0004,109.5312 L247.0004,112.25 Z " fill="#000000"/><text fill="#000000" font-family="Verdana" font-size="14" lengthAdjust="spacing" textLength="124.4346" x="261.5316" y="111.4561">SelectorShortcuts</text><line style="stroke:#000000;stroke-width:1;" x1="193.1" x2="426.8979" y1="120.6094" y2="120.6094"/><text fill="#000000" font-family="Verdana" font-size="14" lengthAdjust="spacing" textLength="201.2568" x="198.1" y="137.6045">IndexedKeyBindSet Bindings</text><g data-visibility-modifier="PRIVATE_FIELD"><rect fill="none" height="6" style="stroke:#000000;stroke-width:1;" width="6" x="200.1" y="167.8516"/></g><text fill="#000000" font-family="Verdana" font-size="14" lengthAdjust="spacing" textLength="189.8203" x="210.1" y="174.1982">SelectionBehaviour _target</text><g data-visibility-modifier="PRIVATE_FIELD"><rect fill="none" height="6" style="stroke:#000000;stroke-width:1;" width="6" x="200.1" y="184.1484"/></g><text fill="#000000" font-family="Verdana" font-size="14" lengthAdjust="spacing" textLength="211.7979" x="210.1" y="190.4951">TrialBehaviour _trialBehaviour</text><line style="stroke:#000000;stroke-width:1;stroke-dasharray:1,2;" x1="193.1" x2="255.643" y1="153.0547" y2="153.0547"/><text fill="#000000" font-family="Verdana" font-size="14" lengthAdjust="spacing" textLength="108.7119" x="255.643" y="157.4014">serialized fields</text><line style="stroke:#000000;stroke-width:1;stroke-dasharray:1,2;" x1="364.3549" x2="426.8979" y1="153.0547" y2="153.0547"/></g><g class="entity" data-qualified-name="Selection.Note" data-source-line="24" id="ent0008"><path d="M27.45,257.7994 L27.45,313.1978 L340.5564,313.1978 L340.5564,267.7994 L330.5564,257.7994 L27.45,257.7994" fill="#FFFFFF" style="stroke:#000000;stroke-width:1;"/><path d="M330.5564,257.7994 L330.5564,267.7994 L340.5564,267.7994 L330.5564,257.7994" fill="#FFFFFF" style="stroke:#000000;stroke-width:1;"/><text fill="#000000" font-family="Verdana" font-size="13" lengthAdjust="spacing" textLength="259.0732" x="33.45" y="274.8663">A brief collection of structural skeletons</text><text fill="#000000" font-family="Verdana" font-size="13" lengthAdjust="spacing" textLength="292.1064" x="33.45" y="289.9991">enabling operability with training behaviours</text><text fill="#000000" font-family="Verdana" font-size="13" lengthAdjust="spacing" textLength="290.9385" x="33.45" y="305.1319">without imposing opinionated selection logic</text></g><!--reverse link ISelector to SelectionBehaviour--><g class="link" data-entity-1="ent0003" data-entity-2="ent0004" data-link-type="extension" data-source-line="9" id="lnk5"><path d="M551,193.5394 C551,219.8594 551,239.8594 551,263.3294" fill="none" id="ISelector-backto-SelectionBehaviour" style="stroke:#000000;stroke-width:1;stroke-dasharray:7,7;"/><polygon fill="none" points="551,175.5394,545,193.5394,557,193.5394,551,175.5394" style="stroke:#000000;stroke-width:1;"/></g><?plantuml-src RL8nRiCm3Dpr2dPBX_eFpHOKxPBk0ItHCH55D2GwRLhaxvNYndA0Q26iEzuTHJzfJqU2mIC7ewoUO4kUhB84Om8UAGre5vVmQo0V3agnAyXcWYJ-8-MSX1syuu7cjbLkUBxY5tCjs2QDQBKghwd74yiOWO-3pwc2fgfk7jjYcnDNurR4moPLx3xITB-w2s8zfWGtcsqlKUsOdQle9ZZw9lT6vpK7joM5KZdiqqnfcaIHqVCFEUYOl4jDCwClZuRSASOzwOBqMHIMXBllPUOWIe09FdAT1LwXZKmTMF6tNKa7-PL7gsD43-cGKwY46fj2VgCy2CX04Llsh6VuOkqXxuP3GTgRV-qg11crh4dIr9sv4b3py6d-KRpisPh9nbqZcyiV?></g></svg>