<svg xmlns="http://www.w3.org/2000/svg" xmlns:xlink="http://www.w3.org/1999/xlink" contentStyleType="text/css" data-diagram-type="CLASS" height="508px" preserveAspectRatio="none" style="width:791px;height:508px;background:#FFFFFF;" version="1.1" viewBox="0 0 791 508" width="791px" zoomAndPan="magnify"><?plantuml 1.2026.4beta2?><defs/><g><g class="title" data-source-line="2"><text fill="#000000" font-family="Verdana" font-size="22" font-weight="700" lengthAdjust="spacing" textLength="251.4639" x="268.8677" y="35.4209">Training Conductors</text></g><!--entity CoroutineWrapper--><g class="entity" data-qualified-name="CoroutineWrapper" data-source-line="5" id="ent0002"><ellipse cx="156.75" cy="88.7594" fill="#FFFFFF" rx="8" ry="8" style="stroke:#000000;stroke-width:1;"/><text fill="#000000" font-family="Verdana" font-size="14" lengthAdjust="spacing" textLength="128.7207" x="92.3896" y="118.7545">CoroutineWrapper</text></g><!--class IBCIMarkerSource--><g class="entity" data-qualified-name="IBCIMarkerSource" data-source-line="7" id="ent0003"><rect fill="#FFFFFF" height="60.2969" rx="2.5" ry="2.5" style="stroke:#000000;stroke-width:1;" width="225.4111" x="264.04" y="58.6094"/><ellipse cx="310.5356" cy="72.6094" fill="#FFFFFF" rx="9" ry="9" style="stroke:#000000;stroke-width:1;"/><path d="M306.4575,68.375 L306.4575,66.2188 L313.8481,66.2188 L313.8481,68.375 L311.3794,68.375 L311.3794,76.4531 L313.8481,76.4531 L313.8481,78.6094 L306.4575,78.6094 L306.4575,76.4531 L308.9262,76.4531 L308.9262,68.375 L306.4575,68.375 Z " fill="#000000"/><text fill="#000000" font-family="Verdana" font-size="14" font-style="italic" lengthAdjust="spacing" textLength="124.9199" x="328.0356" y="77.4561">IBCIMarkerSource</text><line style="stroke:#000000;stroke-width:1;" x1="265.04" x2="488.4511" y1="86.6094" y2="86.6094"/><text fill="#000000" font-family="Verdana" font-size="14" lengthAdjust="spacing" textLength="213.4111" x="270.04" y="103.6045">LSLMarkerWriter MarkerWriter</text><line style="stroke:#000000;stroke-width:1;" x1="265.04" x2="488.4511" y1="110.9063" y2="110.9063"/></g><!--class ITargetIndicator--><g class="entity" data-qualified-name="ITargetIndicator" data-source-line="11" id="ent0004"><rect fill="#FFFFFF" height="92.8906" rx="2.5" ry="2.5" style="stroke:#000000;stroke-width:1;" width="229.8682" x="290.25" y="400.9894"/><ellipse cx="345.499" cy="414.9894" fill="#FFFFFF" rx="9" ry="9" style="stroke:#000000;stroke-width:1;"/><path d="M341.4209,410.755 L341.4209,408.5988 L348.8115,408.5988 L348.8115,410.755 L346.3428,410.755 L346.3428,418.8331 L348.8115,418.8331 L348.8115,420.9894 L341.4209,420.9894 L341.4209,418.8331 L343.8896,418.8331 L343.8896,410.755 L341.4209,410.755 Z " fill="#000000"/><text fill="#000000" font-family="Verdana" font-size="14" font-style="italic" lengthAdjust="spacing" textLength="111.8701" x="362.999" y="419.8361">ITargetIndicator</text><line style="stroke:#000000;stroke-width:1;" x1="291.25" x2="519.1182" y1="428.9894" y2="428.9894"/><text fill="#000000" font-family="Verdana" font-size="14" font-style="italic" lengthAdjust="spacing" textLength="111.002" x="296.25" y="445.9845">int OptionCount</text><line style="stroke:#000000;stroke-width:1;" x1="291.25" x2="519.1182" y1="453.2863" y2="453.2863"/><text fill="#000000" font-family="Verdana" font-size="14" font-style="italic" lengthAdjust="spacing" textLength="217.8682" x="296.25" y="470.2814">void BeginTargetIndication(int)</text><text fill="#000000" font-family="Verdana" font-size="14" font-style="italic" lengthAdjust="spacing" textLength="186.3545" x="296.25" y="486.5782">void EndTargetIndication()</text></g><!--class ITargetable--><g class="entity" data-qualified-name="ITargetable" data-source-line="16" id="ent0005"><rect fill="#FFFFFF" height="76.5938" rx="2.5" ry="2.5" style="stroke:#000000;stroke-width:1;" width="205.9492" x="570.25" y="408.9894"/><ellipse cx="629.4878" cy="422.9894" fill="#FFFFFF" rx="9" ry="9" style="stroke:#000000;stroke-width:1;"/><path d="M625.4097,418.755 L625.4097,416.5988 L632.8003,416.5988 L632.8003,418.755 L630.3315,418.755 L630.3315,426.8331 L632.8003,426.8331 L632.8003,428.9894 L625.4097,428.9894 L625.4097,426.8331 L627.8784,426.8331 L627.8784,418.755 L625.4097,418.755 Z " fill="#000000"/><text fill="#000000" font-family="Verdana" font-size="14" font-style="italic" lengthAdjust="spacing" textLength="79.9736" x="646.9878" y="427.8361">ITargetable</text><line style="stroke:#000000;stroke-width:1;" x1="571.25" x2="775.1992" y1="436.9894" y2="436.9894"/><line style="stroke:#000000;stroke-width:1;" x1="571.25" x2="775.1992" y1="444.9894" y2="444.9894"/><text fill="#000000" font-family="Verdana" font-size="14" lengthAdjust="spacing" textLength="193.9492" x="576.25" y="461.9845">void StartTargetIndication()</text><text fill="#000000" font-family="Verdana" font-size="14" lengthAdjust="spacing" textLength="186.3545" x="576.25" y="478.2814">void EndTargetIndication()</text></g><!--class SingleRoundTrainingConductor--><g class="entity" data-qualified-name="SingleRoundTrainingConductor" data-source-line="23" id="ent0007"><rect fill="#FFFFFF" height="158.0781" rx="2.5" ry="2.5" style="stroke:#000000;stroke-width:1;" width="245.7451" x="143.87" y="178.9094"/><ellipse cx="156.87" cy="192.9094" fill="#FFFFFF" rx="9" ry="9" style="stroke:#000000;stroke-width:1;"/><path d="M159.8388,198.55 Q159.2606,198.8469 158.62,198.9875 Q157.9794,199.1438 157.2763,199.1438 Q154.7763,199.1438 153.4481,197.5031 Q152.1356,195.8469 152.1356,192.7219 Q152.1356,189.5969 153.4481,187.9406 Q154.7763,186.2844 157.2763,186.2844 Q157.9794,186.2844 158.62,186.4406 Q159.2763,186.5969 159.8388,186.8938 L159.8388,189.6125 Q159.2138,189.0344 158.62,188.7688 Q158.0263,188.4875 157.4013,188.4875 Q156.0575,188.4875 155.37,189.5656 Q154.6825,190.6281 154.6825,192.7219 Q154.6825,194.8156 155.37,195.8938 Q156.0575,196.9563 157.4013,196.9563 Q158.0263,196.9563 158.62,196.6906 Q159.2138,196.4094 159.8388,195.8313 L159.8388,198.55 Z " fill="#000000"/><text fill="#000000" font-family="Verdana" font-size="14" lengthAdjust="spacing" textLength="217.7451" x="168.87" y="197.7561">SingleRoundTrainingConductor</text><line style="stroke:#000000;stroke-width:1;" x1="144.87" x2="388.6151" y1="206.9094" y2="206.9094"/><text fill="#000000" font-family="Verdana" font-size="14" lengthAdjust="spacing" textLength="107.3652" x="149.87" y="223.9045">int TargetIndex</text><text fill="#000000" font-family="Verdana" font-size="14" lengthAdjust="spacing" textLength="194.8037" x="149.87" y="240.2014">float TargetIndicationPeriod</text><text fill="#000000" font-family="Verdana" font-size="14" lengthAdjust="spacing" textLength="195.8838" x="149.87" y="256.4982">bool PersistTargetIndication</text><text fill="#000000" font-family="Verdana" font-size="14" lengthAdjust="spacing" textLength="124.0723" x="149.87" y="272.7951">float PreTrialTime</text><text fill="#000000" font-family="Verdana" font-size="14" lengthAdjust="spacing" textLength="131.0518" x="149.87" y="289.092">float PostTrialTime</text><text fill="#000000" font-family="Verdana" font-size="14" lengthAdjust="spacing" textLength="180.7217" x="149.87" y="305.3889">bool SelectTrainingTarget</text><line style="stroke:#000000;stroke-width:1;" x1="144.87" x2="388.6151" y1="312.6906" y2="312.6906"/><text fill="#000000" font-family="Verdana" font-size="14" lengthAdjust="spacing" textLength="193.1426" x="149.87" y="329.6857">IEnumerator RunRound(int)</text></g><!--class TrialConductor--><g class="entity" data-qualified-name="TrialConductor" data-source-line="33" id="ent0011"><rect fill="#FFFFFF" height="44" rx="2.5" ry="2.5" style="stroke:#000000;stroke-width:1;" width="131.1475" x="424.17" y="235.9494"/><ellipse cx="437.17" cy="249.9494" fill="#FFFFFF" rx="9" ry="9" style="stroke:#000000;stroke-width:1;"/><path d="M440.1388,255.59 Q439.5606,255.8869 438.92,256.0275 Q438.2794,256.1838 437.5763,256.1838 Q435.0763,256.1838 433.7481,254.5431 Q432.4356,252.8869 432.4356,249.7619 Q432.4356,246.6369 433.7481,244.9806 Q435.0763,243.3244 437.5763,243.3244 Q438.2794,243.3244 438.92,243.4806 Q439.5763,243.6369 440.1388,243.9337 L440.1388,246.6525 Q439.5138,246.0744 438.92,245.8087 Q438.3263,245.5275 437.7013,245.5275 Q436.3575,245.5275 435.67,246.6056 Q434.9825,247.6681 434.9825,249.7619 Q434.9825,251.8556 435.67,252.9337 Q436.3575,253.9962 437.7013,253.9962 Q438.3263,253.9962 438.92,253.7306 Q439.5138,253.4494 440.1388,252.8712 L440.1388,255.59 Z " fill="#000000"/><text fill="#000000" font-family="Verdana" font-size="14" lengthAdjust="spacing" textLength="103.1475" x="449.17" y="254.7961">TrialConductor</text><line style="stroke:#000000;stroke-width:1;" x1="425.17" x2="554.3175" y1="263.9494" y2="263.9494"/><line style="stroke:#000000;stroke-width:1;" x1="425.17" x2="554.3175" y1="271.9494" y2="271.9494"/></g><!--class AutomatedTrainingConductor--><g class="entity" data-qualified-name="AutomatedTrainingConductor" data-source-line="35" id="ent0013"><rect fill="#FFFFFF" height="76.5938" rx="2.5" ry="2.5" style="stroke:#000000;stroke-width:1;" width="235.4912" x="12" y="408.6894"/><ellipse cx="25" cy="422.6894" fill="#FFFFFF" rx="9" ry="9" style="stroke:#000000;stroke-width:1;"/><path d="M27.9688,428.33 Q27.3906,428.6269 26.75,428.7675 Q26.1094,428.9238 25.4063,428.9238 Q22.9063,428.9238 21.5781,427.2831 Q20.2656,425.6269 20.2656,422.5019 Q20.2656,419.3769 21.5781,417.7206 Q22.9063,416.0644 25.4063,416.0644 Q26.1094,416.0644 26.75,416.2206 Q27.4063,416.3769 27.9688,416.6738 L27.9688,419.3925 Q27.3438,418.8144 26.75,418.5488 Q26.1563,418.2675 25.5313,418.2675 Q24.1875,418.2675 23.5,419.3456 Q22.8125,420.4081 22.8125,422.5019 Q22.8125,424.5956 23.5,425.6738 Q24.1875,426.7363 25.5313,426.7363 Q26.1563,426.7363 26.75,426.4706 Q27.3438,426.1894 27.9688,425.6113 L27.9688,428.33 Z " fill="#000000"/><text fill="#000000" font-family="Verdana" font-size="14" lengthAdjust="spacing" textLength="207.4912" x="37" y="427.5361">AutomatedTrainingConductor</text><line style="stroke:#000000;stroke-width:1;" x1="13" x2="246.4912" y1="436.6894" y2="436.6894"/><text fill="#000000" font-family="Verdana" font-size="14" lengthAdjust="spacing" textLength="128.7959" x="18" y="453.6845">int SelectionCount</text><text fill="#000000" font-family="Verdana" font-size="14" lengthAdjust="spacing" textLength="101.7188" x="18" y="469.9814">float RestTime</text><line style="stroke:#000000;stroke-width:1;" x1="13" x2="246.4912" y1="477.2831" y2="477.2831"/></g><!--link ITargetIndicator to ITargetable--><g class="link" data-entity-1="ent0004" data-entity-2="ent0005" data-link-type="dependency" data-source-line="20" id="lnk6"><path codeLine="20" d="M520.75,464.9894 C542.37,464.9894 541.12,456.9894 562.75,456.9894" fill="none" id="ITargetIndicator-to-ITargetable" style="stroke:#000000;stroke-width:1;stroke-dasharray:7,7;"/><polygon fill="#000000" points="568.75,456.9894,559.75,452.9894,563.75,456.9894,559.75,460.9894,568.75,456.9894" style="stroke:#000000;stroke-width:1;"/></g><!--reverse link CoroutineWrapper to SingleRoundTrainingConductor--><g class="link" data-entity-1="ent0002" data-entity-2="ent0007" data-link-type="extension" data-source-line="24" id="lnk8"><path d="M171.6499,112.419 C181.3099,127.109 193.59,145.7694 215.08,178.4194" fill="none" id="CoroutineWrapper-backto-SingleRoundTrainingConductor" style="stroke:#000000;stroke-width:1;"/><polygon fill="none" points="161.76,97.3794,166.6367,115.7156,176.6631,109.1224,161.76,97.3794" style="stroke:#000000;stroke-width:1;"/></g><!--reverse link IBCIMarkerSource to SingleRoundTrainingConductor--><g class="link" data-entity-1="ent0003" data-entity-2="ent0007" data-link-type="extension" data-source-line="24" id="lnk9"><path d="M347.4397,134.3087 C336.5297,150.8987 332.22,157.4394 318.32,178.5694" fill="none" id="IBCIMarkerSource-backto-SingleRoundTrainingConductor" style="stroke:#000000;stroke-width:1;stroke-dasharray:7,7;"/><polygon fill="none" points="357.33,119.2694,342.4266,131.012,352.4529,137.6055,357.33,119.2694" style="stroke:#000000;stroke-width:1;"/></g><!--link SingleRoundTrainingConductor to ITargetIndicator--><g class="link" data-entity-1="ent0007" data-entity-2="ent0004" data-link-type="dependency" data-source-line="32" id="lnk10"><path codeLine="32" d="M324.67,337.4594 C339.57,357.6494 351.6187,373.9806 365.0487,392.1906" fill="none" id="SingleRoundTrainingConductor-to-ITargetIndicator" style="stroke:#000000;stroke-width:1;"/><polygon fill="#000000" points="368.61,397.0194,366.4873,387.402,365.6423,392.9954,360.0489,392.1504,368.61,397.0194" style="stroke:#000000;stroke-width:1;"/></g><!--link SingleRoundTrainingConductor to TrialConductor--><g class="link" data-entity-1="ent0007" data-entity-2="ent0011" data-link-type="dependency" data-source-line="33" id="lnk12"><path codeLine="33" d="M390.01,257.9494 C401.3,257.9494 406.6,257.9494 417.9,257.9494" fill="none" id="SingleRoundTrainingConductor-to-TrialConductor" style="stroke:#000000;stroke-width:1;"/><polygon fill="#000000" points="423.9,257.9494,414.9,253.9494,418.9,257.9494,414.9,261.9494,423.9,257.9494" style="stroke:#000000;stroke-width:1;"/></g><!--reverse link SingleRoundTrainingConductor to AutomatedTrainingConductor--><g class="link" data-entity-1="ent0007" data-entity-2="ent0013" data-link-type="extension" data-source-line="36" id="lnk14"><path d="M198.6042,351.981 C180.5942,376.571 172.17,388.0694 157.23,408.4594" fill="none" id="SingleRoundTrainingConductor-backto-AutomatedTrainingConductor" style="stroke:#000000;stroke-width:1;"/><polygon fill="none" points="209.24,337.4594,193.7636,348.4358,203.4447,355.5263,209.24,337.4594" style="stroke:#000000;stroke-width:1;"/></g><!--link AutomatedTrainingConductor to ITargetIndicator--><?plantuml-src XLF1Ri8m3BtdAxBREC07S40QY0FIfY6An67Q8JG6hAL9vReJ4kBVPrfQMbfOJycB_Mo_vxxm0HBGgJFe5ICxq6kIC_gzdWLlyvW3PKgf62cMnrcWa3Dws919Ko2bq3FGpiIW5zFPuiFG3r0KSXBWfBHyxz5xYMu89LGtB-hS8bWRsWCllCNOIDqhmSbiCoOJyrbBhFvC6OEVXTpp_VDlGAkdi4VVOfBmLyaSz8RFlUq43wIlJbjcwwgHYiI83N5FQXtmYFb-pF6ujsKzcZHBZyUz1I_ME9DbEXBB7An45bivM1keuSZWRTQnJsEIEba0pzaZ-owIrqNXM60x5qm3lRQo1C9WYu1j24xBFSEis_6DOKcm9ZHkZGaquI1PBRpWYy11pDLm9MtnkfZxF04gLcQL-qA3ql2pUYhBS3ZfBDq_6HDTT5OZbVnlEOV4C3mH_odnJUnopDQAbxAiG6IvA28_pPDoewy3MWl-cqQTuVu0?></g></svg>