<svg xmlns="http://www.w3.org/2000/svg" xmlns:xlink="http://www.w3.org/1999/xlink" contentStyleType="text/css" data-diagram-type="CLASS" height="649px" preserveAspectRatio="none" style="width:844px;height:649px;background:#FFFFFF;" version="1.1" viewBox="0 0 844 649" width="844px" zoomAndPan="magnify"><?plantuml 1.2026.4beta2?><defs/><g><g class="title" data-source-line="2"><text fill="#000000" font-family="Verdana" font-size="22" font-weight="700" lengthAdjust="spacing" textLength="204.3916" x="318.8859" y="35.4209">Trial Conductors</text></g><!--entity CoroutineWrapper--><g class="entity" data-qualified-name="CoroutineWrapper" data-source-line="5" id="ent0002"><ellipse cx="318.53" cy="88.7594" fill="#FFFFFF" rx="8" ry="8" style="stroke:#000000;stroke-width:1;"/><text fill="#000000" font-family="Verdana" font-size="14" lengthAdjust="spacing" textLength="128.7207" x="254.1696" y="118.7545">CoroutineWrapper</text></g><!--class IBCIMarkerSource--><g class="entity" data-qualified-name="IBCIMarkerSource" data-source-line="7" id="ent0003"><rect fill="#FFFFFF" height="60.2969" rx="2.5" ry="2.5" style="stroke:#000000;stroke-width:1;" width="225.4111" x="425.83" y="58.6094"/><ellipse cx="472.3256" cy="72.6094" fill="#FFFFFF" rx="9" ry="9" style="stroke:#000000;stroke-width:1;"/><path d="M468.2475,68.375 L468.2475,66.2188 L475.6381,66.2188 L475.6381,68.375 L473.1694,68.375 L473.1694,76.4531 L475.6381,76.4531 L475.6381,78.6094 L468.2475,78.6094 L468.2475,76.4531 L470.7162,76.4531 L470.7162,68.375 L468.2475,68.375 Z " fill="#000000"/><text fill="#000000" font-family="Verdana" font-size="14" font-style="italic" lengthAdjust="spacing" textLength="124.9199" x="489.8256" y="77.4561">IBCIMarkerSource</text><line style="stroke:#000000;stroke-width:1;" x1="426.83" x2="650.2411" y1="86.6094" y2="86.6094"/><text fill="#000000" font-family="Verdana" font-size="14" lengthAdjust="spacing" textLength="213.4111" x="431.83" y="103.6045">LSLMarkerWriter MarkerWriter</text><line style="stroke:#000000;stroke-width:1;" x1="426.83" x2="650.2411" y1="110.9063" y2="110.9063"/></g><!--class TrialConductor--><g class="entity" data-qualified-name="TrialConductor" data-source-line="12" id="ent0004"><rect fill="#FFFFFF" height="109.1875" rx="2.5" ry="2.5" style="stroke:#000000;stroke-width:1;" width="197.418" x="329.82" y="178.9094"/><ellipse cx="373.2053" cy="192.9094" fill="#FFFFFF" rx="9" ry="9" style="stroke:#000000;stroke-width:1;"/><path d="M373.3146,188.2531 L372.1584,193.3313 L374.4865,193.3313 L373.3146,188.2531 Z M371.8303,186.0188 L374.8146,186.0188 L378.174,198.4094 L375.7209,198.4094 L374.9553,195.3469 L371.674,195.3469 L370.924,198.4094 L368.4865,198.4094 L371.8303,186.0188 Z " fill="#000000"/><text fill="#000000" font-family="Verdana" font-size="14" font-style="italic" lengthAdjust="spacing" textLength="103.1475" x="390.7053" y="197.7561">TrialConductor</text><line style="stroke:#000000;stroke-width:1;" x1="330.82" x2="526.238" y1="206.9094" y2="206.9094"/><text fill="#000000" font-family="Verdana" font-size="14" lengthAdjust="spacing" textLength="163.9326" x="335.82" y="223.9045">bool HasTrainingTarget</text><line style="stroke:#000000;stroke-width:1;" x1="330.82" x2="526.238" y1="231.2063" y2="231.2063"/><text fill="#000000" font-family="Verdana" font-size="14" lengthAdjust="spacing" textLength="161.4648" x="335.82" y="248.2014">void StartTestingTrial()</text><text fill="#000000" font-family="Verdana" font-size="14" lengthAdjust="spacing" textLength="185.418" x="335.82" y="264.4982">void StartTrainingTrial(int)</text><text fill="#000000" font-family="Verdana" font-size="14" lengthAdjust="spacing" textLength="184.7891" x="335.82" y="280.7951">void ClearTrainingTarget()</text></g><!--class PersistentTrialConductor--><g class="entity" data-qualified-name="PersistentTrialConductor" data-source-line="19" id="ent0007"><rect fill="#FFFFFF" height="125.4844" rx="2.5" ry="2.5" style="stroke:#000000;stroke-width:1;" width="233.7852" x="65.64" y="368.3894"/><ellipse cx="93.4377" cy="382.3894" fill="#FFFFFF" rx="9" ry="9" style="stroke:#000000;stroke-width:1;"/><path d="M93.5471,377.7331 L92.3908,382.8113 L94.719,382.8113 L93.5471,377.7331 Z M92.0627,375.4988 L95.0471,375.4988 L98.4065,387.8894 L95.9533,387.8894 L95.1877,384.8269 L91.9065,384.8269 L91.1565,387.8894 L88.719,387.8894 L92.0627,375.4988 Z " fill="#000000"/><text fill="#000000" font-family="Verdana" font-size="14" font-style="italic" lengthAdjust="spacing" textLength="172.9014" x="108.7261" y="387.2361">PersistentTrialConductor</text><line style="stroke:#000000;stroke-width:1;" x1="66.64" x2="298.4252" y1="396.3894" y2="396.3894"/><text fill="#000000" font-family="Verdana" font-size="14" lengthAdjust="spacing" textLength="164.4453" x="71.64" y="413.3845">int TrainingEpochCount</text><text fill="#000000" font-family="Verdana" font-size="14" lengthAdjust="spacing" textLength="127.3057" x="71.64" y="429.6814">float EpochLength</text><text fill="#000000" font-family="Verdana" font-size="14" lengthAdjust="spacing" textLength="165.2451" x="71.64" y="445.9782">float InterEpochInterval</text><line style="stroke:#000000;stroke-width:1;" x1="66.64" x2="298.4252" y1="453.28" y2="453.28"/><text fill="#000000" font-family="Verdana" font-size="14" font-style="italic" lengthAdjust="spacing" textLength="204.7021" x="71.64" y="470.2751">void SendTrainingMarker(int)</text><text fill="#000000" font-family="Verdana" font-size="14" font-style="italic" lengthAdjust="spacing" textLength="221.7852" x="71.64" y="486.572">void SendClassificationMarker()</text></g><!--class SSVEPTrialConductor--><g class="entity" data-qualified-name="SSVEPTrialConductor" data-source-line="27" id="ent0009"><rect fill="#FFFFFF" height="60.2969" rx="2.5" ry="2.5" style="stroke:#000000;stroke-width:1;" width="341.0615" x="12" y="574.1694"/><ellipse cx="104.8877" cy="588.1694" fill="#FFFFFF" rx="9" ry="9" style="stroke:#000000;stroke-width:1;"/><path d="M107.8564,593.81 Q107.2783,594.1069 106.6377,594.2475 Q105.9971,594.4038 105.2939,594.4038 Q102.7939,594.4038 101.4658,592.7631 Q100.1533,591.1069 100.1533,587.9819 Q100.1533,584.8569 101.4658,583.2006 Q102.7939,581.5444 105.2939,581.5444 Q105.9971,581.5444 106.6377,581.7006 Q107.2939,581.8569 107.8564,582.1538 L107.8564,584.8725 Q107.2314,584.2944 106.6377,584.0288 Q106.0439,583.7475 105.4189,583.7475 Q104.0752,583.7475 103.3877,584.8256 Q102.7002,585.8881 102.7002,587.9819 Q102.7002,590.0756 103.3877,591.1538 Q104.0752,592.2163 105.4189,592.2163 Q106.0439,592.2163 106.6377,591.9506 Q107.2314,591.6694 107.8564,591.0913 L107.8564,593.81 Z " fill="#000000"/><text fill="#000000" font-family="Verdana" font-size="14" lengthAdjust="spacing" textLength="147.7861" x="122.3877" y="593.0161">SSVEPTrialConductor</text><line style="stroke:#000000;stroke-width:1;" x1="13" x2="352.0615" y1="602.1694" y2="602.1694"/><text fill="#000000" font-family="Verdana" font-size="14" lengthAdjust="spacing" textLength="329.0615" x="18" y="619.1645">List&lt;FrequencyStimulusPresenter&gt; Presenters</text><line style="stroke:#000000;stroke-width:1;" x1="13" x2="352.0615" y1="626.4663" y2="626.4663"/></g><!--entity custom--><g class="entity" data-qualified-name="custom" data-source-line="32" id="ent0011"><ellipse cx="428.53" cy="431.1294" fill="#FFFFFF" rx="8" ry="8" style="stroke:#000000;stroke-width:1;"/><text fill="#000000" font-family="Verdana" font-size="14" lengthAdjust="spacing" textLength="172.9766" x="342.0417" y="461.1245">Custom Trial Conductors</text></g><!--class P300TrialConductor--><g class="entity" data-qualified-name="P300TrialConductor" data-source-line="36" id="ent0013"><rect fill="#FFFFFF" height="166.0781" rx="2.5" ry="2.5" style="stroke:#000000;stroke-width:1;" width="271.2734" x="557.89" y="348.0894"/><ellipse cx="620.621" cy="362.0894" fill="#FFFFFF" rx="9" ry="9" style="stroke:#000000;stroke-width:1;"/><path d="M623.5897,367.73 Q623.0116,368.0269 622.371,368.1675 Q621.7303,368.3238 621.0272,368.3238 Q618.5272,368.3238 617.1991,366.6831 Q615.8866,365.0269 615.8866,361.9019 Q615.8866,358.7769 617.1991,357.1206 Q618.5272,355.4644 621.0272,355.4644 Q621.7303,355.4644 622.371,355.6206 Q623.0272,355.7769 623.5897,356.0738 L623.5897,358.7925 Q622.9647,358.2144 622.371,357.9488 Q621.7772,357.6675 621.1522,357.6675 Q619.8085,357.6675 619.121,358.7456 Q618.4335,359.8081 618.4335,361.9019 Q618.4335,363.9956 619.121,365.0738 Q619.8085,366.1363 621.1522,366.1363 Q621.7772,366.1363 622.371,365.8706 Q622.9647,365.5894 623.5897,365.0113 L623.5897,367.73 Z " fill="#000000"/><text fill="#000000" font-family="Verdana" font-size="14" lengthAdjust="spacing" textLength="138.3115" x="638.121" y="366.9361">P300TrialConductor</text><line style="stroke:#000000;stroke-width:1;" x1="558.89" x2="828.1634" y1="376.0894" y2="376.0894"/><text fill="#000000" font-family="Verdana" font-size="14" lengthAdjust="spacing" textLength="165.7168" x="563.89" y="393.0845">FlashingPattern pattern</text><text fill="#000000" font-family="Verdana" font-size="14" lengthAdjust="spacing" textLength="144.833" x="563.89" y="409.3814">int FlashesPerOption</text><text fill="#000000" font-family="Verdana" font-size="14" lengthAdjust="spacing" textLength="90.4873" x="563.89" y="425.6782">float OnTime</text><text fill="#000000" font-family="Verdana" font-size="14" lengthAdjust="spacing" textLength="91.4717" x="563.89" y="441.9751">float OffTime</text><line style="stroke:#000000;stroke-width:1;stroke-dasharray:1,2;" x1="558.89" x2="828.1634" y1="449.2769" y2="449.2769"/><text fill="#000000" font-family="Verdana" font-size="14" lengthAdjust="spacing" textLength="59.7393" x="563.89" y="466.272">int Rows</text><text fill="#000000" font-family="Verdana" font-size="14" lengthAdjust="spacing" textLength="83.6104" x="563.89" y="482.5689">int Columns</text><line style="stroke:#000000;stroke-width:1;stroke-dasharray:1,2;" x1="558.89" x2="828.1634" y1="489.8706" y2="489.8706"/><text fill="#000000" font-family="Verdana" font-size="14" lengthAdjust="spacing" textLength="259.2734" x="563.89" y="506.8657">DynamicStimulusPresenterCollection</text></g><g class="entity" data-qualified-name="GMN15" data-source-line="48" id="ent0016"><path d="M583.43,198.2394 L583.43,268.7706 A0,0 0 0 0 583.43,268.7706 L689.53,268.7706 L693.53,348.0094 L697.53,268.7706 L803.6321,268.7706 A0,0 0 0 0 803.6321,268.7706 L803.6321,208.2394 L793.6321,198.2394 L583.43,198.2394 A0,0 0 0 0 583.43,198.2394" fill="#FFFFFF" style="stroke:#000000;stroke-width:1;"/><path d="M793.6321,198.2394 L793.6321,208.2394 L803.6321,208.2394 L793.6321,198.2394" fill="#FFFFFF" style="stroke:#000000;stroke-width:1;"/><text fill="#000000" font-family="Verdana" font-size="13" lengthAdjust="spacing" textLength="199.2021" x="589.43" y="215.3063">Uses static P300 trial routines:</text><text fill="#000000" font-family="Verdana" font-size="13" lengthAdjust="spacing" textLength="162.627" x="589.43" y="230.4391">Random, Context Aware,</text><text fill="#000000" font-family="Verdana" font-size="13" lengthAdjust="spacing" textLength="185.5928" x="589.43" y="245.5719">Row-Column, Checkerboard,</text><text fill="#000000" font-family="Verdana" font-size="13" lengthAdjust="spacing" textLength="175.481" x="589.43" y="260.7047">and Context Aware Groups</text></g><!--reverse link CoroutineWrapper to TrialConductor--><g class="link" data-entity-1="ent0002" data-entity-2="ent0004" data-link-type="extension" data-source-line="13" id="lnk5"><path d="M335.4293,111.6855 C347.1693,126.9155 363.32,147.8894 386.95,178.5394" fill="none" id="CoroutineWrapper-backto-TrialConductor" style="stroke:#000000;stroke-width:1;"/><polygon fill="none" points="324.44,97.4294,330.6772,115.3486,340.1813,108.0224,324.44,97.4294" style="stroke:#000000;stroke-width:1;"/></g><!--reverse link IBCIMarkerSource to TrialConductor--><g class="link" data-entity-1="ent0003" data-entity-2="ent0004" data-link-type="extension" data-source-line="13" id="lnk6"><path d="M504.7511,133.5957 C491.6011,150.6557 485.64,158.3894 470.19,178.4394" fill="none" id="IBCIMarkerSource-backto-TrialConductor" style="stroke:#000000;stroke-width:1;stroke-dasharray:7,7;"/><polygon fill="none" points="515.74,119.3394,499.999,129.9328,509.5032,137.2587,515.74,119.3394" style="stroke:#000000;stroke-width:1;"/></g><!--reverse link TrialConductor to PersistentTrialConductor--><g class="link" data-entity-1="ent0004" data-entity-2="ent0007" data-link-type="extension" data-source-line="20" id="lnk8"><path d="M346.5712,299.6823 C315.5712,324.3323 292.76,342.4694 260.61,368.0394" fill="none" id="TrialConductor-backto-PersistentTrialConductor" style="stroke:#000000;stroke-width:1;"/><polygon fill="none" points="360.66,288.4794,342.8369,294.986,350.3055,304.3785,360.66,288.4794" style="stroke:#000000;stroke-width:1;"/></g><!--reverse link PersistentTrialConductor to SSVEPTrialConductor--><g class="link" data-entity-1="ent0007" data-entity-2="ent0009" data-link-type="extension" data-source-line="28" id="lnk10"><path d="M182.53,511.9394 C182.53,539.1394 182.53,551.8194 182.53,573.7494" fill="none" id="PersistentTrialConductor-backto-SSVEPTrialConductor" style="stroke:#000000;stroke-width:1;"/><polygon fill="none" points="182.53,493.9394,176.53,511.9394,188.53,511.9394,182.53,493.9394" style="stroke:#000000;stroke-width:1;"/></g><!--reverse link TrialConductor to custom--><g class="link" data-entity-1="ent0004" data-entity-2="ent0011" data-link-type="extension" data-source-line="33" id="lnk12"><path codeLine="33" d="M428.53,306.4794 C428.53,353.7494 428.53,400.2494 428.53,422.3394" fill="none" id="TrialConductor-backto-custom" style="stroke:#000000;stroke-width:1;"/><polygon fill="none" points="428.53,288.4794,422.53,306.4794,434.53,306.4794,428.53,288.4794" style="stroke:#000000;stroke-width:1;"/></g><!--reverse link TrialConductor to P300TrialConductor--><g class="link" data-entity-1="ent0004" data-entity-2="ent0013" data-link-type="extension" data-source-line="37" id="lnk14"><path d="M516.1222,299.1689 C540.9422,317.4889 554.79,327.7094 581.91,347.7294" fill="none" id="TrialConductor-backto-P300TrialConductor" style="stroke:#000000;stroke-width:1;"/><polygon fill="none" points="501.64,288.4794,512.559,303.9963,519.6854,294.3415,501.64,288.4794" style="stroke:#000000;stroke-width:1;"/></g><?plantuml-src bLF1Rjim3BthAxYUDg0f2kms50Cshzq2P6XGP-kPKPX4c2nv8jskwFBle-NOSvFbC5ziyP5yxv7oAzbIHL1xTC684q-mI0uz536i6YiniJ76kcGLAMAAZRX0zmdhcf8nBWYbDLg2wSTY-XNJ3qfbR986dWteCojdNVG-EKs5yS7ij3KkMH9QwMW7Lg1VGc75HvpWgjghv21yYdCPeuSlo8kafbpOB31jI3Bq4DqAIi4a2s9fiPRrzPj3iA_Cg9eS9HIUCBrihVMxaPCv9NQiykM4fuDmfrfPe6zxNKUxBM8JEjLh7r4W1sSKDh8THQVj1ZAKlnxGP_2vLxFRsrBYlditih-s_fLRU6HsQsTHN0pxYcpJjWYKvVVh-Gbx9_tlhuHYLpU9VZOKx5Cfhcfym_D4JAs3zp1yShuX-yjtLZGiiJgwdcU033PZve3lwlTaqaEzyFdRoyl_MSkDLcrrQ7CKLHIWxjx3oZ9Eh9vlwtPKezNSXeMhQ1nOhuV8nSNGuYu-yd0eec-gmEESJqy1AsUF9gMfdcmctPaGXK1YRRunCR3etcms2v87jl-B-9svmx2ArNaxGb7hyE4H4vqRLJ7fo1NQajM5BoEcrRdH_9V9y5cxrMnqQj3o_W40?></g></svg>