<?plantuml 1.2026.2beta3?><svg xmlns="http://www.w3.org/2000/svg" xmlns:xlink="http://www.w3.org/1999/xlink" contentStyleType="text/css" data-diagram-type="CLASS" height="956px" preserveAspectRatio="none" style="width:796px;height:956px;background:#FFFFFF;" version="1.1" viewBox="0 0 796 956" width="796px" zoomAndPan="magnify"><title>Pre-Built Stimulus Presenters</title><defs/><g><g class="title" data-source-line="2"><text fill="#000000" font-family="Verdana" font-size="22" font-weight="bold" lengthAdjust="spacing" textLength="368.1133" x="209.4434" y="35.4209">Pre-Built Stimulus Presenters</text></g><!--cluster Stimulus--><g class="cluster" data-qualified-name="Stimulus" data-source-line="7" id="ent0002"><path d="M13.5,57.6094 L83.7275,57.6094 A3.75,3.75 0 0 1 86.2275,60.1094 L93.2275,79.9063 L786.5,79.9063 A2.5,2.5 0 0 1 789,82.4063 L789,946.9994 A2.5,2.5 0 0 1 786.5,949.4994 L13.5,949.4994 A2.5,2.5 0 0 1 11,946.9994 L11,60.1094 A2.5,2.5 0 0 1 13.5,57.6094" fill="#FFFFFF" style="stroke:#000000;stroke-width:1;"/><line style="stroke:#000000;stroke-width:1;" x1="11" x2="93.2275" y1="79.9063" y2="79.9063"/><text fill="#000000" font-family="Verdana" font-size="14" font-weight="bold" lengthAdjust="spacing" textLength="69.2275" x="15" y="72.6045">Stimulus</text></g><!--cluster Presentation--><g class="cluster" data-qualified-name="Stimulus.Presentation" data-source-line="8" id="ent0003"><path d="M37.5,100.6094 L140.1709,100.6094 A3.75,3.75 0 0 1 142.6709,103.1094 L149.6709,122.9063 L762.5,122.9063 A2.5,2.5 0 0 1 765,125.4063 L765,922.9994 A2.5,2.5 0 0 1 762.5,925.4994 L37.5,925.4994 A2.5,2.5 0 0 1 35,922.9994 L35,103.1094 A2.5,2.5 0 0 1 37.5,100.6094" fill="#FFFFFF" style="stroke:#000000;stroke-width:1;"/><line style="stroke:#000000;stroke-width:1;" x1="35" x2="149.6709" y1="122.9063" y2="122.9063"/><text fill="#000000" font-family="Verdana" font-size="14" font-weight="bold" lengthAdjust="spacing" textLength="101.6709" x="39" y="115.6045">Presentation</text></g><!--cluster Standard--><g class="cluster" data-qualified-name="Stimulus.Presentation.Standard" data-source-line="18" id="ent0006"><path d="M61.5,309.6094 L135.084,309.6094 A3.75,3.75 0 0 1 137.584,312.1094 L144.584,331.9063 L738.5,331.9063 A2.5,2.5 0 0 1 741,334.4063 L741,898.9994 A2.5,2.5 0 0 1 738.5,901.4994 L61.5,901.4994 A2.5,2.5 0 0 1 59,898.9994 L59,312.1094 A2.5,2.5 0 0 1 61.5,309.6094" fill="#FFFFFF" style="stroke:#000000;stroke-width:1;"/><line style="stroke:#000000;stroke-width:1;" x1="59" x2="144.584" y1="331.9063" y2="331.9063"/><text fill="#000000" font-family="Verdana" font-size="14" font-weight="bold" lengthAdjust="spacing" textLength="72.584" x="63" y="324.6045">Standard</text></g><!--class StimulusPresentationBehaviour--><g class="entity" data-qualified-name="Stimulus.Presentation.StimulusPresentationBehaviour" data-source-line="9" id="ent0004"><rect fill="#FFFFFF" height="141.7813" rx="2.5" ry="2.5" style="stroke:#000000;stroke-width:1;" width="248.3496" x="435" y="139.6094"/><ellipse cx="448" cy="153.6094" fill="#FFFFFF" rx="9" ry="9" style="stroke:#000000;stroke-width:1;"/><path d="M448.1094,148.9531 L446.9531,154.0313 L449.2813,154.0313 L448.1094,148.9531 Z M446.625,146.7188 L449.6094,146.7188 L452.9688,159.1094 L450.5156,159.1094 L449.75,156.0469 L446.4688,156.0469 L445.7188,159.1094 L443.2813,159.1094 L446.625,146.7188 Z " fill="#000000"/><text fill="#000000" font-family="Verdana" font-size="14" font-style="italic" lengthAdjust="spacing" textLength="220.3496" x="460" y="158.4561">StimulusPresentationBehaviour</text><line style="stroke:#000000;stroke-width:1;" x1="436" x2="682.3496" y1="167.6094" y2="167.6094"/><text fill="#000000" font-family="Verdana" font-size="14" lengthAdjust="spacing" textLength="118.9385" x="441" y="184.6045">bool IsSelectable</text><line style="stroke:#000000;stroke-width:1;" x1="436" x2="682.3496" y1="191.9063" y2="191.9063"/><text fill="#000000" font-family="Verdana" font-size="14" font-style="italic" lengthAdjust="spacing" textLength="191.6387" x="441" y="208.9014">void StartStimulusDisplay()</text><text fill="#000000" font-family="Verdana" font-size="14" font-style="italic" lengthAdjust="spacing" textLength="184.0439" x="441" y="225.1982">void EndStimulusDisplay()</text><text fill="#000000" font-family="Verdana" font-size="14" font-style="italic" lengthAdjust="spacing" textLength="88.1904" x="441" y="241.4951">void Select()</text><text fill="#000000" font-family="Verdana" font-size="14" font-style="italic" lengthAdjust="spacing" textLength="193.9492" x="441" y="257.792">void StartTargetIndication()</text><text fill="#000000" font-family="Verdana" font-size="14" font-style="italic" lengthAdjust="spacing" textLength="186.3545" x="441" y="274.0889">void EndTargetIndication()</text></g><!--class ColourFlashBehaviour--><g class="entity" data-qualified-name="Stimulus.Presentation.Standard.ColourFlashBehaviour" data-source-line="18" id="ent0005"><rect fill="#FFFFFF" height="276.1563" rx="2.5" ry="2.5" style="stroke:#000000;stroke-width:1;" width="243.4922" x="437.5" y="348.6094"/><ellipse cx="478.9199" cy="362.6094" fill="#FFFFFF" rx="9" ry="9" style="stroke:#000000;stroke-width:1;"/><path d="M481.8887,368.25 Q481.3105,368.5469 480.6699,368.6875 Q480.0293,368.8438 479.3262,368.8438 Q476.8262,368.8438 475.498,367.2031 Q474.1855,365.5469 474.1855,362.4219 Q474.1855,359.2969 475.498,357.6406 Q476.8262,355.9844 479.3262,355.9844 Q480.0293,355.9844 480.6699,356.1406 Q481.3262,356.2969 481.8887,356.5938 L481.8887,359.3125 Q481.2637,358.7344 480.6699,358.4688 Q480.0762,358.1875 479.4512,358.1875 Q478.1074,358.1875 477.4199,359.2656 Q476.7324,360.3281 476.7324,362.4219 Q476.7324,364.5156 477.4199,365.5938 Q478.1074,366.6563 479.4512,366.6563 Q480.0762,366.6563 480.6699,366.3906 Q481.2637,366.1094 481.8887,365.5313 L481.8887,368.25 Z " fill="#000000"/><text fill="#000000" font-family="Verdana" font-size="14" lengthAdjust="spacing" textLength="153.1523" x="496.4199" y="367.4561">ColourFlashBehaviour</text><line style="stroke:#000000;stroke-width:1;" x1="438.5" x2="679.9922" y1="376.6094" y2="376.6094"/><text fill="#000000" font-family="Verdana" font-size="14" lengthAdjust="spacing" textLength="104.1182" x="443.5" y="393.6045">bool IsFlashing</text><text fill="#000000" font-family="Verdana" font-size="14" lengthAdjust="spacing" textLength="106.3193" x="443.5" y="409.9014">Color OnColour</text><text fill="#000000" font-family="Verdana" font-size="14" lengthAdjust="spacing" textLength="107.3037" x="443.5" y="426.1982">Color OffColour</text><text fill="#000000" font-family="Verdana" font-size="14" lengthAdjust="spacing" textLength="231.4922" x="443.5" y="442.4951">float TargetIndicationFlashPeriod</text><text fill="#000000" font-family="Verdana" font-size="14" lengthAdjust="spacing" textLength="228.915" x="443.5" y="458.792">float TargetIndicationFlashCount</text><text fill="#000000" font-family="Verdana" font-size="14" lengthAdjust="spacing" textLength="145.3594" x="443.5" y="475.0889">SelectionFlashPeriod</text><text fill="#000000" font-family="Verdana" font-size="14" lengthAdjust="spacing" textLength="142.7822" x="443.5" y="491.3857">SelectionFlashCount</text><g data-visibility-modifier="PRIVATE_FIELD"><rect fill="none" height="6" style="stroke:#000000;stroke-width:1;" width="6" x="445.5" y="521.6328"/></g><text fill="#000000" font-family="Verdana" font-size="14" lengthAdjust="spacing" textLength="137.1563" x="455.5" y="527.9795">Renderer _renderer</text><line style="stroke:#000000;stroke-width:1;stroke-dasharray:1,2;" x1="438.5" x2="504.8901" y1="506.8359" y2="506.8359"/><text fill="#000000" font-family="Verdana" font-size="14" lengthAdjust="spacing" textLength="108.7119" x="504.8901" y="511.1826">serialized fields</text><line style="stroke:#000000;stroke-width:1;stroke-dasharray:1,2;" x1="613.6021" x2="679.9922" y1="506.8359" y2="506.8359"/><line style="stroke:#000000;stroke-width:1;" x1="438.5" x2="679.9922" y1="535.2813" y2="535.2813"/><text fill="#000000" font-family="Verdana" font-size="14" lengthAdjust="spacing" textLength="212.5908" x="443.5" y="552.2764">void StartSelectionIndication()</text><text fill="#000000" font-family="Verdana" font-size="14" lengthAdjust="spacing" textLength="210.2188" x="443.5" y="568.5732">void StopSelectionIndication()</text><text fill="#000000" font-family="Verdana" font-size="14" lengthAdjust="spacing" textLength="193.9492" x="443.5" y="584.8701">void StartTargetIndication()</text><text fill="#000000" font-family="Verdana" font-size="14" lengthAdjust="spacing" textLength="186.3545" x="443.5" y="601.167">void EndTargetIndication()</text><text fill="#000000" font-family="Verdana" font-size="14" lengthAdjust="spacing" textLength="149.9668" x="443.5" y="617.4639">void SetColour(Color)</text></g><!--class ColourToggleStimulusPresenter--><g class="entity" data-qualified-name="Stimulus.Presentation.Standard.ColourToggleStimulusPresenter" data-source-line="41" id="ent0010"><rect fill="#FFFFFF" height="60.2969" rx="2.5" ry="2.5" style="stroke:#000000;stroke-width:1;" width="249.1016" x="137.5" y="456.6094"/><ellipse cx="150.5" cy="470.6094" fill="#FFFFFF" rx="9" ry="9" style="stroke:#000000;stroke-width:1;"/><path d="M153.4688,476.25 Q152.8906,476.5469 152.25,476.6875 Q151.6094,476.8438 150.9063,476.8438 Q148.4063,476.8438 147.0781,475.2031 Q145.7656,473.5469 145.7656,470.4219 Q145.7656,467.2969 147.0781,465.6406 Q148.4063,463.9844 150.9063,463.9844 Q151.6094,463.9844 152.25,464.1406 Q152.9063,464.2969 153.4688,464.5938 L153.4688,467.3125 Q152.8438,466.7344 152.25,466.4688 Q151.6563,466.1875 151.0313,466.1875 Q149.6875,466.1875 149,467.2656 Q148.3125,468.3281 148.3125,470.4219 Q148.3125,472.5156 149,473.5938 Q149.6875,474.6563 151.0313,474.6563 Q151.6563,474.6563 152.25,474.3906 Q152.8438,474.1094 153.4688,473.5313 L153.4688,476.25 Z " fill="#000000"/><text fill="#000000" font-family="Verdana" font-size="14" lengthAdjust="spacing" textLength="221.1016" x="162.5" y="475.4561">ColourToggleStimulusPresenter</text><line style="stroke:#000000;stroke-width:1;" x1="138.5" x2="385.6016" y1="484.6094" y2="484.6094"/><line style="stroke:#000000;stroke-width:1;" x1="138.5" x2="385.6016" y1="492.6094" y2="492.6094"/><text fill="#000000" font-family="Verdana" font-size="14" lengthAdjust="spacing" textLength="232.5654" x="143.5" y="509.6045">void ToggleRendererColour(bool)</text></g><!--class FrequencyStimulusPresenter--><g class="entity" data-qualified-name="Stimulus.Presentation.Standard.FrequencyStimulusPresenter" data-source-line="46" id="ent0013"><rect fill="#FFFFFF" height="44" rx="2.5" ry="2.5" style="stroke:#000000;stroke-width:1;" width="229.9336" x="147.03" y="688.6094"/><ellipse cx="160.03" cy="702.6094" fill="#FFFFFF" rx="9" ry="9" style="stroke:#000000;stroke-width:1;"/><path d="M160.1394,697.9531 L158.9831,703.0313 L161.3113,703.0313 L160.1394,697.9531 Z M158.655,695.7188 L161.6394,695.7188 L164.9988,708.1094 L162.5456,708.1094 L161.78,705.0469 L158.4988,705.0469 L157.7488,708.1094 L155.3113,708.1094 L158.655,695.7188 Z " fill="#000000"/><text fill="#000000" font-family="Verdana" font-size="14" font-style="italic" lengthAdjust="spacing" textLength="201.9336" x="172.03" y="707.4561">FrequencyStimulusPresenter</text><line style="stroke:#000000;stroke-width:1;" x1="148.03" x2="375.9636" y1="716.6094" y2="716.6094"/><line style="stroke:#000000;stroke-width:1;" x1="148.03" x2="375.9636" y1="724.6094" y2="724.6094"/></g><!--class TimeCycleFrequencyStimulusPresenter--><g class="entity" data-qualified-name="Stimulus.Presentation.Standard.TimeCycleFrequencyStimulusPresenter" data-source-line="48" id="ent0015"><rect fill="#FFFFFF" height="76.5938" rx="2.5" ry="2.5" style="stroke:#000000;stroke-width:1;" width="302.8867" x="74.56" y="800.7594"/><ellipse cx="87.56" cy="814.7594" fill="#FFFFFF" rx="9" ry="9" style="stroke:#000000;stroke-width:1;"/><path d="M90.5288,820.4 Q89.9506,820.6969 89.31,820.8375 Q88.6694,820.9938 87.9663,820.9938 Q85.4663,820.9938 84.1381,819.3531 Q82.8256,817.6969 82.8256,814.5719 Q82.8256,811.4469 84.1381,809.7906 Q85.4663,808.1344 87.9663,808.1344 Q88.6694,808.1344 89.31,808.2906 Q89.9663,808.4469 90.5288,808.7438 L90.5288,811.4625 Q89.9038,810.8844 89.31,810.6188 Q88.7163,810.3375 88.0913,810.3375 Q86.7475,810.3375 86.06,811.4156 Q85.3725,812.4781 85.3725,814.5719 Q85.3725,816.6656 86.06,817.7438 Q86.7475,818.8063 88.0913,818.8063 Q88.7163,818.8063 89.31,818.5406 Q89.9038,818.2594 90.5288,817.6813 L90.5288,820.4 Z " fill="#000000"/><text fill="#000000" font-family="Verdana" font-size="14" lengthAdjust="spacing" textLength="274.8867" x="99.56" y="819.6061">TimeCycleFrequencyStimulusPresenter</text><line style="stroke:#000000;stroke-width:1;" x1="75.56" x2="376.4467" y1="828.7594" y2="828.7594"/><text fill="#000000" font-family="Verdana" font-size="14" lengthAdjust="spacing" textLength="109.5527" x="80.56" y="845.7545">float Frequency</text><line style="stroke:#000000;stroke-width:1;" x1="75.56" x2="376.4467" y1="853.0563" y2="853.0563"/><text fill="#000000" font-family="Verdana" font-size="14" lengthAdjust="spacing" textLength="173.0928" x="80.56" y="870.0514">void SetFrequency(float)</text></g><!--class FrameCycleFrequencyStimulusPresenter--><g class="entity" data-qualified-name="Stimulus.Presentation.Standard.FrameCycleFrequencyStimulusPresenter" data-source-line="52" id="ent0017"><rect fill="#FFFFFF" height="92.8906" rx="2.5" ry="2.5" style="stroke:#000000;stroke-width:1;" width="312.833" x="412.58" y="792.6094"/><ellipse cx="425.58" cy="806.6094" fill="#FFFFFF" rx="9" ry="9" style="stroke:#000000;stroke-width:1;"/><path d="M428.5488,812.25 Q427.9706,812.5469 427.33,812.6875 Q426.6894,812.8438 425.9863,812.8438 Q423.4863,812.8438 422.1581,811.2031 Q420.8456,809.5469 420.8456,806.4219 Q420.8456,803.2969 422.1581,801.6406 Q423.4863,799.9844 425.9863,799.9844 Q426.6894,799.9844 427.33,800.1406 Q427.9863,800.2969 428.5488,800.5938 L428.5488,803.3125 Q427.9238,802.7344 427.33,802.4688 Q426.7363,802.1875 426.1113,802.1875 Q424.7675,802.1875 424.08,803.2656 Q423.3925,804.3281 423.3925,806.4219 Q423.3925,808.5156 424.08,809.5938 Q424.7675,810.6563 426.1113,810.6563 Q426.7363,810.6563 427.33,810.3906 Q427.9238,810.1094 428.5488,809.5313 L428.5488,812.25 Z " fill="#000000"/><text fill="#000000" font-family="Verdana" font-size="14" lengthAdjust="spacing" textLength="284.833" x="437.58" y="811.4561">FrameCycleFrequencyStimulusPresenter</text><line style="stroke:#000000;stroke-width:1;" x1="413.58" x2="724.413" y1="820.6094" y2="820.6094"/><text fill="#000000" font-family="Verdana" font-size="14" lengthAdjust="spacing" textLength="94.5273" x="418.58" y="837.6045">int FramesOn</text><text fill="#000000" font-family="Verdana" font-size="14" lengthAdjust="spacing" textLength="95.5117" x="418.58" y="853.9014">int FramesOff</text><line style="stroke:#000000;stroke-width:1;" x1="413.58" x2="724.413" y1="861.2031" y2="861.2031"/><text fill="#000000" font-family="Verdana" font-size="14" lengthAdjust="spacing" textLength="275.2217" x="418.58" y="878.1982">float CalculateNominalFrequency(float)</text></g><!--link StimulusPresentationBehaviour to ColourFlashBehaviour--><g class="link" data-entity-1="ent0004" data-entity-2="ent0005" data-link-type="association" data-source-line="18" id="lnk7"><path codeLine="18" d="M684,236.1094 C753,236.1094 751,546.6094 682,546.6094" fill="none" id="StimulusPresentationBehaviour-ColourFlashBehaviour" style="stroke:#000000;stroke-width:1;"/></g><!--link StimulusPresentationBehaviour to ColourFlashBehaviour--><g class="link" data-entity-1="ent0004" data-entity-2="ent0005" data-link-type="association" data-source-line="19" id="lnk8"><path codeLine="19" d="M684,253.1094 C756.56,253.1094 754.56,579.6094 682,579.6094" fill="none" id="StimulusPresentationBehaviour-ColourFlashBehaviour-1" style="stroke:#000000;stroke-width:1;"/></g><!--link StimulusPresentationBehaviour to ColourFlashBehaviour--><g class="link" data-entity-1="ent0004" data-entity-2="ent0005" data-link-type="association" data-source-line="20" id="lnk9"><path codeLine="20" d="M684,269.1094 C756.56,269.1094 754.56,595.6094 682,595.6094" fill="none" id="StimulusPresentationBehaviour-ColourFlashBehaviour-2" style="stroke:#000000;stroke-width:1;"/></g><!--reverse link StimulusPresentationBehaviour to ColourToggleStimulusPresenter--><g class="link" data-entity-1="ent0004" data-entity-2="ent0010" data-link-type="extension" data-source-line="42" id="lnk11"><path d="M418.6437,295.4309 C411.3437,300.9309 418.65,295.7794 412,301.6094 C359.3,347.7694 310.44,413.7694 283.57,452.8994" fill="none" id="StimulusPresentationBehaviour-backto-ColourToggleStimulusPresenter" style="stroke:#000000;stroke-width:1;"/><polygon fill="none" points="433.02,284.5994,415.0332,290.6387,422.2542,300.223,433.02,284.5994" style="stroke:#000000;stroke-width:1;"/></g><!--link ColourToggleStimulusPresenter to ColourFlashBehaviour--><g class="link" data-entity-1="ent0010" data-entity-2="ent0005" data-link-type="dependency" data-source-line="44" id="lnk12"><path codeLine="44" d="M388,504.6094 C440.12,504.6094 377.88,611.6094 430,611.6094" fill="none" id="ColourToggleStimulusPresenter-to-ColourFlashBehaviour" style="stroke:#000000;stroke-width:1;"/><polygon fill="#000000" points="436,611.6094,427,607.6094,431,611.6094,427,615.6094,436,611.6094" style="stroke:#000000;stroke-width:1;"/></g><!--reverse link ColourToggleStimulusPresenter to FrequencyStimulusPresenter--><g class="link" data-entity-1="ent0010" data-entity-2="ent0013" data-link-type="extension" data-source-line="46" id="lnk14"><path d="M262,538.3694 C262,584.4394 262,649.1094 262,688.1194" fill="none" id="ColourToggleStimulusPresenter-backto-FrequencyStimulusPresenter" style="stroke:#000000;stroke-width:1;"/><polygon fill="none" points="262,520.3694,256,538.3694,268,538.3694,262,520.3694" style="stroke:#000000;stroke-width:1;"/></g><!--reverse link FrequencyStimulusPresenter to TimeCycleFrequencyStimulusPresenter--><g class="link" data-entity-1="ent0013" data-entity-2="ent0015" data-link-type="extension" data-source-line="49" id="lnk16"><path d="M250.9662,750.3728 C245.7362,768.7628 242.99,778.3694 236.73,800.3494" fill="none" id="FrequencyStimulusPresenter-backto-TimeCycleFrequencyStimulusPresenter" style="stroke:#000000;stroke-width:1;"/><polygon fill="none" points="255.89,733.0594,245.195,748.7316,256.7373,752.0141,255.89,733.0594" style="stroke:#000000;stroke-width:1;"/></g><!--reverse link FrequencyStimulusPresenter to FrameCycleFrequencyStimulusPresenter--><g class="link" data-entity-1="ent0013" data-entity-2="ent0017" data-link-type="extension" data-source-line="53" id="lnk18"><path d="M330.7236,739.9144 C369.9836,756.0844 408.62,771.9994 457.68,792.1994" fill="none" id="FrequencyStimulusPresenter-backto-FrameCycleFrequencyStimulusPresenter" style="stroke:#000000;stroke-width:1;"/><polygon fill="none" points="314.08,733.0594,328.4386,745.4622,333.0086,734.3665,314.08,733.0594" style="stroke:#000000;stroke-width:1;"/></g><?plantuml-src jLQnajiW4Etv2j8vXVG1Bguu9vwv9dTpvpw3nSfc1e43w2QEn_yU92m98u6bugWOxNjl7ykkf6_c21NW4oTC8CCC1_Ic87kk6JVumx2gvhN6zf46OK1f189YXqD8a0hqYHGm82y8spK4RanYc1ItOBF8NXj5YY65Ztk68_baibOUeLbxAJb-qH_0eJ1aRotuqKkdUSMVab6hJ9Jfv7ymROzuNdrFKduAkepWh3m2DKPsH1t0l0ZAYlQCZvqa65VKRvFrMw-TGPnbZGj1YQBvHd8RsdAYZpwmhLQBjWf3rjc9fWuvDs_8cvjqeaepKawmXdhwBUrKWYOih9h6Kye1qElO5iV4OHHlP1H-5Kuk5YxBIBpaaXWS7gRDzWQAIRg4iP6rC2D2tn8frNlGj52UQqicdFq3Yai6dEey7w4o_6vVCA10uT_gjXk3ij4ZR-B7FHpCceUNfqNmntFSWzC3VAyBnjtlghtlUvGtwc7txUJXm24O4Liu-6jivJJEkr3kZq--v8tRUtIvkhkvsMswEtGRjc_KvdezfOcp9nnvKNHLkYz8_o7PAlXJWoZEyO8a_KpLUSSgs9mB3ZF44v1BP0nxIhGlUiIgPQIAxHnl5VaYoqmOfwvVHIfObf7JRWWlQauC_98L4uJFF9lRNP4T12FjF1rxTwD_Y0LzZeQInTY9RmYw_WS0?></g></svg>