<?plantuml 1.2026.2beta3?><svg xmlns="http://www.w3.org/2000/svg" xmlns:xlink="http://www.w3.org/1999/xlink" contentStyleType="text/css" data-diagram-type="CLASS" height="666px" preserveAspectRatio="none" style="width:811px;height:666px;background:#FFFFFF;" version="1.1" viewBox="0 0 811 666" width="811px" zoomAndPan="magnify"><title>Stimulus Presentation Classes</title><defs/><g><g class="title" data-source-line="2"><text fill="#000000" font-family="Verdana" font-size="22" font-weight="bold" lengthAdjust="spacing" textLength="376.6104" x="212.6948" y="35.4209">Stimulus Presentation Classes</text></g><!--cluster Selection--><g class="cluster" data-qualified-name="Selection" data-source-line="6" id="ent0003"><path d="M13.5,107.6094 L87.7471,107.6094 A3.75,3.75 0 0 1 90.2471,110.1094 L97.2471,129.9063 L146.5,129.9063 A2.5,2.5 0 0 1 149,132.4063 L149,200.1094 A2.5,2.5 0 0 1 146.5,202.6094 L13.5,202.6094 A2.5,2.5 0 0 1 11,200.1094 L11,110.1094 A2.5,2.5 0 0 1 13.5,107.6094" fill="#FFFFFF" style="stroke:#000000;stroke-width:1;"/><line style="stroke:#000000;stroke-width:1;" x1="11" x2="97.2471" y1="129.9063" y2="129.9063"/><text fill="#000000" font-family="Verdana" font-size="14" font-weight="bold" lengthAdjust="spacing" textLength="73.2471" x="15" y="122.6045">Selection</text></g><!--cluster Behaviours--><g class="cluster" data-qualified-name="Behaviours" data-source-line="7" id="ent0005"><path d="M175.5,57.6094 L264.8271,57.6094 A3.75,3.75 0 0 1 267.3271,60.1094 L274.3271,79.9063 L711.5,79.9063 A2.5,2.5 0 0 1 714,82.4063 L714,231.1094 A2.5,2.5 0 0 1 711.5,233.6094 L175.5,233.6094 A2.5,2.5 0 0 1 173,231.1094 L173,60.1094 A2.5,2.5 0 0 1 175.5,57.6094" fill="#FFFFFF" style="stroke:#000000;stroke-width:1;"/><line style="stroke:#000000;stroke-width:1;" x1="173" x2="274.3271" y1="79.9063" y2="79.9063"/><text fill="#000000" font-family="Verdana" font-size="14" font-weight="bold" lengthAdjust="spacing" textLength="88.3271" x="177" y="72.6045">Behaviours</text></g><!--cluster Training--><g class="cluster" data-qualified-name="Behaviours.Training" data-source-line="7" id="ent0006"><path d="M199.5,100.6094 L265.9541,100.6094 A3.75,3.75 0 0 1 268.4541,103.1094 L275.4541,122.9063 L503.5,122.9063 A2.5,2.5 0 0 1 506,125.4063 L506,207.1094 A2.5,2.5 0 0 1 503.5,209.6094 L199.5,209.6094 A2.5,2.5 0 0 1 197,207.1094 L197,103.1094 A2.5,2.5 0 0 1 199.5,100.6094" fill="#FFFFFF" style="stroke:#000000;stroke-width:1;"/><line style="stroke:#000000;stroke-width:1;" x1="197" x2="275.4541" y1="122.9063" y2="122.9063"/><text fill="#000000" font-family="Verdana" font-size="14" font-weight="bold" lengthAdjust="spacing" textLength="65.4541" x="201" y="115.6045">Training</text></g><!--cluster Trials--><g class="cluster" data-qualified-name="Behaviours.Trials" data-source-line="16" id="ent0012"><path d="M532.5,100.6094 L577.332,100.6094 A3.75,3.75 0 0 1 579.832,103.1094 L586.832,122.9063 L687.5,122.9063 A2.5,2.5 0 0 1 690,125.4063 L690,207.1094 A2.5,2.5 0 0 1 687.5,209.6094 L532.5,209.6094 A2.5,2.5 0 0 1 530,207.1094 L530,103.1094 A2.5,2.5 0 0 1 532.5,100.6094" fill="#FFFFFF" style="stroke:#000000;stroke-width:1;"/><line style="stroke:#000000;stroke-width:1;" x1="530" x2="586.832" y1="122.9063" y2="122.9063"/><text fill="#000000" font-family="Verdana" font-size="14" font-weight="bold" lengthAdjust="spacing" textLength="43.832" x="534" y="115.6045">Trials</text></g><!--cluster Stimulus--><g class="cluster" data-qualified-name="Stimulus" data-source-line="13" id="ent0009"><path d="M171.5,257.6094 L241.7275,257.6094 A3.75,3.75 0 0 1 244.2275,260.1094 L251.2275,279.9063 L801.5,279.9063 A2.5,2.5 0 0 1 804,282.4063 L804,656.8894 A2.5,2.5 0 0 1 801.5,659.3894 L171.5,659.3894 A2.5,2.5 0 0 1 169,656.8894 L169,260.1094 A2.5,2.5 0 0 1 171.5,257.6094" fill="#FFFFFF" style="stroke:#000000;stroke-width:1;"/><line style="stroke:#000000;stroke-width:1;" x1="169" x2="251.2275" y1="279.9063" y2="279.9063"/><text fill="#000000" font-family="Verdana" font-size="14" font-weight="bold" lengthAdjust="spacing" textLength="69.2275" x="173" y="272.6045">Stimulus</text></g><!--cluster Presentation--><g class="cluster" data-qualified-name="Stimulus.Presentation" data-source-line="13" id="ent0010"><path d="M195.5,300.6094 L298.1709,300.6094 A3.75,3.75 0 0 1 300.6709,303.1094 L307.6709,322.9063 L777.5,322.9063 A2.5,2.5 0 0 1 780,325.4063 L780,632.8894 A2.5,2.5 0 0 1 777.5,635.3894 L195.5,635.3894 A2.5,2.5 0 0 1 193,632.8894 L193,303.1094 A2.5,2.5 0 0 1 195.5,300.6094" fill="#FFFFFF" style="stroke:#000000;stroke-width:1;"/><line style="stroke:#000000;stroke-width:1;" x1="193" x2="307.6709" y1="322.9063" y2="322.9063"/><text fill="#000000" font-family="Verdana" font-size="14" font-weight="bold" lengthAdjust="spacing" textLength="101.6709" x="197" y="315.6045">Presentation</text></g><!--cluster Standard--><g class="cluster" data-qualified-name="Stimulus.Presentation.Standard" data-source-line="33" id="ent0017"><path d="M474.5,502.3894 L548.084,502.3894 A3.75,3.75 0 0 1 550.584,504.8894 L557.584,524.6863 L753.5,524.6863 A2.5,2.5 0 0 1 756,527.1863 L756,608.8894 A2.5,2.5 0 0 1 753.5,611.3894 L474.5,611.3894 A2.5,2.5 0 0 1 472,608.8894 L472,504.8894 A2.5,2.5 0 0 1 474.5,502.3894" fill="#FFFFFF" style="stroke:#000000;stroke-width:1;"/><line style="stroke:#000000;stroke-width:1;" x1="472" x2="557.584" y1="524.6863" y2="524.6863"/><text fill="#000000" font-family="Verdana" font-size="14" font-weight="bold" lengthAdjust="spacing" textLength="72.584" x="476" y="517.3845">Standard</text></g><!--class ISelectable--><g class="entity" data-qualified-name="Selection.ISelectable" data-source-line="6" id="ent0002"><rect fill="#FFFFFF" height="44" rx="2.5" ry="2.5" style="stroke:#000000;stroke-width:1;" width="105.2871" x="27.36" y="142.6094"/><ellipse cx="40.36" cy="156.6094" fill="#FFFFFF" rx="9" ry="9" style="stroke:#000000;stroke-width:1;"/><path d="M36.2819,152.375 L36.2819,150.2188 L43.6725,150.2188 L43.6725,152.375 L41.2038,152.375 L41.2038,160.4531 L43.6725,160.4531 L43.6725,162.6094 L36.2819,162.6094 L36.2819,160.4531 L38.7506,160.4531 L38.7506,152.375 L36.2819,152.375 Z " fill="#000000"/><text fill="#000000" font-family="Verdana" font-size="14" font-style="italic" lengthAdjust="spacing" textLength="77.2871" x="52.36" y="161.4561">ISelectable</text><line style="stroke:#000000;stroke-width:1;" x1="28.36" x2="131.6471" y1="170.6094" y2="170.6094"/><line style="stroke:#000000;stroke-width:1;" x1="28.36" x2="131.6471" y1="178.6094" y2="178.6094"/></g><!--class ITargetable--><g class="entity" data-qualified-name="Behaviours.Training.ITargetable" data-source-line="7" id="ent0004"><rect fill="#FFFFFF" height="44" rx="2.5" ry="2.5" style="stroke:#000000;stroke-width:1;" width="107.9736" x="213.01" y="142.6094"/><ellipse cx="226.01" cy="156.6094" fill="#FFFFFF" rx="9" ry="9" style="stroke:#000000;stroke-width:1;"/><path d="M221.9319,152.375 L221.9319,150.2188 L229.3225,150.2188 L229.3225,152.375 L226.8538,152.375 L226.8538,160.4531 L229.3225,160.4531 L229.3225,162.6094 L221.9319,162.6094 L221.9319,160.4531 L224.4006,160.4531 L224.4006,152.375 L221.9319,152.375 Z " fill="#000000"/><text fill="#000000" font-family="Verdana" font-size="14" font-style="italic" lengthAdjust="spacing" textLength="79.9736" x="238.01" y="161.4561">ITargetable</text><line style="stroke:#000000;stroke-width:1;" x1="214.01" x2="319.9836" y1="170.6094" y2="170.6094"/><line style="stroke:#000000;stroke-width:1;" x1="214.01" x2="319.9836" y1="178.6094" y2="178.6094"/></g><!--entity targetting--><g class="entity" data-qualified-name="Behaviours.Training.targetting" data-source-line="12" id="ent0007"><ellipse cx="423" cy="164.6094" fill="#FFFFFF" rx="8" ry="8" style="stroke:#000000;stroke-width:1;"/><text fill="#000000" font-family="Verdana" font-size="14" lengthAdjust="spacing" textLength="119.1982" x="363.4009" y="194.6045">Target Indication</text></g><!--entity trials--><g class="entity" data-qualified-name="Behaviours.Trials.trials" data-source-line="17" id="ent0013"><ellipse cx="610" cy="164.6094" fill="#FFFFFF" rx="8" ry="8" style="stroke:#000000;stroke-width:1;"/><text fill="#000000" font-family="Verdana" font-size="14" lengthAdjust="spacing" textLength="113.4492" x="553.2754" y="194.6045">Trial Behaviours</text></g><!--class StimulusPresentationBehaviour--><g class="entity" data-qualified-name="Stimulus.Presentation.StimulusPresentationBehaviour" data-source-line="13" id="ent0008"><rect fill="#FFFFFF" height="141.7813" rx="2.5" ry="2.5" style="stroke:#000000;stroke-width:1;" width="248.3496" x="220.83" y="335.6094"/><ellipse cx="233.83" cy="349.6094" fill="#FFFFFF" rx="9" ry="9" style="stroke:#000000;stroke-width:1;"/><path d="M233.9394,344.9531 L232.7831,350.0313 L235.1113,350.0313 L233.9394,344.9531 Z M232.455,342.7188 L235.4394,342.7188 L238.7988,355.1094 L236.3456,355.1094 L235.58,352.0469 L232.2988,352.0469 L231.5488,355.1094 L229.1113,355.1094 L232.455,342.7188 Z " fill="#000000"/><text fill="#000000" font-family="Verdana" font-size="14" font-style="italic" lengthAdjust="spacing" textLength="220.3496" x="245.83" y="354.4561">StimulusPresentationBehaviour</text><line style="stroke:#000000;stroke-width:1;" x1="221.83" x2="468.1796" y1="363.6094" y2="363.6094"/><text fill="#000000" font-family="Verdana" font-size="14" lengthAdjust="spacing" textLength="118.9385" x="226.83" y="380.6045">bool IsSelectable</text><line style="stroke:#000000;stroke-width:1;" x1="221.83" x2="468.1796" y1="387.9063" y2="387.9063"/><text fill="#000000" font-family="Verdana" font-size="14" font-style="italic" lengthAdjust="spacing" textLength="191.6387" x="226.83" y="404.9014">void StartStimulusDisplay()</text><text fill="#000000" font-family="Verdana" font-size="14" font-style="italic" lengthAdjust="spacing" textLength="184.0439" x="226.83" y="421.1982">void EndStimulusDisplay()</text><text fill="#000000" font-family="Verdana" font-size="14" font-style="italic" lengthAdjust="spacing" textLength="88.1904" x="226.83" y="437.4951">void Select()</text><text fill="#000000" font-family="Verdana" font-size="14" font-style="italic" lengthAdjust="spacing" textLength="193.9492" x="226.83" y="453.792">void StartTargetIndication()</text><text fill="#000000" font-family="Verdana" font-size="14" font-style="italic" lengthAdjust="spacing" textLength="186.3545" x="226.83" y="470.0889">void EndTargetIndication()</text></g><!--entity custom--><g class="entity" data-qualified-name="Stimulus.Presentation.custom" data-source-line="38" id="ent0020"><ellipse cx="331" cy="566.3894" fill="#FFFFFF" rx="8" ry="8" style="stroke:#000000;stroke-width:1;"/><text fill="#000000" font-family="Verdana" font-size="14" lengthAdjust="spacing" textLength="229.3457" x="216.3271" y="596.3845">Custom Presentation Behaviours</text></g><!--entity behaviours--><g class="entity" data-qualified-name="Stimulus.Presentation.Standard.behaviours" data-source-line="34" id="ent0018"><ellipse cx="614" cy="566.3894" fill="#FFFFFF" rx="8" ry="8" style="stroke:#000000;stroke-width:1;"/><text fill="#000000" font-family="Verdana" font-size="14" lengthAdjust="spacing" textLength="237.0361" x="495.4819" y="596.3845">Provided Presentation Behaviours</text></g><!--link targetting to StimulusPresentationBehaviour--><g class="link" data-entity-1="ent0007" data-entity-2="ent0008" data-link-type="dependency" data-source-line="13" id="lnk11"><path codeLine="13" d="M420.4,173.5894 C412.32,198.4694 388.815,270.7433 369.725,329.4633" fill="none" id="targetting-to-StimulusPresentationBehaviour" style="stroke:#000000;stroke-width:1;stroke-dasharray:7,7;"/><polygon fill="#000000" points="367.87,335.1694,374.4566,327.847,369.4159,330.4143,366.8485,325.3736,367.87,335.1694" style="stroke:#000000;stroke-width:1;"/></g><!--link trials to StimulusPresentationBehaviour--><g class="link" data-entity-1="ent0013" data-entity-2="ent0008" data-link-type="dependency" data-source-line="18" id="lnk14"><path codeLine="18" d="M601.18,173.5894 C573.7,198.4694 492.0079,272.4225 427.1479,331.1425" fill="none" id="trials-to-StimulusPresentationBehaviour" style="stroke:#000000;stroke-width:1;stroke-dasharray:7,7;"/><polygon fill="#000000" points="422.7,335.1694,432.0565,332.0944,426.4066,331.8136,426.6873,326.1638,422.7,335.1694" style="stroke:#000000;stroke-width:1;"/></g><!--reverse link ISelectable to StimulusPresentationBehaviour--><g class="link" data-entity-1="ent0002" data-entity-2="ent0008" data-link-type="extension" data-source-line="25" id="lnk15"><path d="M116.8644,198.9794 C153.2744,231.9394 211.6,284.7394 267.44,335.2894" fill="none" id="ISelectable-backto-StimulusPresentationBehaviour" style="stroke:#000000;stroke-width:1;stroke-dasharray:7,7;"/><polygon fill="none" points="103.52,186.8994,112.8378,203.4275,120.8911,194.5312,103.52,186.8994" style="stroke:#000000;stroke-width:1;"/></g><!--reverse link ITargetable to StimulusPresentationBehaviour--><g class="link" data-entity-1="ent0004" data-entity-2="ent0008" data-link-type="extension" data-source-line="25" id="lnk16"><path d="M279.4873,204.0168 C290.2073,236.9768 305.73,284.7394 322.17,335.2894" fill="none" id="ITargetable-backto-StimulusPresentationBehaviour" style="stroke:#000000;stroke-width:1;stroke-dasharray:7,7;"/><polygon fill="none" points="273.92,186.8994,273.7815,205.8725,285.1931,202.161,273.92,186.8994" style="stroke:#000000;stroke-width:1;"/></g><!--reverse link StimulusPresentationBehaviour to behaviours--><g class="link" data-entity-1="ent0008" data-entity-2="ent0018" data-link-type="extension" data-source-line="35" id="lnk19"><path codeLine="35" d="M480.0727,486.7823 C537.3227,520.3923 582.71,547.0294 605.09,560.1594" fill="none" id="StimulusPresentationBehaviour-backto-behaviours" style="stroke:#000000;stroke-width:1;"/><polygon fill="none" points="464.55,477.6694,477.035,491.9566,483.1103,481.6081,464.55,477.6694" style="stroke:#000000;stroke-width:1;"/></g><!--reverse link StimulusPresentationBehaviour to custom--><g class="link" data-entity-1="ent0008" data-entity-2="ent0020" data-link-type="extension" data-source-line="39" id="lnk21"><path codeLine="39" d="M337.1872,495.5988 C334.3772,527.2288 333,542.8294 331.69,557.6094" fill="none" id="StimulusPresentationBehaviour-backto-custom" style="stroke:#000000;stroke-width:1;"/><polygon fill="none" points="338.78,477.6694,331.2107,495.0678,343.1636,496.1297,338.78,477.6694" style="stroke:#000000;stroke-width:1;"/></g><?plantuml-src fPB1RiCW38RlF8NNqoQjFC6qmxeTSglKle03Nej4e09IQUhwxYEX9AIhKatZbE3VzeVzFuGzDGG7ZSgme88cjWcgQNNhOUt8amaOb3MmqkWzUKP6Gj8nPGAvJnG46z8aEXclqYVMKJ36tsYFHsLRv_dMnKxAx7YrHRUZf6G66_A7gHHE3E8PGpdr4kZEsA8ibwD2EQ495Ya4bP5AzAzP07e8_Ms81OU4yGeuVmMUHy7BKGotvUM0tTSwir_e2hKlm0UqBb0yEf7rwf4g9V-Jw5nEUTZnzOmdEnzniVR1eGWmsmbKSz3HJYP4sfkUU0P-nmj5q-xKrcgeVE6gCdhAN6SuMYKZ7RgG4T-LZxR-UdoQJVamycy92UMUg0D9ZnfTTvza9kDYgUcsOXiZqScheMLphPqzAabokjKhizN3xwJ6_A9VlfVBMva5POPOjJxOPXP1z1BsXzOf0xArVm00?></g></svg>