<?plantuml 1.2026.2beta3?><svg xmlns="http://www.w3.org/2000/svg" xmlns:xlink="http://www.w3.org/1999/xlink" contentStyleType="text/css" data-diagram-type="CLASS" height="1043px" preserveAspectRatio="none" style="width:1444px;height:1043px;background:#FFFFFF;" version="1.1" viewBox="0 0 1444 1043" width="1444px" zoomAndPan="magnify"><title>Stimulus Presenter Collections</title><defs/><g><g class="title" data-source-line="2"><text fill="#000000" font-family="Verdana" font-size="22" font-weight="bold" lengthAdjust="spacing" textLength="382.1963" x="526.4019" y="35.4209">Stimulus Presenter Collections</text></g><!--cluster Selection--><g class="cluster" data-qualified-name="Selection" data-source-line="6" id="ent0002"><path d="M506.5,100.6094 L580.7471,100.6094 A3.75,3.75 0 0 1 583.2471,103.1094 L590.2471,122.9063 L701.5,122.9063 A2.5,2.5 0 0 1 704,125.4063 L704,207.1094 A2.5,2.5 0 0 1 701.5,209.6094 L506.5,209.6094 A2.5,2.5 0 0 1 504,207.1094 L504,103.1094 A2.5,2.5 0 0 1 506.5,100.6094" fill="#FFFFFF" style="stroke:#000000;stroke-width:1;"/><line style="stroke:#000000;stroke-width:1;" x1="504" x2="590.2471" y1="122.9063" y2="122.9063"/><text fill="#000000" font-family="Verdana" font-size="14" font-weight="bold" lengthAdjust="spacing" textLength="73.2471" x="508" y="115.6045">Selection</text></g><!--cluster Stimulus--><g class="cluster" data-qualified-name="Stimulus" data-source-line="9" id="ent0005"><path d="M13.5,257.6094 L83.7275,257.6094 A3.75,3.75 0 0 1 86.2275,260.1094 L93.2275,279.9063 L1434.5,279.9063 A2.5,2.5 0 0 1 1437,282.4063 L1437,1033.8894 A2.5,2.5 0 0 1 1434.5,1036.3894 L13.5,1036.3894 A2.5,2.5 0 0 1 11,1033.8894 L11,260.1094 A2.5,2.5 0 0 1 13.5,257.6094" fill="#FFFFFF" style="stroke:#000000;stroke-width:1;"/><line style="stroke:#000000;stroke-width:1;" x1="11" x2="93.2275" y1="279.9063" y2="279.9063"/><text fill="#000000" font-family="Verdana" font-size="14" font-weight="bold" lengthAdjust="spacing" textLength="69.2275" x="15" y="272.6045">Stimulus</text></g><!--cluster Collections--><g class="cluster" data-qualified-name="Stimulus.Collections" data-source-line="9" id="ent0006"><path d="M37.5,300.6094 L125.1934,300.6094 A3.75,3.75 0 0 1 127.6934,303.1094 L134.6934,322.9063 L1090.5,322.9063 A2.5,2.5 0 0 1 1093,325.4063 L1093,1009.8894 A2.5,2.5 0 0 1 1090.5,1012.3894 L37.5,1012.3894 A2.5,2.5 0 0 1 35,1009.8894 L35,303.1094 A2.5,2.5 0 0 1 37.5,300.6094" fill="#FFFFFF" style="stroke:#000000;stroke-width:1;"/><line style="stroke:#000000;stroke-width:1;" x1="35" x2="134.6934" y1="322.9063" y2="322.9063"/><text fill="#000000" font-family="Verdana" font-size="14" font-weight="bold" lengthAdjust="spacing" textLength="86.6934" x="39" y="315.6045">Collections</text></g><!--cluster Presentation--><g class="cluster" data-qualified-name="Stimulus.Presentation" data-source-line="68" id="ent0023"><path d="M1119.5,396.6094 L1222.1709,396.6094 A3.75,3.75 0 0 1 1224.6709,399.1094 L1231.6709,418.9063 L1410.5,418.9063 A2.5,2.5 0 0 1 1413,421.4063 L1413,594.1094 A2.5,2.5 0 0 1 1410.5,596.6094 L1119.5,596.6094 A2.5,2.5 0 0 1 1117,594.1094 L1117,399.1094 A2.5,2.5 0 0 1 1119.5,396.6094" fill="#FFFFFF" style="stroke:#000000;stroke-width:1;"/><line style="stroke:#000000;stroke-width:1;" x1="1117" x2="1231.6709" y1="418.9063" y2="418.9063"/><text fill="#000000" font-family="Verdana" font-size="14" font-weight="bold" lengthAdjust="spacing" textLength="101.6709" x="1121" y="411.6045">Presentation</text></g><!--cluster Behaviours--><g class="cluster" data-qualified-name="Behaviours" data-source-line="12" id="ent0008"><path d="M730.5,57.6094 L819.8271,57.6094 A3.75,3.75 0 0 1 822.3271,60.1094 L829.3271,79.9063 L1123.5,79.9063 A2.5,2.5 0 0 1 1126,82.4063 L1126,231.1094 A2.5,2.5 0 0 1 1123.5,233.6094 L730.5,233.6094 A2.5,2.5 0 0 1 728,231.1094 L728,60.1094 A2.5,2.5 0 0 1 730.5,57.6094" fill="#FFFFFF" style="stroke:#000000;stroke-width:1;"/><line style="stroke:#000000;stroke-width:1;" x1="728" x2="829.3271" y1="79.9063" y2="79.9063"/><text fill="#000000" font-family="Verdana" font-size="14" font-weight="bold" lengthAdjust="spacing" textLength="88.3271" x="732" y="72.6045">Behaviours</text></g><!--cluster Training--><g class="cluster" data-qualified-name="Behaviours.Training" data-source-line="13" id="ent0009"><path d="M754.5,100.6094 L820.9541,100.6094 A3.75,3.75 0 0 1 823.4541,103.1094 L830.4541,122.9063 L915.5,122.9063 A2.5,2.5 0 0 1 918,125.4063 L918,207.1094 A2.5,2.5 0 0 1 915.5,209.6094 L754.5,209.6094 A2.5,2.5 0 0 1 752,207.1094 L752,103.1094 A2.5,2.5 0 0 1 754.5,100.6094" fill="#FFFFFF" style="stroke:#000000;stroke-width:1;"/><line style="stroke:#000000;stroke-width:1;" x1="752" x2="830.4541" y1="122.9063" y2="122.9063"/><text fill="#000000" font-family="Verdana" font-size="14" font-weight="bold" lengthAdjust="spacing" textLength="65.4541" x="756" y="115.6045">Training</text></g><!--cluster Trials--><g class="cluster" data-qualified-name="Behaviours.Trials" data-source-line="18" id="ent0012"><path d="M944.5,100.6094 L989.332,100.6094 A3.75,3.75 0 0 1 991.832,103.1094 L998.832,122.9063 L1099.5,122.9063 A2.5,2.5 0 0 1 1102,125.4063 L1102,207.1094 A2.5,2.5 0 0 1 1099.5,209.6094 L944.5,209.6094 A2.5,2.5 0 0 1 942,207.1094 L942,103.1094 A2.5,2.5 0 0 1 944.5,100.6094" fill="#FFFFFF" style="stroke:#000000;stroke-width:1;"/><line style="stroke:#000000;stroke-width:1;" x1="942" x2="998.832" y1="122.9063" y2="122.9063"/><text fill="#000000" font-family="Verdana" font-size="14" font-weight="bold" lengthAdjust="spacing" textLength="43.832" x="946" y="115.6045">Trials</text></g><!--entity predictions--><g class="entity" data-qualified-name="Selection.predictions" data-source-line="7" id="ent0003"><ellipse cx="604" cy="164.6094" fill="#FFFFFF" rx="8" ry="8" style="stroke:#000000;stroke-width:1;"/><text fill="#000000" font-family="Verdana" font-size="14" lengthAdjust="spacing" textLength="153.248" x="527.376" y="194.6045">Prediction Forwarding</text></g><!--class StimulusPresenterCollection--><g class="entity" data-qualified-name="Stimulus.Collections.StimulusPresenterCollection" data-source-line="9" id="ent0004"><rect fill="#FFFFFF" height="333.0469" rx="2.5" ry="2.5" style="stroke:#000000;stroke-width:1;" width="467.1436" x="601.5" y="339.6094"/><ellipse cx="732.5562" cy="353.6094" fill="#FFFFFF" rx="9" ry="9" style="stroke:#000000;stroke-width:1;"/><path d="M735.5249,359.25 Q734.9468,359.5469 734.3062,359.6875 Q733.6655,359.8438 732.9624,359.8438 Q730.4624,359.8438 729.1343,358.2031 Q727.8218,356.5469 727.8218,353.4219 Q727.8218,350.2969 729.1343,348.6406 Q730.4624,346.9844 732.9624,346.9844 Q733.6655,346.9844 734.3062,347.1406 Q734.9624,347.2969 735.5249,347.5938 L735.5249,350.3125 Q734.8999,349.7344 734.3062,349.4688 Q733.7124,349.1875 733.0874,349.1875 Q731.7437,349.1875 731.0562,350.2656 Q730.3687,351.3281 730.3687,353.4219 Q730.3687,355.5156 731.0562,356.5938 Q731.7437,357.6563 733.0874,357.6563 Q733.7124,357.6563 734.3062,357.3906 Q734.8999,357.1094 735.5249,356.5313 L735.5249,359.25 Z " fill="#000000"/><text fill="#000000" font-family="Verdana" font-size="14" lengthAdjust="spacing" textLength="197.5313" x="750.0562" y="358.4561">StimulusPresenterCollection</text><line style="stroke:#000000;stroke-width:1;" x1="602.5" x2="1067.6436" y1="367.6094" y2="367.6094"/><text fill="#000000" font-family="Verdana" font-size="14" lengthAdjust="spacing" textLength="111.002" x="607.5" y="384.6045">int OptionCount</text><g data-visibility-modifier="PROTECTED_FIELD"><polygon fill="none" points="612.5,412.8516,616.5,416.8516,612.5,420.8516,608.5,416.8516" style="stroke:#000000;stroke-width:1;"/></g><text fill="#000000" font-family="Verdana" font-size="14" lengthAdjust="spacing" textLength="413.7178" x="619.5" y="421.1982">List&lt;StimulusPresentationBehaviour&gt; _stimulusPresenters</text><line style="stroke:#000000;stroke-width:1;stroke-dasharray:1,2;" x1="602.5" x2="780.7158" y1="400.0547" y2="400.0547"/><text fill="#000000" font-family="Verdana" font-size="14" lengthAdjust="spacing" textLength="108.7119" x="780.7158" y="404.4014">serialized fields</text><line style="stroke:#000000;stroke-width:1;stroke-dasharray:1,2;" x1="889.4277" x2="1067.6436" y1="400.0547" y2="400.0547"/><line style="stroke:#000000;stroke-width:1;" x1="602.5" x2="1067.6436" y1="428.5" y2="428.5"/><text fill="#000000" font-family="Verdana" font-size="14" lengthAdjust="spacing" textLength="166.708" x="607.5" y="445.4951">void makeSelection(int)</text><text fill="#000000" font-family="Verdana" font-size="14" lengthAdjust="spacing" textLength="217.8682" x="607.5" y="461.792">void BeginTargetIndication(int)</text><text fill="#000000" font-family="Verdana" font-size="14" lengthAdjust="spacing" textLength="186.3545" x="607.5" y="478.0889">void EndTargetIndication()</text><text fill="#000000" font-family="Verdana" font-size="14" lengthAdjust="spacing" textLength="279.5215" x="607.5" y="494.3857">StimulusPresentationBehaviour this[int]</text><text fill="#000000" font-family="Verdana" font-size="14" lengthAdjust="spacing" textLength="381.7666" x="607.5" y="510.6826">List&lt;StimulusPresentationBehaviour&gt; GetSelectable()</text><text fill="#000000" font-family="Verdana" font-size="14" lengthAdjust="spacing" textLength="354.6484" x="607.5" y="526.9795">List&lt;StimulusPresentationBehaviour&gt; GetVisible()</text><text fill="#000000" font-family="Verdana" font-size="14" lengthAdjust="spacing" textLength="455.1436" x="607.5" y="543.2764">List&lt;StimulusPresentationBehaviour&gt; GetVisibleAndSelectable()</text><line style="stroke:#000000;stroke-width:1;" x1="602.5" x2="1067.6436" y1="550.5781" y2="550.5781"/><text fill="#000000" font-family="Verdana" font-size="14" lengthAdjust="spacing" textLength="64.2783" x="607.5" y="567.5732">int Count</text><text fill="#000000" font-family="Verdana" font-size="14" lengthAdjust="spacing" textLength="81.6143" x="607.5" y="583.8701">void Clear()</text><text fill="#000000" font-family="Verdana" font-size="14" lengthAdjust="spacing" textLength="292.7012" x="607.5" y="600.167">void Add(StimulusPresentationBehaviour)</text><text fill="#000000" font-family="Verdana" font-size="14" lengthAdjust="spacing" textLength="322.793" x="607.5" y="616.4639">void Remove(StimulusPresentationBehaviour)</text><text fill="#000000" font-family="Verdana" font-size="14" lengthAdjust="spacing" textLength="326.9697" x="607.5" y="632.7607">bool Contains(StimulusPresentationBehaviour)</text><text fill="#000000" font-family="Verdana" font-size="14" lengthAdjust="spacing" textLength="356.0566" x="607.5" y="649.0576">void CopyTo(StimulusPresentationBehaviour[], int)</text><text fill="#000000" font-family="Verdana" font-size="14" lengthAdjust="spacing" textLength="210.4307" x="607.5" y="665.3545">IEnumerator GetEnumerator()</text></g><!--class DynamicStimulusPresenterCollection--><g class="entity" data-qualified-name="Stimulus.Collections.DynamicStimulusPresenterCollection" data-source-line="50" id="ent0015"><rect fill="#FFFFFF" height="141.7813" rx="2.5" ry="2.5" style="stroke:#000000;stroke-width:1;" width="455.7002" x="51.15" y="736.6094"/><ellipse cx="145.6134" cy="750.6094" fill="#FFFFFF" rx="9" ry="9" style="stroke:#000000;stroke-width:1;"/><path d="M148.5821,756.25 Q148.004,756.5469 147.3634,756.6875 Q146.7228,756.8438 146.0196,756.8438 Q143.5196,756.8438 142.1915,755.2031 Q140.879,753.5469 140.879,750.4219 Q140.879,747.2969 142.1915,745.6406 Q143.5196,743.9844 146.0196,743.9844 Q146.7228,743.9844 147.3634,744.1406 Q148.0196,744.2969 148.5821,744.5938 L148.5821,747.3125 Q147.9571,746.7344 147.3634,746.4688 Q146.7696,746.1875 146.1446,746.1875 Q144.8009,746.1875 144.1134,747.2656 Q143.4259,748.3281 143.4259,750.4219 Q143.4259,752.5156 144.1134,753.5938 Q144.8009,754.6563 146.1446,754.6563 Q146.7696,754.6563 147.3634,754.3906 Q147.9571,754.1094 148.5821,753.5313 L148.5821,756.25 Z " fill="#000000"/><text fill="#000000" font-family="Verdana" font-size="14" lengthAdjust="spacing" textLength="259.2734" x="163.1134" y="755.4561">DynamicStimulusPresenterCollection</text><line style="stroke:#000000;stroke-width:1;" x1="52.15" x2="505.8502" y1="764.6094" y2="764.6094"/><text fill="#000000" font-family="Verdana" font-size="14" lengthAdjust="spacing" textLength="337.0596" x="57.15" y="781.6045">SearchMethod PopulationMethod { Type | Tag }</text><text fill="#000000" font-family="Verdana" font-size="14" lengthAdjust="spacing" textLength="443.7002" x="57.15" y="797.9014">Scope PopulationScope { Scene | Children | ChildrenOfParent }</text><text fill="#000000" font-family="Verdana" font-size="14" lengthAdjust="spacing" textLength="196.7588" x="57.15" y="814.1982">string PresenterTag {"BCI"}</text><line style="stroke:#000000;stroke-width:1;" x1="52.15" x2="505.8502" y1="821.5" y2="821.5"/><text fill="#000000" font-family="Verdana" font-size="14" lengthAdjust="spacing" textLength="125.125" x="57.15" y="838.4951">void Repopulate()</text><text fill="#000000" font-family="Verdana" font-size="14" lengthAdjust="spacing" textLength="381.7666" x="57.15" y="854.792">List&lt;StimulusPresentationBehaviour&gt; GetSelectable()</text><text fill="#000000" font-family="Verdana" font-size="14" lengthAdjust="spacing" textLength="354.6484" x="57.15" y="871.0889">List&lt;StimulusPresentationBehaviour&gt; GetVisible()</text></g><!--entity list_ext--><g class="entity" data-qualified-name="Stimulus.Collections.list_ext" data-source-line="59" id="ent0017"><ellipse cx="638" cy="807.4994" fill="#FFFFFF" rx="8" ry="8" style="stroke:#000000;stroke-width:1;"/><text fill="#000000" font-family="Verdana" font-size="14" lengthAdjust="spacing" textLength="176.8457" x="549.5771" y="837.4945">Presenter List Extensions</text></g><!--entity search_ext--><g class="entity" data-qualified-name="Stimulus.Collections.search_ext" data-source-line="60" id="ent0018"><ellipse cx="279" cy="967.3894" fill="#FFFFFF" rx="8" ry="8" style="stroke:#000000;stroke-width:1;"/><text fill="#000000" font-family="Verdana" font-size="14" lengthAdjust="spacing" textLength="200.7783" x="178.6108" y="997.3845">Presenter Search Extensions</text></g><!--entity enumerator--><g class="entity" data-qualified-name="Stimulus.Collections.enumerator" data-source-line="61" id="ent0019"><ellipse cx="923" cy="807.4994" fill="#FFFFFF" rx="8" ry="8" style="stroke:#000000;stroke-width:1;"/><text fill="#000000" font-family="Verdana" font-size="14" lengthAdjust="spacing" textLength="293.8701" x="776.0649" y="837.4945">Stimulus Presenter Collection Enumerator</text></g><!--class StimulusPresentationBehaviour--><g class="entity" data-qualified-name="Stimulus.Presentation.StimulusPresentationBehaviour" data-source-line="69" id="ent0024"><rect fill="#FFFFFF" height="141.7813" rx="2.5" ry="2.5" style="stroke:#000000;stroke-width:1;" width="248.3496" x="1141" y="435.6094"/><ellipse cx="1154" cy="449.6094" fill="#FFFFFF" rx="9" ry="9" style="stroke:#000000;stroke-width:1;"/><path d="M1154.1094,444.9531 L1152.9531,450.0313 L1155.2813,450.0313 L1154.1094,444.9531 Z M1152.625,442.7188 L1155.6094,442.7188 L1158.9688,455.1094 L1156.5156,455.1094 L1155.75,452.0469 L1152.4688,452.0469 L1151.7188,455.1094 L1149.2813,455.1094 L1152.625,442.7188 Z " fill="#000000"/><text fill="#000000" font-family="Verdana" font-size="14" font-style="italic" lengthAdjust="spacing" textLength="220.3496" x="1166" y="454.4561">StimulusPresentationBehaviour</text><line style="stroke:#000000;stroke-width:1;" x1="1142" x2="1388.3496" y1="463.6094" y2="463.6094"/><text fill="#000000" font-family="Verdana" font-size="14" lengthAdjust="spacing" textLength="118.9385" x="1147" y="480.6045">bool IsSelectable</text><line style="stroke:#000000;stroke-width:1;" x1="1142" x2="1388.3496" y1="487.9063" y2="487.9063"/><text fill="#000000" font-family="Verdana" font-size="14" font-style="italic" lengthAdjust="spacing" textLength="191.6387" x="1147" y="504.9014">void StartStimulusDisplay()</text><text fill="#000000" font-family="Verdana" font-size="14" font-style="italic" lengthAdjust="spacing" textLength="184.0439" x="1147" y="521.1982">void EndStimulusDisplay()</text><text fill="#000000" font-family="Verdana" font-size="14" font-style="italic" lengthAdjust="spacing" textLength="88.1904" x="1147" y="537.4951">void Select()</text><text fill="#000000" font-family="Verdana" font-size="14" font-style="italic" lengthAdjust="spacing" textLength="193.9492" x="1147" y="553.792">void StartTargetIndication()</text><text fill="#000000" font-family="Verdana" font-size="14" font-style="italic" lengthAdjust="spacing" textLength="186.3545" x="1147" y="570.0889">void EndTargetIndication()</text></g><!--entity targetting--><g class="entity" data-qualified-name="Behaviours.Training.targetting" data-source-line="14" id="ent0010"><ellipse cx="835" cy="164.6094" fill="#FFFFFF" rx="8" ry="8" style="stroke:#000000;stroke-width:1;"/><text fill="#000000" font-family="Verdana" font-size="14" lengthAdjust="spacing" textLength="119.1982" x="775.4009" y="194.6045">Target Indication</text></g><!--entity trials--><g class="entity" data-qualified-name="Behaviours.Trials.trials" data-source-line="19" id="ent0013"><ellipse cx="1022" cy="164.6094" fill="#FFFFFF" rx="8" ry="8" style="stroke:#000000;stroke-width:1;"/><text fill="#000000" font-family="Verdana" font-size="14" lengthAdjust="spacing" textLength="113.4492" x="965.2754" y="194.6045">Trial Behaviours</text></g><!--link predictions to StimulusPresenterCollection--><g class="link" data-entity-1="ent0003" data-entity-2="ent0004" data-link-type="dependency" data-source-line="9" id="lnk7"><path codeLine="9" d="M609.26,173.3394 C624.81,196.1894 669.0649,261.2386 716.5949,331.0986" fill="none" id="predictions-to-StimulusPresenterCollection" style="stroke:#000000;stroke-width:1;stroke-dasharray:7,7;"/><polygon fill="#000000" points="719.97,336.0594,718.2145,326.3682,717.1574,331.9254,711.6002,330.8683,719.97,336.0594" style="stroke:#000000;stroke-width:1;"/></g><!--link targetting to StimulusPresenterCollection--><g class="link" data-entity-1="ent0010" data-entity-2="ent0004" data-link-type="dependency" data-source-line="15" id="lnk11"><path codeLine="15" d="M835,173.3394 C835,196.1894 835,260.1994 835,330.0594" fill="none" id="targetting-to-StimulusPresenterCollection" style="stroke:#000000;stroke-width:1;stroke-dasharray:7,7;"/><polygon fill="#000000" points="835,336.0594,839,327.0594,835,331.0594,831,327.0594,835,336.0594" style="stroke:#000000;stroke-width:1;"/></g><!--link trials to StimulusPresenterCollection--><g class="link" data-entity-1="ent0013" data-entity-2="ent0004" data-link-type="dependency" data-source-line="20" id="lnk14"><path codeLine="20" d="M1017.74,173.3394 C1005.16,196.1894 969.4842,260.9436 931.0142,330.8036" fill="none" id="trials-to-StimulusPresenterCollection" style="stroke:#000000;stroke-width:1;stroke-dasharray:7,7;"/><polygon fill="#000000" points="928.12,336.0594,935.9652,330.1052,930.5319,331.6795,928.9575,326.2462,928.12,336.0594" style="stroke:#000000;stroke-width:1;"/></g><!--reverse link StimulusPresenterCollection to DynamicStimulusPresenterCollection--><g class="link" data-entity-1="ent0004" data-entity-2="ent0015" data-link-type="extension" data-source-line="51" id="lnk16"><path d="M577.7115,645.6532 C514.4015,679.7432 464.38,706.6794 409.37,736.2994" fill="none" id="StimulusPresenterCollection-backto-DynamicStimulusPresenterCollection" style="stroke:#000000;stroke-width:1;"/><polygon fill="none" points="593.56,637.1194,574.8669,640.3703,580.5561,650.936,593.56,637.1194" style="stroke:#000000;stroke-width:1;"/></g><!--link StimulusPresenterCollection to list_ext--><g class="link" data-entity-1="ent0004" data-entity-2="ent0017" data-link-type="dependency" data-source-line="63" id="lnk20"><path codeLine="63" d="M723.55,676.4894 C688.38,729.9394 658.7491,774.9778 646.4191,793.7078" fill="none" id="StimulusPresenterCollection-to-list_ext" style="stroke:#000000;stroke-width:1;"/><polygon fill="#000000" points="643.12,798.7194,651.4097,793.4014,645.8693,794.5431,644.7276,789.0026,643.12,798.7194" style="stroke:#000000;stroke-width:1;"/></g><!--link StimulusPresenterCollection to enumerator--><g class="link" data-entity-1="ent0004" data-entity-2="ent0019" data-link-type="dependency" data-source-line="64" id="lnk21"><path codeLine="64" d="M884.79,676.4894 C900.5,729.9394 913.5195,774.2324 919.0195,792.9624" fill="none" id="StimulusPresenterCollection-to-enumerator" style="stroke:#000000;stroke-width:1;"/><polygon fill="#000000" points="920.71,798.7194,922.0122,788.957,919.3012,793.9219,914.3363,791.211,920.71,798.7194" style="stroke:#000000;stroke-width:1;"/></g><!--link DynamicStimulusPresenterCollection to search_ext--><g class="link" data-entity-1="ent0015" data-entity-2="ent0018" data-link-type="dependency" data-source-line="65" id="lnk22"><path codeLine="65" d="M279,878.6694 C279,910.2994 279,937.8294 279,952.6094" fill="none" id="DynamicStimulusPresenterCollection-to-search_ext" style="stroke:#000000;stroke-width:1;"/><polygon fill="#000000" points="279,958.6094,283,949.6094,279,953.6094,275,949.6094,279,958.6094" style="stroke:#000000;stroke-width:1;"/></g><!--link StimulusPresentationBehaviour to StimulusPresenterCollection--><g class="link" data-entity-1="ent0024" data-entity-2="ent0004" data-link-type="aggregation" data-source-line="79" id="lnk25"><path codeLine="79" d="M1146.56,431.6894 C1122.16,421.8594 1107.95,415.1094 1082,415.1094" fill="none" id="StimulusPresentationBehaviour-to-StimulusPresenterCollection" style="stroke:#000000;stroke-width:1;"/><polygon fill="none" points="1070,415.1094,1076,419.1094,1082,415.1094,1076,411.1094,1070,415.1094" style="stroke:#000000;stroke-width:1;"/></g><!--link StimulusPresenterCollection to StimulusPresentationBehaviour--><g class="link" data-entity-1="ent0004" data-entity-2="ent0024" data-link-type="dependency" data-source-line="81" id="lnk26"><path codeLine="81" d="M1070,439.1094 C1121.73,439.1094 1082.27,532.1094 1134,532.1094" fill="none" id="StimulusPresenterCollection-to-StimulusPresentationBehaviour" style="stroke:#000000;stroke-width:1;"/><polygon fill="#000000" points="1140,532.1094,1131,528.1094,1135,532.1094,1131,536.1094,1140,532.1094" style="stroke:#000000;stroke-width:1;"/></g><!--link StimulusPresenterCollection to StimulusPresentationBehaviour--><g class="link" data-entity-1="ent0004" data-entity-2="ent0024" data-link-type="dependency" data-source-line="82" id="lnk27"><path codeLine="82" d="M1070,456.1094 C1121.73,456.1094 1082.27,549.1094 1134,549.1094" fill="none" id="StimulusPresenterCollection-to-StimulusPresentationBehaviour-1" style="stroke:#000000;stroke-width:1;"/><polygon fill="#000000" points="1140,549.1094,1131,545.1094,1135,549.1094,1131,553.1094,1140,549.1094" style="stroke:#000000;stroke-width:1;"/></g><!--link StimulusPresenterCollection to StimulusPresentationBehaviour--><g class="link" data-entity-1="ent0004" data-entity-2="ent0024" data-link-type="dependency" data-source-line="83" id="lnk28"><path codeLine="83" d="M1070,472.1094 C1121.73,472.1094 1082.27,565.1094 1134,565.1094" fill="none" id="StimulusPresenterCollection-to-StimulusPresentationBehaviour-2" style="stroke:#000000;stroke-width:1;"/><polygon fill="#000000" points="1140,565.1094,1131,561.1094,1135,565.1094,1131,569.1094,1140,565.1094" style="stroke:#000000;stroke-width:1;"/></g><?plantuml-src hLRRRjim37ttLt3PmpfWzWS4Gu4rxOO06reimLwAeb0jDXQcI8QbTCko_FieEx7aIvsadLyIappauKMYtzWCbmYvP495LbY9qSoAvKgk3DmKQ51PB62YfSJK2grCX8f3PHWfjaIJinHXXZizR2AW9nL5AX56v8ABIl5P5xzOmOLQZ80Po6kDYKf8880aEOTapoC9ejV2cfjNHjkGqGLcx4deLM5sbBngNb2on6Ed2FdEMR502rD5L9XpMdArfTGIf0PuqGl9EYVRgCDCC6dwU3b5a5D5gxJsb2hmQ-WGeNTXvM9vcmdEKTt5liMDlkzdfLtZ86wOZcJ6m00FR-eUeInSvqu-qIjb6xeaCUWI5d-GmwD0oKsID2pUmbTXxCTMjBAhTOhdS6_QR4p3InmtNf-quB1aFx4knncnVD-rkS25KDKu-MbwnlPAyOvbqsmm2R2PCBVa-gw1EIRxBsYhHDY3n5RC8_4_X16l1NzI_5aQhGQucUXEGrd6YKHMdFNKznFdPuDSUZ3VSQcVy1JOWzQIg96HKERaU1ETh-Tw67Pxzm4w4pIzKgib5ipgmbNKlmMLs5qq_WXUhkceYdJW90B-jdJL3vvMQ1xN6PK_pRwXpJI76vslP4b_9zZ0V9qZ_8KvMn2X1Z3LfF68wdr3SbGECSc4v0MguE_rumsZ7zloPEWIf2kvvkfYRKONa-beszVYl0hvmk7z_oSdx9FVeBibxBp2bUkASTTgkG8aoUwfKmEmgYjje2cblT31_Gz-lae_MBzwwaCJ4yVdNTA7046GFUI80NR8LfgTXHis9vXcza23n59xuDxTTC__rFYfQ6WtUv_RQlXcz0LXz-ulXQ4li7LhZDeGMXEd0IegXumSaGFhfuV9068RrZgiN39SpbZ3aPyhut7VsYxZ7UsXiSJBOJcUwdXS8K-BsFj9S7haldwTHgIdVIVJwF4HRVy1?></g></svg>