<svg xmlns="http://www.w3.org/2000/svg" xmlns:xlink="http://www.w3.org/1999/xlink" contentStyleType="text/css" data-diagram-type="CLASS" height="1030px" preserveAspectRatio="none" style="width:1754px;height:1030px;background:#FFFFFF;" version="1.1" viewBox="0 0 1754 1030" width="1754px" zoomAndPan="magnify"><?plantuml 1.2026.4beta2?><defs/><g><g class="title" data-source-line="2"><text fill="#000000" font-family="Verdana" font-size="22" font-weight="700" lengthAdjust="spacing" textLength="209.1826" x="771.4087" y="35.4209">Stimulus Classes</text></g><!--cluster Stimulus--><g class="cluster" data-qualified-name="Stimulus" data-source-line="6" id="ent0002"><path d="M13.5,57.6094 L83.7275,57.6094 A3.75,3.75 0 0 1 86.2275,60.1094 L93.2275,79.9063 L1736.5,79.9063 A2.5,2.5 0 0 1 1739,82.4063 L1739,1013.2294 A2.5,2.5 0 0 1 1736.5,1015.7294 L13.5,1015.7294 A2.5,2.5 0 0 1 11,1013.2294 L11,60.1094 A2.5,2.5 0 0 1 13.5,57.6094" fill="#FFFFFF" style="stroke:#000000;stroke-width:1;"/><line style="stroke:#000000;stroke-width:1;" x1="11" x2="93.2275" y1="79.9063" y2="79.9063"/><text fill="#000000" font-family="Verdana" font-size="14" font-weight="700" lengthAdjust="spacing" textLength="69.2275" x="15" y="72.6045">Stimulus</text></g><!--class StimulusPresenterCollection--><g class="entity" data-qualified-name="Stimulus.StimulusPresenterCollection" data-source-line="7" id="ent0003"><rect fill="#FFFFFF" height="284.1563" rx="2.5" ry="2.5" style="stroke:#000000;stroke-width:1;" width="375.0771" x="94.5" y="96.6094"/><ellipse cx="179.5229" cy="110.6094" fill="#FFFFFF" rx="9" ry="9" style="stroke:#000000;stroke-width:1;"/><path d="M182.4917,116.25 Q181.9136,116.5469 181.2729,116.6875 Q180.6323,116.8438 179.9292,116.8438 Q177.4292,116.8438 176.1011,115.2031 Q174.7886,113.5469 174.7886,110.4219 Q174.7886,107.2969 176.1011,105.6406 Q177.4292,103.9844 179.9292,103.9844 Q180.6323,103.9844 181.2729,104.1406 Q181.9292,104.2969 182.4917,104.5938 L182.4917,107.3125 Q181.8667,106.7344 181.2729,106.4688 Q180.6792,106.1875 180.0542,106.1875 Q178.7104,106.1875 178.0229,107.2656 Q177.3354,108.3281 177.3354,110.4219 Q177.3354,112.5156 178.0229,113.5938 Q178.7104,114.6563 180.0542,114.6563 Q180.6792,114.6563 181.2729,114.3906 Q181.8667,114.1094 182.4917,113.5313 L182.4917,116.25 Z " fill="#000000"/><text fill="#000000" font-family="Verdana" font-size="14" lengthAdjust="spacing" textLength="197.5313" x="197.0229" y="115.4561">StimulusPresenterCollection</text><line style="stroke:#000000;stroke-width:1;" x1="95.5" x2="468.5771" y1="124.6094" y2="124.6094"/><text fill="#000000" font-family="Verdana" font-size="14" lengthAdjust="spacing" textLength="271.9746" x="100.5" y="141.6045">List&lt;StimulusPresenter&gt; LatestSubset</text><g data-visibility-modifier="PROTECTED_FIELD"><polygon fill="none" points="105.5,169.8516,109.5,173.8516,105.5,177.8516,101.5,173.8516" style="stroke:#000000;stroke-width:1;"/></g><text fill="#000000" font-family="Verdana" font-size="14" lengthAdjust="spacing" textLength="321.6514" x="112.5" y="178.1982">List&lt;StimulusPresenter&gt; _stimulusPresenters</text><line style="stroke:#000000;stroke-width:1;stroke-dasharray:1,2;" x1="95.5" x2="227.6826" y1="157.0547" y2="157.0547"/><text fill="#000000" font-family="Verdana" font-size="14" lengthAdjust="spacing" textLength="108.7119" x="227.6826" y="161.4014">serialized fields</text><line style="stroke:#000000;stroke-width:1;stroke-dasharray:1,2;" x1="336.3945" x2="468.5771" y1="157.0547" y2="157.0547"/><line style="stroke:#000000;stroke-width:1;" x1="95.5" x2="468.5771" y1="185.5" y2="185.5"/><text fill="#000000" font-family="Verdana" font-size="14" lengthAdjust="spacing" textLength="187.4551" x="100.5" y="202.4951">StimulusPresenter this[int]</text><text fill="#000000" font-family="Verdana" font-size="14" lengthAdjust="spacing" textLength="289.7002" x="100.5" y="218.792">List&lt;StimulusPresenter&gt; GetSelectable()</text><text fill="#000000" font-family="Verdana" font-size="14" lengthAdjust="spacing" textLength="262.582" x="100.5" y="235.0889">List&lt;StimulusPresenter&gt; GetVisible()</text><text fill="#000000" font-family="Verdana" font-size="14" lengthAdjust="spacing" textLength="363.0771" x="100.5" y="251.3857">List&lt;StimulusPresenter&gt; GetVisibleAndSelectable()</text><line style="stroke:#000000;stroke-width:1;" x1="95.5" x2="468.5771" y1="258.6875" y2="258.6875"/><text fill="#000000" font-family="Verdana" font-size="14" lengthAdjust="spacing" textLength="64.2783" x="100.5" y="275.6826">int Count</text><text fill="#000000" font-family="Verdana" font-size="14" lengthAdjust="spacing" textLength="81.6143" x="100.5" y="291.9795">void Clear()</text><text fill="#000000" font-family="Verdana" font-size="14" lengthAdjust="spacing" textLength="200.6348" x="100.5" y="308.2764">void Add(StimulusPresenter)</text><text fill="#000000" font-family="Verdana" font-size="14" lengthAdjust="spacing" textLength="230.7266" x="100.5" y="324.5732">void Remove(StimulusPresenter)</text><text fill="#000000" font-family="Verdana" font-size="14" lengthAdjust="spacing" textLength="234.9033" x="100.5" y="340.8701">bool Contains(StimulusPresenter)</text><text fill="#000000" font-family="Verdana" font-size="14" lengthAdjust="spacing" textLength="263.9902" x="100.5" y="357.167">void CopyTo(StimulusPresenter[], int)</text><text fill="#000000" font-family="Verdana" font-size="14" lengthAdjust="spacing" textLength="210.4307" x="100.5" y="373.4639">IEnumerator GetEnumerator()</text></g><!--class DynamicStimulusPresenterCollection--><g class="entity" data-qualified-name="Stimulus.DynamicStimulusPresenterCollection" data-source-line="26" id="ent0004"><rect fill="#FFFFFF" height="158.0781" rx="2.5" ry="2.5" style="stroke:#000000;stroke-width:1;" width="455.7002" x="27.15" y="542.2394"/><ellipse cx="121.6134" cy="556.2394" fill="#FFFFFF" rx="9" ry="9" style="stroke:#000000;stroke-width:1;"/><path d="M124.5821,561.88 Q124.004,562.1769 123.3634,562.3175 Q122.7228,562.4738 122.0196,562.4738 Q119.5196,562.4738 118.1915,560.8331 Q116.879,559.1769 116.879,556.0519 Q116.879,552.9269 118.1915,551.2706 Q119.5196,549.6144 122.0196,549.6144 Q122.7228,549.6144 123.3634,549.7706 Q124.0196,549.9269 124.5821,550.2238 L124.5821,552.9425 Q123.9571,552.3644 123.3634,552.0988 Q122.7696,551.8175 122.1446,551.8175 Q120.8009,551.8175 120.1134,552.8956 Q119.4259,553.9581 119.4259,556.0519 Q119.4259,558.1456 120.1134,559.2238 Q120.8009,560.2863 122.1446,560.2863 Q122.7696,560.2863 123.3634,560.0206 Q123.9571,559.7394 124.5821,559.1613 L124.5821,561.88 Z " fill="#000000"/><text fill="#000000" font-family="Verdana" font-size="14" lengthAdjust="spacing" textLength="259.2734" x="139.1134" y="561.0861">DynamicStimulusPresenterCollection</text><line style="stroke:#000000;stroke-width:1;" x1="28.15" x2="481.8502" y1="570.2394" y2="570.2394"/><text fill="#000000" font-family="Verdana" font-size="14" lengthAdjust="spacing" textLength="337.0596" x="33.15" y="587.2345">SearchMethod PopulationMethod { Type | Tag }</text><text fill="#000000" font-family="Verdana" font-size="14" lengthAdjust="spacing" textLength="443.7002" x="33.15" y="603.5314">Scope PopulationScope { Scene | Children | ChildrenOfParent }</text><text fill="#000000" font-family="Verdana" font-size="14" lengthAdjust="spacing" textLength="196.7588" x="33.15" y="619.8282">string PresenterTag {"BCI"}</text><text fill="#000000" font-family="Verdana" font-size="14" lengthAdjust="spacing" textLength="210.335" x="33.15" y="636.1251">bool RepopulateWhenQueried</text><line style="stroke:#000000;stroke-width:1;" x1="28.15" x2="481.8502" y1="643.4269" y2="643.4269"/><text fill="#000000" font-family="Verdana" font-size="14" lengthAdjust="spacing" textLength="125.125" x="33.15" y="660.422">void Repopulate()</text><text fill="#000000" font-family="Verdana" font-size="14" lengthAdjust="spacing" textLength="289.7002" x="33.15" y="676.7189">List&lt;StimulusPresenter&gt; GetSelectable()</text><text fill="#000000" font-family="Verdana" font-size="14" lengthAdjust="spacing" textLength="262.582" x="33.15" y="693.0157">List&lt;StimulusPresenter&gt; GetVisible()</text></g><!--class StimulusPresenter--><g class="entity" data-qualified-name="Stimulus.StimulusPresenter" data-source-line="36" id="ent0006"><rect fill="#FFFFFF" height="141.7813" rx="2.5" ry="2.5" style="stroke:#000000;stroke-width:1;" width="205.9492" x="836.03" y="167.7094"/><ellipse cx="871.3797" cy="181.7094" fill="#FFFFFF" rx="9" ry="9" style="stroke:#000000;stroke-width:1;"/><path d="M871.4891,177.0531 L870.3328,182.1313 L872.661,182.1313 L871.4891,177.0531 Z M870.0047,174.8188 L872.9891,174.8188 L876.3485,187.2094 L873.8953,187.2094 L873.1297,184.1469 L869.8485,184.1469 L869.0985,187.2094 L866.661,187.2094 L870.0047,174.8188 Z " fill="#000000"/><text fill="#000000" font-family="Verdana" font-size="14" font-style="italic" lengthAdjust="spacing" textLength="128.2832" x="888.3463" y="186.5561">StimulusPresenter</text><line style="stroke:#000000;stroke-width:1;" x1="837.03" x2="1040.9792" y1="195.7094" y2="195.7094"/><text fill="#000000" font-family="Verdana" font-size="14" lengthAdjust="spacing" textLength="118.9385" x="842.03" y="212.7045">bool IsSelectable</text><line style="stroke:#000000;stroke-width:1;" x1="837.03" x2="1040.9792" y1="220.0063" y2="220.0063"/><text fill="#000000" font-family="Verdana" font-size="14" font-style="italic" lengthAdjust="spacing" textLength="191.6387" x="842.03" y="237.0014">void StartStimulusDisplay()</text><text fill="#000000" font-family="Verdana" font-size="14" font-style="italic" lengthAdjust="spacing" textLength="184.0439" x="842.03" y="253.2982">void EndStimulusDisplay()</text><text fill="#000000" font-family="Verdana" font-size="14" font-style="italic" lengthAdjust="spacing" textLength="88.1904" x="842.03" y="269.5951">void Select()</text><text fill="#000000" font-family="Verdana" font-size="14" font-style="italic" lengthAdjust="spacing" textLength="193.9492" x="842.03" y="285.892">void StartTargetIndication()</text><text fill="#000000" font-family="Verdana" font-size="14" font-style="italic" lengthAdjust="spacing" textLength="186.3545" x="842.03" y="302.1889">void EndTargetIndication()</text></g><!--class CoroutineStimulusPresenter--><g class="entity" data-qualified-name="Stimulus.CoroutineStimulusPresenter" data-source-line="49" id="ent0008"><rect fill="#FFFFFF" height="125.4844" rx="2.5" ry="2.5" style="stroke:#000000;stroke-width:1;" width="314.2031" x="1079.9" y="558.5294"/><ellipse cx="1134.9098" cy="572.5294" fill="#FFFFFF" rx="9" ry="9" style="stroke:#000000;stroke-width:1;"/><path d="M1135.0191,567.8731 L1133.8629,572.9513 L1136.191,572.9513 L1135.0191,567.8731 Z M1133.5348,565.6388 L1136.5191,565.6388 L1139.8785,578.0294 L1137.4254,578.0294 L1136.6598,574.9669 L1133.3785,574.9669 L1132.6285,578.0294 L1130.191,578.0294 L1133.5348,565.6388 Z " fill="#000000"/><text fill="#000000" font-family="Verdana" font-size="14" font-style="italic" lengthAdjust="spacing" textLength="196.6836" x="1152.4098" y="577.3761">CoroutineStimulusPresenter</text><line style="stroke:#000000;stroke-width:1;" x1="1080.9" x2="1393.1031" y1="586.5294" y2="586.5294"/><line style="stroke:#000000;stroke-width:1;" x1="1080.9" x2="1393.1031" y1="594.5294" y2="594.5294"/><text fill="#000000" font-family="Verdana" font-size="14" font-style="italic" lengthAdjust="spacing" textLength="242.4023" x="1085.9" y="611.5245">IEnumerator RunStimulusDisplay()</text><text fill="#000000" font-family="Verdana" font-size="14" font-style="italic" lengthAdjust="spacing" textLength="248.2881" x="1085.9" y="627.8214">IEnumerator RunStimulusCleanup()</text><text fill="#000000" font-family="Verdana" font-size="14" font-style="italic" lengthAdjust="spacing" textLength="194.4824" x="1085.9" y="644.1182">IEnumerator RunSelection()</text><text fill="#000000" font-family="Verdana" font-size="14" font-style="italic" lengthAdjust="spacing" textLength="244.7129" x="1085.9" y="660.4151">IEnumerator RunTargetIndication()</text><text fill="#000000" font-family="Verdana" font-size="14" font-style="italic" lengthAdjust="spacing" textLength="302.2031" x="1085.9" y="676.712">IEnumerator RunTargetIndicationCleanup()</text></g><!--class UnityEventStimulusPresenter--><g class="entity" data-qualified-name="Stimulus.UnityEventStimulusPresenter" data-source-line="58" id="ent0010"><rect fill="#FFFFFF" height="125.4844" rx="2.5" ry="2.5" style="stroke:#000000;stroke-width:1;" width="293.5107" x="1429.24" y="558.5294"/><ellipse cx="1469.6585" cy="572.5294" fill="#FFFFFF" rx="9" ry="9" style="stroke:#000000;stroke-width:1;"/><path d="M1472.6272,578.17 Q1472.0491,578.4669 1471.4085,578.6075 Q1470.7678,578.7638 1470.0647,578.7638 Q1467.5647,578.7638 1466.2366,577.1231 Q1464.9241,575.4669 1464.9241,572.3419 Q1464.9241,569.2169 1466.2366,567.5606 Q1467.5647,565.9044 1470.0647,565.9044 Q1470.7678,565.9044 1471.4085,566.0606 Q1472.0647,566.2169 1472.6272,566.5138 L1472.6272,569.2325 Q1472.0022,568.6544 1471.4085,568.3888 Q1470.8147,568.1075 1470.1897,568.1075 Q1468.846,568.1075 1468.1585,569.1856 Q1467.471,570.2481 1467.471,572.3419 Q1467.471,574.4356 1468.1585,575.5138 Q1468.846,576.5763 1470.1897,576.5763 Q1470.8147,576.5763 1471.4085,576.3106 Q1472.0022,576.0294 1472.6272,575.4513 L1472.6272,578.17 Z " fill="#000000"/><text fill="#000000" font-family="Verdana" font-size="14" lengthAdjust="spacing" textLength="205.1738" x="1487.1585" y="577.3761">UnityEventStimulusPresenter</text><line style="stroke:#000000;stroke-width:1;" x1="1430.24" x2="1721.7507" y1="586.5294" y2="586.5294"/><text fill="#000000" font-family="Verdana" font-size="14" lengthAdjust="spacing" textLength="281.5107" x="1435.24" y="603.5245">UnityEvent OnStimulusDisplayTriggered</text><text fill="#000000" font-family="Verdana" font-size="14" lengthAdjust="spacing" textLength="257.7764" x="1435.24" y="619.8214">UnityEvent OnStimulusDisplayEnded</text><text fill="#000000" font-family="Verdana" font-size="14" lengthAdjust="spacing" textLength="161.9229" x="1435.24" y="636.1182">UnityEvent OnSelected</text><text fill="#000000" font-family="Verdana" font-size="14" lengthAdjust="spacing" textLength="164.6094" x="1435.24" y="652.4151">UnityEvent OnTargeted</text><text fill="#000000" font-family="Verdana" font-size="14" lengthAdjust="spacing" textLength="218.3535" x="1435.24" y="668.712">UnityEvent OnTargettingEnded</text><line style="stroke:#000000;stroke-width:1;" x1="1430.24" x2="1721.7507" y1="676.0138" y2="676.0138"/></g><!--class ColourFlashDisplay--><g class="entity" data-qualified-name="Stimulus.ColourFlashDisplay" data-source-line="68" id="ent0012"><rect fill="#FFFFFF" height="353.3438" rx="2.5" ry="2.5" style="stroke:#000000;stroke-width:1;" width="243.4922" x="801.25" y="444.6094"/><ellipse cx="852.3872" cy="458.6094" fill="#FFFFFF" rx="9" ry="9" style="stroke:#000000;stroke-width:1;"/><path d="M855.356,464.25 Q854.7778,464.5469 854.1372,464.6875 Q853.4966,464.8438 852.7935,464.8438 Q850.2935,464.8438 848.9653,463.2031 Q847.6528,461.5469 847.6528,458.4219 Q847.6528,455.2969 848.9653,453.6406 Q850.2935,451.9844 852.7935,451.9844 Q853.4966,451.9844 854.1372,452.1406 Q854.7935,452.2969 855.356,452.5938 L855.356,455.3125 Q854.731,454.7344 854.1372,454.4688 Q853.5435,454.1875 852.9185,454.1875 Q851.5747,454.1875 850.8872,455.2656 Q850.1997,456.3281 850.1997,458.4219 Q850.1997,460.5156 850.8872,461.5938 Q851.5747,462.6563 852.9185,462.6563 Q853.5435,462.6563 854.1372,462.3906 Q854.731,462.1094 855.356,461.5313 L855.356,464.25 Z " fill="#000000"/><text fill="#000000" font-family="Verdana" font-size="14" lengthAdjust="spacing" textLength="133.7178" x="869.8872" y="463.4561">ColourFlashDisplay</text><line style="stroke:#000000;stroke-width:1;" x1="802.25" x2="1043.7422" y1="472.6094" y2="472.6094"/><text fill="#000000" font-family="Verdana" font-size="14" lengthAdjust="spacing" textLength="104.1182" x="807.25" y="489.6045">bool IsFlashing</text><text fill="#000000" font-family="Verdana" font-size="14" lengthAdjust="spacing" textLength="134.1279" x="807.25" y="505.9014">Renderer Renderer</text><text fill="#000000" font-family="Verdana" font-size="14" lengthAdjust="spacing" textLength="106.3193" x="807.25" y="522.1982">Color OnColour</text><text fill="#000000" font-family="Verdana" font-size="14" lengthAdjust="spacing" textLength="107.3037" x="807.25" y="538.4951">Color OffColour</text><text fill="#000000" font-family="Verdana" font-size="14" lengthAdjust="spacing" textLength="231.4922" x="807.25" y="575.0889">float TargetIndicationFlashPeriod</text><text fill="#000000" font-family="Verdana" font-size="14" lengthAdjust="spacing" textLength="228.915" x="807.25" y="591.3857">float TargetIndicationFlashCount</text><line style="stroke:#000000;stroke-width:1;stroke-dasharray:1,2;" x1="802.25" x2="865.0479" y1="553.9453" y2="553.9453"/><text fill="#000000" font-family="Verdana" font-size="14" lengthAdjust="spacing" textLength="115.8965" x="865.0479" y="558.292">target indication</text><line style="stroke:#000000;stroke-width:1;stroke-dasharray:1,2;" x1="980.9443" x2="1043.7422" y1="553.9453" y2="553.9453"/><text fill="#000000" font-family="Verdana" font-size="14" lengthAdjust="spacing" textLength="145.3594" x="807.25" y="627.9795">SelectionFlashPeriod</text><text fill="#000000" font-family="Verdana" font-size="14" lengthAdjust="spacing" textLength="142.7822" x="807.25" y="644.2764">SelectionFlashCount</text><line style="stroke:#000000;stroke-width:1;stroke-dasharray:1,2;" x1="802.25" x2="854.9922" y1="606.8359" y2="606.8359"/><text fill="#000000" font-family="Verdana" font-size="14" lengthAdjust="spacing" textLength="136.0078" x="854.9922" y="611.1826">selection indication</text><line style="stroke:#000000;stroke-width:1;stroke-dasharray:1,2;" x1="991" x2="1043.7422" y1="606.8359" y2="606.8359"/><line style="stroke:#000000;stroke-width:1;" x1="802.25" x2="1043.7422" y1="651.5781" y2="651.5781"/><text fill="#000000" font-family="Verdana" font-size="14" lengthAdjust="spacing" textLength="212.5908" x="807.25" y="668.5732">void StartSelectionIndication()</text><text fill="#000000" font-family="Verdana" font-size="14" lengthAdjust="spacing" textLength="210.2188" x="807.25" y="684.8701">void StopSelectionIndication()</text><text fill="#000000" font-family="Verdana" font-size="14" lengthAdjust="spacing" textLength="193.9492" x="807.25" y="701.167">void StartTargetIndication()</text><text fill="#000000" font-family="Verdana" font-size="14" lengthAdjust="spacing" textLength="192.1787" x="807.25" y="717.4639">void EndStartedIndication()</text><line style="stroke:#000000;stroke-width:1;stroke-dasharray:1,2;" x1="802.25" x2="1043.7422" y1="724.7656" y2="724.7656"/><text fill="#000000" font-family="Verdana" font-size="14" lengthAdjust="spacing" textLength="161.9229" x="807.25" y="741.7607">void DisplayOnColour()</text><text fill="#000000" font-family="Verdana" font-size="14" lengthAdjust="spacing" textLength="162.9072" x="807.25" y="758.0576">void DisplayOffColour()</text><text fill="#000000" font-family="Verdana" font-size="14" lengthAdjust="spacing" textLength="210.9639" x="807.25" y="774.3545">void ToggleDisplayState(bool)</text><text fill="#000000" font-family="Verdana" font-size="14" lengthAdjust="spacing" textLength="149.9668" x="807.25" y="790.6514">void SetColour(Color)</text></g><!--class DutyCycleEngine--><g class="entity" data-qualified-name="Stimulus.DutyCycleEngine" data-source-line="91" id="ent0013"><rect fill="#FFFFFF" height="141.7813" rx="2.5" ry="2.5" style="stroke:#000000;stroke-width:1;" width="147.6699" x="792.17" y="857.9494"/><ellipse cx="805.17" cy="871.9494" fill="#FFFFFF" rx="9" ry="9" style="stroke:#000000;stroke-width:1;"/><path d="M808.1388,877.59 Q807.5606,877.8869 806.92,878.0275 Q806.2794,878.1838 805.5763,878.1838 Q803.0763,878.1838 801.7481,876.5431 Q800.4356,874.8869 800.4356,871.7619 Q800.4356,868.6369 801.7481,866.9806 Q803.0763,865.3244 805.5763,865.3244 Q806.2794,865.3244 806.92,865.4806 Q807.5763,865.6369 808.1388,865.9338 L808.1388,868.6525 Q807.5138,868.0744 806.92,867.8088 Q806.3263,867.5275 805.7013,867.5275 Q804.3575,867.5275 803.67,868.6056 Q802.9825,869.6681 802.9825,871.7619 Q802.9825,873.8556 803.67,874.9338 Q804.3575,875.9963 805.7013,875.9963 Q806.3263,875.9963 806.92,875.7306 Q807.5138,875.4494 808.1388,874.8713 L808.1388,877.59 Z " fill="#000000"/><text fill="#000000" font-family="Verdana" font-size="14" lengthAdjust="spacing" textLength="119.6699" x="817.17" y="876.7961">DutyCycleEngine</text><line style="stroke:#000000;stroke-width:1;" x1="793.17" x2="938.8399" y1="885.9494" y2="885.9494"/><text fill="#000000" font-family="Verdana" font-size="14" lengthAdjust="spacing" textLength="109.5527" x="798.17" y="902.9445">float Frequency</text><text fill="#000000" font-family="Verdana" font-size="14" lengthAdjust="spacing" textLength="107.5908" x="798.17" y="919.2414">float DutyCycle</text><text fill="#000000" font-family="Verdana" font-size="14" lengthAdjust="spacing" textLength="100.8232" x="798.17" y="935.5382">bool StateFlag</text><text fill="#000000" font-family="Verdana" font-size="14" lengthAdjust="spacing" textLength="103.7764" x="798.17" y="951.8351">bool IsRunning</text><line style="stroke:#000000;stroke-width:1;" x1="793.17" x2="938.8399" y1="959.1369" y2="959.1369"/><text fill="#000000" font-family="Verdana" font-size="14" lengthAdjust="spacing" textLength="117.4619" x="798.17" y="976.132">void StartCycle()</text><text fill="#000000" font-family="Verdana" font-size="14" lengthAdjust="spacing" textLength="115.0898" x="798.17" y="992.4289">void StopCycle()</text></g><!--class ColourToggleStimulusPresenter--><g class="entity" data-qualified-name="Stimulus.ColourToggleStimulusPresenter" data-source-line="102" id="ent0014"><rect fill="#FFFFFF" height="44" rx="2.5" ry="2.5" style="stroke:#000000;stroke-width:1;" width="249.1016" x="517.45" y="599.2794"/><ellipse cx="530.45" cy="613.2794" fill="#FFFFFF" rx="9" ry="9" style="stroke:#000000;stroke-width:1;"/><path d="M533.4188,618.92 Q532.8406,619.2169 532.2,619.3575 Q531.5594,619.5138 530.8563,619.5138 Q528.3563,619.5138 527.0281,617.8731 Q525.7156,616.2169 525.7156,613.0919 Q525.7156,609.9669 527.0281,608.3106 Q528.3563,606.6544 530.8563,606.6544 Q531.5594,606.6544 532.2,606.8106 Q532.8563,606.9669 533.4188,607.2638 L533.4188,609.9825 Q532.7938,609.4044 532.2,609.1388 Q531.6063,608.8575 530.9813,608.8575 Q529.6375,608.8575 528.95,609.9356 Q528.2625,610.9981 528.2625,613.0919 Q528.2625,615.1856 528.95,616.2638 Q529.6375,617.3263 530.9813,617.3263 Q531.6063,617.3263 532.2,617.0606 Q532.7938,616.7794 533.4188,616.2013 L533.4188,618.92 Z " fill="#000000"/><text fill="#000000" font-family="Verdana" font-size="14" lengthAdjust="spacing" textLength="221.1016" x="542.45" y="618.1261">ColourToggleStimulusPresenter</text><line style="stroke:#000000;stroke-width:1;" x1="518.45" x2="765.5516" y1="627.2794" y2="627.2794"/><line style="stroke:#000000;stroke-width:1;" x1="518.45" x2="765.5516" y1="635.2794" y2="635.2794"/></g><!--class FrequencyStimulusPresenter--><g class="entity" data-qualified-name="Stimulus.FrequencyStimulusPresenter" data-source-line="105" id="ent0017"><rect fill="#FFFFFF" height="44" rx="2.5" ry="2.5" style="stroke:#000000;stroke-width:1;" width="229.9336" x="527.03" y="906.8394"/><ellipse cx="540.03" cy="920.8394" fill="#FFFFFF" rx="9" ry="9" style="stroke:#000000;stroke-width:1;"/><path d="M542.9988,926.48 Q542.4206,926.7769 541.78,926.9175 Q541.1394,927.0738 540.4363,927.0738 Q537.9363,927.0738 536.6081,925.4331 Q535.2956,923.7769 535.2956,920.6519 Q535.2956,917.5269 536.6081,915.8706 Q537.9363,914.2144 540.4363,914.2144 Q541.1394,914.2144 541.78,914.3706 Q542.4363,914.5269 542.9988,914.8238 L542.9988,917.5425 Q542.3738,916.9644 541.78,916.6988 Q541.1863,916.4175 540.5613,916.4175 Q539.2175,916.4175 538.53,917.4956 Q537.8425,918.5581 537.8425,920.6519 Q537.8425,922.7456 538.53,923.8238 Q539.2175,924.8863 540.5613,924.8863 Q541.1863,924.8863 541.78,924.6206 Q542.3738,924.3394 542.9988,923.7613 L542.9988,926.48 Z " fill="#000000"/><text fill="#000000" font-family="Verdana" font-size="14" lengthAdjust="spacing" textLength="201.9336" x="552.03" y="925.6861">FrequencyStimulusPresenter</text><line style="stroke:#000000;stroke-width:1;" x1="528.03" x2="755.9636" y1="934.8394" y2="934.8394"/><line style="stroke:#000000;stroke-width:1;" x1="528.03" x2="755.9636" y1="942.8394" y2="942.8394"/></g><!--reverse link StimulusPresenterCollection to DynamicStimulusPresenterCollection--><g class="link" data-entity-1="ent0003" data-entity-2="ent0004" data-link-type="extension" data-source-line="27" id="lnk5"><path d="M270.458,402.2944 C266.668,455.7944 263.78,496.4494 260.56,541.8694" fill="none" id="StimulusPresenterCollection-backto-DynamicStimulusPresenterCollection" style="stroke:#000000;stroke-width:1;"/><polygon fill="none" points="271.73,384.3394,264.473,401.8704,276.443,402.7184,271.73,384.3394" style="stroke:#000000;stroke-width:1;"/></g><!--reverse link StimulusPresenterCollection to StimulusPresenter--><g class="link" data-entity-1="ent0003" data-entity-2="ent0006" data-link-type="aggregation" data-source-line="36" id="lnk7"><path codeLine="36" d="M482.9608,173.5785 C609.4708,183.8285 741.41,210.9694 835.64,227.9094" fill="none" id="StimulusPresenterCollection-backto-StimulusPresenter" style="stroke:#000000;stroke-width:1;"/><polygon fill="none" points="471,172.6094,476.6574,177.0809,482.9608,173.5785,477.3034,169.107,471,172.6094" style="stroke:#000000;stroke-width:1;"/></g><!--reverse link StimulusPresenter to CoroutineStimulusPresenter--><g class="link" data-entity-1="ent0006" data-entity-2="ent0008" data-link-type="extension" data-source-line="51" id="lnk9"><path d="M1005.1039,324.0442 C1060.8439,395.2642 1135.18,490.2094 1188.48,558.2994" fill="none" id="StimulusPresenter-backto-CoroutineStimulusPresenter" style="stroke:#000000;stroke-width:1;"/><polygon fill="none" points="994.01,309.8694,1000.3789,327.7422,1009.8288,320.3463,994.01,309.8694" style="stroke:#000000;stroke-width:1;"/></g><!--reverse link StimulusPresenter to UnityEventStimulusPresenter--><g class="link" data-entity-1="ent0006" data-entity-2="ent0010" data-link-type="extension" data-source-line="59" id="lnk11"><path d="M1059.2195,276.2316 C1159.4795,309.3916 1296.08,362.8294 1412,444.6094 C1456.66,476.1094 1498.56,521.3694 1528.83,558.0594" fill="none" id="StimulusPresenter-backto-UnityEventStimulusPresenter" style="stroke:#000000;stroke-width:1;"/><polygon fill="none" points="1042.13,270.5794,1057.3355,281.9281,1061.1036,270.5351,1042.13,270.5794" style="stroke:#000000;stroke-width:1;"/></g><!--reverse link StimulusPresenter to ColourToggleStimulusPresenter--><g class="link" data-entity-1="ent0006" data-entity-2="ent0014" data-link-type="extension" data-source-line="102" id="lnk15"><path d="M873.107,324.0606 C804.217,412.3506 700.94,544.7294 658.51,599.1094" fill="none" id="StimulusPresenter-backto-ColourToggleStimulusPresenter" style="stroke:#000000;stroke-width:1;"/><polygon fill="none" points="884.18,309.8694,868.3767,320.3696,877.8374,327.7515,884.18,309.8694" style="stroke:#000000;stroke-width:1;"/></g><!--reverse link ColourToggleStimulusPresenter to ColourFlashDisplay--><g class="link" data-entity-1="ent0014" data-entity-2="ent0012" data-link-type="aggregation" data-source-line="103" id="lnk16"><path codeLine="103" d="M778.86,621.2794 C790.24,621.2794 789.63,621.2794 801.01,621.2794" fill="none" id="ColourToggleStimulusPresenter-backto-ColourFlashDisplay" style="stroke:#000000;stroke-width:1;"/><polygon fill="none" points="766.86,621.2794,772.86,625.2794,778.86,621.2794,772.86,617.2794,766.86,621.2794" style="stroke:#000000;stroke-width:1;"/></g><!--reverse link ColourToggleStimulusPresenter to FrequencyStimulusPresenter--><g class="link" data-entity-1="ent0014" data-entity-2="ent0017" data-link-type="extension" data-source-line="105" id="lnk18"><path d="M642,661.7594 C642,717.8694 642,850.2994 642,906.3794" fill="none" id="ColourToggleStimulusPresenter-backto-FrequencyStimulusPresenter" style="stroke:#000000;stroke-width:1;"/><polygon fill="none" points="642,643.7594,636,661.7594,648,661.7594,642,643.7594" style="stroke:#000000;stroke-width:1;"/></g><!--reverse link FrequencyStimulusPresenter to DutyCycleEngine--><g class="link" data-entity-1="ent0017" data-entity-2="ent0013" data-link-type="aggregation" data-source-line="106" id="lnk19"><path codeLine="106" d="M769.06,928.8394 C780.69,928.8394 780.33,928.8394 791.96,928.8394" fill="none" id="FrequencyStimulusPresenter-backto-DutyCycleEngine" style="stroke:#000000;stroke-width:1;"/><polygon fill="none" points="757.06,928.8394,763.06,932.8394,769.06,928.8394,763.06,924.8394,757.06,928.8394" style="stroke:#000000;stroke-width:1;"/></g><?plantuml-src fLPTRzCm57tFhp3Z0P1eVy24a4RMeKf3Ask1Xsb2RdARMdBjO3iJeVI_S_FbE4wQPI8lJNpF_V2vvzfzPVPm099ooaHWcE4Gh0qxP3pJ9EHKQz01Y9XKfa3G0-YKHa0iwXWGVA82QnTN2ZG80ogKd4Dac1GrhdXkcJOVUj2Fv9OQq6QTRJKO2vxFDIX6EVi3CTanuB6UpwtrzTbWFxM_fgtNR6PVUvx4x9b-OC8yFbllPp1hABP7jnpUlfk2_yuqUoduIiI3QPnTOBaab9beQNkIBCO60bMEHxbu5STlU_ayp3qSv1ECmRPISamf3Ef6Fnilb6c-aNtOm-FxelOMlLo8x02A6gaA1jglUXUdm57RTOvoPD6OwE2tGVLE5UOQwOhsNy3iPKnMCiquBH3rmf5iyXJ8NxAX2HPYdIA9gosw-ZxYEeW27UuPZnK8v_LkjwBuOvmesYWc4cBhAt8SBpw5oujJb_DxIAjKy6CFuck6mm6ntxq6Card_oVYghvWS9XQbYyl1mQIo5dV9mZUeBHdLQFf5ecXaHcOqsENbwLkjs4jnyR_L36pDbIP9jGrqtZivSwUVVW29syok4e_1YYIRwXAm2n5pA9IBUFPpw1F7ZcXL38pJ42VfRC3K4Ou3YLtP_0-4vCOEEDJ740YIwVvG2sLIUXfF3xZr2slSxPy4ypaYoUawWMSEdos_kJEft2ZM9A0SiPs38qoE8iiAJjdhNOxRaNH96s2KsVsAY9mX6McRl1zNnVKdxpIYf7i-ZtoWnjKziLQYd0AqrTX_UNTpbkVpqrP9zuIJTESst_79JN4xsfPpGhFHHbFGNRlpUBlHdCn3EQqCXrAqpLs8y-S-zevZ1gFGIdNE9bEWeqVB-s9XZY81p7EFajutV6cNNwqnjoqpRTlP99mg56O5o-aGZ5-uM1gzr85GnTzPl8mZpWiH8Add2F0ggyt2dvb8ABSMxT-NS6MbM274b_7U4G8LyR3BIiZ3ZN9DM3zlI6gw7Zf6JtkYpTeVqBTr9QRytb7CvIXHe9W0LvxWjC_?></g></svg>