<?plantuml 1.2026.2beta3?><svg xmlns="http://www.w3.org/2000/svg" xmlns:xlink="http://www.w3.org/1999/xlink" contentStyleType="text/css" data-diagram-type="CLASS" height="1189px" preserveAspectRatio="none" style="width:2529px;height:1189px;background:#FFFFFF;" version="1.1" viewBox="0 0 2529 1189" width="2529px" zoomAndPan="magnify"><title>Stimulus Classes</title><defs/><g><g class="title" data-source-line="2"><text fill="#000000" font-family="Verdana" font-size="22" font-weight="bold" lengthAdjust="spacing" textLength="209.1826" x="1155.4087" y="35.4209">Stimulus Classes</text></g><!--cluster Stimulus--><g class="cluster" data-qualified-name="Stimulus" data-source-line="6" id="ent0002"><path d="M13.5,57.6094 L83.7275,57.6094 A3.75,3.75 0 0 1 86.2275,60.1094 L93.2275,79.9063 L2519.5,79.9063 A2.5,2.5 0 0 1 2522,82.4063 L2522,1179.9394 A2.5,2.5 0 0 1 2519.5,1182.4394 L13.5,1182.4394 A2.5,2.5 0 0 1 11,1179.9394 L11,60.1094 A2.5,2.5 0 0 1 13.5,57.6094" fill="#FFFFFF" style="stroke:#000000;stroke-width:1;"/><line style="stroke:#000000;stroke-width:1;" x1="11" x2="93.2275" y1="79.9063" y2="79.9063"/><text fill="#000000" font-family="Verdana" font-size="14" font-weight="bold" lengthAdjust="spacing" textLength="69.2275" x="15" y="72.6045">Stimulus</text></g><!--cluster Collections--><g class="cluster" data-qualified-name="Stimulus.Collections" data-source-line="7" id="ent0003"><path d="M37.5,100.6094 L125.1934,100.6094 A3.75,3.75 0 0 1 127.6934,103.1094 L134.6934,122.9063 L1090.5,122.9063 A2.5,2.5 0 0 1 1093,125.4063 L1093,869.9694 A2.5,2.5 0 0 1 1090.5,872.4694 L37.5,872.4694 A2.5,2.5 0 0 1 35,869.9694 L35,103.1094 A2.5,2.5 0 0 1 37.5,100.6094" fill="#FFFFFF" style="stroke:#000000;stroke-width:1;"/><line style="stroke:#000000;stroke-width:1;" x1="35" x2="134.6934" y1="122.9063" y2="122.9063"/><text fill="#000000" font-family="Verdana" font-size="14" font-weight="bold" lengthAdjust="spacing" textLength="86.6934" x="39" y="115.6045">Collections</text></g><!--cluster Presentation--><g class="cluster" data-qualified-name="Stimulus.Presentation" data-source-line="45" id="ent0013"><path d="M1119.5,172.1094 L1222.1709,172.1094 A3.75,3.75 0 0 1 1224.6709,174.6094 L1231.6709,194.4063 L2495.5,194.4063 A2.5,2.5 0 0 1 2498,196.9063 L2498,1155.9394 A2.5,2.5 0 0 1 2495.5,1158.4394 L1119.5,1158.4394 A2.5,2.5 0 0 1 1117,1155.9394 L1117,174.6094 A2.5,2.5 0 0 1 1119.5,172.1094" fill="#FFFFFF" style="stroke:#000000;stroke-width:1;"/><line style="stroke:#000000;stroke-width:1;" x1="1117" x2="1231.6709" y1="194.4063" y2="194.4063"/><text fill="#000000" font-family="Verdana" font-size="14" font-weight="bold" lengthAdjust="spacing" textLength="101.6709" x="1121" y="187.1045">Presentation</text></g><!--cluster Standard--><g class="cluster" data-qualified-name="Stimulus.Presentation.Standard" data-source-line="72" id="ent0019"><path d="M1794.5,493.3494 L1868.084,493.3494 A3.75,3.75 0 0 1 1870.584,495.8494 L1877.584,515.6462 L2471.5,515.6462 A2.5,2.5 0 0 1 2474,518.1462 L2474,1131.9394 A2.5,2.5 0 0 1 2471.5,1134.4394 L1794.5,1134.4394 A2.5,2.5 0 0 1 1792,1131.9394 L1792,495.8494 A2.5,2.5 0 0 1 1794.5,493.3494" fill="#FFFFFF" style="stroke:#000000;stroke-width:1;"/><line style="stroke:#000000;stroke-width:1;" x1="1792" x2="1877.584" y1="515.6462" y2="515.6462"/><text fill="#000000" font-family="Verdana" font-size="14" font-weight="bold" lengthAdjust="spacing" textLength="72.584" x="1796" y="508.3445">Standard</text></g><!--class StimulusPresenterCollection--><g class="entity" data-qualified-name="Stimulus.Collections.StimulusPresenterCollection" data-source-line="8" id="ent0004"><rect fill="#FFFFFF" height="284.1563" rx="2.5" ry="2.5" style="stroke:#000000;stroke-width:1;" width="467.1436" x="601.5" y="139.6094"/><ellipse cx="732.5562" cy="153.6094" fill="#FFFFFF" rx="9" ry="9" style="stroke:#000000;stroke-width:1;"/><path d="M735.5249,159.25 Q734.9468,159.5469 734.3062,159.6875 Q733.6655,159.8438 732.9624,159.8438 Q730.4624,159.8438 729.1343,158.2031 Q727.8218,156.5469 727.8218,153.4219 Q727.8218,150.2969 729.1343,148.6406 Q730.4624,146.9844 732.9624,146.9844 Q733.6655,146.9844 734.3062,147.1406 Q734.9624,147.2969 735.5249,147.5938 L735.5249,150.3125 Q734.8999,149.7344 734.3062,149.4688 Q733.7124,149.1875 733.0874,149.1875 Q731.7437,149.1875 731.0562,150.2656 Q730.3687,151.3281 730.3687,153.4219 Q730.3687,155.5156 731.0562,156.5938 Q731.7437,157.6563 733.0874,157.6563 Q733.7124,157.6563 734.3062,157.3906 Q734.8999,157.1094 735.5249,156.5313 L735.5249,159.25 Z " fill="#000000"/><text fill="#000000" font-family="Verdana" font-size="14" lengthAdjust="spacing" textLength="197.5313" x="750.0562" y="158.4561">StimulusPresenterCollection</text><line style="stroke:#000000;stroke-width:1;" x1="602.5" x2="1067.6436" y1="167.6094" y2="167.6094"/><text fill="#000000" font-family="Verdana" font-size="14" lengthAdjust="spacing" textLength="364.041" x="607.5" y="184.6045">List&lt;StimulusPresentationBehaviour&gt; LatestSubset</text><g data-visibility-modifier="PROTECTED_FIELD"><polygon fill="none" points="612.5,212.8516,616.5,216.8516,612.5,220.8516,608.5,216.8516" style="stroke:#000000;stroke-width:1;"/></g><text fill="#000000" font-family="Verdana" font-size="14" lengthAdjust="spacing" textLength="413.7178" x="619.5" y="221.1982">List&lt;StimulusPresentationBehaviour&gt; _stimulusPresenters</text><line style="stroke:#000000;stroke-width:1;stroke-dasharray:1,2;" x1="602.5" x2="780.7158" y1="200.0547" y2="200.0547"/><text fill="#000000" font-family="Verdana" font-size="14" lengthAdjust="spacing" textLength="108.7119" x="780.7158" y="204.4014">serialized fields</text><line style="stroke:#000000;stroke-width:1;stroke-dasharray:1,2;" x1="889.4277" x2="1067.6436" y1="200.0547" y2="200.0547"/><line style="stroke:#000000;stroke-width:1;" x1="602.5" x2="1067.6436" y1="228.5" y2="228.5"/><text fill="#000000" font-family="Verdana" font-size="14" lengthAdjust="spacing" textLength="279.5215" x="607.5" y="245.4951">StimulusPresentationBehaviour this[int]</text><text fill="#000000" font-family="Verdana" font-size="14" lengthAdjust="spacing" textLength="381.7666" x="607.5" y="261.792">List&lt;StimulusPresentationBehaviour&gt; GetSelectable()</text><text fill="#000000" font-family="Verdana" font-size="14" lengthAdjust="spacing" textLength="354.6484" x="607.5" y="278.0889">List&lt;StimulusPresentationBehaviour&gt; GetVisible()</text><text fill="#000000" font-family="Verdana" font-size="14" lengthAdjust="spacing" textLength="455.1436" x="607.5" y="294.3857">List&lt;StimulusPresentationBehaviour&gt; GetVisibleAndSelectable()</text><line style="stroke:#000000;stroke-width:1;" x1="602.5" x2="1067.6436" y1="301.6875" y2="301.6875"/><text fill="#000000" font-family="Verdana" font-size="14" lengthAdjust="spacing" textLength="64.2783" x="607.5" y="318.6826">int Count</text><text fill="#000000" font-family="Verdana" font-size="14" lengthAdjust="spacing" textLength="81.6143" x="607.5" y="334.9795">void Clear()</text><text fill="#000000" font-family="Verdana" font-size="14" lengthAdjust="spacing" textLength="292.7012" x="607.5" y="351.2764">void Add(StimulusPresentationBehaviour)</text><text fill="#000000" font-family="Verdana" font-size="14" lengthAdjust="spacing" textLength="322.793" x="607.5" y="367.5732">void Remove(StimulusPresentationBehaviour)</text><text fill="#000000" font-family="Verdana" font-size="14" lengthAdjust="spacing" textLength="326.9697" x="607.5" y="383.8701">bool Contains(StimulusPresentationBehaviour)</text><text fill="#000000" font-family="Verdana" font-size="14" lengthAdjust="spacing" textLength="356.0566" x="607.5" y="400.167">void CopyTo(StimulusPresentationBehaviour[], int)</text><text fill="#000000" font-family="Verdana" font-size="14" lengthAdjust="spacing" textLength="210.4307" x="607.5" y="416.4639">IEnumerator GetEnumerator()</text></g><!--class DynamicStimulusPresenterCollection--><g class="entity" data-qualified-name="Stimulus.Collections.DynamicStimulusPresenterCollection" data-source-line="27" id="ent0005"><rect fill="#FFFFFF" height="141.7813" rx="2.5" ry="2.5" style="stroke:#000000;stroke-width:1;" width="455.7002" x="51.15" y="487.6094"/><ellipse cx="145.6134" cy="501.6094" fill="#FFFFFF" rx="9" ry="9" style="stroke:#000000;stroke-width:1;"/><path d="M148.5821,507.25 Q148.004,507.5469 147.3634,507.6875 Q146.7228,507.8437 146.0196,507.8437 Q143.5196,507.8437 142.1915,506.2031 Q140.879,504.5469 140.879,501.4219 Q140.879,498.2969 142.1915,496.6406 Q143.5196,494.9844 146.0196,494.9844 Q146.7228,494.9844 147.3634,495.1406 Q148.0196,495.2969 148.5821,495.5937 L148.5821,498.3125 Q147.9571,497.7344 147.3634,497.4687 Q146.7696,497.1875 146.1446,497.1875 Q144.8009,497.1875 144.1134,498.2656 Q143.4259,499.3281 143.4259,501.4219 Q143.4259,503.5156 144.1134,504.5937 Q144.8009,505.6562 146.1446,505.6562 Q146.7696,505.6562 147.3634,505.3906 Q147.9571,505.1094 148.5821,504.5312 L148.5821,507.25 Z " fill="#000000"/><text fill="#000000" font-family="Verdana" font-size="14" lengthAdjust="spacing" textLength="259.2734" x="163.1134" y="506.4561">DynamicStimulusPresenterCollection</text><line style="stroke:#000000;stroke-width:1;" x1="52.15" x2="505.8502" y1="515.6094" y2="515.6094"/><text fill="#000000" font-family="Verdana" font-size="14" lengthAdjust="spacing" textLength="337.0596" x="57.15" y="532.6045">SearchMethod PopulationMethod { Type | Tag }</text><text fill="#000000" font-family="Verdana" font-size="14" lengthAdjust="spacing" textLength="443.7002" x="57.15" y="548.9014">Scope PopulationScope { Scene | Children | ChildrenOfParent }</text><text fill="#000000" font-family="Verdana" font-size="14" lengthAdjust="spacing" textLength="196.7588" x="57.15" y="565.1982">string PresenterTag {"BCI"}</text><line style="stroke:#000000;stroke-width:1;" x1="52.15" x2="505.8502" y1="572.5" y2="572.5"/><text fill="#000000" font-family="Verdana" font-size="14" lengthAdjust="spacing" textLength="125.125" x="57.15" y="589.4951">void Repopulate()</text><text fill="#000000" font-family="Verdana" font-size="14" lengthAdjust="spacing" textLength="381.7666" x="57.15" y="605.792">List&lt;StimulusPresentationBehaviour&gt; GetSelectable()</text><text fill="#000000" font-family="Verdana" font-size="14" lengthAdjust="spacing" textLength="354.6484" x="57.15" y="622.0889">List&lt;StimulusPresentationBehaviour&gt; GetVisible()</text></g><!--entity list_ext--><g class="entity" data-qualified-name="Stimulus.Collections.list_ext" data-source-line="36" id="ent0007"><ellipse cx="638" cy="558.4994" fill="#FFFFFF" rx="8" ry="8" style="stroke:#000000;stroke-width:1;"/><text fill="#000000" font-family="Verdana" font-size="14" lengthAdjust="spacing" textLength="176.8457" x="549.5771" y="588.4945">Presenter List Extensions</text></g><!--entity search_ext--><g class="entity" data-qualified-name="Stimulus.Collections.search_ext" data-source-line="37" id="ent0008"><ellipse cx="279" cy="827.4694" fill="#FFFFFF" rx="8" ry="8" style="stroke:#000000;stroke-width:1;"/><text fill="#000000" font-family="Verdana" font-size="14" lengthAdjust="spacing" textLength="200.7783" x="178.6108" y="857.4645">Presenter Search Extensions</text></g><!--entity enumerator--><g class="entity" data-qualified-name="Stimulus.Collections.enumerator" data-source-line="38" id="ent0009"><ellipse cx="923" cy="558.4994" fill="#FFFFFF" rx="8" ry="8" style="stroke:#000000;stroke-width:1;"/><text fill="#000000" font-family="Verdana" font-size="14" lengthAdjust="spacing" textLength="293.8701" x="776.0649" y="588.4945">Stimulus Presenter Collection Enumerator</text></g><!--class StimulusPresentationBehaviour--><g class="entity" data-qualified-name="Stimulus.Presentation.StimulusPresentationBehaviour" data-source-line="46" id="ent0014"><rect fill="#FFFFFF" height="141.7813" rx="2.5" ry="2.5" style="stroke:#000000;stroke-width:1;" width="248.3496" x="1153" y="211.1094"/><ellipse cx="1166" cy="225.1094" fill="#FFFFFF" rx="9" ry="9" style="stroke:#000000;stroke-width:1;"/><path d="M1166.1094,220.4531 L1164.9531,225.5312 L1167.2813,225.5312 L1166.1094,220.4531 Z M1164.625,218.2187 L1167.6094,218.2187 L1170.9688,230.6094 L1168.5156,230.6094 L1167.75,227.5469 L1164.4688,227.5469 L1163.7188,230.6094 L1161.2813,230.6094 L1164.625,218.2187 Z " fill="#000000"/><text fill="#000000" font-family="Verdana" font-size="14" font-style="italic" lengthAdjust="spacing" textLength="220.3496" x="1178" y="229.9561">StimulusPresentationBehaviour</text><line style="stroke:#000000;stroke-width:1;" x1="1154" x2="1400.3496" y1="239.1094" y2="239.1094"/><text fill="#000000" font-family="Verdana" font-size="14" lengthAdjust="spacing" textLength="118.9385" x="1159" y="256.1045">bool IsSelectable</text><line style="stroke:#000000;stroke-width:1;" x1="1154" x2="1400.3496" y1="263.4062" y2="263.4062"/><text fill="#000000" font-family="Verdana" font-size="14" font-style="italic" lengthAdjust="spacing" textLength="191.6387" x="1159" y="280.4014">void StartStimulusDisplay()</text><text fill="#000000" font-family="Verdana" font-size="14" font-style="italic" lengthAdjust="spacing" textLength="184.0439" x="1159" y="296.6982">void EndStimulusDisplay()</text><text fill="#000000" font-family="Verdana" font-size="14" font-style="italic" lengthAdjust="spacing" textLength="88.1904" x="1159" y="312.9951">void Select()</text><text fill="#000000" font-family="Verdana" font-size="14" font-style="italic" lengthAdjust="spacing" textLength="193.9492" x="1159" y="329.292">void StartTargetIndication()</text><text fill="#000000" font-family="Verdana" font-size="14" font-style="italic" lengthAdjust="spacing" textLength="186.3545" x="1159" y="345.5889">void EndTargetIndication()</text></g><!--class CoroutineStimulusPresenter--><g class="entity" data-qualified-name="Stimulus.Presentation.CoroutineStimulusPresenter" data-source-line="55" id="ent0015"><rect fill="#FFFFFF" height="125.4844" rx="2.5" ry="2.5" style="stroke:#000000;stroke-width:1;" width="314.2031" x="1132.9" y="495.7594"/><ellipse cx="1187.9098" cy="509.7594" fill="#FFFFFF" rx="9" ry="9" style="stroke:#000000;stroke-width:1;"/><path d="M1188.0191,505.1031 L1186.8629,510.1813 L1189.191,510.1813 L1188.0191,505.1031 Z M1186.5348,502.8688 L1189.5191,502.8688 L1192.8785,515.2594 L1190.4254,515.2594 L1189.6598,512.1969 L1186.3785,512.1969 L1185.6285,515.2594 L1183.191,515.2594 L1186.5348,502.8688 Z " fill="#000000"/><text fill="#000000" font-family="Verdana" font-size="14" font-style="italic" lengthAdjust="spacing" textLength="196.6836" x="1205.4098" y="514.6061">CoroutineStimulusPresenter</text><line style="stroke:#000000;stroke-width:1;" x1="1133.9" x2="1446.1031" y1="523.7594" y2="523.7594"/><line style="stroke:#000000;stroke-width:1;" x1="1133.9" x2="1446.1031" y1="531.7594" y2="531.7594"/><text fill="#000000" font-family="Verdana" font-size="14" font-style="italic" lengthAdjust="spacing" textLength="242.4023" x="1138.9" y="548.7545">IEnumerator RunStimulusDisplay()</text><text fill="#000000" font-family="Verdana" font-size="14" font-style="italic" lengthAdjust="spacing" textLength="248.2881" x="1138.9" y="565.0514">IEnumerator RunStimulusCleanup()</text><text fill="#000000" font-family="Verdana" font-size="14" font-style="italic" lengthAdjust="spacing" textLength="194.4824" x="1138.9" y="581.3482">IEnumerator RunSelection()</text><text fill="#000000" font-family="Verdana" font-size="14" font-style="italic" lengthAdjust="spacing" textLength="244.7129" x="1138.9" y="597.6451">IEnumerator RunTargetIndication()</text><text fill="#000000" font-family="Verdana" font-size="14" font-style="italic" lengthAdjust="spacing" textLength="302.2031" x="1138.9" y="613.942">IEnumerator RunTargetIndicationCleanup()</text></g><!--class UnityEventStimulusPresenter--><g class="entity" data-qualified-name="Stimulus.Presentation.UnityEventStimulusPresenter" data-source-line="64" id="ent0017"><rect fill="#FFFFFF" height="125.4844" rx="2.5" ry="2.5" style="stroke:#000000;stroke-width:1;" width="293.5107" x="1482.24" y="495.7594"/><ellipse cx="1522.6585" cy="509.7594" fill="#FFFFFF" rx="9" ry="9" style="stroke:#000000;stroke-width:1;"/><path d="M1525.6272,515.4 Q1525.0491,515.6969 1524.4085,515.8375 Q1523.7678,515.9938 1523.0647,515.9938 Q1520.5647,515.9938 1519.2366,514.3531 Q1517.9241,512.6969 1517.9241,509.5719 Q1517.9241,506.4469 1519.2366,504.7906 Q1520.5647,503.1344 1523.0647,503.1344 Q1523.7678,503.1344 1524.4085,503.2906 Q1525.0647,503.4469 1525.6272,503.7438 L1525.6272,506.4625 Q1525.0022,505.8844 1524.4085,505.6188 Q1523.8147,505.3375 1523.1897,505.3375 Q1521.846,505.3375 1521.1585,506.4156 Q1520.471,507.4781 1520.471,509.5719 Q1520.471,511.6656 1521.1585,512.7438 Q1521.846,513.8063 1523.1897,513.8063 Q1523.8147,513.8063 1524.4085,513.5406 Q1525.0022,513.2594 1525.6272,512.6813 L1525.6272,515.4 Z " fill="#000000"/><text fill="#000000" font-family="Verdana" font-size="14" lengthAdjust="spacing" textLength="205.1738" x="1540.1585" y="514.6061">UnityEventStimulusPresenter</text><line style="stroke:#000000;stroke-width:1;" x1="1483.24" x2="1774.7507" y1="523.7594" y2="523.7594"/><text fill="#000000" font-family="Verdana" font-size="14" lengthAdjust="spacing" textLength="281.5107" x="1488.24" y="540.7545">UnityEvent OnStimulusDisplayTriggered</text><text fill="#000000" font-family="Verdana" font-size="14" lengthAdjust="spacing" textLength="257.7764" x="1488.24" y="557.0514">UnityEvent OnStimulusDisplayEnded</text><text fill="#000000" font-family="Verdana" font-size="14" lengthAdjust="spacing" textLength="161.9229" x="1488.24" y="573.3482">UnityEvent OnSelected</text><text fill="#000000" font-family="Verdana" font-size="14" lengthAdjust="spacing" textLength="164.6094" x="1488.24" y="589.6451">UnityEvent OnTargeted</text><text fill="#000000" font-family="Verdana" font-size="14" lengthAdjust="spacing" textLength="218.3535" x="1488.24" y="605.942">UnityEvent OnTargettingEnded</text><line style="stroke:#000000;stroke-width:1;" x1="1483.24" x2="1774.7507" y1="613.2438" y2="613.2438"/></g><!--class ColourFlashBehaviour--><g class="entity" data-qualified-name="Stimulus.Presentation.Standard.ColourFlashBehaviour" data-source-line="73" id="ent0020"><rect fill="#FFFFFF" height="276.1563" rx="2.5" ry="2.5" style="stroke:#000000;stroke-width:1;" width="243.4922" x="1810.25" y="689.3894"/><ellipse cx="1851.6699" cy="703.3894" fill="#FFFFFF" rx="9" ry="9" style="stroke:#000000;stroke-width:1;"/><path d="M1854.6387,709.03 Q1854.0605,709.3269 1853.4199,709.4675 Q1852.7793,709.6238 1852.0762,709.6238 Q1849.5762,709.6238 1848.248,707.9831 Q1846.9355,706.3269 1846.9355,703.2019 Q1846.9355,700.0769 1848.248,698.4206 Q1849.5762,696.7644 1852.0762,696.7644 Q1852.7793,696.7644 1853.4199,696.9206 Q1854.0762,697.0769 1854.6387,697.3738 L1854.6387,700.0925 Q1854.0137,699.5144 1853.4199,699.2488 Q1852.8262,698.9675 1852.2012,698.9675 Q1850.8574,698.9675 1850.1699,700.0456 Q1849.4824,701.1081 1849.4824,703.2019 Q1849.4824,705.2956 1850.1699,706.3738 Q1850.8574,707.4363 1852.2012,707.4363 Q1852.8262,707.4363 1853.4199,707.1706 Q1854.0137,706.8894 1854.6387,706.3113 L1854.6387,709.03 Z " fill="#000000"/><text fill="#000000" font-family="Verdana" font-size="14" lengthAdjust="spacing" textLength="153.1523" x="1869.1699" y="708.2361">ColourFlashBehaviour</text><line style="stroke:#000000;stroke-width:1;" x1="1811.25" x2="2052.7422" y1="717.3894" y2="717.3894"/><text fill="#000000" font-family="Verdana" font-size="14" lengthAdjust="spacing" textLength="104.1182" x="1816.25" y="734.3845">bool IsFlashing</text><text fill="#000000" font-family="Verdana" font-size="14" lengthAdjust="spacing" textLength="106.3193" x="1816.25" y="750.6814">Color OnColour</text><text fill="#000000" font-family="Verdana" font-size="14" lengthAdjust="spacing" textLength="107.3037" x="1816.25" y="766.9782">Color OffColour</text><text fill="#000000" font-family="Verdana" font-size="14" lengthAdjust="spacing" textLength="231.4922" x="1816.25" y="783.2751">float TargetIndicationFlashPeriod</text><text fill="#000000" font-family="Verdana" font-size="14" lengthAdjust="spacing" textLength="228.915" x="1816.25" y="799.572">float TargetIndicationFlashCount</text><text fill="#000000" font-family="Verdana" font-size="14" lengthAdjust="spacing" textLength="145.3594" x="1816.25" y="815.8689">SelectionFlashPeriod</text><text fill="#000000" font-family="Verdana" font-size="14" lengthAdjust="spacing" textLength="142.7822" x="1816.25" y="832.1657">SelectionFlashCount</text><g data-visibility-modifier="PRIVATE_FIELD"><rect fill="none" height="6" style="stroke:#000000;stroke-width:1;" width="6" x="1818.25" y="862.4128"/></g><text fill="#000000" font-family="Verdana" font-size="14" lengthAdjust="spacing" textLength="137.1563" x="1828.25" y="868.7595">Renderer _renderer</text><line style="stroke:#000000;stroke-width:1;stroke-dasharray:1,2;" x1="1811.25" x2="1877.6401" y1="847.6159" y2="847.6159"/><text fill="#000000" font-family="Verdana" font-size="14" lengthAdjust="spacing" textLength="108.7119" x="1877.6401" y="851.9626">serialized fields</text><line style="stroke:#000000;stroke-width:1;stroke-dasharray:1,2;" x1="1986.3521" x2="2052.7422" y1="847.6159" y2="847.6159"/><line style="stroke:#000000;stroke-width:1;" x1="1811.25" x2="2052.7422" y1="876.0613" y2="876.0613"/><text fill="#000000" font-family="Verdana" font-size="14" lengthAdjust="spacing" textLength="212.5908" x="1816.25" y="893.0564">void StartSelectionIndication()</text><text fill="#000000" font-family="Verdana" font-size="14" lengthAdjust="spacing" textLength="210.2188" x="1816.25" y="909.3532">void StopSelectionIndication()</text><text fill="#000000" font-family="Verdana" font-size="14" lengthAdjust="spacing" textLength="193.9492" x="1816.25" y="925.6501">void StartTargetIndication()</text><text fill="#000000" font-family="Verdana" font-size="14" lengthAdjust="spacing" textLength="192.1787" x="1816.25" y="941.947">void EndStartedIndication()</text><text fill="#000000" font-family="Verdana" font-size="14" lengthAdjust="spacing" textLength="149.9668" x="1816.25" y="958.2439">void SetColour(Color)</text></g><!--class ColourToggleStimulusPresenter--><g class="entity" data-qualified-name="Stimulus.Presentation.Standard.ColourToggleStimulusPresenter" data-source-line="91" id="ent0021"><rect fill="#FFFFFF" height="60.2969" rx="2.5" ry="2.5" style="stroke:#000000;stroke-width:1;" width="249.1016" x="1810.45" y="528.3494"/><ellipse cx="1823.45" cy="542.3494" fill="#FFFFFF" rx="9" ry="9" style="stroke:#000000;stroke-width:1;"/><path d="M1826.4188,547.99 Q1825.8406,548.2869 1825.2,548.4275 Q1824.5594,548.5837 1823.8563,548.5837 Q1821.3563,548.5837 1820.0281,546.9431 Q1818.7156,545.2869 1818.7156,542.1619 Q1818.7156,539.0369 1820.0281,537.3806 Q1821.3563,535.7244 1823.8563,535.7244 Q1824.5594,535.7244 1825.2,535.8806 Q1825.8563,536.0369 1826.4188,536.3337 L1826.4188,539.0525 Q1825.7938,538.4744 1825.2,538.2087 Q1824.6063,537.9275 1823.9813,537.9275 Q1822.6375,537.9275 1821.95,539.0056 Q1821.2625,540.0681 1821.2625,542.1619 Q1821.2625,544.2556 1821.95,545.3337 Q1822.6375,546.3962 1823.9813,546.3962 Q1824.6063,546.3962 1825.2,546.1306 Q1825.7938,545.8494 1826.4188,545.2712 L1826.4188,547.99 Z " fill="#000000"/><text fill="#000000" font-family="Verdana" font-size="14" lengthAdjust="spacing" textLength="221.1016" x="1835.45" y="547.1961">ColourToggleStimulusPresenter</text><line style="stroke:#000000;stroke-width:1;" x1="1811.45" x2="2058.5516" y1="556.3494" y2="556.3494"/><line style="stroke:#000000;stroke-width:1;" x1="1811.45" x2="2058.5516" y1="564.3494" y2="564.3494"/><text fill="#000000" font-family="Verdana" font-size="14" lengthAdjust="spacing" textLength="232.5654" x="1816.45" y="581.3445">void ToggleRendererColour(bool)</text></g><!--class FrequencyStimulusPresenter--><g class="entity" data-qualified-name="Stimulus.Presentation.Standard.FrequencyStimulusPresenter" data-source-line="96" id="ent0024"><rect fill="#FFFFFF" height="44" rx="2.5" ry="2.5" style="stroke:#000000;stroke-width:1;" width="229.9336" x="2089.03" y="805.4694"/><ellipse cx="2102.03" cy="819.4694" fill="#FFFFFF" rx="9" ry="9" style="stroke:#000000;stroke-width:1;"/><path d="M2102.1394,814.8131 L2100.9831,819.8912 L2103.3113,819.8912 L2102.1394,814.8131 Z M2100.655,812.5787 L2103.6394,812.5787 L2106.9988,824.9694 L2104.5456,824.9694 L2103.78,821.9069 L2100.4988,821.9069 L2099.7488,824.9694 L2097.3113,824.9694 L2100.655,812.5787 Z " fill="#000000"/><text fill="#000000" font-family="Verdana" font-size="14" font-style="italic" lengthAdjust="spacing" textLength="201.9336" x="2114.03" y="824.3161">FrequencyStimulusPresenter</text><line style="stroke:#000000;stroke-width:1;" x1="2090.03" x2="2317.9636" y1="833.4694" y2="833.4694"/><line style="stroke:#000000;stroke-width:1;" x1="2090.03" x2="2317.9636" y1="841.4694" y2="841.4694"/></g><!--class TimeCycleFrequencyStimulusPresenter--><g class="entity" data-qualified-name="Stimulus.Presentation.Standard.TimeCycleFrequencyStimulusPresenter" data-source-line="98" id="ent0026"><rect fill="#FFFFFF" height="76.5938" rx="2.5" ry="2.5" style="stroke:#000000;stroke-width:1;" width="302.8867" x="1807.56" y="1033.6994"/><ellipse cx="1820.56" cy="1047.6994" fill="#FFFFFF" rx="9" ry="9" style="stroke:#000000;stroke-width:1;"/><path d="M1823.5288,1053.34 Q1822.9506,1053.6369 1822.31,1053.7775 Q1821.6694,1053.9338 1820.9663,1053.9338 Q1818.4663,1053.9338 1817.1381,1052.2931 Q1815.8256,1050.6369 1815.8256,1047.5119 Q1815.8256,1044.3869 1817.1381,1042.7306 Q1818.4663,1041.0744 1820.9663,1041.0744 Q1821.6694,1041.0744 1822.31,1041.2306 Q1822.9663,1041.3869 1823.5288,1041.6838 L1823.5288,1044.4025 Q1822.9038,1043.8244 1822.31,1043.5588 Q1821.7163,1043.2775 1821.0913,1043.2775 Q1819.7475,1043.2775 1819.06,1044.3556 Q1818.3725,1045.4181 1818.3725,1047.5119 Q1818.3725,1049.6056 1819.06,1050.6838 Q1819.7475,1051.7463 1821.0913,1051.7463 Q1821.7163,1051.7463 1822.31,1051.4806 Q1822.9038,1051.1994 1823.5288,1050.6213 L1823.5288,1053.34 Z " fill="#000000"/><text fill="#000000" font-family="Verdana" font-size="14" lengthAdjust="spacing" textLength="274.8867" x="1832.56" y="1052.5461">TimeCycleFrequencyStimulusPresenter</text><line style="stroke:#000000;stroke-width:1;" x1="1808.56" x2="2109.4467" y1="1061.6994" y2="1061.6994"/><text fill="#000000" font-family="Verdana" font-size="14" lengthAdjust="spacing" textLength="109.5527" x="1813.56" y="1078.6945">float Frequency</text><line style="stroke:#000000;stroke-width:1;" x1="1808.56" x2="2109.4467" y1="1085.9963" y2="1085.9963"/><text fill="#000000" font-family="Verdana" font-size="14" lengthAdjust="spacing" textLength="173.0928" x="1813.56" y="1102.9914">void SetFrequency(float)</text></g><!--class FrameCycleFrequencyStimulusPresenter--><g class="entity" data-qualified-name="Stimulus.Presentation.Standard.FrameCycleFrequencyStimulusPresenter" data-source-line="102" id="ent0028"><rect fill="#FFFFFF" height="92.8906" rx="2.5" ry="2.5" style="stroke:#000000;stroke-width:1;" width="312.833" x="2145.58" y="1025.5494"/><ellipse cx="2158.58" cy="1039.5494" fill="#FFFFFF" rx="9" ry="9" style="stroke:#000000;stroke-width:1;"/><path d="M2161.5488,1045.19 Q2160.9706,1045.4869 2160.33,1045.6275 Q2159.6894,1045.7838 2158.9863,1045.7838 Q2156.4863,1045.7838 2155.1581,1044.1431 Q2153.8456,1042.4869 2153.8456,1039.3619 Q2153.8456,1036.2369 2155.1581,1034.5806 Q2156.4863,1032.9244 2158.9863,1032.9244 Q2159.6894,1032.9244 2160.33,1033.0806 Q2160.9863,1033.2369 2161.5488,1033.5338 L2161.5488,1036.2525 Q2160.9238,1035.6744 2160.33,1035.4088 Q2159.7363,1035.1275 2159.1113,1035.1275 Q2157.7675,1035.1275 2157.08,1036.2056 Q2156.3925,1037.2681 2156.3925,1039.3619 Q2156.3925,1041.4556 2157.08,1042.5338 Q2157.7675,1043.5963 2159.1113,1043.5963 Q2159.7363,1043.5963 2160.33,1043.3306 Q2160.9238,1043.0494 2161.5488,1042.4713 L2161.5488,1045.19 Z " fill="#000000"/><text fill="#000000" font-family="Verdana" font-size="14" lengthAdjust="spacing" textLength="284.833" x="2170.58" y="1044.3961">FrameCycleFrequencyStimulusPresenter</text><line style="stroke:#000000;stroke-width:1;" x1="2146.58" x2="2457.413" y1="1053.5494" y2="1053.5494"/><text fill="#000000" font-family="Verdana" font-size="14" lengthAdjust="spacing" textLength="94.5273" x="2151.58" y="1070.5445">int FramesOn</text><text fill="#000000" font-family="Verdana" font-size="14" lengthAdjust="spacing" textLength="95.5117" x="2151.58" y="1086.8414">int FramesOff</text><line style="stroke:#000000;stroke-width:1;" x1="2146.58" x2="2457.413" y1="1094.1431" y2="1094.1431"/><text fill="#000000" font-family="Verdana" font-size="14" lengthAdjust="spacing" textLength="275.2217" x="2151.58" y="1111.1382">float CalculateNominalFrequency(float)</text></g><!--reverse link StimulusPresenterCollection to DynamicStimulusPresenterCollection--><g class="link" data-entity-1="ent0004" data-entity-2="ent0005" data-link-type="extension" data-source-line="28" id="lnk6"><path d="M577.4249,409.9579 C518.5149,439.0879 473.52,461.3294 420.98,487.3094" fill="none" id="StimulusPresenterCollection-backto-DynamicStimulusPresenterCollection" style="stroke:#000000;stroke-width:1;"/><polygon fill="none" points="593.56,401.9794,574.7653,404.5795,580.0844,415.3363,593.56,401.9794" style="stroke:#000000;stroke-width:1;"/></g><!--link StimulusPresenterCollection to list_ext--><g class="link" data-entity-1="ent0004" data-entity-2="ent0007" data-link-type="dependency" data-source-line="40" id="lnk10"><path codeLine="40" d="M731.31,427.2994 C693.86,479.5594 660.9051,525.5325 647.1951,544.6625" fill="none" id="StimulusPresenterCollection-to-list_ext" style="stroke:#000000;stroke-width:1;"/><polygon fill="#000000" points="643.7,549.5394,652.194,544.5541,646.6126,545.4753,645.6915,539.894,643.7,549.5394" style="stroke:#000000;stroke-width:1;"/></g><!--link StimulusPresenterCollection to enumerator--><g class="link" data-entity-1="ent0004" data-entity-2="ent0009" data-link-type="dependency" data-source-line="41" id="lnk11"><path codeLine="41" d="M881.32,427.2994 C898.05,479.5594 912.5018,524.6947 918.6218,543.8247" fill="none" id="StimulusPresenterCollection-to-enumerator" style="stroke:#000000;stroke-width:1;"/><polygon fill="#000000" points="920.45,549.5394,921.5175,539.7485,918.9265,544.7771,913.8979,542.1862,920.45,549.5394" style="stroke:#000000;stroke-width:1;"/></g><!--link DynamicStimulusPresenterCollection to search_ext--><g class="link" data-entity-1="ent0005" data-entity-2="ent0008" data-link-type="dependency" data-source-line="42" id="lnk12"><path codeLine="42" d="M279,629.6494 C279,696.6894 279,785.4994 279,812.8294" fill="none" id="DynamicStimulusPresenterCollection-to-search_ext" style="stroke:#000000;stroke-width:1;"/><polygon fill="#000000" points="279,818.8294,283,809.8294,279,813.8294,275,809.8294,279,818.8294" style="stroke:#000000;stroke-width:1;"/></g><!--reverse link StimulusPresentationBehaviour to CoroutineStimulusPresenter--><g class="link" data-entity-1="ent0014" data-entity-2="ent0015" data-link-type="extension" data-source-line="57" id="lnk16"><path d="M1281.3199,373.8993 C1283.3799,417.4793 1285.11,454.1594 1287.07,495.5694" fill="none" id="StimulusPresentationBehaviour-backto-CoroutineStimulusPresenter" style="stroke:#000000;stroke-width:1;"/><polygon fill="none" points="1280.47,355.9194,1275.3266,374.1826,1287.3132,373.616,1280.47,355.9194" style="stroke:#000000;stroke-width:1;"/></g><!--reverse link StimulusPresentationBehaviour to UnityEventStimulusPresenter--><g class="link" data-entity-1="ent0014" data-entity-2="ent0017" data-link-type="extension" data-source-line="65" id="lnk18"><path d="M1385.0564,366.9985 C1440.7564,410.4985 1496.42,453.9594 1549.41,495.3494" fill="none" id="StimulusPresentationBehaviour-backto-UnityEventStimulusPresenter" style="stroke:#000000;stroke-width:1;"/><polygon fill="none" points="1370.87,355.9194,1381.3633,371.7273,1388.7494,362.2697,1370.87,355.9194" style="stroke:#000000;stroke-width:1;"/></g><!--reverse link StimulusPresentationBehaviour to ColourToggleStimulusPresenter--><g class="link" data-entity-1="ent0014" data-entity-2="ent0021" data-link-type="extension" data-source-line="92" id="lnk22"><path d="M1425.784,333.1311 C1534.154,371.1711 1673.84,423.4594 1806,485.3494 C1833.07,498.0294 1862.22,514.1094 1885.95,527.8694" fill="none" id="StimulusPresentationBehaviour-backto-ColourToggleStimulusPresenter" style="stroke:#000000;stroke-width:1;"/><polygon fill="none" points="1408.8,327.1694,1423.7968,338.7925,1427.7713,327.4698,1408.8,327.1694" style="stroke:#000000;stroke-width:1;"/></g><!--link ColourToggleStimulusPresenter to ColourFlashBehaviour--><g class="link" data-entity-1="ent0021" data-entity-2="ent0020" data-link-type="dependency" data-source-line="94" id="lnk23"><path codeLine="94" d="M1934.67,589.0894 C1934.39,613.9394 1934.0382,645.3498 1933.6082,683.1698" fill="none" id="ColourToggleStimulusPresenter-to-ColourFlashBehaviour" style="stroke:#000000;stroke-width:1;"/><polygon fill="#000000" points="1933.54,689.1694,1937.6421,680.2154,1933.5968,684.1697,1929.6426,680.1245,1933.54,689.1694" style="stroke:#000000;stroke-width:1;"/></g><!--reverse link ColourToggleStimulusPresenter to FrequencyStimulusPresenter--><g class="link" data-entity-1="ent0021" data-entity-2="ent0024" data-link-type="extension" data-source-line="96" id="lnk25"><path d="M1979.7738,601.4193 C2007.5438,627.5293 2035.77,654.4394 2071,689.3894 C2111.72,729.7994 2158.14,778.1894 2183.97,805.3294" fill="none" id="ColourToggleStimulusPresenter-backto-FrequencyStimulusPresenter" style="stroke:#000000;stroke-width:1;"/><polygon fill="none" points="1966.66,589.0894,1975.6639,605.7906,1983.8838,597.048,1966.66,589.0894" style="stroke:#000000;stroke-width:1;"/></g><!--reverse link FrequencyStimulusPresenter to TimeCycleFrequencyStimulusPresenter--><g class="link" data-entity-1="ent0024" data-entity-2="ent0026" data-link-type="extension" data-source-line="99" id="lnk27"><path d="M2171.6254,862.7216 C2145.8554,889.9016 2111.87,925.2894 2071,965.5494 C2047.79,988.4094 2021.26,1013.4294 1999.86,1033.3594" fill="none" id="FrequencyStimulusPresenter-backto-TimeCycleFrequencyStimulusPresenter" style="stroke:#000000;stroke-width:1;"/><polygon fill="none" points="2184.01,849.6594,2167.2713,858.5934,2175.9795,866.8498,2184.01,849.6594" style="stroke:#000000;stroke-width:1;"/></g><!--reverse link FrequencyStimulusPresenter to FrameCycleFrequencyStimulusPresenter--><g class="link" data-entity-1="ent0024" data-entity-2="ent0028" data-link-type="extension" data-source-line="103" id="lnk29"><path d="M2219.2741,866.2582 C2235.0141,905.2082 2262.22,972.5394 2283.48,1025.1494" fill="none" id="FrequencyStimulusPresenter-backto-FrameCycleFrequencyStimulusPresenter" style="stroke:#000000;stroke-width:1;"/><polygon fill="none" points="2212.53,849.5694,2213.7111,868.5062,2224.837,864.0102,2212.53,849.5694" style="stroke:#000000;stroke-width:1;"/></g><!--link StimulusPresentationBehaviour to StimulusPresenterCollection--><g class="link" data-entity-1="ent0014" data-entity-2="ent0004" data-link-type="aggregation" data-source-line="110" id="lnk30"><path codeLine="110" d="M1145.25,226.5794 C1120.68,220.0294 1106.88,215.6094 1082,215.6094" fill="none" id="StimulusPresentationBehaviour-to-StimulusPresenterCollection" style="stroke:#000000;stroke-width:1;"/><polygon fill="none" points="1070,215.6094,1076,219.6094,1082,215.6094,1076,211.6094,1070,215.6094" style="stroke:#000000;stroke-width:1;"/></g><!--link StimulusPresenterCollection to StimulusPresentationBehaviour--><g class="link" data-entity-1="ent0004" data-entity-2="ent0014" data-link-type="dependency" data-source-line="112" id="lnk31"><path codeLine="112" d="M1076.09,305.5094 C1101.69,306.8194 1121.37,307.6094 1146,307.6094" fill="none" id="StimulusPresenterCollection-to-StimulusPresentationBehaviour" style="stroke:#000000;stroke-width:1;stroke-dasharray:7,7;"/><polygon fill="#000000" points="1152,307.6094,1143,303.6094,1147,307.6094,1143,311.6094,1152,307.6094" style="stroke:#000000;stroke-width:1;"/></g><!--link StimulusPresenterCollection to StimulusPresentationBehaviour--><g class="link" data-entity-1="ent0004" data-entity-2="ent0014" data-link-type="dependency" data-source-line="113" id="lnk32"><path codeLine="113" d="M1076.22,321.1694 C1101.74,323.3094 1121.36,324.6094 1146,324.6094" fill="none" id="StimulusPresenterCollection-to-StimulusPresentationBehaviour-1" style="stroke:#000000;stroke-width:1;stroke-dasharray:7,7;"/><polygon fill="#000000" points="1152,324.6094,1143,320.6094,1147,324.6094,1143,328.6094,1152,324.6094" style="stroke:#000000;stroke-width:1;"/></g><!--link StimulusPresenterCollection to StimulusPresentationBehaviour--><g class="link" data-entity-1="ent0004" data-entity-2="ent0014" data-link-type="dependency" data-source-line="114" id="lnk33"><path codeLine="114" d="M1076.25,335.9294 C1101.7,338.8494 1121.3,340.6094 1146,340.6094" fill="none" id="StimulusPresenterCollection-to-StimulusPresentationBehaviour-2" style="stroke:#000000;stroke-width:1;stroke-dasharray:7,7;"/><polygon fill="#000000" points="1152,340.6094,1143,336.6094,1147,340.6094,1143,344.6094,1152,340.6094" style="stroke:#000000;stroke-width:1;"/></g><?plantuml-src jLXjRzem4FxEh_3O5oODVW2QAgsKJaZTYWhRbwggJ784QyPcjbEDCVxxpWaaZlD2qcryAOdlkNjyzzpPz8tPm1R8ZbCcUeOP3hs5OTkOnvfCEDKQT0z4IDAbdg1Rq3iQ0Cci3Zs2dtnX8Zc7m30fpcls4rXV6MYkG8Cme79ZnzP-xfWs7pnpQkskOKDVc8pL5RcZ1hHPn2iDfW0UZJGeHZdx1I5PC-2X7eqA5czR1NZMFbzTy38S5XuRlH6pOVgH2VFKUP-Vm2p0feckE0pUlGR_ZMdsj-2F8gobuMK2juawY4MnB2-IXIWgeCf39miVmt3GoAK2ym1R-G9TO2ifEL938oPqvtWJkTilPJFiyUcztNyHFPkAU0kA6gbiHlCd9nF7djSjDtliAXOqDGtyDDYTNHfhWUaFDf_1R6H8vd8NyuJ-wSM1BFSx8B_9aaP8g00C9AxaYFJvWEz1MCHamtYeG3XVxzTpYd-CvqaRnKH4Cgusrg5_FPdrZrKbtgKXNodUVzyvRfsO2ZYGVhQLn2kPsgfeEm7xX6h2yTqpLge1bbR51-haRIKq6x-v3wVakRuIFv0zvjIR53CSNfL9Nm8uGSwG5WAsI6-Rf_pc9ufR74VDT8L2ee6vC7SFvVwVwLmLXTN3sUSn5T_2K6NExc-OncDoxyd8XqnnIdO2f5Gk6LaYIweYC3CHiY3PusKc3GX7nLaY9rB9s301fOhL3PfYhZEFXpfYxXnyY4NhJDNWx64Yubrx79nqrnhHFkSNW6MgfNd_LJ2pdxvWMb-PVo_lkJzoxwTwgLWKWOAmDGBbr6YTfBR98it8PGiKO5GCvcJAlO1I4L8LUfjEKuaJ1lDnYzytTTbnfa5YXr5BwzQDGcAfkxhbzRfcVSqbDSHNGX9jZXTK6NP1bEzJwN5-KdIJrw9HjQFBT-RadeVdCPP6eIAVrUbRsMXOUkLCqpENsfvoxEMka_db6PaP9sCQxI5iuHXCMk11Kl2YbQDDNtvB6KMyOPQEpaiZjvj7NLeyuvZ6EXVdHDVAssVhwxUUfZsQg_gekE7iyBXLy2C64UphDzmOhogFIxQ5oHulF2sSDvWSQleiWzJMFRCO98YcPAQCRnNzJvJjRwh4kxuNJOlhTSrk9vG7oKNwYzmoGNdBlHtTIra7eGwb-w-0KSCbS3ok-g7TEocqdOSj_GxPhC1XTjM1wdYS8hj5l8Q8bKxvxf6hXbOt8XNtlCuqAdpqZdy0?></g></svg>