<?plantuml 1.2026.2beta3?><svg xmlns="http://www.w3.org/2000/svg" xmlns:xlink="http://www.w3.org/1999/xlink" contentStyleType="text/css" data-diagram-type="CLASS" height="772px" preserveAspectRatio="none" style="width:827px;height:772px;background:#FFFFFF;" version="1.1" viewBox="0 0 827 772" width="827px" zoomAndPan="magnify"><title>Essential Class Overview</title><defs/><g><g class="title" data-source-line="2"><text fill="#000000" font-family="Verdana" font-size="22" font-weight="bold" lengthAdjust="spacing" textLength="308.2256" x="254.8872" y="35.4209">Essential Class Overview</text></g><!--cluster Selection--><g class="cluster" data-qualified-name="Selection" data-source-line="5" id="ent0003"><path d="M559.5,65.7594 L633.7471,65.7594 A3.75,3.75 0 0 1 636.2471,68.2594 L643.2471,88.0562 L764.5,88.0562 A2.5,2.5 0 0 1 767,90.5562 L767,174.5594 A2.5,2.5 0 0 1 764.5,177.0594 L559.5,177.0594 A2.5,2.5 0 0 1 557,174.5594 L557,68.2594 A2.5,2.5 0 0 1 559.5,65.7594" fill="#FFFFFF" style="stroke:#000000;stroke-width:1;"/><line style="stroke:#000000;stroke-width:1;" x1="557" x2="643.2471" y1="88.0562" y2="88.0562"/><text fill="#000000" font-family="Verdana" font-size="14" font-weight="bold" lengthAdjust="spacing" textLength="73.2471" x="561" y="80.7545">Selection</text></g><!--cluster Stimulus--><g class="cluster" data-qualified-name="Stimulus" data-source-line="15" id="ent0008"><path d="M13.5,571.5794 L83.7275,571.5794 A3.75,3.75 0 0 1 86.2275,574.0794 L93.2275,593.8763 L244.5,593.8763 A2.5,2.5 0 0 1 247,596.3763 L247,745.0794 A2.5,2.5 0 0 1 244.5,747.5794 L13.5,747.5794 A2.5,2.5 0 0 1 11,745.0794 L11,574.0794 A2.5,2.5 0 0 1 13.5,571.5794" fill="#FFFFFF" style="stroke:#000000;stroke-width:1;"/><line style="stroke:#000000;stroke-width:1;" x1="11" x2="93.2275" y1="593.8763" y2="593.8763"/><text fill="#000000" font-family="Verdana" font-size="14" font-weight="bold" lengthAdjust="spacing" textLength="69.2275" x="15" y="586.5745">Stimulus</text></g><!--cluster Presentation--><g class="cluster" data-qualified-name="Stimulus.Presentation" data-source-line="9" id="ent0004"><path d="M37.5,614.5794 L140.1709,614.5794 A3.75,3.75 0 0 1 142.6709,617.0794 L149.6709,636.8763 L220.5,636.8763 A2.5,2.5 0 0 1 223,639.3763 L223,721.0794 A2.5,2.5 0 0 1 220.5,723.5794 L37.5,723.5794 A2.5,2.5 0 0 1 35,721.0794 L35,617.0794 A2.5,2.5 0 0 1 37.5,614.5794" fill="#FFFFFF" style="stroke:#000000;stroke-width:1;"/><line style="stroke:#000000;stroke-width:1;" x1="35" x2="149.6709" y1="636.8763" y2="636.8763"/><text fill="#000000" font-family="Verdana" font-size="14" font-weight="bold" lengthAdjust="spacing" textLength="101.6709" x="39" y="629.5745">Presentation</text></g><!--cluster Behaviours--><g class="cluster" data-qualified-name="Behaviours" data-source-line="14" id="ent0006"><path d="M47.5,57.6094 L136.8271,57.6094 A3.75,3.75 0 0 1 139.3271,60.1094 L146.3271,79.9063 L530.5,79.9063 A2.5,2.5 0 0 1 533,82.4063 L533,545.0794 A2.5,2.5 0 0 1 530.5,547.5794 L47.5,547.5794 A2.5,2.5 0 0 1 45,545.0794 L45,60.1094 A2.5,2.5 0 0 1 47.5,57.6094" fill="#FFFFFF" style="stroke:#000000;stroke-width:1;"/><line style="stroke:#000000;stroke-width:1;" x1="45" x2="146.3271" y1="79.9063" y2="79.9063"/><text fill="#000000" font-family="Verdana" font-size="14" font-weight="bold" lengthAdjust="spacing" textLength="88.3271" x="49" y="72.6045">Behaviours</text></g><!--cluster Trialing--><g class="cluster" data-qualified-name="Behaviours.Trialing" data-source-line="27" id="ent0011"><path d="M71.5,363.3894 L132.7861,363.3894 A3.75,3.75 0 0 1 135.2861,365.8894 L142.2861,385.6863 L294.5,385.6863 A2.5,2.5 0 0 1 297,388.1863 L297,521.0794 A2.5,2.5 0 0 1 294.5,523.5794 L71.5,523.5794 A2.5,2.5 0 0 1 69,521.0794 L69,365.8894 A2.5,2.5 0 0 1 71.5,363.3894" fill="#FFFFFF" style="stroke:#000000;stroke-width:1;"/><line style="stroke:#000000;stroke-width:1;" x1="69" x2="142.2861" y1="385.6863" y2="385.6863"/><text fill="#000000" font-family="Verdana" font-size="14" font-weight="bold" lengthAdjust="spacing" textLength="60.2861" x="73" y="378.3845">Trialing</text></g><!--cluster Training--><g class="cluster" data-qualified-name="Behaviours.Training" data-source-line="36" id="ent0013"><path d="M323.5,395.9894 L389.9541,395.9894 A3.75,3.75 0 0 1 392.4541,398.4894 L399.4541,418.2863 L506.5,418.2863 A2.5,2.5 0 0 1 509,420.7863 L509,488.4894 A2.5,2.5 0 0 1 506.5,490.9894 L323.5,490.9894 A2.5,2.5 0 0 1 321,488.4894 L321,398.4894 A2.5,2.5 0 0 1 323.5,395.9894" fill="#FFFFFF" style="stroke:#000000;stroke-width:1;"/><line style="stroke:#000000;stroke-width:1;" x1="321" x2="399.4541" y1="418.2863" y2="418.2863"/><text fill="#000000" font-family="Verdana" font-size="14" font-weight="bold" lengthAdjust="spacing" textLength="65.4541" x="325" y="410.9845">Training</text></g><!--cluster LSLFramework--><g class="cluster" data-qualified-name="LSLFramework" data-source-line="45" id="ent0018"><path d="M273.5,572.6894 L391.1895,572.6894 A3.75,3.75 0 0 1 393.6895,575.1894 L400.6895,594.9863 L817.5,594.9863 A2.5,2.5 0 0 1 820,597.4863 L820,762.9694 A2.5,2.5 0 0 1 817.5,765.4694 L273.5,765.4694 A2.5,2.5 0 0 1 271,762.9694 L271,575.1894 A2.5,2.5 0 0 1 273.5,572.6894" fill="#FFFFFF" style="stroke:#000000;stroke-width:1;"/><line style="stroke:#000000;stroke-width:1;" x1="271" x2="400.6895" y1="594.9863" y2="594.9863"/><text fill="#000000" font-family="Verdana" font-size="14" font-weight="bold" lengthAdjust="spacing" textLength="116.6895" x="275" y="587.6845">LSLFramework</text></g><!--class ISelector--><g class="entity" data-qualified-name="Selection.ISelector" data-source-line="5" id="ent0002"><rect fill="#FFFFFF" height="60.2969" rx="2.5" ry="2.5" style="stroke:#000000;stroke-width:1;" width="177.1494" x="573.43" y="100.7594"/><ellipse cx="627.4349" cy="114.7594" fill="#FFFFFF" rx="9" ry="9" style="stroke:#000000;stroke-width:1;"/><path d="M623.3568,110.525 L623.3568,108.3687 L630.7474,108.3687 L630.7474,110.525 L628.2786,110.525 L628.2786,118.6031 L630.7474,118.6031 L630.7474,120.7594 L623.3568,120.7594 L623.3568,118.6031 L625.8255,118.6031 L625.8255,110.525 L623.3568,110.525 Z " fill="#000000"/><text fill="#000000" font-family="Verdana" font-size="14" font-style="italic" lengthAdjust="spacing" textLength="61.6396" x="644.9349" y="119.6061">ISelector</text><line style="stroke:#000000;stroke-width:1;" x1="574.43" x2="749.5794" y1="128.7594" y2="128.7594"/><line style="stroke:#000000;stroke-width:1;" x1="574.43" x2="749.5794" y1="136.7594" y2="136.7594"/><text fill="#000000" font-family="Verdana" font-size="14" lengthAdjust="spacing" textLength="165.1494" x="579.43" y="153.7545">void MakeSelection(int)</text></g><!--entity presenters--><g class="entity" data-qualified-name="Stimulus.Presentation.presenters" data-source-line="10" id="ent0005"><ellipse cx="129" cy="678.5794" fill="#FFFFFF" rx="8" ry="8" style="stroke:#000000;stroke-width:1;"/><text fill="#000000" font-family="Verdana" font-size="14" lengthAdjust="spacing" textLength="140.0273" x="58.9863" y="708.5745">Stimulus Presenters</text></g><!--class BCIController--><g class="entity" data-qualified-name="Behaviours.BCIController" data-source-line="15" id="ent0007"><rect fill="#FFFFFF" height="109.1875" rx="2.5" ry="2.5" style="stroke:#000000;stroke-width:1;" width="142.0879" x="264.96" y="229.1994"/><ellipse cx="287.5928" cy="243.1994" fill="#FFFFFF" rx="9" ry="9" style="stroke:#000000;stroke-width:1;"/><path d="M290.5616,248.84 Q289.9834,249.1369 289.3428,249.2775 Q288.7022,249.4338 287.9991,249.4338 Q285.4991,249.4338 284.1709,247.7931 Q282.8584,246.1369 282.8584,243.0119 Q282.8584,239.8869 284.1709,238.2306 Q285.4991,236.5744 287.9991,236.5744 Q288.7022,236.5744 289.3428,236.7306 Q289.9991,236.8869 290.5616,237.1838 L290.5616,239.9025 Q289.9366,239.3244 289.3428,239.0588 Q288.7491,238.7775 288.1241,238.7775 Q286.7803,238.7775 286.0928,239.8556 Q285.4053,240.9181 285.4053,243.0119 Q285.4053,245.1056 286.0928,246.1838 Q286.7803,247.2463 288.1241,247.2463 Q288.7491,247.2463 289.3428,246.9806 Q289.9366,246.6994 290.5616,246.1213 L290.5616,248.84 Z " fill="#000000"/><text fill="#000000" font-family="Verdana" font-size="14" lengthAdjust="spacing" textLength="92.6816" x="301.7334" y="248.0461">BCIController</text><line style="stroke:#000000;stroke-width:1;" x1="265.96" x2="406.0479" y1="257.1994" y2="257.1994"/><line style="stroke:#000000;stroke-width:1;" x1="265.96" x2="406.0479" y1="265.1994" y2="265.1994"/><text fill="#000000" font-family="Verdana" font-size="14" lengthAdjust="spacing" textLength="75.79" x="270.96" y="282.1945">StartTrial()</text><text fill="#000000" font-family="Verdana" font-size="14" lengthAdjust="spacing" textLength="103.4551" x="270.96" y="298.4914">InterruptTrial()</text><text fill="#000000" font-family="Verdana" font-size="14" lengthAdjust="spacing" textLength="102.4229" x="270.96" y="314.7882">StartTraining()</text><text fill="#000000" font-family="Verdana" font-size="14" lengthAdjust="spacing" textLength="130.0879" x="270.96" y="331.0851">InterruptTraining()</text></g><!--class CommunicationComponentProvider--><g class="entity" data-qualified-name="Behaviours.CommunicationComponentProvider" data-source-line="16" id="ent0009"><rect fill="#FFFFFF" height="76.5938" rx="2.5" ry="2.5" style="stroke:#000000;stroke-width:1;" width="361.9551" x="155.02" y="92.6094"/><ellipse cx="207.3379" cy="106.6094" fill="#FFFFFF" rx="9" ry="9" style="stroke:#000000;stroke-width:1;"/><path d="M210.3066,112.25 Q209.7285,112.5469 209.0879,112.6875 Q208.4472,112.8438 207.7441,112.8438 Q205.2441,112.8438 203.916,111.2031 Q202.6035,109.5469 202.6035,106.4219 Q202.6035,103.2969 203.916,101.6406 Q205.2441,99.9844 207.7441,99.9844 Q208.4472,99.9844 209.0879,100.1406 Q209.7441,100.2969 210.3066,100.5938 L210.3066,103.3125 Q209.6816,102.7344 209.0879,102.4688 Q208.4941,102.1875 207.8691,102.1875 Q206.5254,102.1875 205.8379,103.2656 Q205.1504,104.3281 205.1504,106.4219 Q205.1504,108.5156 205.8379,109.5938 Q206.5254,110.6563 207.8691,110.6563 Q208.4941,110.6563 209.0879,110.3906 Q209.6816,110.1094 210.3066,109.5313 L210.3066,112.25 Z " fill="#000000"/><text fill="#000000" font-family="Verdana" font-size="14" lengthAdjust="spacing" textLength="249.8193" x="224.8379" y="111.4561">CommunicationComponentProvider</text><line style="stroke:#000000;stroke-width:1;" x1="156.02" x2="515.9751" y1="120.6094" y2="120.6094"/><line style="stroke:#000000;stroke-width:1;" x1="156.02" x2="515.9751" y1="128.6094" y2="128.6094"/><g data-visibility-modifier="PROTECTED_METHOD"><polygon fill="#FFFFFF" points="166.02,137.2578,170.02,141.2578,166.02,145.2578,162.02,141.2578" style="stroke:#000000;stroke-width:1;"/></g><text fill="#000000" font-family="Verdana" font-size="14" lengthAdjust="spacing" textLength="337.9551" x="173.02" y="145.6045">ProvideCommunicationComponentsToChildren()</text><text fill="#000000" font-family="Verdana" font-size="14" lengthAdjust="spacing" textLength="125.5352" x="173.02" y="161.9014">UpdateClassifier()</text></g><!--class TrialBehaviour--><g class="entity" data-qualified-name="Behaviours.Trialing.TrialBehaviour" data-source-line="28" id="ent0012"><rect fill="#FFFFFF" height="109.1875" rx="2.5" ry="2.5" style="stroke:#000000;stroke-width:1;" width="196.7891" x="84.61" y="398.3894"/><ellipse cx="128.402" cy="412.3894" fill="#FFFFFF" rx="9" ry="9" style="stroke:#000000;stroke-width:1;"/><path d="M128.5114,407.7331 L127.3551,412.8113 L129.6832,412.8113 L128.5114,407.7331 Z M127.027,405.4988 L130.0114,405.4988 L133.3707,417.8894 L130.9176,417.8894 L130.152,414.8269 L126.8707,414.8269 L126.1207,417.8894 L123.6832,417.8894 L127.027,405.4988 Z " fill="#000000"/><text fill="#000000" font-family="Verdana" font-size="14" font-style="italic" lengthAdjust="spacing" textLength="101.7051" x="145.902" y="417.2361">TrialBehaviour</text><line style="stroke:#000000;stroke-width:1;" x1="85.61" x2="280.3991" y1="426.3894" y2="426.3894"/><g data-visibility-modifier="PROTECTED_FIELD"><polygon fill="none" points="95.61,435.0378,99.61,439.0378,95.61,443.0378,91.61,439.0378" style="stroke:#000000;stroke-width:1;"/></g><text fill="#000000" font-family="Verdana" font-size="14" lengthAdjust="spacing" textLength="133.3076" x="102.61" y="443.3845">int? TrainingTarget</text><line style="stroke:#000000;stroke-width:1;" x1="85.61" x2="280.3991" y1="450.6863" y2="450.6863"/><text fill="#000000" font-family="Verdana" font-size="14" lengthAdjust="spacing" textLength="161.4648" x="90.61" y="467.6814">void StartTestingTrial()</text><text fill="#000000" font-family="Verdana" font-size="14" lengthAdjust="spacing" textLength="167.166" x="90.61" y="483.9782">void StartTrainingTrial()</text><text fill="#000000" font-family="Verdana" font-size="14" lengthAdjust="spacing" textLength="184.7891" x="90.61" y="500.2751">void ClearTrainingTarget()</text></g><!--class TrainingBehaviour--><g class="entity" data-qualified-name="Behaviours.Training.TrainingBehaviour" data-source-line="37" id="ent0014"><rect fill="#FFFFFF" height="44" rx="2.5" ry="2.5" style="stroke:#000000;stroke-width:1;" width="156.3379" x="336.83" y="430.9894"/><ellipse cx="349.83" cy="444.9894" fill="#FFFFFF" rx="9" ry="9" style="stroke:#000000;stroke-width:1;"/><path d="M349.9394,440.3331 L348.7831,445.4113 L351.1113,445.4113 L349.9394,440.3331 Z M348.455,438.0988 L351.4394,438.0988 L354.7988,450.4894 L352.3456,450.4894 L351.58,447.4269 L348.2988,447.4269 L347.5488,450.4894 L345.1113,450.4894 L348.455,438.0988 Z " fill="#000000"/><text fill="#000000" font-family="Verdana" font-size="14" font-style="italic" lengthAdjust="spacing" textLength="128.3379" x="361.83" y="449.8361">TrainingBehaviour</text><line style="stroke:#000000;stroke-width:1;" x1="337.83" x2="492.1679" y1="458.9894" y2="458.9894"/><line style="stroke:#000000;stroke-width:1;" x1="337.83" x2="492.1679" y1="466.9894" y2="466.9894"/></g><!--class LSLMarkerWriter--><g class="entity" data-qualified-name="LSLFramework.LSLMarkerWriter" data-source-line="46" id="ent0019"><rect fill="#FFFFFF" height="141.7813" rx="2.5" ry="2.5" style="stroke:#000000;stroke-width:1;" width="255.9199" x="287.04" y="607.6894"/><ellipse cx="352.8881" cy="621.6894" fill="#FFFFFF" rx="9" ry="9" style="stroke:#000000;stroke-width:1;"/><path d="M355.8569,627.33 Q355.2788,627.6269 354.6381,627.7675 Q353.9975,627.9238 353.2944,627.9238 Q350.7944,627.9238 349.4663,626.2831 Q348.1538,624.6269 348.1538,621.5019 Q348.1538,618.3769 349.4663,616.7206 Q350.7944,615.0644 353.2944,615.0644 Q353.9975,615.0644 354.6381,615.2206 Q355.2944,615.3769 355.8569,615.6738 L355.8569,618.3925 Q355.2319,617.8144 354.6381,617.5488 Q354.0444,617.2675 353.4194,617.2675 Q352.0756,617.2675 351.3881,618.3456 Q350.7006,619.4081 350.7006,621.5019 Q350.7006,623.5956 351.3881,624.6738 Q352.0756,625.7363 353.4194,625.7363 Q354.0444,625.7363 354.6381,625.4706 Q355.2319,625.1894 355.8569,624.6113 L355.8569,627.33 Z " fill="#000000"/><text fill="#000000" font-family="Verdana" font-size="14" lengthAdjust="spacing" textLength="116.7236" x="370.3881" y="626.5361">LSLMarkerWriter</text><line style="stroke:#000000;stroke-width:1;" x1="288.04" x2="541.9599" y1="635.6894" y2="635.6894"/><text fill="#000000" font-family="Verdana" font-size="14" lengthAdjust="spacing" textLength="175.6631" x="293.04" y="652.6845">PushTrialStartedMarker()</text><text fill="#000000" font-family="Verdana" font-size="14" lengthAdjust="spacing" textLength="218.0664" x="293.04" y="668.9814">PushTrainingCompleteMarker()</text><text fill="#000000" font-family="Verdana" font-size="14" lengthAdjust="spacing" textLength="13.3506" x="293.04" y="685.2782">...</text><line style="stroke:#000000;stroke-width:1;stroke-dasharray:1,2;" x1="288.04" x2="541.9599" y1="692.58" y2="692.58"/><text fill="#000000" font-family="Verdana" font-size="14" lengthAdjust="spacing" textLength="180.1543" x="293.04" y="709.5751">PushMITrainingMarker(...)</text><text fill="#000000" font-family="Verdana" font-size="14" lengthAdjust="spacing" textLength="243.9199" x="293.04" y="725.872">PushSSVEPClassificationMarker(...)</text><text fill="#000000" font-family="Verdana" font-size="14" lengthAdjust="spacing" textLength="13.3506" x="293.04" y="742.1689">...</text></g><!--class LSLResponseProvider--><g class="entity" data-qualified-name="LSLFramework.LSLResponseProvider" data-source-line="56" id="ent0020"><rect fill="#FFFFFF" height="125.4844" rx="2.5" ry="2.5" style="stroke:#000000;stroke-width:1;" width="226.4297" x="577.79" y="615.8394"/><ellipse cx="612.3368" cy="629.8394" fill="#FFFFFF" rx="9" ry="9" style="stroke:#000000;stroke-width:1;"/><path d="M615.3056,635.48 Q614.7275,635.7769 614.0868,635.9175 Q613.4462,636.0738 612.7431,636.0738 Q610.2431,636.0738 608.915,634.4331 Q607.6025,632.7769 607.6025,629.6519 Q607.6025,626.5269 608.915,624.8706 Q610.2431,623.2144 612.7431,623.2144 Q613.4462,623.2144 614.0868,623.3706 Q614.7431,623.5269 615.3056,623.8238 L615.3056,626.5425 Q614.6806,625.9644 614.0868,625.6988 Q613.4931,625.4175 612.8681,625.4175 Q611.5243,625.4175 610.8368,626.4956 Q610.1493,627.5581 610.1493,629.6519 Q610.1493,631.7456 610.8368,632.8238 Q611.5243,633.8863 612.8681,633.8863 Q613.4931,633.8863 614.0868,633.6206 Q614.6806,633.3394 615.3056,632.7613 L615.3056,635.48 Z " fill="#000000"/><text fill="#000000" font-family="Verdana" font-size="14" lengthAdjust="spacing" textLength="150.5479" x="629.125" y="634.6861">LSLResponseProvider</text><line style="stroke:#000000;stroke-width:1;" x1="578.79" x2="803.2197" y1="643.8394" y2="643.8394"/><text fill="#000000" font-family="Verdana" font-size="14" lengthAdjust="spacing" textLength="126.4922" x="583.79" y="660.8345">float PollingPeriod</text><line style="stroke:#000000;stroke-width:1;" x1="578.79" x2="803.2197" y1="668.1363" y2="668.1363"/><text fill="#000000" font-family="Verdana" font-size="14" lengthAdjust="spacing" textLength="214.4297" x="583.79" y="685.1314">SubscribePredictions(callback)</text><text fill="#000000" font-family="Verdana" font-size="14" lengthAdjust="spacing" textLength="13.3506" x="583.79" y="701.4282">...</text><text fill="#000000" font-family="Verdana" font-size="14" lengthAdjust="spacing" textLength="154.5605" x="583.79" y="717.7251">Unsubscribe(callback)</text><text fill="#000000" font-family="Verdana" font-size="14" lengthAdjust="spacing" textLength="13.3506" x="583.79" y="734.022">...</text></g><!--reverse link CommunicationComponentProvider to BCIController--><g class="link" data-entity-1="ent0009" data-entity-2="ent0007" data-link-type="extension" data-source-line="16" id="lnk10"><path d="M336,187.5894 C336,205.4894 336,209.1994 336,228.8094" fill="none" id="CommunicationComponentProvider-backto-BCIController" style="stroke:#000000;stroke-width:1;"/><polygon fill="none" points="336,169.5894,330,187.5894,342,187.5894,336,169.5894" style="stroke:#000000;stroke-width:1;"/></g><!--link BCIController to TrialBehaviour--><g class="link" data-entity-1="ent0007" data-entity-2="ent0012" data-link-type="dependency" data-source-line="40" id="lnk15"><path codeLine="40" d="M286.75,338.6194 C269.36,357.6094 253.8711,374.5435 236.4711,393.5535" fill="none" id="BCIController-to-TrialBehaviour" style="stroke:#000000;stroke-width:1;"/><polygon fill="#000000" points="232.42,397.9794,241.4472,394.0412,235.7959,394.2911,235.546,388.6398,232.42,397.9794" style="stroke:#000000;stroke-width:1;"/></g><!--link BCIController to TrainingBehaviour--><g class="link" data-entity-1="ent0007" data-entity-2="ent0014" data-link-type="dependency" data-source-line="41" id="lnk16"><path codeLine="41" d="M361.43,338.6194 C376.23,369.9294 391.4868,402.2244 402.3868,425.2944" fill="none" id="BCIController-to-TrainingBehaviour" style="stroke:#000000;stroke-width:1;"/><polygon fill="#000000" points="404.95,430.7194,404.7219,420.8732,402.814,426.1986,397.4886,424.2907,404.95,430.7194" style="stroke:#000000;stroke-width:1;"/></g><!--link CommunicationComponentProvider to ISelector--><g class="link" data-entity-1="ent0009" data-entity-2="ent0002" data-link-type="dependency" data-source-line="42" id="lnk17"><path codeLine="42" d="M517.46,130.9094 C536,130.9094 548.54,130.9094 567.08,130.9094" fill="none" id="CommunicationComponentProvider-to-ISelector" style="stroke:#000000;stroke-width:1;stroke-dasharray:7,7;"/><polygon fill="#000000" points="573.08,130.9094,564.08,126.9094,568.08,130.9094,564.08,134.9094,573.08,130.9094" style="stroke:#000000;stroke-width:1;"/></g><!--reverse link CommunicationComponentProvider to LSLMarkerWriter--><g class="link" data-entity-1="ent0009" data-entity-2="ent0019" data-link-type="aggregation" data-source-line="66" id="lnk21"><path codeLine="66" d="M388.2909,177.6105 C431.5809,218.2305 485.99,279.3094 509,355.3894 C534.75,440.5594 537.68,471.3594 509,555.5794 C502.79,573.7994 492.64,591.4294 481.26,607.3494" fill="none" id="CommunicationComponentProvider-backto-LSLMarkerWriter" style="stroke:#000000;stroke-width:1;"/><polygon fill="none" points="379.54,169.3994,381.1784,176.4219,388.2909,177.6105,386.6525,170.588,379.54,169.3994" style="stroke:#000000;stroke-width:1;"/></g><!--reverse link CommunicationComponentProvider to LSLResponseProvider--><g class="link" data-entity-1="ent0009" data-entity-2="ent0020" data-link-type="aggregation" data-source-line="67" id="lnk22"><path codeLine="67" d="M429.6912,175.6015 C456.8412,191.0415 474.95,205.0694 496,229.1994 C597.42,345.4594 653.12,522.6394 676.9,615.6394" fill="none" id="CommunicationComponentProvider-backto-LSLResponseProvider" style="stroke:#000000;stroke-width:1;"/><polygon fill="none" points="419.26,169.6694,422.4982,176.1125,429.6912,175.6015,426.453,169.1584,419.26,169.6694" style="stroke:#000000;stroke-width:1;"/></g><!--link TrialBehaviour to LSLMarkerWriter--><g class="link" data-entity-1="ent0012" data-entity-2="ent0019" data-link-type="dependency" data-source-line="69" id="lnk23"><path codeLine="69" d="M238.87,507.8294 C269.84,537.6794 304.3997,570.9859 337.7397,603.1159" fill="none" id="TrialBehaviour-to-LSLMarkerWriter" style="stroke:#000000;stroke-width:1;"/><polygon fill="#000000" points="342.06,607.2794,338.3552,598.1539,338.4597,603.8098,332.8038,603.9143,342.06,607.2794" style="stroke:#000000;stroke-width:1;"/></g><!--link TrainingBehaviour to LSLMarkerWriter--><g class="link" data-entity-1="ent0014" data-entity-2="ent0019" data-link-type="dependency" data-source-line="70" id="lnk24"><path codeLine="70" d="M415,475.4194 C415,505.5894 415,555.9794 415,601.5494" fill="none" id="TrainingBehaviour-to-LSLMarkerWriter" style="stroke:#000000;stroke-width:1;"/><polygon fill="#000000" points="415,607.5494,419,598.5494,415,602.5494,411,598.5494,415,607.5494" style="stroke:#000000;stroke-width:1;"/></g><!--reverse link TrialBehaviour to TrainingBehaviour--><g class="link" data-entity-1="ent0012" data-entity-2="ent0014" data-link-type="dependency" data-source-line="71" id="lnk25"><path codeLine="71" d="M287.78,452.9894 C305.99,452.9894 318.21,452.9894 336.42,452.9894" fill="none" id="TrialBehaviour-backto-TrainingBehaviour" style="stroke:#000000;stroke-width:1;stroke-dasharray:7,7;"/><polygon fill="#000000" points="281.78,452.9894,290.78,456.9894,286.78,452.9894,290.78,448.9894,281.78,452.9894" style="stroke:#000000;stroke-width:1;"/></g><!--link TrialBehaviour to presenters--><g class="link" data-entity-1="ent0012" data-entity-2="ent0005" data-link-type="dependency" data-source-line="73" id="lnk26"><path codeLine="73" d="M170,507.8294 C156.64,563.1294 138.3795,638.7673 132.2795,664.0073" fill="none" id="TrialBehaviour-to-presenters" style="stroke:#000000;stroke-width:1;stroke-dasharray:7,7;"/><polygon fill="#000000" points="130.87,669.8394,136.8723,662.0309,132.0446,664.9793,129.0962,660.1516,130.87,669.8394" style="stroke:#000000;stroke-width:1;"/></g><?plantuml-src ZLJ1RgCm4BtxAzpk9Jt05wowKb4hHMfKjAJRimEJPXHZex6XAwtoxsim44n8MqwOUVFclPanD_O09V1A2bJCefN07uq1PL58daXX37zfW1g43yOOAWkq5pdm32Ja5hMAr_vL4__7k7iQZGNVY2ECa9LBksCdnfGemLHTkiMobhM9KuAsccXnFK6Eb3iPjmE6znWWSyk5uTLuR3adf0zm40tgcip0rEb_IDQ9LfQqb40S_bfGXU69BijQOTvLTeTAAqUQacwmWC5B-sHMaDsIwyVgRlouRkjJNLq4UhJh9ghtvOGWvXoSbNvRqm_UVrpEC5kT750M16eYuRKgX8LkfhX7e531kOsT9QTmKa_iZ2MHMnyR-pn1U5LkqB_uu70hw1riWEXsmxS8Z6qni_RDG0FJDLGYGL1ORm8xNVFdySl-V6oqEAK85ocAxcVjk0fQulnYrl4z7ozMU7MUi-SdSgSFJSTWprrW8-W8z4PeWtL9QtFef7PTXSB39fto02-prIB1mWKeZkF9Uv2xMG_PVPR3XknPzkSn7NRFcrw23ZM2Q-6C_NRcjJAmS1VsKWlBKzTlLpu5GbsCiIWwNynwPtB2dQE00hl_abdbGigTo8_B9b-L6P8-GPxQyNmnJHr5y_5yCsLkdB7P5MmtR4vziN5NK07HptXXK-UWsEtb-V_x7m00?></g></svg>