<svg xmlns="http://www.w3.org/2000/svg" xmlns:xlink="http://www.w3.org/1999/xlink" contentStyleType="text/css" data-diagram-type="CLASS" height="533px" preserveAspectRatio="none" style="width:818px;height:533px;background:#FFFFFF;" version="1.1" viewBox="0 0 818 533" width="818px" zoomAndPan="magnify"><?plantuml 1.2026.4beta2?><defs/><g><g class="title" data-source-line="2"><text fill="#000000" font-family="Verdana" font-size="22" font-weight="700" lengthAdjust="spacing" textLength="308.2256" x="253.8872" y="35.4209">Essential Class Overview</text></g><!--cluster LSLFramework--><g class="cluster" data-qualified-name="LSLFramework" data-source-line="21" id="ent0007"><path d="M13.5,325.7994 L131.1895,325.7994 A3.75,3.75 0 0 1 133.6895,328.2994 L140.6895,348.0963 L557.5,348.0963 A2.5,2.5 0 0 1 560,350.5963 L560,516.0794 A2.5,2.5 0 0 1 557.5,518.5794 L13.5,518.5794 A2.5,2.5 0 0 1 11,516.0794 L11,328.2994 A2.5,2.5 0 0 1 13.5,325.7994" fill="#FFFFFF" style="stroke:#000000;stroke-width:1;"/><line style="stroke:#000000;stroke-width:1;" x1="11" x2="140.6895" y1="348.0963" y2="348.0963"/><text fill="#000000" font-family="Verdana" font-size="14" font-weight="700" lengthAdjust="spacing" textLength="116.6895" x="15" y="340.7945">LSLFramework</text></g><!--cluster Stimulus--><g class="cluster" data-qualified-name="Stimulus" data-source-line="50" id="ent0015"><path d="M617.5,192.7994 L687.7275,192.7994 A3.75,3.75 0 0 1 690.2275,195.2994 L697.2275,215.0963 L800.5,215.0963 A2.5,2.5 0 0 1 803,217.5963 L803,299.2994 A2.5,2.5 0 0 1 800.5,301.7994 L617.5,301.7994 A2.5,2.5 0 0 1 615,299.2994 L615,195.2994 A2.5,2.5 0 0 1 617.5,192.7994" fill="#FFFFFF" style="stroke:#000000;stroke-width:1;"/><line style="stroke:#000000;stroke-width:1;" x1="615" x2="697.2275" y1="215.0963" y2="215.0963"/><text fill="#000000" font-family="Verdana" font-size="14" font-weight="700" lengthAdjust="spacing" textLength="69.2275" x="619" y="207.7945">Stimulus</text></g><!--class LSLMarkerWriter--><g class="entity" data-qualified-name="LSLFramework.LSLMarkerWriter" data-source-line="22" id="ent0008"><rect fill="#FFFFFF" height="141.7813" rx="2.5" ry="2.5" style="stroke:#000000;stroke-width:1;" width="255.9199" x="288.04" y="360.7994"/><ellipse cx="353.8881" cy="374.7994" fill="#FFFFFF" rx="9" ry="9" style="stroke:#000000;stroke-width:1;"/><path d="M356.8569,380.44 Q356.2788,380.7369 355.6381,380.8775 Q354.9975,381.0338 354.2944,381.0338 Q351.7944,381.0338 350.4663,379.3931 Q349.1538,377.7369 349.1538,374.6119 Q349.1538,371.4869 350.4663,369.8306 Q351.7944,368.1744 354.2944,368.1744 Q354.9975,368.1744 355.6381,368.3306 Q356.2944,368.4869 356.8569,368.7838 L356.8569,371.5025 Q356.2319,370.9244 355.6381,370.6588 Q355.0444,370.3775 354.4194,370.3775 Q353.0756,370.3775 352.3881,371.4556 Q351.7006,372.5181 351.7006,374.6119 Q351.7006,376.7056 352.3881,377.7838 Q353.0756,378.8463 354.4194,378.8463 Q355.0444,378.8463 355.6381,378.5806 Q356.2319,378.2994 356.8569,377.7213 L356.8569,380.44 Z " fill="#000000"/><text fill="#000000" font-family="Verdana" font-size="14" lengthAdjust="spacing" textLength="116.7236" x="371.3881" y="379.6461">LSLMarkerWriter</text><line style="stroke:#000000;stroke-width:1;" x1="289.04" x2="542.9599" y1="388.7994" y2="388.7994"/><text fill="#000000" font-family="Verdana" font-size="14" lengthAdjust="spacing" textLength="175.6631" x="294.04" y="405.7945">PushTrialStartedMarker()</text><text fill="#000000" font-family="Verdana" font-size="14" lengthAdjust="spacing" textLength="218.0664" x="294.04" y="422.0914">PushTrainingCompleteMarker()</text><text fill="#000000" font-family="Verdana" font-size="14" lengthAdjust="spacing" textLength="13.3506" x="294.04" y="438.3882">...</text><line style="stroke:#000000;stroke-width:1;stroke-dasharray:1,2;" x1="289.04" x2="542.9599" y1="445.69" y2="445.69"/><text fill="#000000" font-family="Verdana" font-size="14" lengthAdjust="spacing" textLength="180.1543" x="294.04" y="462.6851">PushMITrainingMarker(...)</text><text fill="#000000" font-family="Verdana" font-size="14" lengthAdjust="spacing" textLength="243.9199" x="294.04" y="478.982">PushSSVEPClassificationMarker(...)</text><text fill="#000000" font-family="Verdana" font-size="14" lengthAdjust="spacing" textLength="13.3506" x="294.04" y="495.2789">...</text></g><!--class LSLResponseProvider--><g class="entity" data-qualified-name="LSLFramework.LSLResponseProvider" data-source-line="32" id="ent0009"><rect fill="#FFFFFF" height="125.4844" rx="2.5" ry="2.5" style="stroke:#000000;stroke-width:1;" width="226.4297" x="26.79" y="368.9494"/><ellipse cx="61.3368" cy="382.9494" fill="#FFFFFF" rx="9" ry="9" style="stroke:#000000;stroke-width:1;"/><path d="M64.3056,388.59 Q63.7275,388.8869 63.0868,389.0275 Q62.4462,389.1838 61.7431,389.1838 Q59.2431,389.1838 57.915,387.5431 Q56.6025,385.8869 56.6025,382.7619 Q56.6025,379.6369 57.915,377.9806 Q59.2431,376.3244 61.7431,376.3244 Q62.4462,376.3244 63.0868,376.4806 Q63.7431,376.6369 64.3056,376.9338 L64.3056,379.6525 Q63.6806,379.0744 63.0868,378.8088 Q62.4931,378.5275 61.8681,378.5275 Q60.5243,378.5275 59.8368,379.6056 Q59.1493,380.6681 59.1493,382.7619 Q59.1493,384.8556 59.8368,385.9338 Q60.5243,386.9963 61.8681,386.9963 Q62.4931,386.9963 63.0868,386.7306 Q63.6806,386.4494 64.3056,385.8713 L64.3056,388.59 Z " fill="#000000"/><text fill="#000000" font-family="Verdana" font-size="14" lengthAdjust="spacing" textLength="150.5479" x="78.125" y="387.7961">LSLResponseProvider</text><line style="stroke:#000000;stroke-width:1;" x1="27.79" x2="252.2197" y1="396.9494" y2="396.9494"/><text fill="#000000" font-family="Verdana" font-size="14" lengthAdjust="spacing" textLength="126.4922" x="32.79" y="413.9445">float PollingPeriod</text><line style="stroke:#000000;stroke-width:1;" x1="27.79" x2="252.2197" y1="421.2463" y2="421.2463"/><text fill="#000000" font-family="Verdana" font-size="14" lengthAdjust="spacing" textLength="214.4297" x="32.79" y="438.2414">SubscribePredictions(callback)</text><text fill="#000000" font-family="Verdana" font-size="14" lengthAdjust="spacing" textLength="13.3506" x="32.79" y="454.5382">...</text><text fill="#000000" font-family="Verdana" font-size="14" lengthAdjust="spacing" textLength="154.5605" x="32.79" y="470.8351">Unsubscribe(callback)</text><text fill="#000000" font-family="Verdana" font-size="14" lengthAdjust="spacing" textLength="13.3506" x="32.79" y="487.132">...</text></g><!--entity presenters--><g class="entity" data-qualified-name="Stimulus.presenters" data-source-line="51" id="ent0016"><ellipse cx="709" cy="256.7994" fill="#FFFFFF" rx="8" ry="8" style="stroke:#000000;stroke-width:1;"/><text fill="#000000" font-family="Verdana" font-size="14" lengthAdjust="spacing" textLength="140.0273" x="638.9863" y="286.7945">Stimulus Presenters</text></g><!--class BCICommandCentre--><g class="entity" data-qualified-name="BCICommandCentre" data-source-line="5" id="ent0002"><rect fill="#FFFFFF" height="44" rx="2.5" ry="2.5" style="stroke:#000000;stroke-width:1;" width="170.584" x="211.71" y="91.2094"/><ellipse cx="224.71" cy="105.2094" fill="#FFFFFF" rx="9" ry="9" style="stroke:#000000;stroke-width:1;"/><path d="M224.8194,100.5531 L223.6631,105.6313 L225.9913,105.6313 L224.8194,100.5531 Z M223.335,98.3188 L226.3194,98.3188 L229.6788,110.7094 L227.2256,110.7094 L226.46,107.6469 L223.1788,107.6469 L222.4288,110.7094 L219.9913,110.7094 L223.335,98.3188 Z " fill="#000000"/><text fill="#000000" font-family="Verdana" font-size="14" font-style="italic" lengthAdjust="spacing" textLength="142.584" x="236.71" y="110.0561">BCICommandCentre</text><line style="stroke:#000000;stroke-width:1;" x1="212.71" x2="381.294" y1="119.2094" y2="119.2094"/><line style="stroke:#000000;stroke-width:1;" x1="212.71" x2="381.294" y1="127.2094" y2="127.2094"/></g><!--class TrialConductor--><g class="entity" data-qualified-name="TrialConductor" data-source-line="8" id="ent0003"><rect fill="#FFFFFF" height="109.1875" rx="2.5" ry="2.5" style="stroke:#000000;stroke-width:1;" width="196.7891" x="448.61" y="58.6094"/><ellipse cx="491.6808" cy="72.6094" fill="#FFFFFF" rx="9" ry="9" style="stroke:#000000;stroke-width:1;"/><path d="M491.7902,67.9531 L490.6339,73.0313 L492.9621,73.0313 L491.7902,67.9531 Z M490.3058,65.7188 L493.2902,65.7188 L496.6496,78.1094 L494.1964,78.1094 L493.4308,75.0469 L490.1496,75.0469 L489.3996,78.1094 L486.9621,78.1094 L490.3058,65.7188 Z " fill="#000000"/><text fill="#000000" font-family="Verdana" font-size="14" font-style="italic" lengthAdjust="spacing" textLength="103.1475" x="509.1808" y="77.4561">TrialConductor</text><line style="stroke:#000000;stroke-width:1;" x1="449.61" x2="644.3991" y1="86.6094" y2="86.6094"/><g data-visibility-modifier="PROTECTED_FIELD"><polygon fill="none" points="459.61,95.2578,463.61,99.2578,459.61,103.2578,455.61,99.2578" style="stroke:#000000;stroke-width:1;"/></g><text fill="#000000" font-family="Verdana" font-size="14" lengthAdjust="spacing" textLength="133.3076" x="466.61" y="103.6045">int? TrainingTarget</text><line style="stroke:#000000;stroke-width:1;" x1="449.61" x2="644.3991" y1="110.9063" y2="110.9063"/><text fill="#000000" font-family="Verdana" font-size="14" lengthAdjust="spacing" textLength="161.4648" x="454.61" y="127.9014">void StartTestingTrial()</text><text fill="#000000" font-family="Verdana" font-size="14" lengthAdjust="spacing" textLength="167.166" x="454.61" y="144.1982">void StartTrainingTrial()</text><text fill="#000000" font-family="Verdana" font-size="14" lengthAdjust="spacing" textLength="184.7891" x="454.61" y="160.4951">void ClearTrainingTarget()</text></g><!--class AutomatedTrainingConductor--><g class="entity" data-qualified-name="AutomatedTrainingConductor" data-source-line="15" id="ent0004"><rect fill="#FFFFFF" height="44" rx="2.5" ry="2.5" style="stroke:#000000;stroke-width:1;" width="235.4912" x="289.25" y="234.7994"/><ellipse cx="302.25" cy="248.7994" fill="#FFFFFF" rx="9" ry="9" style="stroke:#000000;stroke-width:1;"/><path d="M305.2188,254.44 Q304.6406,254.7369 304,254.8775 Q303.3594,255.0338 302.6563,255.0338 Q300.1563,255.0338 298.8281,253.3931 Q297.5156,251.7369 297.5156,248.6119 Q297.5156,245.4869 298.8281,243.8306 Q300.1563,242.1744 302.6563,242.1744 Q303.3594,242.1744 304,242.3306 Q304.6563,242.4869 305.2188,242.7838 L305.2188,245.5025 Q304.5938,244.9244 304,244.6588 Q303.4063,244.3775 302.7813,244.3775 Q301.4375,244.3775 300.75,245.4556 Q300.0625,246.5181 300.0625,248.6119 Q300.0625,250.7056 300.75,251.7838 Q301.4375,252.8463 302.7813,252.8463 Q303.4063,252.8463 304,252.5806 Q304.5938,252.2994 305.2188,251.7213 L305.2188,254.44 Z " fill="#000000"/><text fill="#000000" font-family="Verdana" font-size="14" lengthAdjust="spacing" textLength="207.4912" x="314.25" y="253.6461">AutomatedTrainingConductor</text><line style="stroke:#000000;stroke-width:1;" x1="290.25" x2="523.7412" y1="262.7994" y2="262.7994"/><line style="stroke:#000000;stroke-width:1;" x1="290.25" x2="523.7412" y1="270.7994" y2="270.7994"/></g><!--reverse link BCICommandCentre to TrialConductor--><g class="link" data-entity-1="ent0002" data-entity-2="ent0003" data-link-type="aggregation" data-source-line="17" id="lnk5"><path codeLine="17" d="M394.45,113.2094 C416.41,113.2094 426.37,113.2094 448.33,113.2094" fill="none" id="BCICommandCentre-backto-TrialConductor" style="stroke:#000000;stroke-width:1;"/><polygon fill="none" points="382.45,113.2094,388.45,117.2094,394.45,113.2094,388.45,109.2094,382.45,113.2094" style="stroke:#000000;stroke-width:1;"/></g><!--reverse link BCICommandCentre to AutomatedTrainingConductor--><g class="link" data-entity-1="ent0002" data-entity-2="ent0004" data-link-type="aggregation" data-source-line="18" id="lnk6"><path codeLine="18" d="M320.8314,144.8762 C341.5714,171.5762 369.63,207.6894 390.42,234.4594" fill="none" id="BCICommandCentre-backto-AutomatedTrainingConductor" style="stroke:#000000;stroke-width:1;"/><polygon fill="none" points="313.47,135.3994,313.9918,142.5916,320.8314,144.8762,320.3096,137.684,313.47,135.3994" style="stroke:#000000;stroke-width:1;"/></g><!--reverse link BCICommandCentre to LSLMarkerWriter--><g class="link" data-entity-1="ent0002" data-entity-2="ent0008" data-link-type="aggregation" data-source-line="42" id="lnk10"><path codeLine="42" d="M282.3273,146.6738 C266.4873,183.9538 244.74,251.3094 272,309.7994 C280.83,328.7294 294.24,345.7594 309.39,360.6394" fill="none" id="BCICommandCentre-backto-LSLMarkerWriter" style="stroke:#000000;stroke-width:1;"/><polygon fill="none" points="287.02,135.6294,280.9922,139.5873,282.3273,146.6738,288.3551,142.7158,287.02,135.6294" style="stroke:#000000;stroke-width:1;"/></g><!--reverse link BCICommandCentre to LSLResponseProvider--><g class="link" data-entity-1="ent0002" data-entity-2="ent0009" data-link-type="aggregation" data-source-line="43" id="lnk11"><path codeLine="43" d="M275.5369,145.6428 C266.3369,159.3928 261.22,167.8094 252,184.7994 C218.93,245.7094 186.72,318.2194 165.4,368.6494" fill="none" id="BCICommandCentre-backto-LSLResponseProvider" style="stroke:#000000;stroke-width:1;"/><polygon fill="none" points="282.21,135.6694,275.549,138.4317,275.5369,145.6428,282.1979,142.8805,282.21,135.6694" style="stroke:#000000;stroke-width:1;"/></g><!--link TrialConductor to LSLMarkerWriter--><g class="link" data-entity-1="ent0003" data-entity-2="ent0008" data-link-type="dependency" data-source-line="45" id="lnk12"><path codeLine="45" d="M556.31,168.0694 C560.87,208.7594 561.76,265.0494 542,309.7994 C533.86,328.2394 525.5082,340.8492 511.5882,355.9392" fill="none" id="TrialConductor-to-LSLMarkerWriter" style="stroke:#000000;stroke-width:1;"/><polygon fill="#000000" points="507.52,360.3494,516.5624,356.4463,510.9102,356.6742,510.6822,351.022,507.52,360.3494" style="stroke:#000000;stroke-width:1;"/></g><!--link AutomatedTrainingConductor to LSLMarkerWriter--><g class="link" data-entity-1="ent0004" data-entity-2="ent0008" data-link-type="dependency" data-source-line="46" id="lnk13"><path codeLine="46" d="M408.1,278.9994 C409.16,299.3794 410.5195,325.3274 412.0395,354.6574" fill="none" id="AutomatedTrainingConductor-to-LSLMarkerWriter" style="stroke:#000000;stroke-width:1;"/><polygon fill="#000000" points="412.35,360.6494,415.8788,351.4544,412.0912,355.6561,407.8896,351.8685,412.35,360.6494" style="stroke:#000000;stroke-width:1;"/></g><!--reverse link TrialConductor to AutomatedTrainingConductor--><g class="link" data-entity-1="ent0003" data-entity-2="ent0004" data-link-type="dependency" data-source-line="47" id="lnk14"><path codeLine="47" d="M489.4514,172.4059 C466.5814,195.5359 445.41,216.9594 428.05,234.5094" fill="none" id="TrialConductor-backto-AutomatedTrainingConductor" style="stroke:#000000;stroke-width:1;stroke-dasharray:7,7;"/><polygon fill="#000000" points="493.67,168.1394,484.4977,171.7268,490.1545,171.6948,490.1865,177.3516,493.67,168.1394" style="stroke:#000000;stroke-width:1;"/></g><!--link TrialConductor to presenters--><g class="link" data-entity-1="ent0003" data-entity-2="ent0016" data-link-type="dependency" data-source-line="54" id="lnk17"><path codeLine="54" d="M608.71,168.1394 C643.22,198.3094 678.1829,228.8602 695.5229,244.0202" fill="none" id="TrialConductor-to-presenters" style="stroke:#000000;stroke-width:1;stroke-dasharray:7,7;"/><polygon fill="#000000" points="700.04,247.9694,695.8972,239.0342,696.2758,244.6784,690.6316,245.057,700.04,247.9694" style="stroke:#000000;stroke-width:1;"/></g><?plantuml-src ZLF1JiCm3BtdAm9SuD1-0G911H8IY8eEE7kf0MjfCZdkE23-dRHRoneA8gSax_dPpt4Ev0qRr6iBv9IGMDHN8Q0J0giB2o7e-mtoXl1TAGNB80n6jEcHo-Acy4q3hYvY1EC-Oy5HeV2kRerurXzAntMaoSbvn68sSgyBu5UK7jbugdKbmBB081tMnH-VfE0GcQA5HU2fReG_bTfMUj6ARq2m7YXZPKgbBhJFakhdADcVcif1Ws4D1lLjTNlDyVJkURLhmxQc2Dm1hv2VcGI75dMhRCDRNq7l6UijRMVtcp1aRTOM1N-GyZpVsqzYxsw6w5rKv4xLg-hfgkpVdrx8W91tSzGXHspqnDX3DEzTm9BzXkg9kHVhGNJfhOtfIsJozOXbsRYjscKmJCieWJMPhe1mRC3Q9PZLlCb75uQWFvYVtLJCFcZo8B-IKdDA9SEUPMS_n7wVbbbwedYQv_-TjqgeQMqRXbaZDl5J7uxNiP_T_qOEXng2Ne_7hYz9sZm_soDy0G00?></g></svg>